<svg width="32" height="32" viewBox="0 0 32 32" fill="none" xmlns="http://www.w3.org/2000/svg">
<g clip-path="url(#clip0_29_70)">
<path d="M3.36667 28.6667C0.913333 26.2133 0.0333328 22.2133 0.0333328 16C0.0333328 9.78666 0.913333 5.81999 3.36667 3.36666C5.82 0.913325 9.82 0.0333252 16.0333 0.0333252C22.2467 0.0333252 26.18 0.913325 28.6667 3.36666C31.1533 5.81999 32 9.81999 32 16.0333C32 22.2467 31.0867 26.2133 28.6667 28.7C26.2467 31.1867 22.2133 32.0333 16 32.0333C9.78667 32.0333 5.82 31.0867 3.36667 28.6667Z" fill="url(#paint0_linear_29_70)"/>
<path d="M19.8667 15.3333C19.666 15.4552 19.4348 15.5177 19.2 15.5133C18.7555 15.5226 18.3123 15.4618 17.8867 15.3333C17.8106 15.3086 17.7326 15.2907 17.6533 15.28C17.5733 15.28 17.5467 15.3333 17.5467 15.44V15.7C17.5483 15.7657 17.5666 15.83 17.6 15.8867C17.6428 15.9329 17.6951 15.9693 17.7533 15.9933C18.2065 16.1752 18.6918 16.2636 19.18 16.2533C19.6563 16.2785 20.1269 16.1397 20.5133 15.86C20.6758 15.7381 20.8062 15.5785 20.8933 15.395C20.9804 15.2115 21.0216 15.0096 21.0133 14.8067C21.0285 14.5171 20.9411 14.2315 20.7667 14C20.5569 13.7734 20.2931 13.6037 20 13.5067L19.26 13.2133C19.0461 13.1526 18.8481 13.0456 18.68 12.9C18.6252 12.8495 18.5824 12.7873 18.5547 12.7181C18.527 12.6489 18.5152 12.5744 18.52 12.5C18.52 12.1067 18.8133 11.8933 19.42 11.8933C19.7598 11.8922 20.0975 11.9462 20.42 12.0533C20.5267 12.0533 20.6067 12.1067 20.6333 12.1067C20.66 12.1067 20.7667 12.0533 20.7667 11.9467V11.6867C20.7651 11.6209 20.7467 11.5567 20.7133 11.5C20.6952 11.4724 20.6716 11.4488 20.6442 11.4304C20.6167 11.4121 20.5858 11.3995 20.5533 11.3933C20.1615 11.2544 19.7491 11.1823 19.3333 11.18C18.89 11.1635 18.4538 11.2948 18.0933 11.5533C17.9413 11.6649 17.8187 11.8118 17.7362 11.9814C17.6537 12.151 17.6138 12.3382 17.62 12.5267C17.619 12.8313 17.7193 13.1276 17.9052 13.369C18.0911 13.6104 18.3519 13.7831 18.6467 13.86L19.44 14.1533C19.6332 14.2121 19.8124 14.3097 19.9667 14.44C20.0149 14.4886 20.0519 14.5473 20.0749 14.6118C20.098 14.6763 20.1065 14.7451 20.1 14.8133C20.1092 14.9128 20.0925 15.0129 20.0516 15.104C20.0107 15.1951 19.947 15.2741 19.8667 15.3333ZM15.7267 11.5333V15.04C15.3352 15.3164 14.8722 15.4739 14.3933 15.4933C14.2765 15.504 14.1587 15.4879 14.049 15.4464C13.9393 15.4048 13.8404 15.3388 13.76 15.2533C13.6131 15.0361 13.547 14.7742 13.5733 14.5133V11.5C13.5733 11.3667 13.52 11.3133 13.3933 11.3133H12.8333C12.7067 11.3133 12.6533 11.3667 12.6533 11.5V14.7733C12.6255 15.1553 12.7474 15.5331 12.9933 15.8267C13.1318 15.9545 13.2948 16.0529 13.4724 16.1159C13.65 16.1789 13.8386 16.2053 14.0267 16.1933C14.6772 16.1818 15.3065 15.9596 15.82 15.56L15.8733 15.88C15.8695 15.9072 15.8745 15.9349 15.8877 15.9589C15.901 15.9829 15.9217 16.0021 15.9467 16.0133C15.9467 16.0133 16.0267 16.0133 16.1067 16.0133H16.5067C16.6333 16.0133 16.6867 15.96 16.6867 15.8267V11.5C16.6867 11.3667 16.6333 11.3133 16.5067 11.3133H15.9333C15.78 11.3333 15.7267 11.3933 15.7267 11.5V11.5333ZM10.7133 16.0667H11.2667C11.4 16.0667 11.4533 16.0133 11.4533 15.88V12.58C11.4682 12.3943 11.4451 12.2075 11.3855 12.031C11.3259 11.8545 11.2311 11.692 11.1067 11.5533C10.9747 11.4256 10.8177 11.3265 10.6457 11.2622C10.4736 11.198 10.2901 11.17 10.1067 11.18C9.43541 11.1977 8.78778 11.4315 8.26 11.8467C8.15449 11.6272 7.98403 11.4455 7.77175 11.3263C7.55947 11.207 7.31563 11.156 7.07333 11.18C6.44533 11.2016 5.83863 11.4131 5.33333 11.7867L5.28 11.5C5.28466 11.4719 5.27917 11.443 5.26452 11.4186C5.24986 11.3942 5.22699 11.3758 5.2 11.3667C5.15687 11.3514 5.1098 11.3514 5.06667 11.3667H4.66667C4.53333 11.3667 4.48 11.42 4.48 11.5533V15.9333C4.48 16.0667 4.53333 16.1133 4.66667 16.1133H5.2C5.33333 16.1133 5.38667 16.0667 5.38667 15.9333V12.3467C5.79481 12.0825 6.2674 11.935 6.75333 11.92C6.85854 11.9076 6.96516 11.9233 7.06235 11.9654C7.15954 12.0076 7.24383 12.0747 7.30667 12.16C7.43453 12.3584 7.49958 12.5907 7.49333 12.8267V15.86C7.49333 15.9933 7.54667 16.0467 7.68 16.0467H8.23333C8.36667 16.0467 8.42 15.9933 8.42 15.86V12.3267C8.81602 12.063 9.27782 11.9152 9.75333 11.9C9.85854 11.8876 9.96516 11.9033 10.0624 11.9454C10.1595 11.9876 10.2438 12.0547 10.3067 12.14C10.4345 12.3384 10.4996 12.5707 10.4933 12.8067V15.84C10.5267 16 10.58 16.0667 10.7133 16.0667ZM25.0933 19.5733C22.2849 20.7529 19.2727 21.3712 16.2267 21.3933C12.1544 21.3976 8.15221 20.3333 4.62 18.3067C4.57134 18.2771 4.51666 18.2589 4.46 18.2533C4.27333 18.2533 4.17333 18.4667 4.35333 18.6467C7.53401 21.5201 11.6736 23.1013 15.96 23.08C19.3471 23.0967 22.6597 22.0855 25.46 20.18C25.9067 19.86 25.54 19.3867 25.0933 19.5733ZM25.0133 12.3733C25.1618 12.2282 25.3401 12.1173 25.5358 12.0482C25.7316 11.9791 25.94 11.9535 26.1467 11.9733C26.4063 11.9681 26.665 12.0041 26.9133 12.08C26.9638 12.0912 27.0162 12.0912 27.0667 12.08C27.1467 12.08 27.2 12.0267 27.2 11.8933V11.6333C27.2024 11.567 27.1838 11.5017 27.1467 11.4467C27.1077 11.4047 27.0628 11.3688 27.0133 11.34C26.687 11.2494 26.3516 11.1957 26.0133 11.18C25.6966 11.1614 25.3796 11.2114 25.0839 11.3264C24.7883 11.4415 24.5209 11.6189 24.3 11.8467C23.8727 12.364 23.656 13.0234 23.6933 13.6933C23.6453 14.352 23.853 15.0039 24.2733 15.5133C24.4923 15.7341 24.7564 15.9049 25.0475 16.0142C25.3386 16.1236 25.6498 16.1687 25.96 16.1467C26.3174 16.169 26.6756 16.1191 27.0133 16C27.0458 15.9938 27.0767 15.9812 27.1042 15.9629C27.1316 15.9446 27.1552 15.9209 27.1733 15.8933C27.1733 15.8933 27.1733 15.7867 27.1733 15.7067V15.4467C27.1733 15.3133 27.12 15.26 27.04 15.26C26.9985 15.2493 26.9549 15.2493 26.9133 15.26C26.6382 15.3413 26.3535 15.3861 26.0667 15.3933C25.8642 15.411 25.6604 15.3843 25.4693 15.3152C25.2782 15.2462 25.1044 15.1363 24.96 14.9933C24.7186 14.6327 24.6145 14.1975 24.6667 13.7667V13.6333C24.6379 13.1864 24.76 12.7427 25.0133 12.3733ZM26.2 22.0533C27.5733 20.8933 27.94 18.4933 27.6467 18.12C27.1716 17.8633 26.6308 17.7542 26.0933 17.8067C25.1709 17.7808 24.2614 18.0291 23.48 18.52C23.2467 18.6733 23.2933 18.8867 23.5333 18.86C24.3533 18.7533 26.2 18.54 26.54 18.9667C26.88 19.3933 26.1733 21.1267 25.8733 21.8933C25.7733 22.1333 25.96 22.2133 26.2 22.0533ZM22.5333 11.3333H22C21.8667 11.3333 21.8133 11.3867 21.8133 11.52V15.9C21.8133 16.0333 21.8667 16.0867 22 16.0867H22.5533C22.68 16.0867 22.7333 16.0333 22.7333 15.9V11.5C22.7338 11.475 22.7287 11.4502 22.7183 11.4275C22.708 11.4047 22.6926 11.3846 22.6734 11.3686C22.6542 11.3526 22.6316 11.3411 22.6074 11.335C22.5831 11.3289 22.5578 11.3283 22.5333 11.3333ZM22.6667 9.52C22.607 9.46436 22.5366 9.42148 22.4598 9.39397C22.383 9.36646 22.3014 9.3549 22.22 9.36C22.1427 9.35538 22.0652 9.36725 21.9928 9.39484C21.9204 9.42242 21.8547 9.46509 21.8 9.52C21.7481 9.57134 21.7072 9.63267 21.6797 9.70028C21.6522 9.76788 21.6387 9.84036 21.64 9.91333C21.6352 9.98771 21.647 10.0622 21.6747 10.1314C21.7024 10.2007 21.7452 10.2628 21.8 10.3133C21.8547 10.3682 21.9204 10.4109 21.9928 10.4385C22.0652 10.4661 22.1427 10.478 22.22 10.4733C22.2957 10.478 22.3715 10.4668 22.4426 10.4406C22.5138 10.4144 22.5787 10.3736 22.6332 10.321C22.6878 10.2683 22.7308 10.2049 22.7595 10.1347C22.7882 10.0645 22.802 9.98913 22.8 9.91333C22.8086 9.84197 22.8012 9.76958 22.7781 9.7015C22.755 9.63342 22.7169 9.57139 22.6667 9.52Z" fill="white"/>
</g>
<defs>
<linearGradient id="paint0_linear_29_70" x1="16" y1="-8.13976e-06" x2="16" y2="32" gradientUnits="userSpaceOnUse">
<stop stop-color="#4400FF"/>
<stop offset="0.13" stop-color="#4400FF"/>
<stop offset="0.25" stop-color="#4104EF"/>
<stop offset="0.5" stop-color="#3A0DC3"/>
<stop offset="1" stop-color="#2B216D"/>
</linearGradient>
<clipPath id="clip0_29_70">
<rect width="32" height="32" fill="white"/>
</clipPath>
</defs>
</svg>
