<svg xmlns="http://www.w3.org/2000/svg" width="32" height="32" fill="none" viewBox="0 0 32 32"><defs><filter id="d" width="25.778" height="23.939" x="3.111" y="4.444" color-interpolation-filters="sRGB" filterUnits="userSpaceOnUse"><feFlood flood-opacity="0" result="BackgroundImageFix"/><feColorMatrix in="SourceAlpha" result="hardAlpha" values="0 0 0 0 0 0 0 0 0 0 0 0 0 0 0 0 0 0 127 0"/><feOffset dy="1.333"/><feGaussianBlur stdDeviation=".667"/><feColorMatrix values="0 0 0 0 0.101961 0 0 0 0 0.137255 0 0 0 0 0.494118 0 0 0 0.15 0"/><feBlend in2="BackgroundImageFix" mode="multiply" result="effect1_dropShadow_649_3414"/><feColorMatrix in="SourceAlpha" result="hardAlpha" values="0 0 0 0 0 0 0 0 0 0 0 0 0 0 0 0 0 0 127 0"/><feOffset dy=".667"/><feColorMatrix values="0 0 0 0 0.101961 0 0 0 0 0.137255 0 0 0 0 0.494118 0 0 0 0.25 0"/><feBlend in2="effect1_dropShadow_649_3414" mode="multiply" result="effect2_dropShadow_649_3414"/><feBlend in="SourceGraphic" in2="effect2_dropShadow_649_3414" result="shape"/><feColorMatrix in="SourceAlpha" result="hardAlpha" values="0 0 0 0 0 0 0 0 0 0 0 0 0 0 0 0 0 0 127 0"/><feOffset dy=".667"/><feComposite in2="hardAlpha" k2="-1" k3="1" operator="arithmetic"/><feColorMatrix values="0 0 0 0 1 0 0 0 0 1 0 0 0 0 1 0 0 0 0.25 0"/><feBlend in2="shape" result="effect3_innerShadow_649_3414"/></filter><filter id="e" width="15.95" height="21.136" x="8.025" y="13.333" color-interpolation-filters="sRGB" filterUnits="userSpaceOnUse"><feFlood flood-opacity="0" result="BackgroundImageFix"/><feColorMatrix in="SourceAlpha" result="hardAlpha" values="0 0 0 0 0 0 0 0 0 0 0 0 0 0 0 0 0 0 127 0"/><feOffset dy="1.333"/><feGaussianBlur stdDeviation=".667"/><feColorMatrix values="0 0 0 0 0.101961 0 0 0 0 0.137255 0 0 0 0 0.494118 0 0 0 0.25 0"/><feBlend in2="BackgroundImageFix" mode="multiply" result="effect1_dropShadow_649_3414"/><feColorMatrix in="SourceAlpha" result="hardAlpha" values="0 0 0 0 0 0 0 0 0 0 0 0 0 0 0 0 0 0 127 0"/><feOffset dy=".667"/><feColorMatrix values="0 0 0 0 0.101961 0 0 0 0 0.137255 0 0 0 0 0.494118 0 0 0 0.2 0"/><feBlend in2="effect1_dropShadow_649_3414" mode="multiply" result="effect2_dropShadow_649_3414"/><feBlend in="SourceGraphic" in2="effect2_dropShadow_649_3414" result="shape"/><feColorMatrix in="SourceAlpha" result="hardAlpha" values="0 0 0 0 0 0 0 0 0 0 0 0 0 0 0 0 0 0 127 0"/><feOffset dy=".667"/><feComposite in2="hardAlpha" k2="-1" k3="1" operator="arithmetic"/><feColorMatrix values="0 0 0 0 1 0 0 0 0 1 0 0 0 0 1 0 0 0 0.7 0"/><feBlend in2="shape" result="effect3_innerShadow_649_3414"/></filter><radialGradient id="c" cx="0" cy="0" r="1" gradientTransform="rotate(90 0 16) scale(21.7778)" gradientUnits="userSpaceOnUse"><stop stop-color="#56CBFF"/><stop stop-color="#56CBFF"/><stop offset="0" stop-color="#40C4FF" stop-opacity=".2"/><stop offset="1" stop-color="#0042F9" stop-opacity=".4"/></radialGradient><linearGradient id="b" x1="16" x2="16" y1="-9.111" y2="37.778" gradientUnits="userSpaceOnUse"><stop stop-color="#0BA7FF"/><stop offset="1" stop-color="#097AFF"/></linearGradient></defs><mask id="a" width="32" height="32" x="0" y="0" maskUnits="userSpaceOnUse" style="mask-type:alpha"><path fill="#000" d="M16 0c12.357 0 16 3.643 16 16s-3.643 16-16 16S0 28.357 0 16 3.643 0 16 0Z"/></mask><g mask="url(#a)"><path fill="url(#b)" d="M-8-8h48v48H-8z"/><path fill="url(#c)" d="M-8-8h48v48H-8z" opacity=".1" style="mix-blend-mode:hard-light"/><g filter="url(#d)"><path fill="#BCE5FB" d="M22.258 25.716A11.546 11.546 0 0 0 27.556 16c0-6.382-5.174-11.556-11.556-11.556C9.618 4.444 4.444 9.618 4.444 16c0 4.076 2.11 7.66 5.298 9.716l.612-1.732A9.766 9.766 0 0 1 6.222 16c0-5.4 4.378-9.778 9.778-9.778S25.778 10.6 25.778 16a9.766 9.766 0 0 1-4.132 7.984l.611 1.732Z"/><path fill="#BCE5FB" d="M20.709 21.329a7.111 7.111 0 1 0-9.418 0l.657-1.861a5.333 5.333 0 1 1 8.104 0l.657 1.86Z"/></g><g filter="url(#e)"><path fill="#F5F5F5" fill-rule="evenodd" d="M11.6 31.803a25.028 25.028 0 0 1-2.242-.325l4.787-13.562a2.667 2.667 0 1 1 3.71 0l4.787 13.562c-.7.136-1.447.244-2.242.325l-1.618-4.584a11.594 11.594 0 0 1-5.564-.001L11.6 31.803Zm4.4-6.47c-.7 0-1.382-.077-2.037-.223L16 19.338l2.037 5.772a9.365 9.365 0 0 1-2.037.223Z" clip-rule="evenodd"/></g></g></svg>