<svg xmlns="http://www.w3.org/2000/svg" width="32" height="32" fill="none" viewBox="0 0 32 32">
  <g clip-path="url(#a)">
    <path fill="#F90" d="M3.366 28.634C.911 26.178 0 22.178 0 16S.91 5.822 3.366 3.366C5.822.911 9.822 0 16 0s10.178.91 12.634 3.366C31.089 5.822 32 9.822 32 16s-.91 10.178-3.366 12.634C26.178 31.089 22.178 32 16 32s-10.178-.91-12.634-3.366Z"/>
    <path stroke="#fff" stroke-linejoin="round" stroke-miterlimit="10" stroke-width="1.5" d="M9.405 6.71c5.092-3.616 12.173-2.388 15.816 2.743a11.438 11.438 0 0 1 1.963 8.487 11.268 11.268 0 0 1-4.588 7.35c-5.093 3.616-12.174 2.388-15.816-2.743-3.643-5.13-2.468-12.221 2.625-15.837Z" clip-rule="evenodd"/>
    <path fill="#fff" fill-rule="evenodd" stroke="#fff" stroke-linejoin="round" stroke-miterlimit="10" stroke-width="1.5" d="m11.394 7.546 14.183 8.455-14.183 8.455V7.546Z" clip-rule="evenodd"/>
    <path fill="#F90" d="M17.942 22.012a.59.59 0 0 1-.607-.608v-5.433a3.441 3.441 0 0 1 .44-1.693 3.19 3.19 0 0 1 1.168-1.185 3.231 3.231 0 0 1 1.67-.435c.627 0 1.187.145 1.679.435.493.29.884.685 1.174 1.185.29.5.434 1.065.434 1.693 0 .627-.133 1.19-.4 1.686a3.09 3.09 0 0 1-1.089 1.18c-.46.29-.98.434-1.56.434-.47 0-.9-.097-1.293-.292a3.063 3.063 0 0 1-1.007-.793v3.218a.6.6 0 0 1-.167.435.586.586 0 0 1-.442.173Zm2.67-3.813a2.03 2.03 0 0 0 1.084-.292c.318-.195.57-.46.757-.798a2.31 2.31 0 0 0 .28-1.138c0-.43-.093-.813-.28-1.15a2.122 2.122 0 0 0-.757-.799 2.032 2.032 0 0 0-1.084-.292 2.046 2.046 0 0 0-1.836 1.091 2.38 2.38 0 0 0-.273 1.15c0 .42.09.8.273 1.138a2.046 2.046 0 0 0 1.836 1.09Zm-7.488.803c-.58 0-1.1-.145-1.562-.435a3.1 3.1 0 0 1-1.09-1.18c-.265-.496-.398-1.058-.398-1.686 0-.628.145-1.192.435-1.692.29-.501.683-.896 1.18-1.186a3.26 3.26 0 0 1 1.673-.434c.62 0 1.176.144 1.668.434.493.29.884.685 1.174 1.186.29.5.436 1.064.436 1.692h-.465c0 .628-.133 1.19-.4 1.686-.266.497-.63.89-1.09 1.18-.46.29-.98.435-1.561.435Zm.238-1.072a2.03 2.03 0 0 0 1.835-1.09c.183-.338.275-.718.275-1.139 0-.429-.092-.812-.275-1.15a2.07 2.07 0 0 0-.75-.798 2.034 2.034 0 0 0-1.085-.292 2.04 2.04 0 0 0-1.078.292c-.321.194-.576.46-.763.799-.186.337-.28.72-.28 1.149 0 .421.094.8.28 1.139.187.337.442.603.763.797a2.04 2.04 0 0 0 1.078.293Zm2.67 1.036a.59.59 0 0 1-.608-.608v-1.823l.226-1.263.99.429v2.657a.59.59 0 0 1-.608.608Z"/>
  </g>
  <defs>
    <clipPath id="a">
      <path fill="#fff" d="M0 0h32v32H0z"/>
    </clipPath>
  </defs>
</svg>
