<svg xmlns="http://www.w3.org/2000/svg" viewBox="0 0 32 32"><defs><clipPath id="anytimeplayer__a"><path fill="#fff" d="M0 0h32v32H0z"/></clipPath></defs><g clip-path="url(#anytimeplayer__a)"><mask id="anytimeplayer__b" width="32" height="32" x="0" y="0" maskUnits="userSpaceOnUse" style="mask-type:alpha"><path d="M16 0c12.357 0 16 3.643 16 16s-3.643 16-16 16S0 28.357 0 16 3.643 0 16 0Z"/></mask><g mask="url(#anytimeplayer__b)"><path fill="#F90" d="M0 0h32v32H0z"/><path fill="#fff" fill-rule="evenodd" d="M16 5.398C10.145 5.398 5.398 10.145 5.398 16S10.145 26.602 16 26.602 26.602 21.855 26.602 16 21.855 5.398 16 5.398ZM3.898 16C3.898 9.316 9.316 3.898 16 3.898S28.102 9.316 28.102 16 22.684 28.102 16 28.102 3.898 22.684 3.898 16Z" clip-rule="evenodd"/><path fill="#fff" fill-rule="evenodd" d="M11.024 6.894a.75.75 0 0 1 .754.008l14.183 8.455a.75.75 0 0 1 0 1.288L11.778 25.1a.75.75 0 0 1-1.134-.644V7.546a.75.75 0 0 1 .38-.652Z" clip-rule="evenodd"/><path fill="#F90" d="M17.942 22.012a.59.59 0 0 1-.607-.608v-5.433a3.441 3.441 0 0 1 .44-1.693 3.19 3.19 0 0 1 1.168-1.185 3.231 3.231 0 0 1 1.67-.435c.627 0 1.187.145 1.679.435.493.29.884.685 1.174 1.185.29.5.434 1.065.434 1.693 0 .627-.133 1.19-.4 1.686a3.09 3.09 0 0 1-1.089 1.18c-.46.29-.98.434-1.56.434-.47 0-.9-.097-1.293-.292a3.063 3.063 0 0 1-1.007-.793v3.218a.6.6 0 0 1-.167.435.586.586 0 0 1-.442.173Zm2.67-3.813a2.03 2.03 0 0 0 1.084-.292c.318-.195.57-.46.757-.798a2.31 2.31 0 0 0 .28-1.138c0-.43-.093-.813-.28-1.15a2.122 2.122 0 0 0-.757-.799 2.032 2.032 0 0 0-1.084-.292 2.046 2.046 0 0 0-1.836 1.091 2.38 2.38 0 0 0-.273 1.15c0 .42.09.8.273 1.138a2.046 2.046 0 0 0 1.836 1.09Zm-4.408-4.19a3.219 3.219 0 0 0-1.174-1.186 3.226 3.226 0 0 0-1.668-.434 3.26 3.26 0 0 0-1.674.434 3.21 3.21 0 0 0-1.18 1.186 3.32 3.32 0 0 0-.434 1.692c0 .628.133 1.19.399 1.686a3.1 3.1 0 0 0 1.09 1.18c.46.29.98.435 1.561.435.58 0 1.1-.145 1.56-.435.29-.182.527-.42.74-.683v.474a.59.59 0 0 0 .608.608.59.59 0 0 0 .608-.608v-2.657a3.31 3.31 0 0 0-.436-1.692Zm-1.007 2.83a2.072 2.072 0 0 1-.75.799 2.04 2.04 0 0 1-1.085.291c-.397 0-.756-.097-1.078-.291a2.109 2.109 0 0 1-.763-.798 2.313 2.313 0 0 1-.28-1.139c0-.429.094-.812.28-1.15.187-.337.442-.604.763-.798a2.041 2.041 0 0 1 1.078-.292 2.029 2.029 0 0 1 1.835 1.091c.183.337.275.72.275 1.149 0 .421-.092.8-.275 1.139Z"/></g></g></svg>