<svg xmlns="http://www.w3.org/2000/svg" width="33" height="33" fill="none" viewBox="0 0 33 33">
  <path fill="url(#a)" fill-rule="evenodd" d="M12.11.955h9.686c3.214 0 4.819 0 6.55.547a6.797 6.797 0 0 1 4.062 4.063c.547 1.73.547 3.335.547 6.549V21.8c0 3.213 0 4.818-.547 6.549a6.798 6.798 0 0 1-4.063 4.063c-1.73.547-3.335.547-6.549.547H12.11c-3.213 0-4.818 0-6.549-.547a6.798 6.798 0 0 1-4.063-4.063c-.546-1.73-.546-3.336-.546-6.55v-9.685c0-3.214 0-4.819.546-6.55a6.794 6.794 0 0 1 4.067-4.062C7.295.955 8.9.955 12.114.955" clip-rule="evenodd"/>
  <path fill="#fff" fill-rule="evenodd" d="M16.967 4.537a11.333 11.333 0 0 0-3.718 22.027.153.153 0 0 0 .202-.166 58.705 58.705 0 0 1-.164-1.161.388.388 0 0 0-.229-.307 9.884 9.884 0 1 1 7.885 0 .388.388 0 0 0-.229.307c-.05.383-.105.773-.164 1.16a.152.152 0 0 0 .202.165 11.332 11.332 0 0 0-3.785-22.025ZM17 17.583a2.638 2.638 0 1 1 0-5.276 2.638 2.638 0 0 1 0 5.276Zm-.004 1.068a3.23 3.23 0 0 1 2.335.838c.25.248.402.578.43.928.063.813.045 1.63-.054 2.438a55.305 55.305 0 0 1-.452 3.647c-.084.62-.21 1.235-.378 1.84a1.823 1.823 0 0 1-1.881 1.12 1.824 1.824 0 0 1-1.881-1.12 13.97 13.97 0 0 1-.379-1.84 55.556 55.556 0 0 1-.452-3.647 12.04 12.04 0 0 1-.052-2.438c.028-.35.18-.679.428-.928a3.224 3.224 0 0 1 2.336-.838Zm5.673-5.15a6.14 6.14 0 0 0-5.908-3.764 6.14 6.14 0 0 0-3.96 10.614.47.47 0 0 1 .148.369c-.022.431-.018.864.013 1.295a.149.149 0 0 1-.232.132 7.591 7.591 0 1 1 8.546-.001.15.15 0 0 1-.233-.133c.029-.43.033-.862.013-1.294a.474.474 0 0 1 .148-.368 6.139 6.139 0 0 0 1.465-6.85Z" clip-rule="evenodd"/>
  <defs>
    <linearGradient id="a" x1=".952" x2=".952" y1=".955" y2="32.959" gradientUnits="userSpaceOnUse">
      <stop stop-color="#F452FF"/>
      <stop offset="1" stop-color="#832BC1"/>
    </linearGradient>
  </defs>
</svg>
