<svg width="32" height="32" viewBox="0 0 32 32" fill="none" xmlns="http://www.w3.org/2000/svg">
<g clip-path="url(#clip0_29_94)">
<path d="M3.36627 28.6337C0.910867 26.1783 0 22.1783 0 16C0 9.82167 0.910867 5.82167 3.36627 3.36627C5.82167 0.910867 9.82167 0 16 0C22.1783 0 26.1783 0.910867 28.6337 3.36627C31.0891 5.82167 32 9.82167 32 16C32 22.1783 31.0891 26.1783 28.6337 28.6337C26.1783 31.0891 22.1783 32 16 32C9.82167 32 5.82167 31.0891 3.36627 28.6337Z" fill="#FE5000"/>
<path d="M15.1822 19.8623C15.1822 22.9756 12.6532 25.4998 9.53378 25.4998C6.41503 25.4998 3.88535 22.9756 3.88535 19.8623C3.88535 16.749 6.41433 14.2255 9.53378 14.2255C12.6532 14.2255 15.1822 16.749 15.1822 19.8623ZM17.9232 6.5H9.86101L20.051 25.5H28.1146L17.9237 6.5H17.9232Z" fill="white"/>
</g>
<defs>
<clipPath id="clip0_29_94">
<rect width="32" height="32" fill="white"/>
</clipPath>
</defs>
</svg>
