<svg xmlns="http://www.w3.org/2000/svg" width="32" height="32" fill="none" viewBox="0 0 32 32">
  <g clip-path="url(#a)">
    <path fill="url(#b)" d="M3.337 28.603C.883 26.15-.03 22.15-.03 15.97c0-6.18.913-10.18 3.367-12.633C5.79.883 9.79-.03 15.97-.03c6.18 0 10.18.913 12.633 3.367C31.057 5.79 31.97 9.79 31.97 15.97c0 6.18-.913 10.18-3.367 12.633-2.453 2.454-6.453 3.367-12.633 3.367-6.18 0-10.18-.913-12.633-3.367Z"/>
    <g filter="url(#c)">
      <path fill="#fff" d="m16.222 21.894 12.814-7.925v2.14l-12.814 7.926L3.408 16.11v-2.14l12.814 7.925Zm-.004-9.91a8.32 8.32 0 0 0-6.913 3.664l.011.001c.1-.09.203-.18.308-.266 3.596-2.95 8.787-2.303 11.623 1.438l1.888-1.167a8.32 8.32 0 0 0-6.917-3.67Zm0 3.64a4.638 4.638 0 0 0-3.783 1.942 4.008 4.008 0 0 1 2.299-.742c1.377 0 2.612.73 3.46 1.886l1.82-1.126h.002a4.637 4.637 0 0 0-3.798-1.96Zm-8.66-3.197c5.274-4.134 12.74-3.027 16.717 2.463l.027.04 1.953-1.204a12.003 12.003 0 0 0-10.037-5.38 11.98 11.98 0 0 0-10.033 5.373c.397-.413.91-.931 1.371-1.292Z"/>
    </g>
  </g>
  <defs>
    <linearGradient id="b" x1="3.337" x2="28.603" y1="3.337" y2="28.603" gradientUnits="userSpaceOnUse">
      <stop stop-color="#FF8909"/>
      <stop offset="1" stop-color="#FFC565"/>
    </linearGradient>
    <clipPath id="a">
      <path fill="#fff" d="M0 0h32v32H0z"/>
    </clipPath>
    <filter id="c" width="27.628" height="17.69" x="2.408" y="7.346" color-interpolation-filters="sRGB" filterUnits="userSpaceOnUse">
      <feFlood flood-opacity="0" result="BackgroundImageFix"/>
      <feColorMatrix in="SourceAlpha" result="hardAlpha" values="0 0 0 0 0 0 0 0 0 0 0 0 0 0 0 0 0 0 127 0"/>
      <feOffset/>
      <feGaussianBlur stdDeviation=".5"/>
      <feColorMatrix values="0 0 0 0 0 0 0 0 0 0 0 0 0 0 0 0 0 0 0.3 0"/>
      <feBlend in2="BackgroundImageFix" result="effect1_dropShadow_628_7872"/>
      <feBlend in="SourceGraphic" in2="effect1_dropShadow_628_7872" result="shape"/>
    </filter>
  </defs>
</svg>
