<svg xmlns="http://www.w3.org/2000/svg" viewBox="0 0 32 32"><defs><linearGradient id="audible__c" x1="3.367" x2="28.633" y1="3.367" y2="28.633" gradientUnits="userSpaceOnUse"><stop stop-color="#FF8909"/><stop offset="1" stop-color="#FFC565"/></linearGradient><clipPath id="audible__a"><path fill="#fff" d="M0 0h32v32H0z"/></clipPath><filter id="audible__d" width="27.628" height="17.69" x="2.408" y="7.346" color-interpolation-filters="sRGB" filterUnits="userSpaceOnUse"><feFlood flood-opacity="0" result="BackgroundImageFix"/><feColorMatrix in="SourceAlpha" result="hardAlpha" values="0 0 0 0 0 0 0 0 0 0 0 0 0 0 0 0 0 0 127 0"/><feOffset/><feGaussianBlur stdDeviation=".5"/><feColorMatrix values="0 0 0 0 0 0 0 0 0 0 0 0 0 0 0 0 0 0 0.3 0"/><feBlend in2="BackgroundImageFix" result="effect1_dropShadow_663_2920"/><feBlend in="SourceGraphic" in2="effect1_dropShadow_663_2920" result="shape"/></filter></defs><g clip-path="url(#audible__a)"><mask id="audible__b" width="32" height="32" x="0" y="0" maskUnits="userSpaceOnUse" style="mask-type:alpha"><path d="M16 0c12.357 0 16 3.643 16 16s-3.643 16-16 16S0 28.357 0 16 3.643 0 16 0Z"/></mask><g mask="url(#audible__b)"><path fill="url(#audible__c)" d="M0 0h32v32H0z"/><g filter="url(#audible__d)"><path fill="#fff" d="m16.222 21.895 12.814-7.926v2.14l-12.814 7.926L3.408 16.11v-2.14l12.814 7.926Zm-.004-9.91a8.32 8.32 0 0 0-6.913 3.663l.011.001a9 9 0 0 1 .308-.266c3.596-2.95 8.787-2.303 11.623 1.438l1.888-1.167a8.32 8.32 0 0 0-6.917-3.67Zm0 3.639a4.638 4.638 0 0 0-3.783 1.942 4.008 4.008 0 0 1 2.299-.741c1.377 0 2.612.729 3.46 1.885l1.82-1.125h.002a4.637 4.637 0 0 0-3.798-1.961Zm-8.66-3.197c5.275-4.134 12.741-3.026 16.718 2.463l.027.04 1.953-1.204a12.003 12.003 0 0 0-10.037-5.38 11.98 11.98 0 0 0-10.033 5.373c.397-.413.91-.931 1.371-1.292Z"/></g></g></g></svg>