<svg xmlns="http://www.w3.org/2000/svg" viewBox="0 0 32 32"><defs><clipPath id="breaker__a"><path fill="#fff" d="M0 0h32v32H0z"/></clipPath></defs><g clip-path="url(#breaker__a)"><mask id="breaker__b" width="32" height="32" x="0" y="0" maskUnits="userSpaceOnUse" style="mask-type:alpha"><path d="M16 0c12.357 0 16 3.643 16 16s-3.643 16-16 16S0 28.357 0 16 3.643 0 16 0Z"/></mask><g mask="url(#breaker__b)"><path fill="#F1F8FF" d="M0 0h32v32H0z"/><path fill="#1269FF" d="M13.755 21.407a19.195 19.195 0 0 0 3.829 6.708 12.203 12.203 0 0 0 7.904-4.417c-2.905.763-5.948.84-8.888.222a3.812 3.812 0 0 1-2.845-2.513Z"/><path fill="#5C9DFF" d="M16 28.217c.53 0 1.059-.034 1.584-.101a19.195 19.195 0 0 1-3.83-6.71 3.813 3.813 0 0 1 .735-3.711 19.172 19.172 0 0 0-4.504 8.942A12.162 12.162 0 0 0 16 28.217Z"/><path fill="#9EC6FF" d="M4.122 18.87a12.24 12.24 0 0 0 5.863 7.767 19.17 19.17 0 0 1 4.512-8.952 3.814 3.814 0 0 1 3.605-1.228 19.245 19.245 0 0 0-13.98 2.414Z"/><path fill="#D1E3FF" d="M18.102 16.457a19.245 19.245 0 0 0-13.98 2.414A12.238 12.238 0 0 1 8.26 6.547a19.279 19.279 0 0 1 12.695 12.399 3.822 3.822 0 0 0-2.853-2.489Z"/><path fill="#fff" d="M27.615 13.796C27.615 8.39 23.11 3.783 16 3.783a12.167 12.167 0 0 0-7.74 2.764 19.266 19.266 0 0 1 12.747 12.557c.112.351.214.725.305 1.085a6.43 6.43 0 0 0 6.304-6.393Z"/><path fill="#003DAD" fill-rule="evenodd" d="M20.725 20.338c-.09-.35-.231-.86-.34-1.202a3.223 3.223 0 0 0-2.399-2.09 3.196 3.196 0 0 0-3.037 1.034 3.014 3.014 0 0 0-.792 2.11c-.005.35.052.696.167 1.025a3.218 3.218 0 0 0 2.4 2.117c2.848.598 5.796.525 8.61-.215l.495-.13.257.927-.132.163A12.804 12.804 0 0 1 16 28.818a13.021 13.021 0 0 1-6.311-1.659 12.841 12.841 0 0 1-6.151-8.148A13.12 13.12 0 0 1 3.182 16a12.794 12.794 0 0 1 4.697-9.918A13.02 13.02 0 0 1 16 3.182c7.385 0 12.217 4.82 12.217 10.614a7.03 7.03 0 0 1-6.897 6.994l-.477.01-.118-.462Zm.803-1.575A19.53 19.53 0 0 0 9.538 6.34 11.293 11.293 0 0 1 16 4.384c6.834 0 11.015 4.39 11.015 9.412a5.825 5.825 0 0 1-5.253 5.764 24.482 24.482 0 0 0-.234-.796ZM4.383 16a11.588 11.588 0 0 1 4.013-8.782 18.43 18.43 0 0 1 10.742 8.94 4.334 4.334 0 0 0-.916-.29 19.845 19.845 0 0 0-13.68 2.063A11.447 11.447 0 0 1 4.383 16Zm10.345.657a4.424 4.424 0 0 0-.682.63 20.115 20.115 0 0 0-4.46 8.4 11.638 11.638 0 0 1-4.77-6.532 18.277 18.277 0 0 1 9.34-2.506c.191 0 .382.003.572.008ZM16 27.617a11.3 11.3 0 0 1-5.333-1.293 18.267 18.267 0 0 1 2.32-5.636c.034.308.1.611.197.906a20.07 20.07 0 0 0 3.204 6.016 11.33 11.33 0 0 1-.388.006Zm1.823-.143a18.366 18.366 0 0 1-2.213-3.24c.28.122.57.213.869.274 2.382.501 4.835.56 7.238.175a11.572 11.572 0 0 1-5.894 2.791Z" clip-rule="evenodd"/></g></g></svg>