<svg xmlns="http://www.w3.org/2000/svg" viewBox="0 0 32 32"><defs><path id="breez__a" fill="#fff" d="M0 0h32v32H0z"/></defs><defs><clipPath id="breez__b"><use href="#breez__a"/></clipPath></defs><g clip-path="url(#breez__b)"><mask id="breez__c" width="32" height="32" x="0" y="0" maskUnits="userSpaceOnUse" style="mask-type:alpha"><path d="M16 0c12.357 0 16 3.643 16 16s-3.643 16-16 16S0 28.357 0 16 3.643 0 16 0Z"/></mask><g mask="url(#breez__c)"><use href="#breez__a"/><path fill="#0D6EFD" fill-rule="evenodd" d="M16.88 6.88a1 1 0 0 1 1 1v.5h.49c2.212 0 4 1.788 4 4 0 .916-.307 1.76-.823 2.433a4.504 4.504 0 0 1 2.573 4.067c0 2.482-2.018 4.5-4.5 4.5h-1.74v.5a1 1 0 1 1-2 0v-.5h-3.51a1 1 0 1 1 0-2h7.25c1.378 0 2.5-1.122 2.5-2.5s-1.122-2.5-2.5-2.5h-2a1 1 0 1 1 0-2h.75c1.108 0 2-.892 2-2s-.892-2-2-2h-4.23a1 1 0 1 1 0-2h1.74v-.5a1 1 0 0 1 1-1Zm-5 4.5a1 1 0 1 0 0 2h5a1 1 0 1 0 0-2h-5Zm-4 3a1 1 0 1 0 0 2h5a1 1 0 1 0 0-2h-5Zm1 4.24a1 1 0 0 1 1-1h7a1 1 0 1 1 0 2h-7a1 1 0 0 1-1-1Z" clip-rule="evenodd"/></g></g></svg>