<svg xmlns="http://www.w3.org/2000/svg" viewBox="0 0 32 32"><defs><clipPath id="bullhorn__a"><path fill="#fff" d="M0 0h32v32H0z"/></clipPath></defs><g clip-path="url(#bullhorn__a)"><mask id="bullhorn__b" width="32" height="32" x="0" y="0" maskUnits="userSpaceOnUse" style="mask-type:alpha"><path d="M16 0c12.357 0 16 3.643 16 16s-3.643 16-16 16S0 28.357 0 16 3.643 0 16 0Z"/></mask><g mask="url(#bullhorn__b)"><path fill="#F5F5F5" d="M0 0h32v32H0z"/><path fill="#FF866A" fill-rule="evenodd" d="M7.327 17.64s4.42-2.707 6.006-6.247c.82 2.534 1.167 3.387 1.167 3.387s-3.733 3.493-6.687 4.78l-.48-1.913-.006-.007Z" clip-rule="evenodd"/><path fill="#C1462C" fill-rule="evenodd" d="M21.767 12.4c2.226 3.86 2.693 7.76 1.033 8.72-1.66.953-4.807-1.393-7.033-5.253-2.227-3.86-2.694-7.76-1.034-8.72 1.66-.954 4.807 1.393 7.034 5.253Z" clip-rule="evenodd"/><path fill="#FF5B36" fill-rule="evenodd" d="M5.853 21.627c-.746-1.287-.886-2.62-.613-3.36.08-.214.16-.347.253-.434l-1.16.674c-1.166.673-1.333 2.56-.38 4.22.96 1.66 2.68 2.453 3.847 1.78l1.2-.694c-.16.06-.313.06-.533.02-.78-.133-1.86-.92-2.607-2.213m12.4-9.247-1.453.327c.246.647.573 1.353.973 2.047.4.693.84 1.32 1.287 1.866l1.013-1.1a.5.5 0 0 0 .087-.546c-.187-.407-.4-.82-.634-1.234-.24-.413-.493-.8-.753-1.166a.504.504 0 0 0-.52-.194Z" clip-rule="evenodd"/><path fill="#FF5B36" fill-rule="evenodd" d="M22.393 20.413c-1.006.58-3.98-1.433-5.966-4.886-1.994-3.454-2.214-7.054-1.247-7.614.967-.56 3.973 1.44 5.96 4.894 1.993 3.453 2.26 7.026 1.253 7.606Zm-8.526-5.94c-1.754 1.847-4.534 3.634-5.687 4.34a5.011 5.011 0 0 1-.253-1.08c2.993-1.86 4.466-3.52 5.3-5 .133.447.373 1.127.64 1.74Zm.233-8.14c-.46.267-.7.754-.86 1.26-.273.854-.187 1.774-.613 3.067-.767 2.313-2.554 4.54-4.827 5.853l-1.36.787c-.58.333-.713 2.2.247 3.86.72 1.24 1.84 2.013 2.6 2.18a.74.74 0 0 1 .44.253c.24.294.526.627.833.96 1.073 1.16 2.207 2.08 3.287 2.694.333.186.74.206 1.093.046.58-.266 1.107-.526 1.58-.766a.348.348 0 0 0 0-.62c-.653-.347-1.32-.814-1.987-1.374 0 0 .08-.186.134-.386a2.07 2.07 0 0 1 .04-.16.368.368 0 0 0-.107-.334c-.16-.153-.327-.306-.48-.466a.798.798 0 0 0-.967-.134.736.736 0 0 1-.1.054c-.286-.307-.473-.527-.666-.754-.08-.093-.154-.186-.24-.293 2.093-.953 4.506-1.233 6.593-.8 1.327.273 2.087.813 2.96 1 .513.113 1.06.153 1.52-.113 2.107-1.22 1.773-5.74-.747-10.107-2.52-4.367-6.273-6.913-8.38-5.7m12.76 2.227L24.46 10.06c-.34.2-.46.64-.26.98.2.34.64.46.98.26l2.487-1.327a.493.493 0 0 0 .193-.673l-.327-.567a.485.485 0 0 0-.68-.166Zm2.34 6.166-2.793.387a.718.718 0 0 0 .147 1.427l2.813-.194a.48.48 0 0 0 .447-.533l-.067-.653a.49.49 0 0 0-.547-.434Zm-7.406-7.62 1.726-2.226a.486.486 0 0 0-.1-.694l-.533-.386a.486.486 0 0 0-.687.12l-1.573 2.34a.723.723 0 0 0 .16 1.006c.32.234.773.16 1.007-.16Z" clip-rule="evenodd"/></g></g></svg>