<svg xmlns="http://www.w3.org/2000/svg" width="32" height="32" fill="none" viewBox="0 0 32 32"><defs><linearGradient id="b" x1="0" x2="0" y1="0" y2="32" gradientUnits="userSpaceOnUse"><stop stop-color="#00CCBF"/><stop offset="1" stop-color="#00B265"/></linearGradient><linearGradient id="c" x1="3.335" x2="3.335" y1="3.318" y2="28.657" gradientUnits="userSpaceOnUse"><stop stop-color="#151515"/><stop offset="1" stop-color="#353535"/></linearGradient><linearGradient id="d" x1="6.954" x2="6.954" y1="6.945" y2="23.246" gradientUnits="userSpaceOnUse"><stop offset=".3" stop-color="#fff"/><stop offset="1" stop-color="#9CC0B7"/></linearGradient></defs><mask id="a" width="32" height="32" x="0" y="0" maskUnits="userSpaceOnUse" style="mask-type:alpha"><path fill="#000" d="M16 0c12.357 0 16 3.643 16 16s-3.643 16-16 16S0 28.357 0 16 3.643 0 16 0Z"/></mask><g mask="url(#a)"><path fill="url(#b)" d="M0 0h32v32H0z"/><path fill="url(#c)" fill-rule="evenodd" d="M16 3.335c6.996 0 12.667 5.671 12.667 12.667 0 6.996-5.671 12.667-12.667 12.667-6.996 0-12.667-5.671-12.667-12.667C3.333 9.006 9.004 3.335 16 3.335Z" clip-rule="evenodd"/><path fill="url(#d)" fill-rule="evenodd" d="m19.147 20.28 2.123 2.945a9.001 9.001 0 1 0-10.563.015l2.125-2.947a5.367 5.367 0 1 1 6.315-.013Zm-.983-4.342a2.165 2.165 0 1 0-4.331 0 2.165 2.165 0 0 0 4.33 0Z" clip-rule="evenodd"/></g></svg>