<svg xmlns="http://www.w3.org/2000/svg" width="33" height="33" fill="none" viewBox="0 0 33 33">
  <path fill="url(#a)" fill-rule="evenodd" d="M12.11.955h9.686c3.214 0 4.819 0 6.55.547a6.797 6.797 0 0 1 4.062 4.063c.547 1.73.547 3.335.547 6.549V21.8c0 3.213 0 4.818-.547 6.549a6.798 6.798 0 0 1-4.063 4.063c-1.73.547-3.335.547-6.549.547H12.11c-3.213 0-4.818 0-6.549-.547a6.798 6.798 0 0 1-4.063-4.063c-.546-1.73-.546-3.336-.546-6.55v-9.685c0-3.214 0-4.819.546-6.55a6.794 6.794 0 0 1 4.067-4.062C7.295.955 8.9.955 12.114.955" clip-rule="evenodd"/>
  <g filter="url(#b)">
    <path fill="#000" d="M23.106 18.895c-.478.31-2.388 1.52-4.722 2.663-1.06.467-2.104.805-2.903.805-2.356 0-2.356-3.98-2.356-5.363 0-1.382 0-5.362 2.356-5.362.785 0 1.804.325 2.844.779a47.903 47.903 0 0 1 4.897 2.767l3.85-3.863c-3.775-2.577-9.999-5.842-13.748-5.842-3.75 0-4.985 4.575-5.043 11.524-.07 8.334 2.011 11.518 5.029 11.518h.007c3.712 0 10.712-3.602 13.75-5.844l-3.848-3.858-.113.077Z"/>
  </g>
  <path fill="url(#c)" d="M18.387 21.556c-2.378 1.165-5.197 2.26-7.394 2.26-1.074 0-1.799-.358-2.278-.91-.3-1.582-.453-3.535-.434-5.903V17c.02-2.262.164-4.272.48-5.954.478-.523 1.191-.858 2.232-.858 2.178 0 4.969 1.076 7.335 2.23-1.041-.455-2.062-.78-2.847-.78-2.356 0-2.356 3.98-2.356 5.362 0 1.382 0 5.363 2.356 5.363.8 0 1.844-.339 2.906-.807Z"/>
  <path fill="url(#d)" d="M10.993 23.815c-1.075 0-1.799-.358-2.278-.91.755 3.984 2.435 5.615 4.595 5.615h.007c3.712 0 10.713-3.602 13.75-5.843L23.22 18.82c-.092.06-7.565 4.995-12.228 4.995Zm-2.232-12.77c.654-3.485 2.042-5.566 4.563-5.566 3.75 0 9.973 3.264 13.748 5.841l-3.85 3.863s-7.537-4.996-12.229-4.996c-1.04 0-1.753.336-2.232.858Z"/>
  <path fill="url(#e)" d="m8.763 23.147-.048-.241c.479.552 1.203.91 2.278.91 4.663 0 12.136-4.935 12.228-4.995l3.846 3.856-.108.08-3.738-3.749c-.092.06-7.565 4.995-12.227 4.995-1.04 0-1.752-.335-2.23-.856h-.001Zm14.459-8.151S15.685 10 10.993 10c-1.008 0-1.708.315-2.186.81l-.046.236c.479-.523 1.191-.858 2.232-.858 4.692 0 12.229 4.995 12.229 4.995l3.85-3.863-.111-.075-3.74 3.75Z"/>
  <defs>
    <linearGradient id="a" x1="17.015" x2="17.015" y1=".857" y2="32.857" gradientUnits="userSpaceOnUse">
      <stop stop-color="#FF5960" stop-opacity=".96"/>
      <stop offset=".14" stop-color="#FF3A42" stop-opacity=".97"/>
      <stop offset=".85" stop-color="#FF3A42" stop-opacity=".99"/>
      <stop offset="1" stop-color="#E51231"/>
    </linearGradient>
    <linearGradient id="c" x1="8.28" x2="18.387" y1="17.002" y2="17.002" gradientUnits="userSpaceOnUse">
      <stop stop-color="#FCFCFC"/>
      <stop offset="1" stop-color="#8C8C8C"/>
    </linearGradient>
    <linearGradient id="d" x1="8.715" x2="27.072" y1="17" y2="17" gradientUnits="userSpaceOnUse">
      <stop stop-color="#fff"/>
      <stop offset="1" stop-color="#F4F4F4"/>
    </linearGradient>
    <linearGradient id="e" x1="8.715" x2="27.072" y1="17.002" y2="17.002" gradientUnits="userSpaceOnUse">
      <stop stop-color="#fff"/>
      <stop offset="1" stop-color="#fff"/>
    </linearGradient>
    <filter id="b" width="19.918" height="24.167" x="7.717" y="5.354" color-interpolation-filters="sRGB" filterUnits="userSpaceOnUse">
      <feFlood flood-opacity="0" result="BackgroundImageFix"/>
      <feColorMatrix in="SourceAlpha" result="hardAlpha" values="0 0 0 0 0 0 0 0 0 0 0 0 0 0 0 0 0 0 127 0"/>
      <feOffset dy=".438"/>
      <feGaussianBlur stdDeviation=".281"/>
      <feColorMatrix values="0 0 0 0 0 0 0 0 0 0 0 0 0 0 0 0 0 0 0.33 0"/>
      <feBlend in2="BackgroundImageFix" result="effect1_dropShadow_607_11821"/>
      <feBlend in="SourceGraphic" in2="effect1_dropShadow_607_11821" result="shape"/>
    </filter>
  </defs>
</svg>
