<svg xmlns="http://www.w3.org/2000/svg" fill="none" viewBox="0 0 32 32"><defs><linearGradient id="castro__c" x1="0" x2="0" y1="0" y2="32" gradientUnits="userSpaceOnUse"><stop stop-color="#00CCBF"/><stop offset="1" stop-color="#00B265"/></linearGradient><linearGradient id="castro__d" x1="15.951" x2="16" y1="0" y2="32" gradientUnits="userSpaceOnUse"><stop stop-color="#0DAE71"/><stop offset="1" stop-color="#0D9376"/></linearGradient><filter id="castro__e" width="36.308" height="33.846" x="-2.154" y="-1.231" color-interpolation-filters="sRGB" filterUnits="userSpaceOnUse"><feFlood flood-opacity="0" result="BackgroundImageFix"/><feBlend in="SourceGraphic" in2="BackgroundImageFix" result="shape"/><feGaussianBlur result="effect1_foregroundBlur_663_2954" stdDeviation="3.077"/></filter><filter id="castro__f" width="76.8" height="73.97" x="-22.4" y=".892" color-interpolation-filters="sRGB" filterUnits="userSpaceOnUse"><feFlood flood-opacity="0" result="BackgroundImageFix"/><feColorMatrix in="SourceAlpha" result="hardAlpha" values="0 0 0 0 0 0 0 0 0 0 0 0 0 0 0 0 0 0 127 0"/><feOffset dy="1.508"/><feGaussianBlur stdDeviation=".878"/><feColorMatrix values="0 0 0 0 0 0 0 0 0 0 0 0 0 0 0 0 0 0 0.14944 0"/><feBlend in2="BackgroundImageFix" result="effect1_dropShadow_663_2954"/><feColorMatrix in="SourceAlpha" result="hardAlpha" values="0 0 0 0 0 0 0 0 0 0 0 0 0 0 0 0 0 0 127 0"/><feOffset dy="5.065"/><feGaussianBlur stdDeviation="2.948"/><feColorMatrix values="0 0 0 0 0 0 0 0 0 0 0 0 0 0 0 0 0 0 0.22056 0"/><feBlend in2="effect1_dropShadow_663_2954" result="effect2_dropShadow_663_2954"/><feColorMatrix in="SourceAlpha" result="hardAlpha" values="0 0 0 0 0 0 0 0 0 0 0 0 0 0 0 0 0 0 127 0"/><feOffset dy="22.677"/><feGaussianBlur stdDeviation="13.2"/><feColorMatrix values="0 0 0 0 0 0 0 0 0 0 0 0 0 0 0 0 0 0 0.37 0"/><feBlend in2="effect2_dropShadow_663_2954" result="effect3_dropShadow_663_2954"/><feBlend in="SourceGraphic" in2="effect3_dropShadow_663_2954" result="shape"/></filter><clipPath id="castro__a"><path fill="#fff" d="M0 0h32v32H0z"/></clipPath></defs><g clip-path="url(#castro__a)"><mask id="castro__b" width="32" height="32" x="0" y="0" maskUnits="userSpaceOnUse" style="mask-type:alpha"><path fill="#000" d="M16 0c12.357 0 16 3.643 16 16s-3.643 16-16 16S0 28.357 0 16 3.643 0 16 0Z"/></mask><g mask="url(#castro__b)"><path fill="url(#castro__c)" d="M0 0h32v32H0z"/><path fill="url(#castro__d)" d="M32 0H0v32h32V0Z"/><g fill="#A9FF9B" fill-opacity=".4" filter="url(#castro__e)"><path d="M4.573 20.441a11.893 11.893 0 0 0 4.337 5.962l2.962-4.007a6.925 6.925 0 0 1-2.526-3.471 6.861 6.861 0 0 1 .017-4.28 6.927 6.927 0 0 1 2.553-3.45 7.032 7.032 0 0 1 4.113-1.306 7.031 7.031 0 0 1 4.102 1.34 6.924 6.924 0 0 1 2.524 3.472 6.86 6.86 0 0 1-.02 4.28 6.927 6.927 0 0 1-2.555 3.45l2.928 4.03a11.895 11.895 0 0 0 4.387-5.925c.795-2.384.807-4.957.034-7.348a11.893 11.893 0 0 0-4.334-5.964 12.075 12.075 0 0 0-7.044-2.3 12.077 12.077 0 0 0-7.065 2.241 11.895 11.895 0 0 0-4.384 5.928 11.782 11.782 0 0 0-.029 7.348Z"/><ellipse cx="16.005" cy="16.81" rx="2.815" ry="2.79"/></g><g fill="#fff" filter="url(#castro__f)"><path d="M7.517 24.912a11.87 11.87 0 0 1-2.944-4.778 11.782 11.782 0 0 1 .03-7.349 11.896 11.896 0 0 1 4.383-5.928 12.077 12.077 0 0 1 7.064-2.242c2.535.011 5.001.816 7.045 2.301a11.893 11.893 0 0 1 4.334 5.964c.773 2.392.76 4.964-.034 7.349a11.872 11.872 0 0 1-2.984 4.753c-.572.558-.859.836-1.279.8-.42-.036-.68-.393-1.2-1.109l-1.122-1.545c-.327-.451-.49-.677-.474-.9.016-.225.24-.454.686-.912a6.91 6.91 0 0 0 1.613-2.643 6.86 6.86 0 0 0 .02-4.28 6.925 6.925 0 0 0-2.524-3.472 7.031 7.031 0 0 0-4.102-1.34 7.032 7.032 0 0 0-4.113 1.306 6.926 6.926 0 0 0-2.553 3.451 6.86 6.86 0 0 0-.017 4.28 6.91 6.91 0 0 0 1.59 2.656c.444.461.665.692.68.917.014.224-.151.448-.482.896l-1.136 1.537c-.525.71-.788 1.066-1.209 1.099-.42.032-.704-.25-1.272-.811Z"/><circle cx="16.005" cy="16.305" r="3.385"/></g></g></g></svg>