<svg xmlns="http://www.w3.org/2000/svg" viewBox="0 0 32 32"><defs><linearGradient id="castamatic__c" x1="16" x2="16" y1="0" y2="32" gradientUnits="userSpaceOnUse"><stop stop-color="#FF5960" stop-opacity=".964"/><stop offset=".144" stop-color="#FF3A42" stop-opacity=".973"/><stop offset=".848" stop-color="#FF3A42" stop-opacity=".994"/><stop offset="1" stop-color="#E51231"/></linearGradient><linearGradient id="castamatic__e" x1="7.28" x2="17.387" y1="16.002" y2="16.002" gradientUnits="userSpaceOnUse"><stop stop-color="#FCFCFC"/><stop offset="1" stop-color="#8C8C8C"/></linearGradient><linearGradient id="castamatic__f" x1="7.715" x2="26.072" y1="16" y2="16" gradientUnits="userSpaceOnUse"><stop stop-color="#fff"/><stop offset="1" stop-color="#F4F4F4"/></linearGradient><linearGradient id="castamatic__g" x1="7.715" x2="26.072" y1="16.002" y2="16.002" gradientUnits="userSpaceOnUse"><stop stop-color="#fff"/><stop offset="1" stop-color="#fff"/></linearGradient><clipPath id="castamatic__a"><path fill="#fff" d="M0 0h32v32H0z"/></clipPath><filter id="castamatic__d" width="19.918" height="24.167" x="6.717" y="4.354" color-interpolation-filters="sRGB" filterUnits="userSpaceOnUse"><feFlood flood-opacity="0" result="BackgroundImageFix"/><feColorMatrix in="SourceAlpha" result="hardAlpha" values="0 0 0 0 0 0 0 0 0 0 0 0 0 0 0 0 0 0 127 0"/><feOffset dy=".438"/><feGaussianBlur stdDeviation=".281"/><feColorMatrix values="0 0 0 0 0 0 0 0 0 0 0 0 0 0 0 0 0 0 0.33 0"/><feBlend in2="BackgroundImageFix" result="effect1_dropShadow_663_2934"/><feBlend in="SourceGraphic" in2="effect1_dropShadow_663_2934" result="shape"/></filter></defs><g clip-path="url(#castamatic__a)"><mask id="castamatic__b" width="32" height="32" x="0" y="0" maskUnits="userSpaceOnUse" style="mask-type:alpha"><path d="M16 0c12.357 0 16 3.643 16 16s-3.643 16-16 16S0 28.357 0 16 3.643 0 16 0Z"/></mask><g mask="url(#castamatic__b)"><path fill="url(#castamatic__c)" d="M0 0h32v32H0z"/><g filter="url(#castamatic__d)"><path d="M22.106 17.895c-.478.31-2.388 1.52-4.722 2.663-1.06.467-2.104.805-2.903.805-2.356 0-2.356-3.98-2.356-5.363 0-1.382 0-5.362 2.356-5.362.785 0 1.804.325 2.844.779a47.903 47.903 0 0 1 4.897 2.767l3.85-3.863c-3.775-2.577-9.999-5.842-13.748-5.842-3.75 0-4.985 4.575-5.043 11.524-.07 8.334 2.011 11.518 5.029 11.518h.007c3.712 0 10.712-3.602 13.75-5.844l-3.848-3.858-.113.077Z"/></g><path fill="url(#castamatic__e)" d="M17.387 20.556c-2.378 1.165-5.197 2.26-7.393 2.26-1.075 0-1.8-.358-2.279-.91-.3-1.582-.453-3.535-.434-5.903V16c.02-2.262.164-4.272.48-5.954.478-.523 1.191-.858 2.233-.858 2.177 0 4.968 1.076 7.334 2.23-1.041-.455-2.062-.78-2.847-.78-2.356 0-2.356 3.98-2.356 5.362 0 1.382 0 5.363 2.356 5.363.8 0 1.844-.339 2.906-.807Z"/><path fill="url(#castamatic__f)" d="M9.993 22.815c-1.075 0-1.799-.358-2.278-.91.755 3.984 2.435 5.615 4.595 5.615h.007c3.712 0 10.713-3.602 13.75-5.843L22.22 17.82c-.092.06-7.565 4.995-12.228 4.995Zm-2.232-12.77C8.415 6.56 9.803 4.48 12.324 4.48c3.75 0 9.973 3.264 13.748 5.841l-3.85 3.863S14.685 9.187 9.993 9.187c-1.04 0-1.753.336-2.232.858Z"/><path fill="url(#castamatic__g)" d="m7.763 22.147-.048-.241c.479.552 1.203.91 2.278.91 4.663 0 12.136-4.935 12.228-4.995l3.846 3.856-.108.08-3.738-3.749c-.092.06-7.565 4.995-12.227 4.995-1.04 0-1.752-.335-2.23-.856h-.001Zm14.459-8.151S14.685 9 9.993 9c-1.008 0-1.708.315-2.186.81l-.046.236c.479-.523 1.191-.858 2.232-.858 4.692 0 12.229 4.995 12.229 4.995l3.85-3.863-.111-.075-3.74 3.75Z"/></g></g></svg>