<svg xmlns="http://www.w3.org/2000/svg" width="32" height="32" fill="none" viewBox="0 0 32 32">
  <path fill="url(#a)" fill-rule="evenodd" d="M3.366 28.634C.911 26.178 0 22.178 0 16S.91 5.822 3.366 3.366C5.822.911 9.822 0 16 0s10.178.91 12.634 3.366C31.089 5.822 32 9.822 32 16s-.91 10.178-3.366 12.634C26.178 31.089 22.178 32 16 32s-10.178-.91-12.634-3.366Z" clip-rule="evenodd"/>
  <path fill="#fff" fill-rule="evenodd" d="M18.663 11.86v6.861a1 1 0 1 1-2 0v-1.935a.68.68 0 0 0-1.327.028h-.003v1.787a1 1 0 1 1-2 0v-2.427a.68.68 0 0 0-1.333 0v4.816a1 1 0 1 1-2 0v-3.536a.613.613 0 0 0-.667-.543.613.613 0 0 0-.666.543v.26a1 1 0 1 1-2 0v-3.09a1 1 0 1 1 2 0v.259a.613.613 0 0 0 .666.543c.334.031.63-.21.667-.543v-2.227a1 1 0 0 1 2 0v.942a.68.68 0 0 0 1.333 0v-2.596a1 1 0 1 1 2 0v3.241h.003a.68.68 0 0 0 1.327.028V11.86a1 1 0 1 1 2 0ZM21 13.537a.992.992 0 0 0-1 .983v3.923a1 1 0 1 0 2 0V14.52a.992.992 0 0 0-1-.983Zm2.333 2.975a.992.992 0 0 1 1-.984.992.992 0 0 1 1 .984v.978a1 1 0 1 1-2 0v-.978Z" clip-rule="evenodd"/>
  <defs>
    <linearGradient id="a" x1="-9.267" x2="16" y1="16" y2="41.267" gradientUnits="userSpaceOnUse">
      <stop stop-color="#FF9E57"/>
      <stop offset="1" stop-color="#FF5321"/>
    </linearGradient>
  </defs>
</svg>
