<svg xmlns="http://www.w3.org/2000/svg" viewBox="0 0 32 32"><defs><path id="curiocaster__a" fill="#fff" d="M0 0h32v32H0z"/></defs><defs><clipPath id="curiocaster__b"><use href="#curiocaster__a"/></clipPath></defs><g clip-path="url(#curiocaster__b)"><mask id="curiocaster__c" width="32" height="32" x="0" y="0" maskUnits="userSpaceOnUse" style="mask-type:alpha"><path d="M16 0c12.357 0 16 3.643 16 16s-3.643 16-16 16S0 28.357 0 16 3.643 0 16 0Z"/></mask><g mask="url(#curiocaster__c)"><use href="#curiocaster__a"/><path d="M18.25 25.21c-5.44 0-8.67-4.68-8.68-8.39a7.238 7.238 0 0 1 4.07-6.54c.04-.02.69-.52 1.72-.88.04-.01.02-.07-.01-.07-3.77.44-6.62 3.7-6.5 7.53 0 2.02.52 3.92 1.44 5.57.02.04-.03.07-.06.04a9.009 9.009 0 0 1-1.92-5.57c0-4.6 3.52-8.11 6.82-8.16.03 0 .05-.04.02-.06-.46-.33-1.01-.5-1.58-.5-1.29.03-2.52.51-3.48 1.37-.03.03-.07-.01-.05-.05.63-.83 2.3-2.23 4.58-2.23 2.56 0 3.73 1.57 3.97 2.03.02.03-.02.06-.05.05-.69-.35-2.02-1.35-3.2-1.46-.03 0-.05.04-.02.06.31.25 1.4 1.09 1.55 1.2 1.18.89 2.04.9 3.68 1.32.04.01.03.07-.01.07-.27-.04-1.33-.21-2.69-.27-.03 0-1.49-.08-2.51.72-.03.02 0 .06.03.06.26-.04.72-.09 1.33-.1.63 0 5.7.19 5.7 2.1 0 .08 0 .14-.02.27 0 .03.02.04.05.04.44-.16 1.68-.58 1.68-2.01 0-.41-.12-.75-.18-1.16 0-.02-.03-.04-.05-.02-.12.07-.26.11-.4.11-.57 0-1.51-.73-1.76-1.65-.39-1.44-1.34-.93-2.72-1.89-2.18-1.52-4.08-2.03-6.43-2.92-.03-.01-.06.02-.04.05 1.21 1.69 3.21 1.48 4.88 3.23.03.03 0 .07-.04.05a11.2 11.2 0 0 0-4.67-1.08c-1.87 0-2.93.5-3.33.76-.03.02-.01.06.02.06.94 0 1.67-.03 2.61.21.04 0 .03.06 0 .07a7.572 7.572 0 0 0-4.12 2.07c-.03.03 0 .07.04.05.69-.33 1.32-.47 1.75-.53.04 0 .05.05.02.06-.82.33-2.34 1.15-3.29 2.96-.02.03.02.07.05.04.36-.32.96-.77 1.81-1.06.03-.01.06.03.03.06-.54.51-2.44 2.49-2.36 5.7 0 .04.05.05.07.01.13-.32.37-.78.81-1.19.02-.02.06 0 .06.03-.11.61-.17 1.25-.17 1.9 0 2.93 2.31 10.18 10.23 10.18 3.24 0 7.41-1.91 8.45-5.82 0-.04-.04-.06-.06-.03-.73 1.04-2.7 3.61-7.03 3.61h-.04Zm4.83-14.29c.07 0 .24.03.24.41 0 .26-.11.48-.28.69-.02.02-.06.01-.06-.02-.05-.43-.41-.62-.71-.9-.02-.02-.01-.05.02-.06.22-.04.7-.13.8-.13l-.01.01ZM21.05 9.3s-.05.1-.08.1c-.14 0-.27.03-.41.03-.51 0-.72-.3-.72-.63v-.06c0-.26-.25-.37-.54-.76-.02-.03.01-.07.04-.05.59.29 1.7.44 1.7 1.37h.01Z"/></g></g></svg>