<svg xmlns="http://www.w3.org/2000/svg" width="32" height="32" fill="none" viewBox="0 0 32 32"><defs><clipPath id="a"><path fill="#fff" d="M0 0h32v32H0z"/></clipPath><clipPath id="c"><path fill="#fff" d="M4 4h24v24H4z"/></clipPath></defs><g clip-path="url(#a)"><mask id="b" width="32" height="32" x="0" y="0" maskUnits="userSpaceOnUse" style="mask-type:alpha"><path fill="#000" d="M16 0c12.357 0 16 3.643 16 16s-3.643 16-16 16S0 28.357 0 16 3.643 0 16 0Z"/></mask><g mask="url(#b)"><path fill="#000" d="M0 0h32v32H0z"/><g clip-path="url(#c)"><path fill="#4DFFA9" fill-rule="evenodd" d="M26.548 21.727A11.997 11.997 0 0 1 16 28a11.998 11.998 0 0 1-10.548-6.273h7.875a2.727 2.727 0 1 0 5.345 0h7.876Zm.737-1.636h-3.376c-.753 0-1.363-.61-1.363-1.364v-8.454a1.364 1.364 0 0 0-2.728 0v8.59a1.227 1.227 0 0 1-2.454 0V8.637a1.364 1.364 0 0 0-2.728 0v10.228a1.227 1.227 0 0 1-2.454 0v-8.591a1.364 1.364 0 0 0-2.727 0v8.454c0 .753-.611 1.364-1.364 1.364H4.715A11.98 11.98 0 0 1 4 16C4 9.372 9.372 4 16 4s12 5.372 12 12c0 1.436-.253 2.814-.715 4.09Z" clip-rule="evenodd"/></g></g></g></svg>