<svg xmlns="http://www.w3.org/2000/svg" fill="none" viewBox="0 0 32 32"><defs><path id="deepcast__a" fill="#fff" d="M0 0h32v32H0z"/></defs><defs><clipPath id="deepcast__b"><use href="#deepcast__a"/></clipPath><clipPath id="deepcast__d"><path fill="#fff" d="M5 5h22v22H5z"/></clipPath></defs><g clip-path="url(#deepcast__b)"><mask id="deepcast__c" width="32" height="32" x="0" y="0" maskUnits="userSpaceOnUse" style="mask-type:alpha"><path fill="#000" d="M16 0c12.357 0 16 3.643 16 16s-3.643 16-16 16S0 28.357 0 16 3.643 0 16 0Z"/></mask><g mask="url(#deepcast__c)"><use href="#deepcast__a"/><g clip-path="url(#deepcast__d)"><path fill="#004977" d="M6.518 5h12.09A8.396 8.396 0 0 1 27 13.392v5.216A8.396 8.396 0 0 1 18.608 27H6.518A1.52 1.52 0 0 1 5 25.482V6.518C5 5.68 5.68 5 6.518 5Z"/><path fill="#FAE67E" d="M9.036 9.514a.344.344 0 0 0-.589.243v4.956c2.743-.166 1.477-1.33 4.124-1.677L9.036 9.514Z"/><path fill="#0CC" d="m16.072 16.524-3.501-3.489c-2.647.347-1.381 1.512-4.124 1.677v4.79c5.755-.184 2.13-2.354 7.625-2.978Z"/><path fill="#009BA4" d="m19.313 19.753-3.24-3.229c-5.495.624-1.87 2.794-7.626 2.978v2.69a1.36 1.36 0 0 0 1.373 1.36l2.02-.016c3.92-.616 2.71-3.174 7.473-3.783Z"/><path fill="#007187" d="M19.313 19.753c-4.762.609-3.554 3.166-7.473 3.783l8.27-.07c1.079-.009 1.611-1.314.848-2.074l-1.645-1.64Z"/></g></g></g></svg>