<svg xmlns="http://www.w3.org/2000/svg" viewBox="0 0 32 32"><defs><clipPath id="deezer__a"><path fill="#fff" d="M0 0h32v32H0z"/></clipPath></defs><g clip-path="url(#deezer__a)"><mask id="deezer__b" width="32" height="32" x="0" y="0" maskUnits="userSpaceOnUse" style="mask-type:alpha"><path d="M16 0c12.357 0 16 3.643 16 16s-3.643 16-16 16S0 28.357 0 16 3.643 0 16 0Z"/></mask><g mask="url(#deezer__b)"><path fill="#A238FF" d="M0 0h32v32H0z"/><path fill-rule="evenodd" d="M21.97 10.48c.16-.95.4-1.55.67-1.55.5 0 .9 2.07.9 4.63s-.4 4.63-.9 4.63c-.2 0-.39-.35-.54-.94-.24 2.16-.74 3.65-1.31 3.65-.45 0-.84-.89-1.11-2.3-.18 2.68-.64 4.57-1.18 4.57-.34 0-.65-.75-.87-1.98-.27 2.53-.91 4.3-1.65 4.3-.74 0-1.37-1.77-1.65-4.3-.23 1.22-.53 1.98-.87 1.98-.54 0-1-1.9-1.18-4.57-.27 1.41-.67 2.3-1.11 2.3-.57 0-1.07-1.48-1.31-3.65-.15.59-.34.94-.54.94-.5 0-.9-2.07-.9-4.63s.4-4.63.9-4.63c.27 0 .51.6.67 1.55.27-1.64.7-2.7 1.18-2.7.58 0 1.08 1.51 1.32 3.69.23-1.59.58-2.61.98-2.61.55 0 1.02 2 1.2 4.78.33-1.43.8-2.32 1.33-2.32s1 .9 1.33 2.32c.17-2.78.64-4.78 1.2-4.78.39 0 .75 1.01.98 2.61.24-2.19.74-3.69 1.32-3.69.49 0 .92 1.07 1.18 2.7h-.04ZM7.11 13.11c0-1.14.23-2.07.51-2.07s.51.93.51 2.07c0 1.14-.23 2.07-.51 2.07s-.51-.93-.51-2.07Zm16.7 0c0-1.14.23-2.07.51-2.07s.51.93.51 2.07c0 1.14-.23 2.07-.51 2.07s-.51-.93-.51-2.07Z" clip-rule="evenodd"/></g></g></svg>