<svg xmlns="http://www.w3.org/2000/svg" width="32" height="32" fill="none" viewBox="0 0 32 32">
  <path fill="#A238FF" d="M3.366 28.634C.911 26.178 0 22.178 0 16S.91 5.822 3.366 3.366C5.822.911 9.822 0 16 0s10.178.91 12.634 3.366C31.089 5.822 32 9.822 32 16s-.91 10.178-3.366 12.634C26.178 31.089 22.178 32 16 32s-10.178-.91-12.634-3.366Z"/>
  <path fill="#000" fill-rule="evenodd" d="M21.97 10.48c.16-.95.4-1.55.67-1.55.5 0 .9 2.07.9 4.63s-.4 4.63-.9 4.63c-.2 0-.39-.35-.54-.94-.24 2.16-.74 3.65-1.31 3.65-.45 0-.84-.89-1.11-2.3-.18 2.68-.64 4.57-1.18 4.57-.34 0-.65-.75-.87-1.98-.27 2.53-.91 4.3-1.65 4.3-.74 0-1.37-1.77-1.65-4.3-.23 1.22-.53 1.98-.87 1.98-.54 0-1-1.9-1.18-4.57-.27 1.41-.67 2.3-1.11 2.3-.57 0-1.07-1.48-1.31-3.65-.15.59-.34.94-.54.94-.5 0-.9-2.07-.9-4.63s.4-4.63.9-4.63c.27 0 .51.6.67 1.55.27-1.64.7-2.7 1.18-2.7.58 0 1.08 1.51 1.32 3.69.23-1.59.58-2.61.98-2.61.55 0 1.02 2 1.2 4.78.33-1.43.8-2.32 1.33-2.32s1 .9 1.33 2.32c.17-2.78.64-4.78 1.2-4.78.39 0 .75 1.01.98 2.61.24-2.19.74-3.69 1.32-3.69.49 0 .92 1.07 1.18 2.7h-.04ZM7.11 13.11c0-1.14.23-2.07.51-2.07s.51.93.51 2.07c0 1.14-.23 2.07-.51 2.07s-.51-.93-.51-2.07Zm16.7 0c0-1.14.23-2.07.51-2.07s.51.93.51 2.07c0 1.14-.23 2.07-.51 2.07s-.51-.93-.51-2.07Z" clip-rule="evenodd"/>
</svg>
