<svg xmlns="http://www.w3.org/2000/svg" viewBox="0 0 32 32"><defs><clipPath id="downcast__a"><path fill="#fff" d="M0 0h32v32H0z"/></clipPath></defs><g clip-path="url(#downcast__a)"><mask id="downcast__b" width="32" height="32" x="0" y="0" maskUnits="userSpaceOnUse" style="mask-type:alpha"><path d="M16 0c12.357 0 16 3.643 16 16s-3.643 16-16 16S0 28.357 0 16 3.643 0 16 0Z"/></mask><g mask="url(#downcast__b)"><path fill="#E10000" d="M0 0h32v32H0z"/><g fill="#fff"><path fill-rule="evenodd" d="M26.514 16.261c0 1.078-.228 2.417-.587 3.755-.262.947-.62 1.796-1.045 2.678-.653 1.339-1.535 2.547-2.58 3.624l-.196.196c-.163.13-.326.13-.49-.032-.359-.36-.718-.719-1.11-1.078a6.241 6.241 0 0 0-.49-.457c-.196-.163-.196-.36 0-.523.588-.587 1.11-1.24 1.568-1.959.457-.718.816-1.47 1.11-2.253.326-.914.588-1.828.686-2.775.26-1.698.13-3.396-.392-5.029a11.993 11.993 0 0 0-2.547-4.473 3.92 3.92 0 0 1-.36-.392c-.065-.098-.13-.196-.097-.294a.682.682 0 0 1 .13-.196c.49-.457 1.012-1.012 1.6-1.535.196-.163.36-.163.555 0 .327.327.654.686.98 1.078 1.567 1.96 2.547 4.18 3.037 6.596.163.914.228 1.828.228 3.07Z" clip-rule="evenodd"/><path fill-rule="evenodd" d="M20.245 16c0 1.47-.36 2.906-1.012 4.278a8.708 8.708 0 0 1-1.73 2.481l-.066.066c-.164.163-.327.163-.49 0a76.223 76.223 0 0 1-1.633-1.6c-.13-.131-.163-.294-.032-.458l.587-.685a7.36 7.36 0 0 0 1.306-3.331 6.153 6.153 0 0 0-.228-2.776c-.294-1.044-.849-1.959-1.6-2.775-.196-.196-.163-.36 0-.555.522-.49 1.045-1.012 1.567-1.502.033-.033.066-.065.098-.065.163-.098.294-.098.425.032.261.229.49.523.685.784.882 1.11 1.437 2.384 1.796 3.722A8.4 8.4 0 0 1 20.245 16Z" clip-rule="evenodd"/><path d="M13.747 15.64c-.033-.554-.13-1.11-.36-1.632a4.158 4.158 0 0 0-1.828-2.122c-.718-.425-1.534-.588-2.35-.588h-3.07c-.196 0-.261.065-.261.294v9.11c0 .13.065.196.228.196h2.808c.523 0 .98-.098 1.437-.196 1.47-.327 2.514-1.176 3.037-2.547.326-.816.424-1.665.359-2.514Zm-6.008.393V13.29c0-.196.098-.229.294-.229h1.11c1.045 0 1.763.784 2.057 1.764.229.816.229 1.763-.065 2.546-.229.556-.588.98-1.143 1.209a2.62 2.62 0 0 1-.98.196h-.947c-.228 0-.326-.066-.326-.262v-2.481Z"/></g></g></g></svg>