<svg xmlns="http://www.w3.org/2000/svg" width="32" height="32" fill="none" viewBox="0 0 32 32">
  <path fill="#fff" fill-rule="evenodd" d="M3.366 28.634C.911 26.178 0 22.178 0 16S.91 5.822 3.366 3.366C5.822.911 9.822 0 16 0s10.178.91 12.634 3.366C31.089 5.822 32 9.822 32 16s-.91 10.178-3.366 12.634C26.178 31.089 22.178 32 16 32s-10.178-.91-12.634-3.366Z" clip-rule="evenodd"/>
  <path fill="#000" fill-rule="evenodd" d="M20.808 24.333V7.67a9.633 9.633 0 0 1 0 16.663Zm-6.487-13.838c1.451.01 2.84.596 3.862 1.627a5.51 5.51 0 0 1 0 7.758 5.494 5.494 0 0 1-3.862 1.627V10.495ZM9.89 12.72a3.274 3.274 0 0 1 3.028 2.026 3.287 3.287 0 0 1-.71 3.577 3.275 3.275 0 0 1-5.595-2.321c0-.87.346-1.705.96-2.32a3.274 3.274 0 0 1 2.317-.962Z" clip-rule="evenodd"/>
</svg>
