<svg xmlns="http://www.w3.org/2000/svg" viewBox="0 0 32 32"><defs><path id="fathom__a" fill="#fff" d="M0 0h32v32H0z"/></defs><defs><clipPath id="fathom__b"><use href="#fathom__a"/></clipPath></defs><g clip-path="url(#fathom__b)"><mask id="fathom__c" width="32" height="32" x="0" y="0" maskUnits="userSpaceOnUse" style="mask-type:alpha"><path d="M16 0c12.357 0 16 3.643 16 16s-3.643 16-16 16S0 28.357 0 16 3.643 0 16 0Z"/></mask><g mask="url(#fathom__c)"><use href="#fathom__a"/><path fill-rule="evenodd" d="M20.808 24.333V7.67a9.633 9.633 0 0 1 0 16.663Zm-6.487-13.838c1.451.01 2.84.596 3.862 1.627a5.51 5.51 0 0 1 0 7.758 5.494 5.494 0 0 1-3.862 1.627V10.495ZM9.89 12.72a3.274 3.274 0 0 1 3.028 2.026 3.287 3.287 0 0 1-.71 3.577 3.275 3.275 0 0 1-5.595-2.321c0-.87.346-1.705.96-2.32a3.274 3.274 0 0 1 2.317-.962Z" clip-rule="evenodd"/></g></g></svg>