<svg width="32" height="32" viewBox="0 0 32 32" fill="none" xmlns="http://www.w3.org/2000/svg">
<path d="M3.36627 28.6337C0.910867 26.1783 0 22.1783 0 16C0 9.82167 0.910867 5.82167 3.36627 3.36627C5.82167 0.910867 9.82167 0 16 0C22.1783 0 26.1783 0.910867 28.6337 3.36627C31.0891 5.82167 32 9.82167 32 16C32 22.1783 31.0891 26.1783 28.6337 28.6337C26.1783 31.0891 22.1783 32 16 32C9.82167 32 5.82167 31.0891 3.36627 28.6337Z" fill="black"/>
<path d="M19.9688 3.5C21.9 4.025 23.1938 5.48125 23.1938 7.13125C23.1938 7.925 22.8625 8.5875 22.1375 9.25625C21.0188 10.275 19.6313 10.775 18.3188 10.625C17.7063 10.5562 17.475 10.4937 16.7375 10.2125C16.2 10 16.1188 9.9875 15.625 10.0125C14.725 10.0562 14.225 10.4312 13.7563 11.4125C13.5938 11.7563 13.4938 11.8813 13.3188 11.975C12.6563 12.3313 11.5938 13.2437 11.0938 13.9C10.925 14.1187 10.7625 14.3062 10.7438 14.3062C10.6563 14.3187 10.6188 12.5125 10.6875 11.7188C10.9125 9.11875 11.775 7.1 13.3438 5.525C14.45 4.4125 15.725 3.70625 17.1875 3.4C17.8125 3.26875 19.3313 3.325 19.9688 3.5ZM19.0563 12.1562C21.075 12.4875 22.3688 13.5063 22.7813 15.0938C23.0063 15.9688 22.8 16.8063 22.175 17.55C21.5 18.35 20.4625 18.95 19.25 19.2312C18.6375 19.3687 18.3875 19.3938 17.5938 19.3938C16.6125 19.3875 16.1188 19.3 15.175 18.9437C14.7813 18.8 14.2438 18.775 13.8625 18.875C13.0938 19.0938 12.3563 20.0562 11.8813 21.475C11.6313 22.2187 11.5125 22.9375 11.425 24.2375C11.3063 25.9937 11.475 27.275 11.9688 28.375C12.225 28.9375 12.2313 29.05 12.0563 29.275C11.9625 29.3937 11.875 29.4375 11.7 29.4375C10.95 29.4375 9.88126 27.125 9.43751 24.55C9.05626 22.3 9.16251 20.025 9.73126 18.125C10.7125 14.8375 13.1688 12.5813 16.2313 12.1313C16.85 12.0375 18.4188 12.0562 19.0563 12.1562Z" fill="url(#paint0_radial_29_320)"/>
<defs>
<radialGradient id="paint0_radial_29_320" cx="0" cy="0" r="1" gradientUnits="userSpaceOnUse" gradientTransform="translate(9.21237 10.1269) rotate(72.6765) scale(20.5501 15.1107)">
<stop stop-color="#FAA165"/>
<stop offset="1" stop-color="#FCD59B"/>
</radialGradient>
</defs>
</svg>
