<svg xmlns="http://www.w3.org/2000/svg" width="32" height="32" fill="none" viewBox="0 0 32 32"><defs><linearGradient id="b" x1="16.061" x2="16.061" y1="2.988" y2="14.585" gradientUnits="userSpaceOnUse"><stop stop-color="#FFC900"/><stop offset=".6" stop-color="#FCAE17"/><stop offset="1" stop-color="#FA9F23"/></linearGradient></defs><mask id="a" width="32" height="32" x="0" y="0" maskUnits="userSpaceOnUse" style="mask-type:alpha"><path fill="#000" d="M16 0c12.357 0 16 3.643 16 16s-3.643 16-16 16S0 28.357 0 16 3.643 0 16 0Z"/></mask><g mask="url(#a)"><path fill="#000" d="M0 0h32v32H0z"/><path fill="#FA9F23" d="M14.59 29.111a.482.482 0 0 0 .33-.144.472.472 0 0 0-.033-.707c-2.47-1.973-2.583-4.542-2.583-5.245 0-1.99.82-3.976 2.54-3.976 1.17 0 1.444.934 3.212.934a3.84 3.84 0 0 0 3.843-3.838c0-1.348-1.029-3.848-3.896-3.848-2.868 0-7.782 3.399-7.782 9.069 0 5.006 3.907 7.755 4.368 7.755Z"/><path fill="url(#b)" d="M21.9 6.837a3.84 3.84 0 0 1-3.844 3.837c-.842 0-1.345-.211-1.767-.433-.465-.244-.832-.5-1.445-.5-1.3 0-2.085 1.132-2.391 2.544a9.732 9.732 0 0 0-1.881 2.3 9.179 9.179 0 0 1-.35-2.528c0-5.67 4.964-9.069 7.781-9.069 2.818 0 3.896 2.5 3.896 3.849Z"/></g></svg>