<svg width="33" height="32" viewBox="0 0 33 32" fill="none" xmlns="http://www.w3.org/2000/svg">
<path d="M3.63197 28.6333C1.17864 26.18 0.265305 22.18 0.265305 16C0.265305 9.82 1.17864 5.82 3.63197 3.36667C6.08531 0.913333 10.0853 0 16.2653 0C22.4453 0 26.4453 0.913333 28.8986 3.36667C31.352 5.82 32.2653 9.82 32.2653 16C32.2653 22.18 31.352 26.18 28.8986 28.6333C26.4453 31.0867 22.4453 32 16.2653 32C10.0853 32 6.08531 31.0867 3.63197 28.6333Z" fill="#E72C30"/>
<path fill-rule="evenodd" clip-rule="evenodd" d="M20.8609 6.67027C21.5204 6.66316 22.1764 6.67027 22.8929 6.67027C22.8057 7.19827 22.7275 7.70139 22.6404 8.19916C22.164 10.9387 21.6804 13.6818 21.1986 16.4232C20.8946 18.1441 20.6155 19.8667 20.2706 21.5841C19.8066 23.9236 18.0466 25.0009 16.2386 25.2641C15.8009 25.3152 15.3602 25.3372 14.9195 25.3298C13.3977 25.3369 11.8742 25.3298 10.3506 25.3298C10.3212 25.3275 10.2924 25.3203 10.2653 25.3085C10.2724 25.2712 10.2653 25.2285 10.2831 25.1965C10.7097 24.4249 11.1257 23.6552 11.5702 22.8978C11.636 22.7912 11.8351 22.7165 11.9737 22.7165C13.3124 22.7023 14.6422 22.7094 15.9809 22.7094C16.9995 22.7094 17.5222 22.2881 17.7409 21.2747C17.8475 20.8534 17.9062 20.4516 18.0004 19.9681C17.7693 19.9681 17.5826 19.9752 17.396 19.9681C16.4822 19.9449 15.5613 19.9858 14.6546 19.8863C13.2822 19.7263 12.3293 18.8552 12.0573 17.6552C11.9062 16.9974 11.9933 16.3467 12.1053 15.6961C12.4093 13.9681 12.7026 12.2312 13.0262 10.5049C13.4173 8.4125 15.0137 6.91027 17.1257 6.74494C18.3649 6.64361 19.6146 6.68272 20.8591 6.67027H20.8609ZM17.22 9.29072C16.3346 9.30494 15.732 9.81872 15.572 10.7129C15.3995 11.6765 15.2217 12.6347 15.0564 13.6001C14.9106 14.4658 14.7453 15.3298 14.6475 16.2009C14.5729 16.8232 14.9089 17.3743 15.5382 17.3743H18.0146C18.3293 17.3743 18.4733 17.2658 18.5266 16.9458C18.8769 14.8409 19.2413 12.7361 19.604 10.6312C19.7462 9.84183 19.3462 9.32272 18.5444 9.29783C18.1017 9.28361 17.6644 9.29072 17.22 9.29072Z" fill="white"/>
</svg>
