<svg xmlns="http://www.w3.org/2000/svg" viewBox="0 0 32 32"><defs><clipPath id="gaana__a"><path fill="#fff" d="M0 0h32v32H0z"/></clipPath></defs><g clip-path="url(#gaana__a)"><mask id="gaana__b" width="32" height="32" x="0" y="0" maskUnits="userSpaceOnUse" style="mask-type:alpha"><path d="M16 0c12.357 0 16 3.643 16 16s-3.643 16-16 16S0 28.357 0 16 3.643 0 16 0Z"/></mask><g mask="url(#gaana__b)"><path fill="#E72C30" d="M0 0h32v32H0z"/><path fill="#fff" fill-rule="evenodd" d="M20.596 6.67c.66-.007 1.315 0 2.032 0-.088.528-.166 1.031-.253 1.53-.476 2.739-.96 5.482-1.442 8.223-.304 1.721-.583 3.444-.928 5.161-.464 2.34-2.224 3.417-4.032 3.68a9.937 9.937 0 0 1-1.319.066c-1.522.007-3.045 0-4.569 0a.265.265 0 0 1-.085-.021c.007-.038 0-.08.018-.113.426-.771.842-1.54 1.287-2.298.066-.107.265-.181.403-.181 1.34-.015 2.669-.008 4.008-.008 1.018 0 1.54-.42 1.76-1.434.106-.422.165-.823.26-1.307-.232 0-.419.007-.605 0-.914-.023-1.835.018-2.742-.082-1.372-.16-2.325-1.03-2.597-2.23-.151-.659-.064-1.31.048-1.96.304-1.728.597-3.465.92-5.191.392-2.093 1.988-3.595 4.1-3.76 1.24-.101 2.49-.062 3.734-.075h.002Zm-3.641 2.62c-.886.015-1.488.529-1.648 1.423-.173.964-.35 1.922-.516 2.887-.146.866-.311 1.73-.409 2.6-.074.623.262 1.174.89 1.174h2.477c.315 0 .459-.108.512-.428.35-2.105.715-4.21 1.078-6.315.142-.79-.258-1.308-1.06-1.333-.443-.014-.88-.007-1.324-.007Z" clip-rule="evenodd"/></g></g></svg>