<svg xmlns="http://www.w3.org/2000/svg" viewBox="0 0 32 32"><defs><linearGradient id="globalplayer__c" x1="0" x2="32" y1="0" y2="32" gradientUnits="userSpaceOnUse"><stop stop-color="#19E4FD"/><stop offset="1" stop-color="#1D54EE"/></linearGradient><clipPath id="globalplayer__a"><path fill="#fff" d="M0 0h32v32H0z"/></clipPath></defs><g clip-path="url(#globalplayer__a)"><mask id="globalplayer__b" width="32" height="32" x="0" y="0" maskUnits="userSpaceOnUse" style="mask-type:alpha"><path d="M16 0c12.357 0 16 3.643 16 16s-3.643 16-16 16S0 28.357 0 16 3.643 0 16 0Z"/></mask><g mask="url(#globalplayer__b)"><path fill="url(#globalplayer__c)" d="M0 0h32v32H0z"/><path fill="#fff" fill-rule="evenodd" d="M26.25 14.754a1.409 1.409 0 0 1 0 2.487L7.133 27.612a1.44 1.44 0 0 1-2.137-1.243V5.63a1.441 1.441 0 0 1 2.137-1.244L26.25 14.754Z" clip-rule="evenodd"/><path fill="#3183C5" fill-rule="evenodd" d="m16.395 22.588-3.265 1.77a3.757 3.757 0 0 1-1.176-.21 3.793 3.793 0 0 1-1.697-1.201 3.873 3.873 0 0 1-.518-3.995l1.958.894a1.675 1.675 0 0 0 .434 1.933 1.63 1.63 0 0 0 2.602-.687 1.674 1.674 0 0 0-.556-1.9 1.627 1.627 0 0 0-.98-.331h-.568a4.358 4.358 0 0 1-3.099-1.298 4.455 4.455 0 0 1-1.283-3.132c0-1.176.461-2.302 1.283-3.133A4.358 4.358 0 0 1 12.63 10h4.345s.175 1.378-.73 1.943c.494.735.757 1.605.753 2.494h-.002c0 .593-.117 1.18-.345 1.725a4.431 4.431 0 0 1-.981 1.454 3.83 3.83 0 0 1 1.143 1.746 3.875 3.875 0 0 1-.417 3.226Zm-4.424-6.006a2.215 2.215 0 0 1-.912-.553v.001a2.27 2.27 0 0 1-.49-2.421 2.23 2.23 0 0 1 .793-1.01 2.207 2.207 0 0 1 1.212-.403h.17a2.21 2.21 0 0 1 1.775 1.069 2.262 2.262 0 0 1-.517 2.933 2.209 2.209 0 0 1-2.03.384Z" clip-rule="evenodd"/></g></g></svg>