<svg xmlns="http://www.w3.org/2000/svg" width="32" height="32" fill="none" viewBox="0 0 32 32">
  <path fill="#fff" d="M3.366 28.634C.911 26.178 0 22.178 0 16S.91 5.822 3.366 3.366C5.822.911 9.822 0 16 0s10.178.91 12.634 3.366C31.089 5.822 32 9.822 32 16s-.91 10.178-3.366 12.634C26.178 31.089 22.178 32 16 32s-10.178-.91-12.634-3.366Z"/>
  <path fill="#FCDB00" d="M16 28.5c6.904 0 12.5-5.596 12.5-12.5S22.904 3.5 16 3.5 3.5 9.096 3.5 16 9.096 28.5 16 28.5Z" opacity=".758"/>
  <path fill="#fff" fill-rule="evenodd" d="m13.822 10.415-1.97 2.402-.408 2.623-.9.477-.128 2.43.343 1.704 1.093.73 1.075-.226.895-.923-.204-1.882-.19-1.944-.814-.628.125-1.632 1.62-1.986 1.907-.111 1.57.307 1.026.79.599 1.367.115 1.527-.45.84.012 1.547.196 1.861.185.726h1.826l.575-.698.224-1.609-.514-2.448-1.003-.607-.48-2.506-1.94-2.27-2.146-.643-2.239.782Z" clip-rule="evenodd"/>
  <path fill="#333" fill-rule="evenodd" stroke="#333" stroke-width=".211" d="M25.062 21.66a.468.468 0 0 1-.088-.009 1.322 1.322 0 0 1-.308-.1 6.662 6.662 0 0 1-.45-.24c-.227-.13-.425-.226-.653-.271-.09-.018-.215-.054-.273-.162-.059-.109-.02-.231.02-.326a.546.546 0 0 1 .044-.088.323.323 0 0 1 .362-.135l.024.006c.069.02.147.042.21.093.137.107.295.18.463.256.072.033.143.066.213.102a.67.67 0 0 0 .447.079.297.297 0 0 1 .238.043c.044.032.1.094.113.21.004.034.006.068.008.097l.002.028-.003.04a1.46 1.46 0 0 1-.006.06.356.356 0 0 1-.144.25.374.374 0 0 1-.219.067Zm-.886-3.787c-.015 0-.03 0-.043-.002a.524.524 0 0 0-.03 0c-.153-.002-.286-.076-.324-.181a.265.265 0 0 1 .02-.212.35.35 0 0 1 .21-.171c.167-.049.348-.09.544-.069.096.012.193.02.289.028.158.015.322.01.516-.012.164-.02.24-.052.29-.126.06-.083.203-.105.282-.086a.29.29 0 0 1 .195.184c.036.126.03.316-.2.503a.408.408 0 0 1-.234.07c-.147.003-.295.002-.443.002h-.14c-.108.009-.214.01-.317.01-.185.002-.36.003-.528.051a.323.323 0 0 1-.087.01Zm-.522-2.385a.325.325 0 0 1-.21-.077.222.222 0 0 1-.081-.155.52.52 0 0 1 .036-.258c.046-.098.112-.192.19-.272.289-.3.533-.647.769-.982l.09-.129c.07-.098.157-.22.333-.257.078-.017.222-.02.296.043.036.03.056.074.053.119a.43.43 0 0 1-.057.215 49.483 49.483 0 0 1-1.035 1.479 1.3 1.3 0 0 1-.187.204.285.285 0 0 1-.133.06l-.04.01a.296.296 0 0 1-.024 0ZM7.66 21.283a.464.464 0 0 1-.144-.021.32.32 0 0 1-.2-.192.23.23 0 0 1 .014-.2.462.462 0 0 1 .108-.134 1.2 1.2 0 0 1 .243-.155c.378-.164.747-.37 1.104-.568.134-.074.267-.148.401-.22l.001-.001a.57.57 0 0 1 .261-.052c.071 0 .138.038.183.105.038.06.066.152.026.236a.83.83 0 0 1-.335.368c-.075.045-.15.09-.225.137-.118.073-.24.148-.365.218-.13.072-.264.142-.393.209-.11.057-.219.113-.327.172a.749.749 0 0 1-.352.098Zm.059-3.564-.127-.002h-.087a.667.667 0 0 1-.203-.037c-.122-.043-.198-.133-.203-.243a.262.262 0 0 1 .196-.266 3.044 3.044 0 0 1 .669-.095c.104-.006.203-.01.298-.026.323-.054.593.032.838.133.118.05.182.15.17.269-.012.13-.138.236-.287.244a1.14 1.14 0 0 1-.077.001l-.077-.002c-.272-.056-.593-.025-.842.009-.09.012-.18.015-.268.015ZM9.17 15.31h-.008a.64.64 0 0 1-.262-.047 2.081 2.081 0 0 1-.394-.235 4.73 4.73 0 0 1-1.016-1.09 1.655 1.655 0 0 1-.29-.856c-.003-.1.092-.164.149-.193.08-.041.193-.002.237.06.045.062.091.13.122.208.216.537.651.928 1.079 1.281a.695.695 0 0 0 .163.091l.077.037.096.044c.061.027.125.055.185.093.11.067.176.189.165.309-.021.168-.156.298-.302.298Zm12.443 3.21c-.026.4-.148.395-.153.77-.004.376-.004.57-.166.633-.162.063-.649.18-1.146.18-.497 0-.498.027-.61-.108-.113-.135-.153-.647-.17-1.204-.019-.556-.037-1.022-.117-1.4-.08-.378.026-1.2.146-1.459.12-.26.099-.228.19-.268 0 0 .36.02.561 0 .201-.02.663-.1.843.01.18.108.266.32.405.932.138.611.244 1.515.217 1.914Zm-2.497-5.528c-.074-.37-.036-.152-.282-.628-.245-.476-.38-.457-.815-.74-.435-.285-1.357-.547-1.498-.596-.14-.049-.096-.019-.25-.027-.153-.008-.394-.113-1.17 0-.775.113-1.396.567-1.842 1.091-.446.525-.72 1.115-.952 1.54-.231.425-.193.787-.22 1.032-.026.244-.067.21-.153.263-.086.052-.278 0-.278 0-.092-.018.026-.246.045-.435.018-.189-.037-.418-.045-.576-.008-.158.036-.189.086-.271.05-.083.23-.423.322-.607s.31-.641.413-.823c.102-.182.192-.453.754-.94.562-.486.87-.6 1.16-.719.288-.118.883-.44 1.046-.494.164-.055.229-.071.48-.093.25-.022.919.082 1.097.1.18.019.163.028.36.186.197.16.479.452.733.634.254.183.535.374.634.463.1.09.303.241.326.396.022.155.14.234.222.34.082.106.096.225.296.98.2.754.25.757.297 1.052.047.294.002.497-.087.608-.088.11-.116.056-.179-.003-.063-.059-.1-.409-.231-.799-.13-.39-.195-.565-.27-.934Zm-5.955 3.85c.095.61.263 1.92.156 2.47-.106.55-.286.822-.485.953-.2.13-.636.205-1.137.053s-.693-.27-.872-.794c-.18-.525-.08-.438-.146-.788-.066-.35-.149-.465-.133-.736.015-.272-.042-1.151.019-1.445.061-.293.043-.577.316-.626.273-.048.436.067.615-.001.18-.069.161-.097.344-.128.173-.029.511-.127.731-.027.22.1.496.458.591 1.068Zm9.036.562c-.12-.342-.067-.651-.16-1.205-.094-.554-.336-.743-.336-.743s-.114-.341-.567-.469c-.453-.127-.32-.026-.368-.284a10.019 10.019 0 0 0-.114-.563 3.127 3.127 0 0 1-.088-.658c-.013-.274-.014-.583-.138-.827-.124-.245-.356-.704-.603-1.113-.246-.409-.403-.615-.788-.934-.386-.318-.622-.652-1.013-.858-.39-.207-.363-.266-.753-.37-.39-.104-.444-.041-.953-.084-.51-.043-.559-.078-.947 0-.387.078-.64.304-1.094.513-.455.208-.641.202-.951.467-.31.264-.242.346-.503.561-.26.216-.415.338-.766.928-.35.591-.605 1.19-.73 1.47-.127.278-.24.362-.256.674-.016.312.049.263-.026.622-.074.359-.153.651-.153.651s-.458-.008-.722.491c-.265.5-.243.7-.278.992-.036.293.036 1.067.09 1.578.054.511.088 1.239.178 1.497.09.259.415.99 1.12 1.208.706.218.865.248 1.073.196.209-.052.579-.157.84-.245.26-.087.57-.365.715-1 .145-.636.154-.95.096-1.828-.058-.877-.052-1.34-.298-2.005-.246-.664-.606-.76-.77-.91-.163-.149-.176-.104-.155-.307.021-.204-.026-.665.492-1.473.519-.808 1.055-1.312 1.83-1.54a2.52 2.52 0 0 1 1.639.06c.287.104.368.142.616.188.249.047.422.192.578.376.155.183.478.64.621.955.144.315.062.464.223.813.161.348.32.46.286.699-.034.239-.069.17-.128.34-.06.17-.289.491-.322.882-.033.392-.063.715-.056 1.147.007.432.102.572.096 1.071-.006.5-.047 1.332.1 1.736.147.404.247.67.421.739.175.07.134.077.241.069 0 0 .122-.069.44-.062.317.007 1.184.064 1.65-.198.465-.263.55-.408.652-1.262.102-.855.16-1.643.04-1.985Z" clip-rule="evenodd"/>
</svg>
