<svg xmlns="http://www.w3.org/2000/svg" fill="none" viewBox="0 0 32 32"><defs><path id="goodpods__a" fill="#fff" d="M0 0h32v32H0z"/></defs><defs><clipPath id="goodpods__b"><use href="#goodpods__a"/></clipPath><clipPath id="goodpods__d"><path fill="#fff" d="M3.5 3.5h25v25h-25z"/></clipPath></defs><g clip-path="url(#goodpods__b)"><mask id="goodpods__c" width="32" height="32" x="0" y="0" maskUnits="userSpaceOnUse" style="mask-type:alpha"><path fill="#000" d="M16 0c12.357 0 16 3.643 16 16s-3.643 16-16 16S0 28.357 0 16 3.643 0 16 0Z"/></mask><g mask="url(#goodpods__c)"><use href="#goodpods__a"/><g clip-path="url(#goodpods__d)"><path fill="#FCDB00" d="M16 28.5c6.904 0 12.5-5.596 12.5-12.5S22.904 3.5 16 3.5 3.5 9.096 3.5 16 9.096 28.5 16 28.5Z"/><path fill="#333" fill-rule="evenodd" d="M24.512 20.717c-.249 0-.595-.221-.84-.36-.535-.301-.636-.191-.776-.325a.241.241 0 0 1-.075-.18c0-.108.07-.27.13-.33a.306.306 0 0 1 .215-.087c.064 0 .225.045.302.107.138.11.295.18.463.258.17.08.305.17.48.17.05 0 .112-.016.178-.016.294 0 .269.335.269.349 0 .083-.01.414-.347.414h.001Zm-.9-3.618c-.143-.001-.267-.072-.304-.173-.041-.119.02-.306.215-.366.156-.046.325-.085.51-.065.844.1.982-.053 1.002-.073.02-.02.067-.12.233-.12.051 0 .255.04.255.29a.445.445 0 0 1-.148.321.344.344 0 0 1-.273.116c-.51.013-.793.01-.985.015-.363.011-.247.054-.506.054h.001Zm-.409-2.266a.302.302 0 0 1-.223-.088c-.06-.059-.064-.118-.064-.195 0-.042-.014-.206.213-.446.425-.45.784-1.062.906-1.186a.419.419 0 0 1 .31-.128c.216 0 .229.126.229.157 0 .14-.05.205-.088.264-.01.015-.875 1.322-1.068 1.515-.015.016-.084.1-.215.107Zm-15.01 5.539c-.151 0-.335-.096-.335-.285 0-.227.34-.379.355-.385.99-.439 1.302-.804 1.629-.804.08 0 .152.028.199.1a.246.246 0 0 1 .025.226.793.793 0 0 1-.314.352c-1.132.685-.685.395-1.23.703a.693.693 0 0 1-.33.093h.002Zm.055-3.405c-.04 0-.079 0-.118-.002h-.082c-.188-.003-.381-.091-.381-.28 0-.112.074-.21.184-.242.35-.094 1.082-.132 1.093-.132.082 0 .76.05.76.375 0 .02-.012.258-.318.258h-.025l-.072-.002a1.6 1.6 0 0 0-.318-.029c-.33 0-.43.052-.724.052m1.364-2.307a.68.68 0 0 1-.225-.032 1.984 1.984 0 0 1-.4-.236 4.43 4.43 0 0 1-.952-1.04 1.59 1.59 0 0 1-.27-.814c-.005-.109.12-.205.21-.205.07 0 .178.045.265.273.128.325.337.592.576.83.44.44.534.46.751.558.08.035.35.13.328.383-.02.16-.147.285-.284.285v-.002Zm12.251 2.599c0-.143-.213-1.713-.215-1.722-.053-.322-.23-.756-.49-.968-.295-.241-.619-.226-.675-.282-.006-.007-.005-.14-.133-.716a3.036 3.036 0 0 1-.083-.627c-.028-.601-.052-.638-.197-.925-.576-1.14-.782-1.388-.99-1.596-1.211-1.211-1.646-1.327-1.9-1.395-.318-.087-.397-.053-.727-.07-.287-.014-.532-.055-.699-.055-.59 0-.88.3-1.38.535-.456.214-.652.197-.988.537-.156.158-.162.242-.297.376-.076.076-.191.158-.312.279-.505.505-1.075 1.872-1.166 2.08-.13.293-.243.355-.243.734 0 .115.013.164.013.24 0 .16-.116.653-.178.886 0 0-.27-.005-.504.23-.18.179-.45.652-.444 1.413.004.44.172 2.261.22 2.502.071.365.21.689.532 1.01.467.466 1.39.556 1.407.556.066 0 .982-.182 1.245-.445.403-.404.483-1.254.483-1.896 0-2.129-.341-2.802-.643-3.103-.167-.167-.342-.245-.497-.4-.025-.025-.035-.046-.035-.09 0-.685.244-1.149.47-1.506.486-.772.988-1.253 1.715-1.47a2.316 2.316 0 0 1 1.535.057c.693.256.792.143 1.117.537.146.176.448.612.583.912.134.3.058.442.21.775.136.301.271.417.271.605 0 .305-.386.736-.426 1.23-.14 1.679.047 1.358.038 2.117-.006.477-.045 1.272.093 1.659.256.715.32.727.592.727.135 0 .385-.005.89-.005.472 0 1.041-.056 1.403-.417.178-.178.236-.417.304-.986.058-.49.1-.958.1-1.323h.001Z" clip-rule="evenodd"/><path fill="#fff" fill-rule="evenodd" d="M21.27 17.602c0 .4-.09.47-.128.667-.049.248.024.632-.11.764-.022.022-.316.216-1.439.216-.14 0-.183-.008-.232-.058-.21-.21-.176-.92-.228-1.797-.049-.83-.111-.65-.109-1.077.005-.76.19-1.12.24-1.22.06-.118.104-.08.372-.08.383 0 .543-.052.788-.052.146 0 .247.027.334.114.262.261.511 1.785.511 2.523Zm-2.616-5.736c-.385-.756-1.613-1.083-2.168-1.275a3.881 3.881 0 0 0-1.33-.025c-1.147.17-1.953 1.08-2.657 2.583-.242.518-.1.989-.232 1.12-.076.076-.226.067-.172.067-.047 0-.169-.012-.188-.032-.01-.009-.014-.023-.014-.042-.001-.093.078-.25.078-.442 0-.178-.046-.377-.046-.506 0-.122.039-.152.082-.224.56-.954.747-2.222 2.481-2.947.652-.272.923-.565 1.505-.565.273 0 .802.083.953.1.168.017.153.026.337.177.155.127.365.343.57.513.23.192.612.42.869.678.032.031.393.605.429.715.038.123.088.336.203.778.187.723.296.884.296 1.217 0 .122-.02.268-.098.368-.034.043-.055.046-.076.047-.03.002-.057-.016-.093-.05-.016-.014-.03-.05-.044-.101-.623-2.165-.305-1.406-.684-2.156v.002Zm-6.096 3.22c.183 0 .364.06.552.384.337.579.404 2.344.404 2.584 0 1.628-.974 1.496-1.015 1.496-.569 0-.894-.169-1.084-.359-.382-.382-.388-1.127-.408-1.232-.112-.61-.131-.119-.131-1.458 0-.47.026-1 .174-1.147.056-.056.141-.088.278-.088.127 0 .228.032.324.032.198 0 .353-.212.906-.212Z" clip-rule="evenodd"/></g></g></g></svg>