<svg xmlns="http://www.w3.org/2000/svg" viewBox="0 0 32 32"><defs><path id="google__a" fill="#fff" d="M0 0h32v32H0z"/></defs><defs><clipPath id="google__b"><use href="#google__a"/></clipPath></defs><g clip-path="url(#google__b)"><mask id="google__c" width="32" height="32" x="0" y="0" maskUnits="userSpaceOnUse" style="mask-type:alpha"><path d="M16 0c12.357 0 16 3.643 16 16s-3.643 16-16 16S0 28.357 0 16 3.643 0 16 0Z"/></mask><g mask="url(#google__c)"><use href="#google__a"/><path fill="#FAB908" fill-rule="evenodd" d="M16 5.5c.736 0 1.333.597 1.333 1.333v1.334a1.333 1.333 0 0 1-2.666 0V6.833c0-.736.597-1.333 1.333-1.333Zm0 17c.736 0 1.333.597 1.333 1.333v1.334a1.333 1.333 0 0 1-2.666 0v-1.334c0-.736.597-1.333 1.333-1.333Zm0-11.667c.736 0 1.333.597 1.333 1.334v7.666a1.333 1.333 0 0 1-2.666 0v-7.666c0-.737.597-1.334 1.333-1.334Z" clip-rule="evenodd"/><path fill="#EA4335" fill-rule="evenodd" d="M11.333 9.667c.737 0 1.334.597 1.334 1.333v4.667a1.333 1.333 0 0 1-2.667 0V11c0-.736.597-1.333 1.333-1.333Zm0 8.666c.737 0 1.334.597 1.334 1.334V21A1.333 1.333 0 0 1 10 21v-1.333c0-.737.597-1.334 1.333-1.334Z" clip-rule="evenodd"/><path fill="#34A853" fill-rule="evenodd" d="M20.667 15c.736 0 1.333.597 1.333 1.333V21a1.333 1.333 0 1 1-2.667 0v-4.667c0-.736.597-1.333 1.334-1.333Zm0-5.333c.736 0 1.333.597 1.333 1.333v1.333a1.333 1.333 0 1 1-2.667 0V11c0-.736.597-1.333 1.334-1.333Z" clip-rule="evenodd"/><path fill="#4285F4" fill-rule="evenodd" d="M25.333 14c.737 0 1.334.597 1.334 1.333v1.334a1.333 1.333 0 0 1-2.667 0v-1.334c0-.736.597-1.333 1.333-1.333Z" clip-rule="evenodd"/><path fill="#0066D9" fill-rule="evenodd" d="M6.667 14C7.403 14 8 14.597 8 15.333v1.334a1.333 1.333 0 0 1-2.667 0v-1.334c0-.736.597-1.333 1.334-1.333Z" clip-rule="evenodd"/></g></g></svg>