<svg xmlns="http://www.w3.org/2000/svg" width="32" height="32" fill="none" viewBox="0 0 32 32">
  <path fill="#fff" d="M3.366 28.634C.911 26.178 0 22.178 0 16S.91 5.822 3.366 3.366C5.822.911 9.822 0 16 0s10.178.91 12.634 3.366C31.089 5.822 32 9.822 32 16s-.91 10.178-3.366 12.634C26.178 31.089 22.178 32 16 32s-10.178-.91-12.634-3.366Z"/>
  <path fill="#FAB908" fill-rule="evenodd" d="M16 5.5c.736 0 1.333.597 1.333 1.333v1.334a1.333 1.333 0 0 1-2.666 0V6.833c0-.736.597-1.333 1.333-1.333Zm0 17c.736 0 1.333.597 1.333 1.333v1.334a1.333 1.333 0 0 1-2.666 0v-1.334c0-.736.597-1.333 1.333-1.333Zm0-11.667c.736 0 1.333.597 1.333 1.334v7.666a1.333 1.333 0 0 1-2.666 0v-7.666c0-.737.597-1.334 1.333-1.334Z" clip-rule="evenodd"/>
  <path fill="#EA4335" fill-rule="evenodd" d="M11.333 9.667c.737 0 1.334.597 1.334 1.333v4.667a1.333 1.333 0 0 1-2.667 0V11c0-.736.597-1.333 1.333-1.333Zm0 8.666c.737 0 1.334.597 1.334 1.334V21A1.333 1.333 0 0 1 10 21v-1.333c0-.737.597-1.334 1.333-1.334Z" clip-rule="evenodd"/>
  <path fill="#34A853" fill-rule="evenodd" d="M20.667 15c.736 0 1.333.597 1.333 1.333V21a1.333 1.333 0 1 1-2.667 0v-4.667c0-.736.597-1.333 1.334-1.333Zm0-5.333c.736 0 1.333.597 1.333 1.333v1.333a1.333 1.333 0 1 1-2.667 0V11c0-.736.597-1.333 1.334-1.333Z" clip-rule="evenodd"/>
  <path fill="#4285F4" fill-rule="evenodd" d="M25.333 14c.737 0 1.334.597 1.334 1.333v1.334a1.333 1.333 0 0 1-2.667 0v-1.334c0-.736.597-1.333 1.333-1.333Z" clip-rule="evenodd"/>
  <path fill="#0066D9" fill-rule="evenodd" d="M6.667 14C7.403 14 8 14.597 8 15.333v1.334a1.333 1.333 0 0 1-2.667 0v-1.334c0-.736.597-1.333 1.334-1.333Z" clip-rule="evenodd"/>
</svg>
