<svg xmlns="http://www.w3.org/2000/svg" fill="none" viewBox="0 0 32 32"><defs><path id="gpodder__a" fill="#fff" d="M0 0h32v32H0z"/></defs><defs><linearGradient id="gpodder__d" x1="6.989" x2="20.895" y1="4.374" y2="24.16" gradientUnits="userSpaceOnUse"><stop stop-color="#fff"/><stop offset="1" stop-color="#fff" stop-opacity="0"/></linearGradient><linearGradient id="gpodder__e" x1="26.719" x2="8.356" y1="7.806" y2="21.517" gradientUnits="userSpaceOnUse"><stop stop-color="#fff"/><stop offset="1" stop-color="#fff" stop-opacity="0"/></linearGradient><linearGradient id="gpodder__f" x1="9.716" x2="20.579" y1="6.878" y2="18.157" gradientUnits="userSpaceOnUse"><stop stop-color="#fff"/><stop offset="1" stop-color="#fff" stop-opacity="0"/></linearGradient><linearGradient id="gpodder__l" x1="12.629" x2="12.607" y1="10.904" y2="15.26" gradientUnits="userSpaceOnUse"><stop stop-color="#fff"/><stop offset="1" stop-color="#fff" stop-opacity="0"/></linearGradient><linearGradient id="gpodder__m" x1="19.618" x2="19.63" y1="10.669" y2="14.657" gradientUnits="userSpaceOnUse"><stop stop-color="#fff"/><stop offset="1" stop-color="#fff" stop-opacity="0"/></linearGradient><radialGradient id="gpodder__h" cx="0" cy="0" r="1" gradientTransform="matrix(20.88194 .94918 -.26797 5.89545 12.48 16.098)" gradientUnits="userSpaceOnUse"><stop stop-color="#fff"/><stop offset="1" stop-color="#E5E5E5"/></radialGradient><radialGradient id="gpodder__i" cx="0" cy="0" r="1" gradientTransform="rotate(-162.029 7.933 7.92) scale(3.58443 1.97147)" gradientUnits="userSpaceOnUse"><stop/><stop offset="1" stop-color="#6E6E6E"/></radialGradient><radialGradient id="gpodder__j" cx="0" cy="0" r="1" gradientTransform="matrix(20.88189 -1.89835 .53657 5.9023 19.779 15.74)" gradientUnits="userSpaceOnUse"><stop stop-color="#fff"/><stop offset="1" stop-color="#E5E5E5"/></radialGradient><radialGradient id="gpodder__k" cx="0" cy="0" r="1" gradientTransform="matrix(-3.27294 -1.39292 .77226 -1.81456 20.695 17.67)" gradientUnits="userSpaceOnUse"><stop/><stop offset="1" stop-color="#6E6E6E"/></radialGradient><clipPath id="gpodder__b"><use href="#gpodder__a"/></clipPath><filter id="gpodder__g" width="26.132" height="22.636" x="2.758" y="6.678" color-interpolation-filters="sRGB" filterUnits="userSpaceOnUse"><feFlood flood-opacity="0" result="BackgroundImageFix"/><feBlend in="SourceGraphic" in2="BackgroundImageFix" result="shape"/><feGaussianBlur result="effect1_foregroundBlur_663_2986" stdDeviation=".554"/></filter></defs><g clip-path="url(#gpodder__b)"><mask id="gpodder__c" width="32" height="32" x="0" y="0" maskUnits="userSpaceOnUse" style="mask-type:alpha"><path fill="#000" d="M16 0c12.357 0 16 3.643 16 16s-3.643 16-16 16S0 28.357 0 16 3.643 0 16 0Z"/></mask><g mask="url(#gpodder__c)"><use href="#gpodder__a"/><path fill="#E0C4F4" stroke="#CFA2EE" stroke-width=".581" d="M27.927 15.976A11.947 11.947 0 1 1 7.53 7.531a11.941 11.941 0 0 1 20.385 8.444h.01Z" opacity=".7"/><path fill="#BD80E8" stroke="#A34EDE" stroke-width=".584" d="M25.584 15.6a9.572 9.572 0 0 1-19.141 0 9.566 9.566 0 0 1 19.133 0h.008Z" opacity=".7"/><path fill="#A34EDE" stroke="#431266" stroke-width=".583" d="M22.516 14.53a6.515 6.515 0 1 1-13.03.001 6.515 6.515 0 0 1 13.03 0Z" opacity=".7"/><path stroke="url(#gpodder__d)" stroke-width=".581" d="M16.027 4.69A11.164 11.164 0 0 0 4.835 15.882a11.168 11.168 0 0 0 11.192 11.182A11.17 11.17 0 0 0 27.22 15.872 11.17 11.17 0 0 0 16.027 4.68v.01Z" opacity=".4"/><path stroke="url(#gpodder__e)" stroke-width=".584" d="M16.062 6.732a8.771 8.771 0 1 0-.553 17.534 8.771 8.771 0 0 0 .553-17.534Z" opacity=".4"/><path stroke="url(#gpodder__f)" stroke-width=".583" d="M16.098 8.674a5.792 5.792 0 1 0 0 11.585 5.792 5.792 0 0 0 0-11.585Z" opacity=".4"/><g filter="url(#gpodder__g)" opacity=".5"><path fill="#000" d="M13.025 19.71c-.222-1.83-.688-11.823 2.012-11.922 2.696-.105 3.413 9.117 3.675 11.55.263 2.438-.6 4.625 5.198 3.29 2.578-.596 4.037-2.019 3.856 1.534-.175 3.558-6.598 3.657-9.637 3.908-8.149.46-14.344-.245-14.262-2.263.081-2.013.186-2.859 1.68-2.579 10.015 1.826 7.7-1.732 7.484-3.517h-.006Z"/></g><path fill="#75507B" stroke="#3D2A3F" stroke-width=".583" d="M13.367 19.99c-.227-1.825-.69-11.777 2.017-11.876 2.707-.099 3.427 9.083 3.689 11.51.261 2.426-.607 4.602 5.218 3.266 2.588-.583 4.046-2.007 3.867 1.528-.178 3.541-6.622 3.646-9.669 3.891-8.18.461-14.399-.245-14.321-2.246.083-2.006.19-2.846 1.69-2.572 10.055 1.82 7.735-1.727 7.509-3.5Z"/><path stroke="#fff" stroke-width=".583" d="M15.401 8.773c-.13 0-.214.047-.374.234-.161.192-.352.53-.5.968-.298.875-.482 2.152-.577 3.482-.19 2.666-.012 5.63.095 6.452.041.333.232.887.333 1.517.101.624.125 1.388-.357 2.042-.476.647-1.363 1.032-2.654 1.149-1.297.11-3.094-.018-5.634-.479-.316-.058-.476-.035-.536-.017-.065.017-.065 0-.119.093-.101.193-.196.864-.238 1.861 0 .082.018.14.113.25.09.117.28.258.571.403.595.292 1.565.549 2.809.73 2.487.361 6.045.425 10.097.198h.018c1.553-.117 3.88-.216 5.783-.688.952-.24 1.797-.584 2.362-1.004a2.01 2.01 0 0 0 .64-.688c.156-.276.242-.584.253-.898a4.178 4.178 0 0 0-.113-1.517c-.072-.175.023-.088-.131-.088-.304 0-1.422.45-2.809.765-1.487.344-2.576.484-3.439.42-.857-.065-1.529-.368-1.933-.875a2.999 2.999 0 0 1-.554-1.68c-.053-.572-.036-1.155-.095-1.71-.137-1.236-.387-4.112-.928-6.638a14.013 14.013 0 0 0-1.024-3.226 3.018 3.018 0 0 0-.595-.857c-.184-.164-.32-.204-.464-.199Z" opacity=".4"/><path fill="#fff" fill-rule="evenodd" d="M26.693 23.176c-5.758 3.091-12.478 1.738-21.537 3.232.03.011.035-.082.058-.07.595.25 1.575.577 2.818.735 2.485.314 6.265.484 10.325.285 3.523-.175 7.017-.641 8.026-1.674 1.715-1.447.1-3.185.31-2.508Z" clip-rule="evenodd" opacity=".2"/><path fill="url(#gpodder__h)" stroke="#000" stroke-width=".584" d="M15.422 16.155c-.159 2.942-1.587 5.265-3.188 5.192-1.602-.072-2.772-2.514-2.613-5.456.16-2.942 1.587-5.268 3.189-5.195 1.601.073 2.771 2.517 2.612 5.459Z"/><path fill="url(#gpodder__i)" d="M13.6 17.984c-.052 1.076-.549 1.94-1.1 1.913-.551-.026-.961-.933-.909-2.01.053-1.075.549-1.927 1.1-1.9.551.026.962.92.91 1.997Z"/><path fill="url(#gpodder__j)" stroke="#000" stroke-width=".587" d="M22.708 15.397c.318 2.942-.723 5.443-2.325 5.588-1.601.146-3.158-2.119-3.476-5.06-.318-2.943.723-5.446 2.325-5.591 1.602-.146 3.158 2.121 3.476 5.063Z"/><path fill="url(#gpodder__k)" d="M21.246 17.803c-.152 1.066-.724 1.881-1.268 1.808-.543-.074-.865-1.01-.713-2.076.153-1.066.723-1.87 1.266-1.796.544.073.867.998.715 2.064Z"/><path stroke="url(#gpodder__l)" stroke-width=".584" d="M15.422 16.155c-.159 2.942-1.587 5.265-3.188 5.192-1.602-.072-2.772-2.514-2.613-5.456.16-2.942 1.587-5.268 3.189-5.195 1.601.073 2.771 2.517 2.612 5.459Z" opacity=".5"/><path stroke="url(#gpodder__m)" stroke-width=".587" d="M22.708 15.397c.318 2.942-.723 5.443-2.325 5.588-1.601.146-3.158-2.119-3.476-5.06-.318-2.943.723-5.446 2.325-5.591 1.602-.146 3.158 2.121 3.476 5.063Z" opacity=".5"/><path fill="#000" fill-rule="evenodd" d="M13.178 18.939a.603.603 0 0 1-.242.4.627.627 0 0 1-.866-.124.6.6 0 0 1 .124-.85.626.626 0 0 1 .866.124.6.6 0 0 1 .117.45Zm7.581-.271a.633.633 0 0 1-.863.163.594.594 0 0 1-.163-.84.632.632 0 0 1 .863-.163.594.594 0 0 1 .163.84Z" clip-rule="evenodd" opacity=".95"/></g></g></svg>