<svg xmlns="http://www.w3.org/2000/svg" width="32" height="32" fill="none" viewBox="0 0 32 32">
  <g clip-path="url(#a)">
    <path fill="#F2E8E0" d="M3.367 28.633C.913 26.18 0 22.18 0 16 0 9.82.913 5.82 3.367 3.367 5.82.913 9.82 0 16 0c6.18 0 10.18.913 12.633 3.367C31.087 5.82 32 9.82 32 16c0 6.18-.913 10.18-3.367 12.633C26.18 31.087 22.18 32 16 32c-6.18 0-10.18-.913-12.633-3.367Z"/>
    <path fill="#9A3127" d="M13.588 25.7a9.689 9.689 0 0 0 6.859-2.841A9.7 9.7 0 0 0 13.588 6.3v19.4Z"/>
    <path fill="#D15437" d="M11.576 23.688a7.683 7.683 0 0 0 7.103-4.746 7.682 7.682 0 0 0-1.667-8.378 7.693 7.693 0 0 0-5.436-2.252v15.376Z"/>
    <path fill="#D88E3D" d="M9.78 21.317c.67 0 1.333-.137 1.952-.404a5.097 5.097 0 0 0 1.655-1.153 5.33 5.33 0 0 0 1.106-1.725 5.51 5.51 0 0 0 0-4.069 5.33 5.33 0 0 0-1.106-1.725 5.092 5.092 0 0 0-1.655-1.152 4.92 4.92 0 0 0-1.952-.405v10.634Z"/>
  </g>
  <defs>
    <clipPath id="a">
      <path fill="#fff" d="M0 0h32v32H0z"/>
    </clipPath>
  </defs>
</svg>
