<svg xmlns="http://www.w3.org/2000/svg" viewBox="0 0 32 32"><defs><clipPath id="hark__a"><path fill="#fff" d="M0 0h32v32H0z"/></clipPath></defs><g clip-path="url(#hark__a)"><mask id="hark__b" width="32" height="32" x="0" y="0" maskUnits="userSpaceOnUse" style="mask-type:alpha"><path d="M16 0c12.357 0 16 3.643 16 16s-3.643 16-16 16S0 28.357 0 16 3.643 0 16 0Z"/></mask><g mask="url(#hark__b)"><path fill="#F2E8E0" d="M0 0h32v32H0z"/><path fill="#9A3127" d="M13.588 25.7a9.689 9.689 0 0 0 6.859-2.841A9.7 9.7 0 0 0 13.588 6.3v19.4Z"/><path fill="#D15437" d="M11.576 23.688a7.683 7.683 0 0 0 7.103-4.746 7.682 7.682 0 0 0-1.667-8.378 7.693 7.693 0 0 0-5.436-2.252v15.376Z"/><path fill="#D88E3D" d="M9.78 21.317c.67 0 1.333-.137 1.952-.404a5.097 5.097 0 0 0 1.655-1.153 5.33 5.33 0 0 0 1.106-1.725 5.51 5.51 0 0 0 0-4.069 5.33 5.33 0 0 0-1.106-1.725 5.092 5.092 0 0 0-1.655-1.152 4.92 4.92 0 0 0-1.952-.405v10.634Z"/></g></g></svg>