<svg width="32" height="32" viewBox="0 0 32 32" fill="none" xmlns="http://www.w3.org/2000/svg">
<g clip-path="url(#clip0_29_345)">
<path d="M3.36627 28.6337C0.910867 26.1783 0 22.1783 0 16C0 9.82167 0.910867 5.82167 3.36627 3.36627C5.82167 0.910867 9.82167 0 16 0C22.1783 0 26.1783 0.910867 28.6337 3.36627C31.0891 5.82167 32 9.82167 32 16C32 22.1783 31.0891 26.1783 28.6337 28.6337C26.1783 31.0891 22.1783 32 16 32C9.82167 32 5.82167 31.0891 3.36627 28.6337Z" fill="url(#paint0_linear_29_345)"/>
<path d="M21.9515 6.38416C20.7752 6.39178 19.6189 6.68863 18.5844 7.24856C17.5499 7.80849 16.669 8.61429 16.0194 9.59496C15.3684 8.61565 14.4872 7.81088 13.453 7.25113C12.4188 6.69137 11.2632 6.39369 10.0873 6.38416C9.15649 6.38391 8.23479 6.56706 7.37481 6.92314C6.51484 7.27921 5.73345 7.80124 5.07529 8.4594C4.41713 9.11755 3.89509 9.89894 3.53901 10.7589C3.18292 11.6189 2.99976 12.5406 3 13.4714C3 15.958 4.56627 17.7394 6.2108 19.4036L12.6324 25.4731C12.7075 25.5433 12.8017 25.5897 12.903 25.6068C13.0044 25.6238 13.1086 25.6106 13.2025 25.5689C13.2964 25.5271 13.376 25.4586 13.4313 25.372C13.4866 25.2853 13.5151 25.1843 13.5134 25.0815V20.3433C13.5224 19.6897 13.7883 19.066 14.2536 18.607C14.7189 18.148 15.3462 17.8907 15.9998 17.8907C16.6534 17.8907 17.2808 18.148 17.7461 18.607C18.2114 19.066 18.4773 19.6897 18.4863 20.3433V25.0812C18.4845 25.1839 18.5131 25.285 18.5684 25.3716C18.6236 25.4583 18.7032 25.5268 18.7972 25.5685C18.8911 25.6103 18.9952 25.6235 19.0966 25.6064C19.198 25.5894 19.2921 25.5429 19.3673 25.4728L25.7889 19.4036C27.4333 17.7398 29 15.9578 29 13.4714C29.0079 12.5417 28.8313 11.6197 28.4804 10.7588C28.1294 9.89792 27.6112 9.1152 26.9556 8.45602C26.3 7.79683 25.5201 7.27428 24.6612 6.91864C23.8022 6.563 22.8812 6.38133 21.9515 6.38416ZM9.5782 18.9337C9.53205 18.9862 9.47462 19.0275 9.4102 19.0547C9.34579 19.0818 9.27606 19.094 9.20627 19.0903C9.08518 19.0903 8.96772 19.0489 8.87333 18.9731C6.75893 17.0936 5.68213 15.1358 5.68213 13.1584V13.1389C5.7084 12.2484 5.94141 11.3763 6.36274 10.5914C6.78408 9.80649 7.38218 9.13033 8.1098 8.61636C8.22144 8.54626 8.35635 8.52338 8.48486 8.55276C8.61336 8.58213 8.72494 8.66135 8.79503 8.77299C8.86513 8.88463 8.88801 9.01954 8.85863 9.14805C8.82926 9.27655 8.75004 9.38813 8.6384 9.45822C8.05272 9.88155 7.57176 10.4334 7.23239 11.0714C6.89303 11.7094 6.70427 12.4166 6.6806 13.1389V13.1585C6.6806 14.8422 7.63993 16.5652 9.539 18.2488C9.5899 18.289 9.6317 18.3395 9.66163 18.397C9.69156 18.4546 9.70895 18.5178 9.71265 18.5826C9.71635 18.6473 9.70627 18.7121 9.68308 18.7727C9.6599 18.8333 9.62413 18.8882 9.57813 18.934L9.5782 18.9337ZM12.7499 17.1131C12.706 17.1889 12.6433 17.2522 12.5678 17.2968C12.4924 17.3414 12.4067 17.3658 12.3191 17.3676C12.2373 17.3667 12.1568 17.3466 12.0842 17.3089C11.3793 16.9143 10.7875 16.3451 10.3659 15.656C9.94419 14.9669 9.70668 14.181 9.67613 13.3737V13.3542C9.67806 12.6333 9.87579 11.9264 10.2482 11.3092C10.6206 10.6919 11.1537 10.1875 11.7905 9.84962C11.8484 9.81966 11.9117 9.80144 11.9766 9.796C12.0416 9.79055 12.107 9.798 12.169 9.81791C12.2311 9.83782 12.2886 9.8698 12.3383 9.91201C12.388 9.95422 12.4288 10.0058 12.4585 10.0639C12.4881 10.1219 12.506 10.1852 12.5111 10.2502C12.5162 10.3152 12.5085 10.3806 12.4882 10.4425C12.468 10.5045 12.4357 10.5618 12.3933 10.6113C12.3508 10.6608 12.299 10.7013 12.2408 10.7307C11.7573 10.9825 11.352 11.362 11.069 11.828C10.7859 12.2939 10.636 12.8285 10.6354 13.3737C10.6581 14.0067 10.8452 14.623 11.1781 15.1619C11.5111 15.7008 11.9785 16.1438 12.5345 16.4474C12.5937 16.4755 12.6466 16.5153 12.6898 16.5646C12.7331 16.6138 12.7658 16.6714 12.7859 16.7337C12.8061 16.7961 12.8133 16.8619 12.8071 16.9271C12.8009 16.9924 12.7814 17.0557 12.7499 17.1131ZM16.0194 15.8598C15.5973 15.8598 15.1847 15.7346 14.8338 15.5001C14.4829 15.2656 14.2094 14.9323 14.0478 14.5424C13.8863 14.1525 13.8441 13.7234 13.9264 13.3094C14.0087 12.8955 14.212 12.5152 14.5104 12.2168C14.8089 11.9183 15.1891 11.7151 15.6031 11.6328C16.017 11.5504 16.4461 11.5927 16.836 11.7542C17.226 11.9157 17.5593 12.1892 17.7938 12.5402C18.0282 12.8911 18.1534 13.3037 18.1534 13.7258C18.1521 14.2913 17.9268 14.8333 17.5269 15.2333C17.127 15.6332 16.585 15.8584 16.0194 15.8598ZM19.9546 17.3086C19.882 17.3463 19.8015 17.3664 19.7197 17.3673C19.6321 17.3654 19.5464 17.341 19.471 17.2965C19.3955 17.2519 19.3328 17.1886 19.2889 17.1128C19.2579 17.0562 19.2384 16.9941 19.2315 16.93C19.2245 16.8659 19.2303 16.8011 19.2485 16.7392C19.2667 16.6774 19.2969 16.6197 19.3375 16.5696C19.378 16.5195 19.4281 16.4778 19.4847 16.4471C20.0375 16.1396 20.5022 15.6957 20.8346 15.1576C21.1671 14.6195 21.3561 14.0052 21.3838 13.3734C21.3848 12.8278 21.2355 12.2926 20.9523 11.8264C20.6691 11.3601 20.263 10.9809 19.7784 10.7304C19.6623 10.6703 19.5746 10.5666 19.5347 10.4421C19.4948 10.3176 19.5057 10.1823 19.5653 10.0658C19.6248 9.94939 19.728 9.86125 19.8523 9.82067C19.9766 9.78009 20.1119 9.79038 20.2287 9.84929C20.8682 10.1839 21.4035 10.6876 21.7764 11.3056C22.1492 11.9236 22.3453 12.6321 22.3431 13.3538V13.3734C22.3247 14.1811 22.0944 14.9698 21.6752 15.6604C21.256 16.3511 20.6626 16.9194 19.9546 17.3086ZM26.337 13.158C26.337 15.1354 25.2603 17.0932 23.1458 18.9727C23.0445 19.055 22.9161 19.0966 22.7858 19.0894C22.6555 19.0821 22.5325 19.0265 22.441 18.9335C22.3569 18.8368 22.3138 18.711 22.3211 18.583C22.3284 18.455 22.3854 18.335 22.48 18.2484C24.3791 16.5647 25.3384 14.8614 25.3384 13.1581V13.1386C25.3147 12.4163 25.126 11.709 24.7866 11.071C24.4473 10.433 23.9663 9.8812 23.3806 9.45789C23.269 9.38779 23.1897 9.27622 23.1604 9.14771C23.131 9.01921 23.1539 8.8843 23.224 8.77266C23.2941 8.66102 23.4056 8.5818 23.5341 8.55242C23.6626 8.52305 23.7976 8.54593 23.9092 8.61602C24.6371 9.12974 25.2354 9.80583 25.6567 10.5908C26.0781 11.3757 26.311 12.248 26.3369 13.1385V13.1581L26.337 13.158Z" fill="white"/>
</g>
<defs>
<linearGradient id="paint0_linear_29_345" x1="0" y1="16" x2="32" y2="16" gradientUnits="userSpaceOnUse">
<stop stop-color="#C90025"/>
<stop offset="1" stop-color="#AA001F"/>
</linearGradient>
<clipPath id="clip0_29_345">
<rect width="32" height="32" fill="white"/>
</clipPath>
</defs>
</svg>
