<svg xmlns="http://www.w3.org/2000/svg" width="32" height="32" fill="none" viewBox="0 0 32 32"><defs><linearGradient id="b" x1="16" x2="16" y1="0" y2="32" gradientUnits="userSpaceOnUse"><stop stop-color="#F50"/><stop offset="1" stop-color="#F30"/></linearGradient></defs><mask id="a" width="32" height="32" x="0" y="0" maskUnits="userSpaceOnUse" style="mask-type:alpha"><path fill="#000" d="M16 0c12.357 0 16 3.643 16 16s-3.643 16-16 16S0 28.357 0 16 3.643 0 16 0Z"/></mask><g mask="url(#a)"><path fill="url(#b)" d="M0 0h32v32H0z"/><path fill="#fff" d="M20.385 20.641a8.5 8.5 0 1 0-8.77 0 8.944 8.944 0 0 1-.085-.921c0-.31.028-.614.082-.907a7 7 0 1 1 8.776 0c.054.293.082.597.082.907 0 .141-.026.47-.085.921Z"/><path fill="#fff" d="M19.768 17.173a5.362 5.362 0 1 0-7.537 0c.264-.437.594-.826.974-1.15a3.862 3.862 0 1 1 5.59 0c.38.324.71.713.973 1.15Z"/><path fill="#fff" d="M18.97 19.72c0 1.91-1.46 7.55-2.97 7.55-1.51 0-2.97-5.64-2.97-7.55 0-1.79 1.33-3.24 2.97-3.24 1.64 0 2.97 1.45 2.97 3.24Z"/><circle cx="16" cy="13.36" r="2.24" fill="#fff"/></g></svg>