<svg xmlns="http://www.w3.org/2000/svg" width="32" height="32" fill="none" viewBox="0 0 32 32">
  <g clip-path="url(#a)">
    <mask id="b" width="32" height="32" x="0" y="0" maskUnits="userSpaceOnUse" style="mask-type:luminance">
      <path fill="#fff" d="M3.366 28.634C.911 26.178 0 22.178 0 16S.91 5.822 3.366 3.366C5.822.911 9.822 0 16 0s10.178.91 12.634 3.366C31.089 5.821 32 9.821 32 16s-.91 10.178-3.366 12.634C26.179 31.089 22.179 32 16 32s-10.178-.91-12.634-3.366Z"/>
    </mask>
    <g mask="url(#b)">
      <path fill="url(#c)" d="M32 0H0v32h32V0Z"/>
      <path fill="#fff" d="M6 12v4.6h5.233V32H16V16.467C16 14 14 12 11.533 12H6Zm7.217-1.35c1.574 0 2.85-1.224 2.85-2.733 0-1.51-1.276-2.734-2.85-2.734s-2.85 1.224-2.85 2.734 1.276 2.733 2.85 2.733Z"/>
    </g>
  </g>
  <defs>
    <linearGradient id="c" x1="0" x2="32" y1="0" y2="32" gradientUnits="userSpaceOnUse">
      <stop stop-color="#FFA800"/>
      <stop offset="1" stop-color="#FF598E"/>
    </linearGradient>
    <clipPath id="a">
      <path fill="#fff" d="M0 0h32v32H0z"/>
    </clipPath>
  </defs>
</svg>
