<svg xmlns="http://www.w3.org/2000/svg" width="32" height="32" fill="none" viewBox="0 0 32 32"><defs><linearGradient id="b" x1="0" x2="32" y1="0" y2="32" gradientUnits="userSpaceOnUse"><stop stop-color="#FFA800"/><stop offset="1" stop-color="#FF598E"/></linearGradient></defs><mask id="a" width="32" height="32" x="0" y="0" maskUnits="userSpaceOnUse" style="mask-type:alpha"><path fill="#000" d="M16 0c12.357 0 16 3.643 16 16s-3.643 16-16 16S0 28.357 0 16 3.643 0 16 0Z"/></mask><g mask="url(#a)"><path fill="url(#b)" d="M0 0h32v32H0z"/><path fill="#fff" d="M6 12v4.6h5.233V32H16V16.467C16 14 14 12 11.533 12H6Zm7.217-1.35c1.574 0 2.85-1.224 2.85-2.733 0-1.51-1.276-2.734-2.85-2.734s-2.85 1.224-2.85 2.734 1.276 2.733 2.85 2.733Z"/></g></svg>