<svg xmlns="http://www.w3.org/2000/svg" width="32" height="32" fill="none" viewBox="0 0 32 32">
  <g clip-path="url(#a)">
    <path fill="url(#b)" d="M3.366 28.634C.911 26.178 0 22.178 0 16S.91 5.822 3.366 3.366C5.822.911 9.822 0 16 0s10.178.91 12.634 3.366C31.089 5.822 32 9.822 32 16s-.91 10.178-3.366 12.634C26.178 31.089 22.178 32 16 32s-10.178-.91-12.634-3.366Z"/>
    <path fill="#fff" fill-rule="evenodd" d="M16.344 31.999 16 32c-1.78 0-3.379-.076-4.813-.242V17.313h-4.78v-5.157h7.937a2 2 0 0 1 2 2V32ZM13.53 10.875a2.813 2.813 0 1 0 0-5.625 2.813 2.813 0 0 0 0 5.625Z" clip-rule="evenodd"/>
  </g>
  <defs>
    <linearGradient id="b" x1="16" x2="16" y1="0" y2="32" gradientUnits="userSpaceOnUse">
      <stop stop-color="#FF9800"/>
      <stop offset="1" stop-color="#F60"/>
    </linearGradient>
    <clipPath id="a">
      <path fill="#fff" d="M0 0h32v32H0z"/>
    </clipPath>
  </defs>
</svg>
