<svg xmlns="http://www.w3.org/2000/svg" viewBox="0 0 32 32"><defs><linearGradient id="jam__c" x1="0" x2="32" y1="16" y2="16" gradientUnits="userSpaceOnUse"><stop stop-color="#6900BC"/><stop offset="1" stop-color="#DA01BE"/></linearGradient><clipPath id="jam__a"><path fill="#fff" d="M0 0h32v32H0z"/></clipPath></defs><g clip-path="url(#jam__a)"><mask id="jam__b" width="32" height="32" x="0" y="0" maskUnits="userSpaceOnUse" style="mask-type:alpha"><path d="M16 0c12.357 0 16 3.643 16 16s-3.643 16-16 16S0 28.357 0 16 3.643 0 16 0Z"/></mask><g mask="url(#jam__b)"><path fill="url(#jam__c)" d="M0 0h32v32H0z"/><path fill="#fff" d="M16.125 12.253c-.089-.286-.518-.429-1.286-.429h-1.162c-.786 0-1.214.143-1.286.429l-2.216 7.146c-.036.072-.036.126-.036.179 0 .268.215.41.626.41h.572c.786 0 1.268-.053 1.465-.142a.461.461 0 0 0 .286-.447h2.376v.036c0 .179.09.304.268.411.179.09.661.143 1.43.143h.589c.41-.018.607-.143.607-.411l-.018-.179-2.215-7.146Zm-2.376 4.824.5-1.698.518 1.698H13.75Zm13.739-5.253h-1.75c-.394 0-.662.125-.84.375l-1.483 2.252-1.519-2.269c-.16-.25-.429-.357-.822-.357h-1.733c-.41 0-.589.196-.589.589v6.985c0 .394.197.59.59.59h1.75c.393 0 .572-.197.572-.59v-3.502c.397.785.863 1.532 1.393 2.234.143.125.25.178.358.178a.44.44 0 0 0 .286-.107c.196-.16.678-.911 1.465-2.305V19.4c0 .394.179.59.572.59h1.75c.394 0 .59-.197.59-.59v-7.003c0-.393-.197-.572-.59-.572Zm-16.918.643c0-.393-.197-.572-.59-.572H8.23c-.376 0-.573.179-.573.572v3.574c0 .714-.178 1.072-.536 1.09-.284-.029-.312-.169-.643-.768-.128-.243-.359-.458-.786-.232l-1.537.822c-.32.16-.447.411-.25.786l.268.518c.676 1.251 1.597 1.888 2.769 1.888.581 0 3.61.023 3.61-4.176l.017-3.502Z"/></g></g></svg>