<svg xmlns="http://www.w3.org/2000/svg" viewBox="0 0 32 32"><defs><path id="listennotes__a" fill="#fff" d="M0 0h32v32H0z"/></defs><defs><clipPath id="listennotes__b"><use href="#listennotes__a"/></clipPath></defs><g clip-path="url(#listennotes__b)"><mask id="listennotes__c" width="32" height="32" x="0" y="0" maskUnits="userSpaceOnUse" style="mask-type:alpha"><path d="M16 0c12.357 0 16 3.643 16 16s-3.643 16-16 16S0 28.357 0 16 3.643 0 16 0Z"/></mask><g mask="url(#listennotes__c)"><use href="#listennotes__a"/><path d="M24.547 21.827c-1-.967-2.027-1.714-2.914-2.154a9.44 9.44 0 0 0 1.914-5.693c0-5.233-4.26-9.493-9.494-9.493-5.233 0-9.493 4.26-9.493 9.493 0 5.233 4.26 9.493 9.493 9.493 2.174 0 4.174-.74 5.774-1.973.473.873 1.26 1.887 2.273 2.86 2.1 2.027 4.347 3.1 5.02 2.407.68-.7-.473-2.914-2.573-4.94Zm-18-7.847c0-4.14 3.366-7.507 7.506-7.507 4.14 0 7.507 3.367 7.507 7.507s-3.367 7.507-7.507 7.507-7.506-3.367-7.506-7.507Zm11.646 12.98c0 .273-2.113.5-4.713.5s-4.707-.22-4.707-.5 2.114-.493 4.707-.493 4.713.22 4.713.493Z"/><path fill="#B82F00" d="M19.2 17.66h-1.4c0-4.133-3.327-7.493-7.42-7.493v-1.4c4.86 0 8.82 3.993 8.82 8.893Zm-9.047-6.233v1.286c2.9 0 5.254 2.32 5.254 5.18h1.286c0-3.56-2.933-6.46-6.54-6.46v-.006Zm0 2.22v1.286c1.587 0 2.88 1.274 2.88 2.847h1.287c0-2.28-1.867-4.127-4.167-4.127v-.006Zm.727 2.373a1.22 1.22 0 0 0-1.22 1.22c0 .673.547 1.213 1.22 1.213.673 0 1.213-.546 1.213-1.213s-.546-1.22-1.213-1.22Z"/></g></g></svg>