<svg xmlns="http://www.w3.org/2000/svg" fill="none" viewBox="0 0 32 32"><defs><linearGradient id="lnbeats__c" x1="15.656" x2="15.656" y1="5.875" y2="27.688" gradientUnits="userSpaceOnUse"><stop stop-color="#FD9900"/><stop offset="1" stop-color="#E58900"/></linearGradient><clipPath id="lnbeats__a"><path fill="#fff" d="M0 0h32v32H0z"/></clipPath></defs><g clip-path="url(#lnbeats__a)"><mask id="lnbeats__b" width="32" height="32" x="0" y="0" maskUnits="userSpaceOnUse" style="mask-type:alpha"><path fill="#000" d="M16 0c12.357 0 16 3.643 16 16s-3.643 16-16 16S0 28.357 0 16 3.643 0 16 0Z"/></mask><g mask="url(#lnbeats__b)"><path fill="#111C32" d="M0 0h32v32H0z"/><path fill="#000" d="M32 0H0v32h32V0Z"/><path fill="url(#lnbeats__c)" d="M20.657 16.855a3.74 3.74 0 0 0 1.655-3.105 3.757 3.757 0 0 0-3.687-3.748V5.875H16.25V10H14.5V5.875h-2.375V10h-3.5v2.5h1.813v8.938H8.624v2.5h3.5v3.75H14.5v-3.75h1.75v3.75h2.375v-3.75h.313a3.75 3.75 0 0 0 1.719-7.083ZM14.5 12.5h2.563a1.5 1.5 0 0 1 0 3H14.5v-3Zm2.969 8.938H14.5v-3.313h2.969a1.656 1.656 0 1 1 0 3.313Z"/><path fill="#CCD4D2" fill-rule="evenodd" d="M8.719 10.75c0-1.265.739-2.47 2.055-3.383 1.314-.91 3.16-1.492 5.226-1.492s3.912.581 5.226 1.492c1.316.913 2.055 2.118 2.055 3.383a3.3 3.3 0 0 1-.048.563h-.358v5h1.25v-4.01a4.45 4.45 0 0 0 .281-1.553c0-1.738-1.017-3.252-2.54-4.307C20.343 5.386 18.267 4.75 16 4.75c-2.266 0-4.342.636-5.867 1.693-1.522 1.055-2.54 2.569-2.54 4.307 0 .539.1 1.06.282 1.552v4.01h1.25v-5h-.358a3.272 3.272 0 0 1-.048-.562Zm1.469.688h-.813v4.874h.813v-4.875Zm12.437 0h-.813v4.874h.813v-4.875Z" clip-rule="evenodd"/></g></g></svg>