<svg xmlns="http://www.w3.org/2000/svg" width="32" height="32" fill="none" viewBox="0 0 32 32">
  <path fill="#111C32" d="M3.367 28.633C.913 26.18 0 22.18 0 16 0 9.82.913 5.82 3.367 3.367 5.82.913 9.82 0 16 0c6.18 0 10.18.913 12.633 3.367C31.087 5.82 32 9.82 32 16c0 6.18-.913 10.18-3.367 12.633C26.18 31.087 22.18 32 16 32c-6.18 0-10.18-.913-12.633-3.367Z"/>
  <path fill="#FFE500" d="M15.8 6.3a9.6 9.6 0 1 0 0 19.2h9.6v-9.6a9.6 9.6 0 0 0-9.6-9.6m-.618 6.06v10.086l-3.159-1.364V10.997l2.435-1.005 3.156 1.351-2.432 1.018Zm2.433 3.04 3.262 1.365-3.262 1.383V15.4Z"/>
</svg>
