<svg xmlns="http://www.w3.org/2000/svg" viewBox="0 0 32 32"><defs><clipPath id="luminary__a"><path fill="#fff" d="M0 0h32v32H0z"/></clipPath></defs><g clip-path="url(#luminary__a)"><mask id="luminary__b" width="32" height="32" x="0" y="0" maskUnits="userSpaceOnUse" style="mask-type:alpha"><path d="M16 0c12.357 0 16 3.643 16 16s-3.643 16-16 16S0 28.357 0 16 3.643 0 16 0Z"/></mask><g mask="url(#luminary__b)"><path fill="#111C32" d="M0 0h32v32H0z"/><path fill="#FFE500" d="M15.8 6.3a9.6 9.6 0 1 0 0 19.2h9.6v-9.6a9.6 9.6 0 0 0-9.6-9.6m-.618 6.06v10.086l-3.159-1.364V10.997l2.435-1.005 3.156 1.351-2.432 1.018Zm2.433 3.04 3.262 1.365-3.262 1.383V15.4Z"/></g></g></svg>