<svg xmlns="http://www.w3.org/2000/svg" fill="none" viewBox="0 0 32 32"><defs><clipPath id="metacast__a"><path fill="#fff" d="M0 0h32v32H0z"/></clipPath></defs><g clip-path="url(#metacast__a)"><mask id="metacast__b" width="32" height="32" x="0" y="0" maskUnits="userSpaceOnUse" style="mask-type:alpha"><path fill="#000" d="M16 0c12.357 0 16 3.643 16 16s-3.643 16-16 16S0 28.357 0 16 3.643 0 16 0Z"/></mask><g mask="url(#metacast__b)"><path fill="#FF2D55" d="M0 0h32v32H0z"/><path fill="#fff" d="M2.875 15.998c0-1.013.135-1.946.404-2.798a7.73 7.73 0 0 1 1.247-2.37h1.663a5.1 5.1 0 0 0-.593.989 8.81 8.81 0 0 0-.478 1.274c-.136.464-.242.943-.319 1.439a9.583 9.583 0 0 0-.114 1.466c0 .646.065 1.299.196 1.958.134.656.313 1.266.54 1.83.228.564.484 1.026.768 1.385H4.526a7.733 7.733 0 0 1-1.247-2.37c-.27-.852-.404-1.786-.404-2.802Zm4.478 0c0-1.013.135-1.946.404-2.798a7.73 7.73 0 0 1 1.246-2.37h1.663c-.212.27-.41.6-.592.989a8.812 8.812 0 0 0-.478 1.274c-.136.464-.243.943-.319 1.439a9.583 9.583 0 0 0-.114 1.466c0 .646.065 1.299.196 1.958.133.656.313 1.266.54 1.83.228.564.484 1.026.767 1.385H9.003a7.733 7.733 0 0 1-1.246-2.37c-.27-.852-.404-1.786-.404-2.802Zm4.093 3.355v-6.276h1.66v1.107h.073c.13-.367.348-.657.654-.87.305-.212.67-.319 1.095-.319.43 0 .796.108 1.099.323.302.213.503.501.604.866h.066c.128-.36.36-.646.694-.862.338-.218.737-.327 1.197-.327.586 0 1.061.187 1.426.56.368.37.552.896.552 1.577v4.22h-1.737v-3.877c0-.348-.092-.61-.277-.784a.974.974 0 0 0-.695-.261c-.316 0-.562.1-.74.302-.177.199-.265.462-.265.789v3.832h-1.688v-3.914c0-.308-.088-.553-.265-.736-.174-.182-.404-.273-.69-.273a.959.959 0 0 0-.524.147 1.01 1.01 0 0 0-.363.404c-.09.172-.135.373-.135.605v3.767h-1.74Zm13.198-3.355c0 1.017-.136 1.95-.408 2.803a7.663 7.663 0 0 1-1.242 2.37H21.33c.212-.27.41-.6.592-.989.183-.39.342-.814.478-1.274.137-.463.243-.943.319-1.439.076-.495.114-.986.114-1.47 0-.646-.066-1.297-.2-1.954a9.83 9.83 0 0 0-.54-1.83c-.225-.564-.48-1.025-.763-1.385h1.663a7.66 7.66 0 0 1 1.242 2.37c.272.852.408 1.785.408 2.799Zm4.478 0c0 1.017-.136 1.95-.409 2.803a7.663 7.663 0 0 1-1.242 2.37h-1.663c.213-.27.41-.6.593-.989a9.04 9.04 0 0 0 .478-1.274c.136-.463.242-.943.319-1.439.076-.495.114-.986.114-1.47 0-.646-.067-1.297-.2-1.954a9.83 9.83 0 0 0-.54-1.83c-.226-.564-.48-1.025-.764-1.385h1.663a7.66 7.66 0 0 1 1.242 2.37c.273.852.41 1.785.41 2.799Z"/></g></g></svg>