<svg xmlns="http://www.w3.org/2000/svg" width="32" height="32" fill="none" viewBox="0 0 32 32">
  <g clip-path="url(#a)">
    <path fill="#00BBEF" d="M3.367 28.633C.913 26.18 0 22.18 0 16 0 9.82.913 5.82 3.367 3.367 5.82.913 9.82 0 16 0c6.18 0 10.18.913 12.633 3.367C31.087 5.82 32 9.82 32 16c0 6.18-.913 10.18-3.367 12.633C26.18 31.087 22.18 32 16 32c-6.18 0-10.18-.913-12.633-3.367Z"/>
    <path fill="#fff" d="m27.61 6.8-7.992 3.586-5.722-3.428a.875.875 0 0 0-1.296.527l-3.35 12.74c-.662-.155-1.507-.135-2.428.098-2.123.538-3.844 2.004-3.844 3.276 0 1.27 1.72 1.865 3.844 1.328 1.898-.481 3.474-1.704 3.787-2.867l2.8-10.641 5.125 3.07 6.943-3.114-2.33 8.854c-.663-.16-1.515-.141-2.444.094-2.123.538-3.844 2.005-3.844 3.276s1.721 1.866 3.844 1.328c1.901-.482 3.48-1.708 3.789-2.872L28.34 7.42a.531.531 0 0 0-.731-.62Z"/>
  </g>
  <defs>
    <clipPath id="a">
      <path fill="#fff" d="M0 0h32v32H0z"/>
    </clipPath>
  </defs>
</svg>
