<svg xmlns="http://www.w3.org/2000/svg" viewBox="0 0 32 32"><defs><clipPath id="mixerbox__a"><path fill="#fff" d="M0 0h32v32H0z"/></clipPath></defs><g clip-path="url(#mixerbox__a)"><mask id="mixerbox__b" width="32" height="32" x="0" y="0" maskUnits="userSpaceOnUse" style="mask-type:alpha"><path d="M16 0c12.357 0 16 3.643 16 16s-3.643 16-16 16S0 28.357 0 16 3.643 0 16 0Z"/></mask><g mask="url(#mixerbox__b)"><path fill="#00BBEF" d="M0 0h32v32H0z"/><path fill="#fff" d="m27.61 6.8-7.992 3.586-5.722-3.428a.875.875 0 0 0-1.296.527l-3.35 12.74c-.662-.155-1.507-.135-2.428.098-2.123.538-3.844 2.004-3.844 3.276 0 1.27 1.72 1.865 3.844 1.328 1.898-.481 3.474-1.704 3.787-2.867l2.8-10.641 5.125 3.07 6.943-3.114-2.33 8.854c-.663-.16-1.515-.141-2.444.094-2.123.538-3.844 2.005-3.844 3.276s1.721 1.866 3.844 1.328c1.901-.482 3.48-1.708 3.789-2.872L28.34 7.42a.531.531 0 0 0-.731-.62Z"/></g></g></svg>