<svg xmlns="http://www.w3.org/2000/svg" width="32" height="32" fill="none" viewBox="0 0 32 32">
  <g clip-path="url(#a)">
    <path fill="#fff" d="M3.775 28.225C1.397 25.85.515 21.978.515 16s.882-9.85 3.26-12.225C6.153 1.4 10.022.515 16 .515s9.85.882 12.225 3.26c2.375 2.378 3.26 6.247 3.26 12.225s-.882 9.85-3.26 12.225c-2.378 2.375-6.247 3.26-12.225 3.26s-9.85-.882-12.225-3.26Z"/>
    <path fill="#FE1A86" d="M23.116 24.803H8.919c-1.835 0-2.744-2.025-1.438-3.197l7.14-6.41 7.035-6.502c1.288-1.19 3.51-.36 3.51 1.31v12.934c0 1.03-.916 1.865-2.05 1.865Z"/>
    <path fill="#0000DA" d="M23.219 24.844H8.812c-1.096 0-1.987-.813-1.987-1.813V9.91c0-1.622 2.156-2.425 3.406-1.272l7.138 6.6 7.247 6.504c1.265 1.137.38 3.103-1.397 3.103Z" opacity=".85"/>
  </g>
  <defs>
    <clipPath id="a">
      <path fill="#fff" d="M0 0h32v32H0z"/>
    </clipPath>
  </defs>
</svg>
