<svg xmlns="http://www.w3.org/2000/svg" width="32" height="32" fill="none" viewBox="0 0 32 32"><mask id="a" width="32" height="32" x="0" y="0" maskUnits="userSpaceOnUse" style="mask-type:alpha"><path fill="#000" d="M16 0c12.357 0 16 3.643 16 16s-3.643 16-16 16S0 28.357 0 16 3.643 0 16 0Z"/></mask><g mask="url(#a)"><path fill="#fff" d="M0 0h32v32H0z"/><path fill="#FE1A86" d="M23.116 24.803H8.919c-1.835 0-2.744-2.025-1.438-3.197l7.14-6.41 7.035-6.502c1.288-1.191 3.51-.36 3.51 1.309v12.934c0 1.032-.916 1.866-2.05 1.866Z"/><path fill="#0000DA" d="M23.219 24.844H8.812c-1.096 0-1.987-.813-1.987-1.813V9.91c0-1.622 2.156-2.425 3.406-1.272l7.138 6.6 7.247 6.504c1.265 1.137.38 3.103-1.397 3.103Z" opacity=".85"/></g></svg>