<svg xmlns="http://www.w3.org/2000/svg" viewBox="0 0 32 32"><defs><linearGradient id="overcast__c" x1="0" x2="0" y1="0" y2="32" gradientUnits="userSpaceOnUse"><stop stop-color="#FF9A20"/><stop offset="1" stop-color="#FF7724"/></linearGradient><linearGradient id="overcast__d" x1="3.333" x2="3.333" y1="3.334" y2="28.667" gradientUnits="userSpaceOnUse"><stop stop-color="#444E58"/><stop offset="1" stop-color="#22312C"/></linearGradient><clipPath id="overcast__a"><path fill="#fff" d="M0 0h32v32H0z"/></clipPath></defs><g clip-path="url(#overcast__a)"><mask id="overcast__b" width="32" height="32" x="0" y="0" maskUnits="userSpaceOnUse" style="mask-type:alpha"><path d="M16 0c12.357 0 16 3.643 16 16s-3.643 16-16 16S0 28.357 0 16 3.643 0 16 0Z"/></mask><g mask="url(#overcast__b)"><path fill="url(#overcast__c)" d="M0 0h32v32H0z"/><path fill="#fff" fill-rule="evenodd" d="M16 28c6.627 0 12-5.373 12-12S22.627 4 16 4 4 9.373 4 16s5.373 12 12 12Z" clip-rule="evenodd"/><path fill="url(#overcast__d)" fill-rule="evenodd" d="M3.333 16c0 6.996 5.671 12.667 12.667 12.667A12.636 12.636 0 0 0 28.667 16c0-6.995-5.671-12.666-12.667-12.666C9.004 3.334 3.333 9.004 3.333 16Zm13.617 6.703-.95.95-.95-.95.95-3.642.95 3.642Zm-2.164.898-.475 1.794 1.109-1.108-.634-.686Zm1.794.633.634-.634.475 1.742-1.109-1.108Zm1.531 2.638-2.11-2.11-2.112 2.11c.697.125 1.403.196 2.111.212.71.01 1.418-.06 2.111-.212ZM5.071 14.143a11.073 11.073 0 0 1 10.93-9.226 11.073 11.073 0 0 1 3.64 21.533l-2.374-8.813a2.111 2.111 0 1 0-3.378-1.69c-.01.667.305 1.297.844 1.69l-2.375 8.813a11.073 11.073 0 0 1-7.286-12.307Z" clip-rule="evenodd"/><path fill="#FF9A20" fill-rule="evenodd" d="M8.77 21.49a.819.819 0 0 0 1.108.158.761.761 0 0 0 .158-1.056 8.11 8.11 0 0 1 0-9.183.718.718 0 0 0-.158-1.056.819.819 0 0 0-1.108.159 9.52 9.52 0 0 0 0 10.977Zm13.352.158a.819.819 0 0 0 1.108-.159 9.52 9.52 0 0 0 0-10.978.819.819 0 0 0-1.108-.158.717.717 0 0 0-.158 1.056 8.11 8.11 0 0 1 0 9.183.718.718 0 0 0 .158 1.056Zm-2.692-3.43a.896.896 0 0 0-.052 1.213.767.767 0 0 0 1.108.053 5.258 5.258 0 0 0 0-6.967.727.727 0 0 0-1.108.053.954.954 0 0 0 .052 1.214c.504.63.782 1.41.792 2.216a3.445 3.445 0 0 1-.792 2.217Zm-6.808 1.213a.767.767 0 0 1-1.108.053 5.258 5.258 0 0 1 0-6.967.725.725 0 0 1 1.108.053.896.896 0 0 1-.053 1.214A3.623 3.623 0 0 0 11.778 16a3.444 3.444 0 0 0 .791 2.216.894.894 0 0 1 .053 1.214Z" clip-rule="evenodd"/></g></g></svg>