<svg xmlns="http://www.w3.org/2000/svg" width="33" height="33" fill="none" viewBox="0 0 33 33">
  <path fill="url(#a)" fill-rule="evenodd" d="M12.11.955h9.686c3.214 0 4.819 0 6.55.547a6.797 6.797 0 0 1 4.062 4.063c.547 1.73.547 3.335.547 6.549V21.8c0 3.213 0 4.818-.547 6.549a6.797 6.797 0 0 1-4.063 4.063c-1.73.547-3.335.547-6.549.547H12.11c-3.213 0-4.818 0-6.549-.547a6.797 6.797 0 0 1-4.063-4.063c-.546-1.73-.546-3.336-.546-6.55v-9.685c0-3.214 0-4.819.546-6.55a6.794 6.794 0 0 1 4.067-4.062C7.295.955 8.9.955 12.114.955" clip-rule="evenodd"/>
  <path fill="#fff" fill-rule="evenodd" d="M17 29c6.627 0 12-5.373 12-12S23.627 5 17 5 5 10.373 5 17s5.373 12 12 12Z" clip-rule="evenodd"/>
  <path fill="url(#b)" fill-rule="evenodd" d="M4.333 17c0 6.996 5.671 12.667 12.667 12.667A12.636 12.636 0 0 0 29.667 17c0-6.995-5.671-12.666-12.667-12.666-6.996 0-12.667 5.67-12.667 12.666Zm13.617 6.703-.95.95-.95-.95.95-3.642.95 3.642Zm-2.164.898-.475 1.794 1.109-1.108-.634-.686Zm1.794.633.634-.634.475 1.742-1.109-1.108Zm1.531 2.638-2.11-2.11-2.112 2.11c.697.125 1.403.196 2.111.212.71.01 1.418-.06 2.111-.212ZM6.071 15.143a11.073 11.073 0 0 1 10.93-9.226 11.073 11.073 0 0 1 3.64 21.533l-2.374-8.813a2.111 2.111 0 1 0-3.378-1.69c-.01.667.305 1.297.844 1.69l-2.375 8.813a11.073 11.073 0 0 1-7.286-12.307Z" clip-rule="evenodd"/>
  <path fill="#FF9A20" fill-rule="evenodd" d="M9.77 22.49a.819.819 0 0 0 1.108.158.761.761 0 0 0 .158-1.056 8.11 8.11 0 0 1 0-9.183.718.718 0 0 0-.158-1.056.819.819 0 0 0-1.108.159 9.52 9.52 0 0 0 0 10.977Zm13.352.158a.819.819 0 0 0 1.108-.159 9.52 9.52 0 0 0 0-10.978.819.819 0 0 0-1.108-.158.717.717 0 0 0-.158 1.056 8.11 8.11 0 0 1 0 9.183.718.718 0 0 0 .158 1.056Zm-2.692-3.43a.896.896 0 0 0-.052 1.213.767.767 0 0 0 1.108.053 5.258 5.258 0 0 0 0-6.967.727.727 0 0 0-1.108.053.954.954 0 0 0 .052 1.214c.504.63.782 1.41.792 2.216a3.445 3.445 0 0 1-.792 2.217Zm-6.808 1.213a.767.767 0 0 1-1.108.053 5.258 5.258 0 0 1 0-6.967.725.725 0 0 1 1.108.053.896.896 0 0 1-.053 1.214A3.623 3.623 0 0 0 12.778 17a3.444 3.444 0 0 0 .791 2.216.894.894 0 0 1 .053 1.214Z" clip-rule="evenodd"/>
  <defs>
    <linearGradient id="a" x1=".952" x2=".952" y1=".955" y2="32.959" gradientUnits="userSpaceOnUse">
      <stop stop-color="#FF9A20"/>
      <stop offset="1" stop-color="#FF7724"/>
    </linearGradient>
    <linearGradient id="b" x1="4.333" x2="4.333" y1="4.334" y2="29.667" gradientUnits="userSpaceOnUse">
      <stop stop-color="#444E58"/>
      <stop offset="1" stop-color="#22312C"/>
    </linearGradient>
  </defs>
</svg>
