<svg xmlns="http://www.w3.org/2000/svg" width="32" height="32" fill="none" viewBox="0 0 32 32"><defs><path id="playapod__c" fill="#4352B7" d="M21.209 25.548c-.957.52-1.994.898-3.062 1.114a.5.5 0 0 1-.587-.38l-1.002-4.47a.5.5 0 0 1 .399-.602 5.345 5.345 0 0 0 1.66-.604.5.5 0 0 1 .691.205l2.106 4.068a.5.5 0 0 1-.205.669ZM5.127 15.737c.028-1.089.22-2.176.566-3.209a.5.5 0 0 1 .623-.318l4.372 1.367a.5.5 0 0 1 .321.646 5.342 5.342 0 0 0-.306 1.74.5.5 0 0 1-.523.497l-4.576-.211a.5.5 0 0 1-.477-.512Zm16.537-9.022a10.97 10.97 0 0 1 2.496 2.094.5.5 0 0 1-.036.699l-3.37 3.103a.5.5 0 0 1-.72-.045 5.343 5.343 0 0 0-1.354-1.136.5.5 0 0 1-.168-.7l2.47-3.858a.5.5 0 0 1 .682-.157Z"/></defs><defs><clipPath id="playapod__a"><path fill="#fff" d="M0 0h32v32H0z"/></clipPath></defs><g clip-path="url(#playapod__a)"><mask id="playapod__b" width="32" height="32" x="0" y="0" maskUnits="userSpaceOnUse" style="mask-type:alpha"><path fill="#000" d="M16 0c12.357 0 16 3.643 16 16s-3.643 16-16 16S0 28.357 0 16 3.643 0 16 0Z"/></mask><g mask="url(#playapod__b)"><path fill="#4352B7" d="M0 0h32v32H0z"/><circle cx="16" cy="16" r="12.469" fill="#fff" transform="rotate(-20 16 16)"/><rect width=".5" height="8.344" x="14.338" y="12.165" fill="#4352B7" rx=".25" transform="rotate(-20 14.338 12.165)"/><circle cx="14.343" cy="11.448" r=".25" fill="#4352B7" transform="rotate(-20 14.343 11.448)"/><rect width=".5" height="8.344" x="20.152" y="16.478" fill="#4352B7" rx=".25" transform="rotate(100 20.152 16.478)"/><circle cx="20.77" cy="16.841" r=".25" fill="#4352B7" transform="rotate(100 20.77 16.841)"/><rect width=".5" height="8.344" x="13.51" y="19.356" fill="#4352B7" rx=".25" transform="rotate(-140 13.51 19.356)"/><circle cx="12.886" cy="19.71" r=".25" fill="#4352B7" transform="rotate(-140 12.886 19.71)"/><circle cx="16" cy="16" r="3.563" fill="#4352B7" transform="rotate(-20 16 16)"/><circle cx="16" cy="16" r="2.727" fill="#fff" transform="rotate(-20 16 16)"/><circle cx="16" cy="16" r="1.578" fill="#4352B7" transform="rotate(-20 16 16)"/><use href="#playapod__c"/><circle cx="16" cy="16" r="12.469" fill="#fff" transform="rotate(-20 16 16)"/><rect width=".5" height="8.344" x="14.338" y="12.165" fill="#4352B7" rx=".25" transform="rotate(-20 14.338 12.165)"/><circle cx="14.343" cy="11.448" r=".25" fill="#4352B7" transform="rotate(-20 14.343 11.448)"/><rect width=".5" height="8.344" x="20.152" y="16.478" fill="#4352B7" rx=".25" transform="rotate(100 20.152 16.478)"/><circle cx="20.77" cy="16.841" r=".25" fill="#4352B7" transform="rotate(100 20.77 16.841)"/><rect width=".5" height="8.344" x="13.51" y="19.356" fill="#4352B7" rx=".25" transform="rotate(-140 13.51 19.356)"/><circle cx="12.886" cy="19.71" r=".25" fill="#4352B7" transform="rotate(-140 12.886 19.71)"/><circle cx="16" cy="16" r="3.563" fill="#4352B7" transform="rotate(-20 16 16)"/><circle cx="16" cy="16" r="2.727" fill="#fff" transform="rotate(-20 16 16)"/><circle cx="16" cy="16" r="1.578" fill="#4352B7" transform="rotate(-20 16 16)"/><use href="#playapod__c"/></g></g></svg>