<svg width="32" height="32" viewBox="0 0 32 32" fill="none" xmlns="http://www.w3.org/2000/svg">
<path d="M3.36627 28.6337C0.910867 26.1783 0 22.1783 0 16C0 9.82167 0.910867 5.82167 3.36627 3.36627C5.82167 0.910867 9.82167 0 16 0C22.1783 0 26.1783 0.910867 28.6337 3.36627C31.0891 5.82167 32 9.82167 32 16C32 22.1783 31.0891 26.1783 28.6337 28.6337C26.1783 31.0891 22.1783 32 16 32C9.82167 32 5.82167 31.0891 3.36627 28.6337Z" fill="white"/>
<path d="M16 30C23.732 30 30 23.732 30 16C30 8.26801 23.732 2 16 2C8.26801 2 2 8.26801 2 16C2 23.732 8.26801 30 16 30Z" fill="#BD1C24"/>
<path d="M23.0636 17.909C22.729 19.1478 22.0744 20.2768 21.1656 21.1828C20.2568 22.0887 19.1258 22.7398 17.886 23.0707C16.6461 23.4015 15.3411 23.4005 14.1018 23.0677C12.8624 22.735 11.7324 22.0822 10.825 21.1748C9.91766 20.2674 9.26485 19.1374 8.9321 17.898C8.59934 16.6587 8.59835 15.3537 8.9292 14.1138C9.26006 12.874 9.91113 11.743 10.8171 10.8342C11.7231 9.92542 12.8521 9.27088 14.091 8.93622" stroke="white" stroke-width="4" stroke-miterlimit="10" stroke-linecap="round"/>
<path d="M18.7046 6.1875C20.3681 6.72052 21.8795 7.64479 23.1119 8.88273C24.3443 10.1207 25.2618 11.6362 25.7873 13.302" stroke="white" stroke-width="1.66667" stroke-miterlimit="10" stroke-linecap="round"/>
<path d="M18.1955 8.92383C19.3013 9.34127 20.3019 9.99649 21.1266 10.8432C21.9513 11.6899 22.58 12.7074 22.9682 13.8238" stroke="white" stroke-width="1.66667" stroke-miterlimit="10" stroke-linecap="round"/>
<path d="M17.68 11.7429C18.8271 12.2522 19.7404 13.1747 20.2382 14.3268" stroke="white" stroke-width="1.66667" stroke-miterlimit="10" stroke-linecap="round"/>
</svg>
