<svg xmlns="http://www.w3.org/2000/svg" fill="none" viewBox="0 0 32 32"><defs><clipPath id="playerfm__a"><path fill="#fff" d="M0 0h32v32H0z"/></clipPath></defs><g clip-path="url(#playerfm__a)"><mask id="playerfm__b" width="32" height="32" x="0" y="0" maskUnits="userSpaceOnUse" style="mask-type:alpha"><path fill="#000" d="M16 0c12.357 0 16 3.643 16 16s-3.643 16-16 16S0 28.357 0 16 3.643 0 16 0Z"/></mask><g mask="url(#playerfm__b)"><path fill="#BD1C24" d="M0 0h32v32H0z"/><path fill="#BD1C24" d="M16 30c7.732 0 14-6.268 14-14S23.732 2 16 2 2 8.268 2 16s6.268 14 14 14Z"/><g fill="#fff" fill-rule="evenodd" clip-rule="evenodd"><path d="M16.025 7.33a2.286 2.286 0 0 1-1.61 2.804 6.078 6.078 0 1 0 7.451 7.451 2.286 2.286 0 1 1 4.413 1.193A10.65 10.65 0 1 1 13.222 5.72a2.286 2.286 0 0 1 2.803 1.61Zm2.159-2.835a.952.952 0 0 1 1.197-.616 13.434 13.434 0 0 1 8.713 8.751.952.952 0 1 1-1.817.573 11.529 11.529 0 0 0-7.477-7.51.952.952 0 0 1-.616-1.198Z"/><path d="M17.618 7.576a.952.952 0 0 1 1.227-.554 10.176 10.176 0 0 1 6.018 6.178.952.952 0 1 1-1.799.626 8.272 8.272 0 0 0-4.891-5.022.952.952 0 0 1-.555-1.228Zm-.568 3.172a.952.952 0 0 1 1.256-.484 6.66 6.66 0 0 1 3.412 3.446.952.952 0 0 1-1.749.755 4.755 4.755 0 0 0-2.436-2.46.952.952 0 0 1-.484-1.257Z"/></g></g></g></svg>