<svg xmlns="http://www.w3.org/2000/svg" fill="none" viewBox="0 0 32 32"><defs><clipPath id="playapod__a"><path fill="#fff" d="M0 0h32v32H0z"/></clipPath><clipPath id="playapod__c"><path fill="#fff" d="M3.335 3.335h25.33v25.33H3.335z"/></clipPath></defs><g clip-path="url(#playapod__a)"><mask id="playapod__b" width="32" height="32" x="0" y="0" maskUnits="userSpaceOnUse" style="mask-type:alpha"><path fill="#000" d="M16 0c12.357 0 16 3.643 16 16s-3.643 16-16 16S0 28.357 0 16 3.643 0 16 0Z"/></mask><g mask="url(#playapod__b)"><path fill="#4352B7" d="M0 0h32v32H0z"/><g clip-path="url(#playapod__c)"><circle cx="16" cy="16" r="12.665" fill="#fff" transform="rotate(-20 16 16)"/><rect width=".508" height="8.475" x="14.312" y="12.105" fill="#4352B7" rx=".254" transform="rotate(-20 14.312 12.105)"/><circle cx="14.317" cy="11.377" r=".254" fill="#4352B7" transform="rotate(-20 14.317 11.377)"/><rect width=".508" height="8.475" x="20.217" y="16.486" fill="#4352B7" rx=".254" transform="rotate(100 20.217 16.486)"/><circle cx="20.845" cy="16.854" r=".254" fill="#4352B7" transform="rotate(100 20.845 16.854)"/><rect width=".508" height="8.475" x="13.471" y="19.409" fill="#4352B7" rx=".254" transform="rotate(-140 13.47 19.41)"/><circle cx="12.838" cy="19.769" r=".254" fill="#4352B7" transform="rotate(-140 12.838 19.769)"/><circle cx="16" cy="16" r="3.619" fill="#4352B7" transform="rotate(-20 16 16)"/><circle cx="16" cy="16" r="2.769" fill="#fff" transform="rotate(-20 16 16)"/><circle cx="16" cy="16" r="1.603" fill="#4352B7" transform="rotate(-20 16 16)"/><path fill="#4352B7" d="M21.29 25.698c-.971.529-2.025.912-3.11 1.132a.508.508 0 0 1-.595-.387l-1.018-4.54a.508.508 0 0 1 .405-.61 5.43 5.43 0 0 0 1.687-.615.508.508 0 0 1 .701.208l2.14 4.134a.508.508 0 0 1-.208.68ZM4.956 15.733a11.17 11.17 0 0 1 .574-3.26.508.508 0 0 1 .633-.322l4.441 1.388a.508.508 0 0 1 .327.656 5.432 5.432 0 0 0-.312 1.768.508.508 0 0 1-.531.504l-4.648-.214a.508.508 0 0 1-.484-.52Zm16.797-9.164a11.168 11.168 0 0 1 2.536 2.127.508.508 0 0 1-.037.71l-3.423 3.151a.508.508 0 0 1-.732-.045 5.429 5.429 0 0 0-1.375-1.154.508.508 0 0 1-.17-.712l2.51-3.918a.508.508 0 0 1 .691-.16Z"/></g></g></g></svg>