<svg xmlns="http://www.w3.org/2000/svg" width="32" height="32" fill="none" viewBox="0 0 32 32"><mask id="a" width="32" height="32" x="0" y="0" maskUnits="userSpaceOnUse" style="mask-type:alpha"><path fill="#000" d="M16 0c12.357 0 16 3.643 16 16s-3.643 16-16 16S0 28.357 0 16 3.643 0 16 0Z"/></mask><g mask="url(#a)"><path fill="#fff" d="M0 0h32v32H0z"/><path fill="#BD1C24" d="M16 30c7.732 0 14-6.268 14-14S23.732 2 16 2 2 8.268 2 16s6.268 14 14 14Z"/><path fill="#fff" fill-rule="evenodd" d="M16.022 8.415a2 2 0 0 1-1.41 2.452 5.317 5.317 0 1 0 6.52 6.52 2 2 0 0 1 3.862 1.044A9.318 9.318 0 1 1 13.57 7.005a2 2 0 0 1 2.453 1.41Zm1.889-2.482a.833.833 0 0 1 1.048-.539 11.754 11.754 0 0 1 7.623 7.657.833.833 0 1 1-1.59.502A10.088 10.088 0 0 0 18.45 6.98a.833.833 0 0 1-.539-1.048Z" clip-rule="evenodd"/><path fill="#fff" fill-rule="evenodd" d="M17.416 8.63a.833.833 0 0 1 1.074-.486 8.904 8.904 0 0 1 5.265 5.406.833.833 0 1 1-1.574.548 7.238 7.238 0 0 0-4.28-4.394.833.833 0 0 1-.485-1.074Zm-.498 2.775a.833.833 0 0 1 1.1-.424 5.829 5.829 0 0 1 2.985 3.015.833.833 0 0 1-1.53.661 4.162 4.162 0 0 0-2.131-2.153.834.834 0 0 1-.424-1.1Z" clip-rule="evenodd"/></g></svg>