<svg xmlns="http://www.w3.org/2000/svg" width="32" height="32" fill="none" viewBox="0 0 32 32">
  <path fill="#F44336" fill-rule="evenodd" d="M3.366 28.634C.911 26.178 0 22.178 0 16S.91 5.822 3.366 3.366C5.822.911 9.822 0 16 0s10.178.91 12.634 3.366C31.089 5.822 32 9.822 32 16s-.91 10.178-3.366 12.634C26.178 31.089 22.178 32 16 32s-10.178-.91-12.634-3.366Z" clip-rule="evenodd"/>
  <path fill="#fff" fill-rule="evenodd" d="M7.671 15.9a8.324 8.324 0 0 0 8.04 8.415.294.294 0 0 1 .284.295v2.422a.296.296 0 0 1-.304.295C9.51 27.16 4.605 22.075 4.66 15.894c.054-6.18 5.051-11.178 11.232-11.233 6.181-.056 11.267 4.851 11.433 11.03a.296.296 0 0 1-.295.304h-2.42a.294.294 0 0 1-.295-.283A8.324 8.324 0 0 0 7.67 15.9Zm1.775-.059a6.553 6.553 0 0 1 6.549-6.399c3.5 0 6.381 2.75 6.546 6.245a.295.295 0 0 1-.295.308h-1.922a.3.3 0 0 1-.294-.274 4.044 4.044 0 1 0-4.309 4.31.3.3 0 0 1 .274.294v1.921a.296.296 0 0 1-.309.295 6.553 6.553 0 0 1-6.24-6.7Z" clip-rule="evenodd"/>
</svg>
