<svg xmlns="http://www.w3.org/2000/svg" viewBox="0 0 32 32"><defs><clipPath id="pocketcasts__a"><path fill="#fff" d="M0 0h32v32H0z"/></clipPath></defs><g clip-path="url(#pocketcasts__a)"><mask id="pocketcasts__b" width="32" height="32" x="0" y="0" maskUnits="userSpaceOnUse" style="mask-type:alpha"><path d="M16 0c12.357 0 16 3.643 16 16s-3.643 16-16 16S0 28.357 0 16 3.643 0 16 0Z"/></mask><g mask="url(#pocketcasts__b)"><path fill="#F44336" d="M0 0h32v32H0z"/><path fill="#fff" fill-rule="evenodd" d="M7.671 15.9a8.324 8.324 0 0 0 8.04 8.415.294.294 0 0 1 .284.295v2.422a.296.296 0 0 1-.304.295C9.51 27.16 4.605 22.075 4.66 15.894c.054-6.18 5.051-11.178 11.232-11.233 6.181-.056 11.267 4.851 11.433 11.03a.296.296 0 0 1-.295.304h-2.42a.294.294 0 0 1-.295-.283A8.324 8.324 0 0 0 7.67 15.9Zm1.775-.059a6.553 6.553 0 0 1 6.549-6.399c3.5 0 6.381 2.75 6.546 6.245a.295.295 0 0 1-.295.308h-1.922a.3.3 0 0 1-.294-.274 4.044 4.044 0 1 0-4.309 4.31.3.3 0 0 1 .274.294v1.921a.296.296 0 0 1-.309.295 6.553 6.553 0 0 1-6.24-6.7Z" clip-rule="evenodd"/></g></g></svg>