<svg xmlns="http://www.w3.org/2000/svg" width="32" height="32" fill="none" viewBox="0 0 32 32">
  <g clip-path="url(#a)">
    <path fill="#252027" d="M3.367 28.633C.913 26.18 0 22.18 0 16 0 9.82.913 5.82 3.367 3.367 5.82.913 9.82 0 16 0c6.18 0 10.18.913 12.633 3.367C31.087 5.82 32 9.82 32 16c0 6.18-.913 10.18-3.367 12.633C26.18 31.087 22.18 32 16 32c-6.18 0-10.18-.913-12.633-3.367Z"/>
    <path fill="#8DC742" d="M16 27.167a5.04 5.04 0 1 0 0-10.08 5.04 5.04 0 0 0 0 10.08Zm10.533-13.16A12.447 12.447 0 0 0 15.98 8.2a12.43 12.43 0 0 0-10.553 5.807 1.582 1.582 0 0 1-2.18.486 1.582 1.582 0 0 1-.487-2.18 15.578 15.578 0 0 1 13.22-7.26c5.393 0 10.333 2.72 13.22 7.267a1.583 1.583 0 0 1-.487 2.18c-.793.5-1.746.193-2.18-.487v-.006Z"/>
    <path fill="#8DC742" d="M22.94 17.807c-.52 0-1.033-.26-1.333-.727a6.615 6.615 0 0 0-5.594-3.053 6.615 6.615 0 0 0-5.593 3.053 1.583 1.583 0 0 1-2.66-1.713 9.763 9.763 0 0 1 8.26-4.507 9.78 9.78 0 0 1 8.26 4.507 1.583 1.583 0 0 1-1.327 2.44h-.013Z"/>
    <path fill="#fff" d="M16 24.767a2.64 2.64 0 1 0 0-5.28 2.64 2.64 0 0 0 0 5.28Z"/>
  </g>
  <defs>
    <clipPath id="a">
      <path fill="#fff" d="M0 0h32v32H0z"/>
    </clipPath>
  </defs>
</svg>
