<svg xmlns="http://www.w3.org/2000/svg" viewBox="0 0 32 32"><defs><clipPath id="podchaser__a"><path fill="#fff" d="M0 0h32v32H0z"/></clipPath></defs><g clip-path="url(#podchaser__a)"><mask id="podchaser__b" width="32" height="32" x="0" y="0" maskUnits="userSpaceOnUse" style="mask-type:alpha"><path d="M16 0c12.357 0 16 3.643 16 16s-3.643 16-16 16S0 28.357 0 16 3.643 0 16 0Z"/></mask><g mask="url(#podchaser__b)"><path fill="#283B65" d="M0 0h32v32H0z"/><path fill="#EC1765" d="M16 28.667c6.995 0 12.667-5.671 12.667-12.667 0-6.996-5.672-12.667-12.667-12.667C9.004 3.333 3.333 9.004 3.333 16c0 6.996 5.671 12.667 12.667 12.667Z"/><path fill="#fff" d="M16 26.893c6.016 0 10.893-4.877 10.893-10.893 0-6.016-4.877-10.893-10.893-10.893C9.984 5.107 5.107 9.984 5.107 16c0 6.016 4.877 10.893 10.893 10.893Z"/><path fill="#283B65" d="M16 24.107a8.107 8.107 0 1 0 0-16.214 8.107 8.107 0 0 0 0 16.214Z"/><path fill="#283B65" d="M7.893 23.258a10.89 10.89 0 0 0 4.56 3.033V16h-4.56v7.258Z"/></g></g></svg>