<svg xmlns="http://www.w3.org/2000/svg" width="32" height="32" fill="none" viewBox="0 0 32 32">
  <path fill="#fff" d="M3.367 28.633C.913 26.18 0 22.18 0 16 0 9.82.913 5.82 3.367 3.367 5.82.913 9.82 0 16 0c6.18 0 10.18.913 12.633 3.367C31.087 5.82 32 9.82 32 16c0 6.18-.913 10.18-3.367 12.633C26.18 31.087 22.18 32 16 32c-6.18 0-10.18-.913-12.633-3.367Z"/>
  <path fill="#F90000" d="M13.953 31.963c-1.035-.04-2-.112-2.898-.221l3.337-15.546a3 3 0 1 1 2.909.171l-3.348 15.596Z"/>
  <path fill="#F90000" d="M9.753 8.517c-2.917 2.692-3.182 7.317-.014 10.298a1.402 1.402 0 0 0 1.968-.055 1.365 1.365 0 0 0-.056-1.946c-1.954-1.836-1.786-4.625-.014-6.268.558-.524.6-1.394.07-1.946-.503-.566-1.396-.594-1.954-.083Z"/>
  <path fill="#F90000" d="M9.04 22.777c.559-.69.42-1.518-.279-1.932-2.233-1.519-3.629-4.418-3.629-7.179 0-2.899 1.256-5.384 3.63-7.178.697-.415.697-1.38.278-1.933-.418-.69-1.395-.69-1.954-.276-3.07 2.347-4.885 5.522-4.745 9.387.14 3.727 1.954 7.317 4.745 9.387.28.139.559.276.838.276.418 0 .837-.137 1.116-.552ZM20.33 16.8a1.394 1.394 0 0 0-.041 1.96c.53.552 1.41.58 1.968.055 3.168-2.982 2.903-7.606-.014-10.298a1.402 1.402 0 0 0-1.968.069 1.365 1.365 0 0 0 .07 1.947c1.786 1.642 1.94 4.43-.015 6.267Z"/>
  <path fill="#F90000" d="M29.66 13.666c.126-3.865-1.675-7.04-4.745-9.387-.558-.414-1.535-.414-1.954.276-.419.552-.419 1.518.279 1.933 2.373 1.794 3.629 4.28 3.629 7.178 0 2.761-1.396 5.66-3.629 7.179-.698.414-.837 1.242-.28 1.932.28.415.699.552 1.117.552.28 0 .559-.137.838-.276 2.93-2.07 4.745-5.66 4.745-9.387Z"/>
</svg>
