<svg xmlns="http://www.w3.org/2000/svg" viewBox="0 0 32 32"><defs><clipPath id="podcastapp__a"><path fill="#fff" d="M0 0h32v32H0z"/></clipPath></defs><g clip-path="url(#podcastapp__a)"><mask id="podcastapp__b" width="32" height="32" x="0" y="0" maskUnits="userSpaceOnUse" style="mask-type:alpha"><path d="M16 0c12.357 0 16 3.643 16 16s-3.643 16-16 16S0 28.357 0 16 3.643 0 16 0Z"/></mask><g mask="url(#podcastapp__b)"><path fill="#354FEE" d="M0 0h32v32H0z"/><g fill="#F8FAFC"><path fill-rule="evenodd" d="M10.3 11.9a5.7 5.7 0 1 1 11.4 0v5.2a5.7 5.7 0 0 1-11.4 0v-5.2ZM16 7.8a4.1 4.1 0 0 0-4.1 4.1v5.2a4.1 4.1 0 0 0 8.2 0v-5.2A4.1 4.1 0 0 0 16 7.8Z" clip-rule="evenodd"/><path fill-rule="evenodd" d="M7 15.85a.8.8 0 0 1 .8.8v.65a8.2 8.2 0 0 0 16.4 0v-.65a.8.8 0 1 1 1.6 0v.65c0 5.412-4.388 9.8-9.8 9.8-5.412 0-9.8-4.388-9.8-9.8v-.65a.8.8 0 0 1 .8-.8Z" clip-rule="evenodd"/><path d="M13.45 10.55a1.15 1.15 0 1 1 2.3 0 1.15 1.15 0 0 1-2.3 0Z"/></g></g></g></svg>