<svg xmlns="http://www.w3.org/2000/svg" width="32" height="32" fill="none" viewBox="0 0 32 32">
  <g clip-path="url(#a)">
    <path fill="#FF7E00" fill-rule="evenodd" d="M3.333 28.667C.867 26.2 0 22.2 0 16S.933 5.8 3.333 3.333C5.733.867 9.8 0 16 0s10.2.933 12.667 3.333C31.133 5.8 32 9.8 32 16s-.933 10.2-3.333 12.667C26.2 31.133 22.2 32 16 32s-10.2-.933-12.667-3.333Z" clip-rule="evenodd"/>
    <path fill="url(#b)" d="M28.667 28.667C31 26.333 31.933 22.6 32 16.933l-8.467-8.466C19.4 4.333 12.6 4.333 8.467 8.467c-4.134 4.133-4.134 10.933 0 15.066L16.933 32c5.667-.067 9.4-1.067 11.734-3.333Z"/>
    <path fill="#fff" d="M16 5.333c-5.867 0-10.667 4.8-10.667 10.667 0 4.067 2.267 7.6 5.667 9.4V16c0-2.4 1.733-4.467 4-4.867v1.734c-1.333.4-2.333 1.666-2.333 3.2A3.3 3.3 0 0 0 16 19.4c1.467 0 2.733-1 3.2-2.333h1.733c-.466 2.266-2.466 4-4.866 4-1.267 0-2.467-.467-3.334-1.267v6.4c1.067.333 2.2.533 3.334.533 2.2 0 4.266-.666 6-1.866v1.8h4.666V16C26.667 10.133 21.867 5.333 16 5.333ZM16 18c-1.133 0-2-.867-2-2s.867-2 2-2 2 .867 2 2-.867 2-2 2Zm3.333-2A3.301 3.301 0 0 0 16 12.667V11c2.733 0 5 2.267 5 5h-1.667Zm3 0c0-3.467-2.866-6.333-6.333-6.333V8c4.4 0 8 3.6 8 8h-1.667Z"/>
  </g>
  <defs>
    <linearGradient id="b" x1="8.458" x2="28.634" y1="8.457" y2="28.634" gradientUnits="userSpaceOnUse">
      <stop stop-color="#DF4123"/>
      <stop offset="1" stop-color="#F17A2B"/>
    </linearGradient>
    <clipPath id="a">
      <path fill="#fff" d="M0 0h32v32H0z"/>
    </clipPath>
  </defs>
</svg>
