<svg xmlns="http://www.w3.org/2000/svg" viewBox="0 0 32 32"><defs><clipPath id="podcastrepublic__a"><path fill="#fff" d="M0 0h32v32H0z"/></clipPath></defs><g clip-path="url(#podcastrepublic__a)"><mask id="podcastrepublic__b" width="32" height="32" x="0" y="0" maskUnits="userSpaceOnUse" style="mask-type:alpha"><path d="M16 0c12.357 0 16 3.643 16 16s-3.643 16-16 16S0 28.357 0 16 3.643 0 16 0Z"/></mask><g mask="url(#podcastrepublic__b)"><path fill="#5C85DD" d="M0 0h32v32H0z"/><path fill="#fff" d="M28.073 16.107c0 .76-.066 1.54-.193 2.34-.167.76-.407 1.5-.733 2.22-.287.72-.647 1.4-1.094 2.04a15.61 15.61 0 0 1-1.513 1.853l-1.733-1.693c.486-.48.886-.98 1.213-1.494a9.24 9.24 0 0 0 .913-1.62c.247-.6.427-1.2.554-1.8.126-.64.186-1.26.193-1.86 0-.68-.033-1.32-.107-1.926a8.23 8.23 0 0 0-.533-1.807 8.49 8.49 0 0 0-.893-1.687 6.902 6.902 0 0 0-1.254-1.386l1.754-1.734c.56.567 1.053 1.167 1.493 1.814.44.686.793 1.386 1.067 2.113.313.72.553 1.467.706 2.227.114.8.174 1.606.167 2.406M22.727 6.047 21.033 7.78c-.36-.24-.74-.447-1.14-.607l-1.2-.426a6.39 6.39 0 0 0-1.26-.247l-1.32-.067a9.71 9.71 0 0 0-3.733.7A9.272 9.272 0 0 0 9.3 9.16a10.797 10.797 0 0 0-2.06 3.053c-.527 1.16-.793 2.42-.8 3.78a8.932 8.932 0 0 0 .76 3.734 10.697 10.697 0 0 0 2.027 3.08c.88.846 1.893 1.533 3.053 2.06a9.02 9.02 0 0 0 3.72.8l1.32-.114c.44-.04.86-.113 1.267-.233l1.206-.473 1.147-.534 1.673 1.754c-.48.32-.986.593-1.506.833l-1.627.653c-.52.16-1.087.274-1.687.354-.6.12-1.2.173-1.806.166a11.244 11.244 0 0 1-4.62-.986 12.275 12.275 0 0 1-3.834-2.607c-1.08-1.087-1.926-2.373-2.56-3.86a11.204 11.204 0 0 1-.933-4.633c.013-1.64.34-3.267.987-4.74a12.478 12.478 0 0 1 2.606-3.774c1.087-1.073 2.374-1.926 3.86-2.56a11.842 11.842 0 0 1 4.634-.873l1.8.133c.6.087 1.16.207 1.68.374.56.166 1.1.366 1.62.613a8.36 8.36 0 0 1 1.5.913m-1.48 10.807-6.774 3.907a.949.949 0 0 1-.646.12.936.936 0 0 1-.574-.32.965.965 0 0 1-.226-.627v-7.84a.99.99 0 0 1 .8-.947.93.93 0 0 1 .653.12l6.773 3.92c.194.12.334.28.407.5a.87.87 0 0 1 0 .66.954.954 0 0 1-.42.507"/></g></g></svg>