<svg xmlns="http://www.w3.org/2000/svg" width="32" height="32" fill="none" viewBox="0 0 32 32"><defs><radialGradient id="c" cx="0" cy="0" r="1" gradientTransform="translate(16 16) scale(10.12)" gradientUnits="userSpaceOnUse"><stop stop-color="#262626"/><stop offset=".43" stop-color="#2F2F2F" stop-opacity=".272"/><stop offset="1" stop-opacity="0"/></radialGradient><clipPath id="a"><path fill="#fff" d="M0 0h32v32H0z"/></clipPath></defs><g clip-path="url(#a)"><mask id="b" width="32" height="32" x="0" y="0" maskUnits="userSpaceOnUse" style="mask-type:alpha"><path fill="#000" d="M16 0c12.357 0 16 3.643 16 16s-3.643 16-16 16S0 28.357 0 16 3.643 0 16 0Z"/></mask><g mask="url(#b)"><path fill="#2A2A2A" d="M0 0h32v32H0z"/><path fill="#515151" fill-rule="evenodd" d="M16 2.39c2.177 1.03 3.474 2.483 4.245 3.881 1.422-.298 3.21-.363 5.379.105.81 2.268.7 4.212.257 5.747 1.216.795 2.528 2.013 3.729 3.877-1.03 2.177-2.482 3.473-3.88 4.245.297 1.422.362 3.211-.106 5.379-2.269.81-4.213.7-5.747.257-.795 1.216-2.013 2.528-3.877 3.729-2.177-1.03-3.474-2.483-4.246-3.882-1.42.299-3.21.364-5.378-.104-.81-2.269-.7-4.213-.257-5.747C4.903 19.082 3.591 17.864 2.39 16c1.03-2.177 2.483-3.474 3.881-4.245-.298-1.422-.363-3.21.105-5.379 2.268-.81 4.212-.7 5.747-.257C12.918 4.903 14.136 3.59 16 2.39Z" clip-rule="evenodd"/><path fill="#1CC1EA" fill-rule="evenodd" d="M6.376 25.624C4.263 19.708 8.407 16 8.407 16H16v7.593s-3.09 3.443-9.624 2.03Z" clip-rule="evenodd" opacity=".86" style="mix-blend-mode:screen"/><path fill="#E0E900" fill-rule="evenodd" d="M25.624 25.624C19.708 27.737 16 23.594 16 23.594V16h7.593s3.443 3.09 2.03 9.624Z" clip-rule="evenodd" opacity=".86" style="mix-blend-mode:screen"/><path fill="#EB1212" fill-rule="evenodd" d="M25.624 6.376c2.113 5.916-2.03 9.624-2.03 9.624H16V8.407s3.09-3.443 9.624-2.03Z" clip-rule="evenodd" opacity=".86" style="mix-blend-mode:screen"/><path fill="#9C27B0" fill-rule="evenodd" d="M6.376 6.376C12.292 4.263 16 8.407 16 8.407V16H8.407s-3.443-3.09-2.03-9.624Z" clip-rule="evenodd" opacity=".86" style="mix-blend-mode:screen"/><path fill="#1549E3" fill-rule="evenodd" d="M2.39 16c2.688-5.677 8.24-5.37 8.24-5.37L16 16l-5.37 5.37s-4.619.249-8.24-5.37Z" clip-rule="evenodd" opacity=".86" style="mix-blend-mode:screen"/><path fill="#1ADC4A" fill-rule="evenodd" d="M10.63 21.37 16 16l5.37 5.37s.249 4.62-5.37 8.24c-5.677-2.688-5.37-8.24-5.37-8.24Z" clip-rule="evenodd" opacity=".86" style="mix-blend-mode:screen"/><path fill="#F8A007" fill-opacity=".86" fill-rule="evenodd" d="M29.61 16c-2.688 5.677-8.24 5.37-8.24 5.37L16 16l5.37-5.37s4.619-.249 8.24 5.37Z" clip-rule="evenodd" style="mix-blend-mode:screen"/><path fill="#CF186E" fill-rule="evenodd" d="M16 2.39c5.677 2.688 5.37 8.24 5.37 8.24L16 16l-5.37-5.37S10.382 6.012 16 2.39Z" clip-rule="evenodd" opacity=".86" style="mix-blend-mode:screen"/><path fill="url(#c)" fill-rule="evenodd" d="M16 2.39c2.177 1.03 3.474 2.483 4.245 3.881 1.422-.298 3.21-.363 5.379.105.81 2.268.7 4.212.257 5.747 1.216.795 2.528 2.013 3.729 3.877-1.03 2.177-2.482 3.473-3.88 4.245.297 1.422.362 3.211-.106 5.379-2.269.81-4.213.7-5.747.257-.795 1.216-2.013 2.528-3.877 3.729-2.177-1.03-3.474-2.483-4.246-3.882-1.42.299-3.21.364-5.378-.104-.81-2.269-.7-4.213-.257-5.747C4.903 19.082 3.591 17.864 2.39 16c1.03-2.177 2.483-3.474 3.881-4.245-.298-1.422-.363-3.21.105-5.379 2.268-.81 4.212-.7 5.747-.257C12.918 4.903 14.136 3.59 16 2.39Z" clip-rule="evenodd" opacity=".496"/><path fill="#fff" d="M20.444 14.525c.252 0 .456.204.456.456v1.498c0 2.55-1.95 4.644-4.44 4.874l-.003 2.59a.456.456 0 0 1-.911-.002l.003-2.588a4.895 4.895 0 0 1-4.438-4.874v-1.498a.455.455 0 1 1 .91 0v1.498a3.983 3.983 0 1 0 7.967 0v-1.498c0-.252.204-.456.456-.456Zm-1.606-.494v2.413a2.836 2.836 0 1 1-5.673 0V14.03h5.673Zm-2.836-6.17a2.836 2.836 0 0 1 2.836 2.836v2.414h-5.673v-2.414a2.836 2.836 0 0 1 2.837-2.836Z"/></g></g></svg>