<svg xmlns="http://www.w3.org/2000/svg" width="32" height="32" fill="none" viewBox="0 0 32 32">
  <g clip-path="url(#a)">
    <path fill="#fff" d="M3.367 28.633C.913 26.18 0 22.18 0 16 0 9.82.913 5.82 3.367 3.367 5.82.913 9.82 0 16 0c6.18 0 10.18.913 12.633 3.367C31.087 5.82 32 9.82 32 16c0 6.18-.913 10.18-3.367 12.633C26.18 31.087 22.18 32 16 32c-6.18 0-10.18-.913-12.633-3.367Z"/>
    <path fill="#1CC1EA" fill-opacity=".44" fill-rule="evenodd" d="M6.318 25.562c-2.113-5.915 2.03-9.622 2.03-9.622h7.592v7.591s-3.09 3.443-9.622 2.03Z" clip-rule="evenodd"/>
    <path fill="#E0E900" fill-opacity=".44" fill-rule="evenodd" d="M25.562 25.562c-5.915 2.113-9.622-2.03-9.622-2.03V15.94h7.591s3.443 3.09 2.03 9.622Z" clip-rule="evenodd"/>
    <path fill="#EB1212" fill-opacity=".44" fill-rule="evenodd" d="M25.562 6.317c2.113 5.915-2.03 9.623-2.03 9.623H15.94V8.348s3.09-3.443 9.622-2.03Z" clip-rule="evenodd"/>
    <path fill="#9C27B0" fill-opacity=".44" fill-rule="evenodd" d="M6.317 6.318c5.915-2.113 9.623 2.03 9.623 2.03v7.592H8.348s-3.443-3.09-2.03-9.622Z" clip-rule="evenodd"/>
    <path fill="#1549E3" fill-opacity=".44" fill-rule="evenodd" d="M2.332 15.94c2.688-5.677 8.24-5.369 8.24-5.369l5.368 5.369-5.369 5.368s-4.619.25-8.24-5.368Z" clip-rule="evenodd"/>
    <path fill="#1ADC4A" fill-opacity=".44" fill-rule="evenodd" d="M15.94 29.547c-5.677-2.688-5.369-8.24-5.369-8.24l5.369-5.367 5.368 5.368s.25 4.619-5.368 8.24Z" clip-rule="evenodd"/>
    <path fill="#F8A007" fill-opacity=".44" fill-rule="evenodd" d="M29.547 15.94c-2.688 5.676-8.24 5.368-8.24 5.368L15.94 15.94l5.368-5.369s4.619-.25 8.24 5.369Z" clip-rule="evenodd"/>
    <path fill="#CF186E" fill-opacity=".44" fill-rule="evenodd" d="M15.94 2.332c5.676 2.688 5.368 8.24 5.368 8.24L15.94 15.94l-5.37-5.37s-.25-4.619 5.369-8.24Z" clip-rule="evenodd"/>
    <mask id="b" width="28" height="28" x="2" y="2" maskUnits="userSpaceOnUse" style="mask-type:alpha">
      <path fill="#fff" fill-rule="evenodd" d="M25.667 20.184c.297 1.422.363 3.21-.105 5.378-2.268.81-4.21.7-5.745.257-.796 1.216-2.014 2.527-3.877 3.728-2.177-1.03-3.473-2.482-4.245-3.88-1.422.297-3.21.363-5.378-.105-.81-2.268-.7-4.21-.257-5.745-1.216-.796-2.527-2.014-3.728-3.877 1.03-2.177 2.482-3.473 3.88-4.245-.297-1.422-.363-3.21.105-5.378 2.268-.81 4.211-.7 5.745-.257.796-1.216 2.014-2.527 3.878-3.728 2.176 1.03 3.472 2.482 4.244 3.88 1.422-.297 3.21-.363 5.378.105.81 2.268.7 4.211.257 5.745 1.216.796 2.527 2.014 3.728 3.878-1.03 2.176-2.482 3.472-3.88 4.244Z" clip-rule="evenodd"/>
    </mask>
    <g mask="url(#b)">
      <g filter="url(#c)">
        <path fill="#000" d="M20.383 14.508c.251 0 .455.204.455.456v1.498a4.894 4.894 0 0 1-4.438 4.873l-.003 2.589a.456.456 0 0 1-.911-.001l.002-2.588a4.894 4.894 0 0 1-4.437-4.873v-1.498a.455.455 0 1 1 .91 0v1.498c0 2.2 1.784 3.983 3.984 3.983h-.01.019a3.983 3.983 0 0 0 3.974-3.983v-1.498c0-.252.204-.456.456-.456Zm-1.606-.494v2.413a2.836 2.836 0 1 1-5.672 0v-2.413h5.672Zm-2.836-6.169a2.836 2.836 0 0 1 2.836 2.836v2.413h-5.672V10.68a2.836 2.836 0 0 1 2.836-2.836Z"/>
      </g>
      <path fill="#fff" d="M20.383 14.508c.251 0 .455.204.455.456v1.498a4.894 4.894 0 0 1-4.438 4.873l-.003 2.589a.456.456 0 0 1-.911-.001l.002-2.588a4.894 4.894 0 0 1-4.437-4.873v-1.498a.455.455 0 1 1 .91 0v1.498c0 2.2 1.784 3.983 3.984 3.983h-.01.019a3.983 3.983 0 0 0 3.974-3.983v-1.498c0-.252.204-.456.456-.456Zm-1.606-.494v2.413a2.836 2.836 0 1 1-5.672 0v-2.413h5.672Zm-2.836-6.169a2.836 2.836 0 0 1 2.836 2.836v2.413h-5.672V10.68a2.836 2.836 0 0 1 2.836-2.836Z"/>
    </g>
  </g>
  <defs>
    <clipPath id="a">
      <path fill="#fff" d="M0 0h32v32H0z"/>
    </clipPath>
    <filter id="c" width="69.787" height="76.534" x="-18.949" y="-2.155" color-interpolation-filters="sRGB" filterUnits="userSpaceOnUse">
      <feFlood flood-opacity="0" result="BackgroundImageFix"/>
      <feColorMatrix in="SourceAlpha" result="hardAlpha" values="0 0 0 0 0 0 0 0 0 0 0 0 0 0 0 0 0 0 127 0"/>
      <feOffset dy="20"/>
      <feGaussianBlur stdDeviation="15"/>
      <feColorMatrix values="0 0 0 0 0 0 0 0 0 0 0 0 0 0 0 0 0 0 0.453726 0"/>
      <feBlend in2="BackgroundImageFix" result="effect1_dropShadow_29_398"/>
      <feBlend in="SourceGraphic" in2="effect1_dropShadow_29_398" result="shape"/>
    </filter>
  </defs>
</svg>
