<svg xmlns="http://www.w3.org/2000/svg" viewBox="0 0 32 32"><defs><path id="podcastindex__a" fill="#fff" d="M0 0h32v32H0z"/></defs><defs><clipPath id="podcastindex__b"><use href="#podcastindex__a"/></clipPath></defs><g clip-path="url(#podcastindex__b)"><mask id="podcastindex__c" width="32" height="32" x="0" y="0" maskUnits="userSpaceOnUse" style="mask-type:alpha"><path d="M16 0c12.357 0 16 3.643 16 16s-3.643 16-16 16S0 28.357 0 16 3.643 0 16 0Z"/></mask><g mask="url(#podcastindex__c)"><use href="#podcastindex__a"/><g fill="#F90000"><path d="M9.76 8.52c-2.916 2.692-3.18 7.317-.013 10.298a1.402 1.402 0 0 0 1.967-.056 1.364 1.364 0 0 0-.056-1.945c-1.953-1.836-1.786-4.625-.014-6.267.559-.524.6-1.394.07-1.946-.502-.566-1.395-.593-1.953-.083Z"/><path d="M9.048 22.779c.559-.69.419-1.518-.279-1.933-2.233-1.518-3.628-4.417-3.628-7.178 0-2.898 1.255-5.383 3.628-7.177.698-.414.698-1.38.28-1.932-.419-.69-1.396-.69-1.955-.277C4.024 6.63 2.21 9.804 2.35 13.67c.14 3.727 1.954 7.316 4.745 9.386.28.138.559.277.838.277.418 0 .837-.139 1.116-.553Zm11.288-5.977a1.394 1.394 0 0 0-.042 1.96 1.4 1.4 0 0 0 1.968.056c3.168-2.982 2.902-7.606-.014-10.297a1.402 1.402 0 0 0-1.968.069 1.365 1.365 0 0 0 .07 1.946c1.786 1.642 1.94 4.43-.014 6.266Z"/><path d="M29.666 13.67c.125-3.866-1.675-7.04-4.745-9.387-.559-.414-1.535-.414-1.954.277-.42.552-.42 1.518.279 1.932 2.372 1.794 3.628 4.278 3.628 7.177 0 2.76-1.395 5.66-3.628 7.178-.698.413-.838 1.242-.28 1.932.28.414.698.553 1.117.553.28 0 .558-.139.838-.277 2.93-2.07 4.745-5.66 4.745-9.386Zm-15.267 2.529L11.007 32h2.945l3.355-15.63a3 3 0 1 0-2.908-.171Z"/></g></g></g></svg>