<svg xmlns="http://www.w3.org/2000/svg" width="32" height="32" fill="none" viewBox="0 0 32 32">
  <g clip-path="url(#a)">
    <path fill="#FF7E00" fill-rule="evenodd" d="M11.11-.045h9.686c3.214 0 4.819 0 6.55.547a6.797 6.797 0 0 1 4.062 4.063c.547 1.73.547 3.335.547 6.549V20.8c0 3.213 0 4.818-.547 6.549a6.797 6.797 0 0 1-4.063 4.063c-1.73.547-3.335.547-6.549.547H11.11c-3.213 0-4.818 0-6.549-.547a6.797 6.797 0 0 1-4.063-4.063c-.546-1.73-.546-3.336-.546-6.55v-9.685c0-3.214 0-4.819.546-6.55A6.794 6.794 0 0 1 4.565.503c1.73-.547 3.335-.547 6.549-.547" clip-rule="evenodd"/>
    <path fill="url(#b)" d="M20.82 31.98c3.21 0 4.82 0 6.55-.55a6.794 6.794 0 0 0 4.06-4.06c.55-1.73.55-3.34.55-6.55v-3.91l-8.42-8.42c-4.13-4.13-10.93-4.13-15.07 0-4.13 4.13-4.13 10.93 0 15.07l8.43 8.43h3.9v-.01Z"/>
    <path fill="#fff" d="M16.02 5.36c-5.87 0-10.67 4.8-10.67 10.67 0 4.07 2.27 7.6 5.67 9.4v-9.4c0-2.4 1.73-4.47 4-4.87v1.73c-1.33.4-2.33 1.67-2.33 3.2 0 1.87 1.47 3.33 3.33 3.33 1.47 0 2.73-1 3.2-2.33h1.73c-.47 2.27-2.47 4-4.87 4-1.27 0-2.47-.47-3.33-1.27v6.4c1.07.33 2.2.53 3.33.53 2.2 0 4.27-.67 6-1.87v1.8h4.67V16.01c-.07-5.87-4.87-10.67-10.73-10.67v.02Zm0 12.66c-1.13 0-2-.87-2-2s.87-2 2-2 2 .87 2 2-.87 2-2 2Zm3.34-2c0-1.87-1.47-3.33-3.33-3.33v-1.67c2.73 0 5 2.27 5 5h-1.67Zm3 0c0-3.47-2.87-6.33-6.33-6.33V8.02c4.4 0 8 3.6 8 8h-1.67Z"/>
  </g>
  <defs>
    <linearGradient id="b" x1="8.49" x2="29.83" y1="8.49" y2="29.83" gradientUnits="userSpaceOnUse">
      <stop stop-color="#DE4326"/>
      <stop offset="1" stop-color="#F07A2A"/>
    </linearGradient>
    <clipPath id="a">
      <path fill="#fff" d="M0 0h32v32H0z"/>
    </clipPath>
  </defs>
</svg>
