<svg xmlns="http://www.w3.org/2000/svg" width="32" height="32" fill="none" viewBox="0 0 32 32">
  <path fill="#354FEE" d="M3.367 28.633C.913 26.18 0 22.18 0 16 0 9.82.913 5.82 3.367 3.367 5.82.913 9.82 0 16 0c6.18 0 10.18.913 12.633 3.367C31.087 5.82 32 9.82 32 16c0 6.18-.913 10.18-3.367 12.633C26.18 31.087 22.18 32 16 32c-6.18 0-10.18-.913-12.633-3.367Z"/>
  <path fill="#F8FAFC" fill-rule="evenodd" d="M10.3 11.9a5.7 5.7 0 1 1 11.4 0v5.2a5.7 5.7 0 0 1-11.4 0v-5.2ZM16 7.8a4.1 4.1 0 0 0-4.1 4.1v5.2a4.1 4.1 0 0 0 8.2 0v-5.2A4.1 4.1 0 0 0 16 7.8Z" clip-rule="evenodd"/>
  <path fill="#F8FAFC" fill-rule="evenodd" d="M7 15.85a.8.8 0 0 1 .8.8v.65a8.2 8.2 0 0 0 16.4 0v-.65a.8.8 0 1 1 1.6 0v.65c0 5.412-4.388 9.8-9.8 9.8-5.412 0-9.8-4.388-9.8-9.8v-.65a.8.8 0 0 1 .8-.8Z" clip-rule="evenodd"/>
  <path fill="#F8FAFC" d="M13.45 10.55a1.15 1.15 0 1 1 2.3 0 1.15 1.15 0 0 1-2.3 0Z"/>
</svg>
