<svg xmlns="http://www.w3.org/2000/svg" width="32" height="32" fill="none" viewBox="0 0 32 32">
  <path fill="#283B65" d="M3.367 28.633C.913 26.18 0 22.18 0 16 0 9.82.913 5.82 3.367 3.367 5.82.913 9.82 0 16 0c6.18 0 10.18.913 12.633 3.367C31.087 5.82 32 9.82 32 16c0 6.18-.913 10.18-3.367 12.633C26.18 31.087 22.18 32 16 32c-6.18 0-10.18-.913-12.633-3.367Z"/>
  <path fill="#EC1765" d="M16 28.667c6.996 0 12.667-5.671 12.667-12.667 0-6.996-5.671-12.667-12.667-12.667C9.004 3.333 3.333 9.004 3.333 16c0 6.996 5.671 12.667 12.667 12.667Z"/>
  <path fill="#fff" d="M16 26.893c6.016 0 10.893-4.877 10.893-10.893 0-6.016-4.877-10.893-10.893-10.893C9.984 5.107 5.107 9.984 5.107 16c0 6.016 4.877 10.893 10.893 10.893Z"/>
  <path fill="#283B65" d="M16 24.36a8.107 8.107 0 1 0 0-16.213 8.107 8.107 0 0 0 0 16.213Z"/>
  <path fill="#283B65" d="M12.453 16.253V26.3a10.848 10.848 0 0 1-4.56-3.027v-7.026h4.56v.006Z"/>
</svg>
