<svg xmlns="http://www.w3.org/2000/svg" viewBox="0 0 32 32"><defs><linearGradient id="podcastaddict__c" x1="8.508" x2="32.003" y1="8.498" y2="31.993" gradientUnits="userSpaceOnUse"><stop stop-color="#DE4326"/><stop offset="1" stop-color="#F07A2A"/></linearGradient><clipPath id="podcastaddict__a"><path fill="#fff" d="M0 0h32v32H0z"/></clipPath></defs><g clip-path="url(#podcastaddict__a)"><mask id="podcastaddict__b" width="32" height="32" x="0" y="0" maskUnits="userSpaceOnUse" style="mask-type:alpha"><path d="M16 0c12.357 0 16 3.643 16 16s-3.643 16-16 16S0 28.357 0 16 3.643 0 16 0Z"/></mask><g mask="url(#podcastaddict__b)"><path fill="#FF7E00" d="M0 0h32v32H0z"/><path fill="url(#podcastaddict__c)" d="M31.998 31.998v-15.08l-8.42-8.42c-4.13-4.13-10.93-4.13-15.07 0-4.13 4.13-4.13 10.93 0 15.07l8.43 8.43h15.06Z"/><path fill="#fff" d="M16 5.333c-5.867 0-10.667 4.8-10.667 10.667 0 4.067 2.267 7.6 5.667 9.4V16c0-2.4 1.733-4.467 4-4.867v1.734c-1.333.4-2.333 1.666-2.333 3.2A3.3 3.3 0 0 0 16 19.4c1.467 0 2.733-1 3.2-2.333h1.733c-.466 2.266-2.466 4-4.866 4-1.267 0-2.467-.467-3.334-1.267v6.4c1.067.333 2.2.533 3.334.533 2.2 0 4.266-.666 6-1.866v1.8h4.666V16C26.667 10.133 21.867 5.333 16 5.333ZM16 18c-1.133 0-2-.867-2-2s.867-2 2-2 2 .867 2 2-.867 2-2 2Zm3.333-2A3.301 3.301 0 0 0 16 12.667V11c2.733 0 5 2.267 5 5h-1.667Zm3 0c0-3.467-2.866-6.333-6.333-6.333V8c4.4 0 8 3.6 8 8h-1.667Z"/></g></g></svg>