<svg xmlns="http://www.w3.org/2000/svg" width="33" height="33" fill="none" viewBox="0 0 33 33">
  <path fill="#354FEE" fill-rule="evenodd" d="M12.11.955h9.686c3.214 0 4.819 0 6.55.547a6.797 6.797 0 0 1 4.062 4.063c.547 1.73.547 3.335.547 6.549V21.8c0 3.213 0 4.818-.547 6.549a6.797 6.797 0 0 1-4.063 4.063c-1.73.547-3.335.547-6.549.547H12.11c-3.213 0-4.818 0-6.549-.547a6.797 6.797 0 0 1-4.063-4.063c-.546-1.73-.546-3.336-.546-6.55v-9.685c0-3.214 0-4.819.546-6.55a6.794 6.794 0 0 1 4.067-4.062C7.295.955 8.9.955 12.114.955" clip-rule="evenodd"/>
  <path fill="#F8FAFC" fill-rule="evenodd" d="M11.3 12.9a5.7 5.7 0 1 1 11.4 0v5.2a5.7 5.7 0 0 1-11.4 0v-5.2ZM17 8.8a4.1 4.1 0 0 0-4.1 4.1v5.2a4.1 4.1 0 0 0 8.2 0v-5.2A4.1 4.1 0 0 0 17 8.8Z" clip-rule="evenodd"/>
  <path fill="#F8FAFC" fill-rule="evenodd" d="M8 16.85a.8.8 0 0 1 .8.8v.65a8.2 8.2 0 0 0 16.4 0v-.65a.8.8 0 1 1 1.6 0v.65c0 5.412-4.388 9.8-9.8 9.8-5.412 0-9.8-4.388-9.8-9.8v-.65a.8.8 0 0 1 .8-.8Z" clip-rule="evenodd"/>
  <path fill="#F8FAFC" d="M14.45 11.55a1.15 1.15 0 1 1 2.3 0 1.15 1.15 0 0 1-2.3 0Z"/>
</svg>
