<svg width="32" height="32" viewBox="0 0 32 32" fill="none" xmlns="http://www.w3.org/2000/svg">
<g clip-path="url(#clip0_29_415)">
<path fill-rule="evenodd" clip-rule="evenodd" d="M3.33333 28.6667C0.866667 26.2 0 22.2 0 16C0 9.8 0.933333 5.8 3.33333 3.33333C5.73333 0.866667 9.8 0 16 0C22.2 0 26.2 0.933333 28.6667 3.33333C31.1333 5.8 32 9.8 32 16C32 22.2 31.0667 26.2 28.6667 28.6667C26.2 31.1333 22.2 32 16 32C9.8 32 5.8 31.0667 3.33333 28.6667Z" fill="#FF7E00"/>
<path d="M28.6667 28.6665C31 26.3332 31.9334 22.5998 32 16.9332L23.5334 8.46652C19.4 4.33318 12.6 4.33318 8.4667 8.46652C4.33337 12.5998 4.33337 19.3998 8.4667 23.5332L16.9334 31.9998C22.6 31.9332 26.3334 30.9332 28.6667 28.6665Z" fill="url(#paint0_linear_29_415)"/>
<path d="M16 5.33331C10.1333 5.33331 5.33334 10.1333 5.33334 16C5.33334 20.0666 7.6 23.6 11 25.4V16C11 13.6 12.7333 11.5333 15 11.1333V12.8666C13.6667 13.2666 12.6667 14.5333 12.6667 16.0666C12.6667 17.9333 14.1333 19.4 16 19.4C17.4667 19.4 18.7333 18.4 19.2 17.0666H20.9333C20.4667 19.3333 18.4667 21.0666 16.0667 21.0666C14.8 21.0666 13.6 20.6 12.7333 19.8V26.2C13.8 26.5333 14.9333 26.7333 16.0667 26.7333C18.2667 26.7333 20.3333 26.0666 22.0667 24.8666V26.6666H26.7333V16C26.6667 10.1333 21.8667 5.33331 16 5.33331ZM16 18C14.8667 18 14 17.1333 14 16C14 14.8666 14.8667 14 16 14C17.1333 14 18 14.8666 18 16C18 17.1333 17.1333 18 16 18ZM19.3333 16C19.3333 14.1333 17.8667 12.6666 16 12.6666V11C18.7333 11 21 13.2666 21 16H19.3333ZM22.3333 16C22.3333 12.5333 19.4667 9.66665 16 9.66665V7.99998C20.4 7.99998 24 11.6 24 16H22.3333Z" fill="white"/>
</g>
<defs>
<linearGradient id="paint0_linear_29_415" x1="8.45757" y1="8.45738" x2="28.6338" y2="28.6336" gradientUnits="userSpaceOnUse">
<stop stop-color="#DF4123"/>
<stop offset="1" stop-color="#F17A2B"/>
</linearGradient>
<clipPath id="clip0_29_415">
<rect width="32" height="32" fill="white"/>
</clipPath>
</defs>
</svg>
