<svg xmlns="http://www.w3.org/2000/svg" viewBox="0 0 32 32"><defs><clipPath id="podengine__b"><path fill="#fff" d="M4 4h24v24H4z"/></clipPath></defs><mask id="podengine__a" width="32" height="32" x="0" y="0" maskUnits="userSpaceOnUse" style="mask-type:alpha"><path d="M16 0c12.357 0 16 3.643 16 16s-3.643 16-16 16S0 28.357 0 16 3.643 0 16 0Z"/></mask><g mask="url(#podengine__a)"><path fill="#fff" d="M0 0h32v32H0z"/><g clip-path="url(#podengine__b)"><path fill-rule="evenodd" d="m26.96 22.01-2.346-.12a.658.658 0 0 0-.5.193l-2.031 2.032a.659.659 0 0 0-.192.499l.12 2.346L19.5 28l-1.575-1.744a.659.659 0 0 0-.488-.217h-2.874a.66.66 0 0 0-.489.217L12.5 28l-2.51-1.04.12-2.346a.659.659 0 0 0-.193-.5l-2.032-2.031a.658.658 0 0 0-.499-.192l-2.346.12L4 19.5l1.744-1.575a.658.658 0 0 0 .217-.488v-2.874a.659.659 0 0 0-.217-.489L4 12.5l1.04-2.51 2.346.12a.661.661 0 0 0 .5-.193l2.031-2.032a.658.658 0 0 0 .192-.499L9.99 5.04 12.5 4l1.575 1.744a.659.659 0 0 0 .488.217h2.874a.658.658 0 0 0 .488-.217L19.5 4l2.51 1.04-.12 2.346a.662.662 0 0 0 .193.5l2.032 2.031a.658.658 0 0 0 .499.192l2.346-.12L28 12.5l-1.744 1.575a.659.659 0 0 0-.217.488v2.874c0 .186.079.364.217.488L28 19.5l-1.04 2.51Zm-11.034.676a6.612 6.612 0 1 0 0-13.225 6.612 6.612 0 0 0 0 13.225Z" clip-rule="evenodd"/></g></g></svg>