<svg xmlns="http://www.w3.org/2000/svg" viewBox="0 0 32 32"><defs><path id="podfriend__c" fill="#00A397" d="M16 17.266a4.452 4.452 0 1 0 0-8.904 4.452 4.452 0 0 0 0 8.904Z"/><path id="podfriend__d" fill="#000" d="M16 15.108a2.294 2.294 0 1 0 0-4.587 2.294 2.294 0 0 0 0 4.587Z"/><path id="podfriend__e" fill="#fff" d="M17.932 12.831a1.275 1.275 0 1 0 0-2.55 1.275 1.275 0 0 0 0 2.55Z"/></defs><defs><clipPath id="podfriend__a"><path fill="#fff" d="M0 0h32v32H0z"/></clipPath></defs><g clip-path="url(#podfriend__a)"><mask id="podfriend__b" width="32" height="32" x="0" y="0" maskUnits="userSpaceOnUse" style="mask-type:alpha"><path d="M16 0c12.357 0 16 3.643 16 16s-3.643 16-16 16S0 28.357 0 16 3.643 0 16 0Z"/></mask><g mask="url(#podfriend__b)"><path fill="#00A3FE" d="M0 0h32v32H0z"/><path fill="#FF00B7" d="M6.722 19.38h18.556s-.935 6.177-9.278 6.177-9.278-6.177-9.278-6.177Z"/><path d="M10.537 24.351a6.89 6.89 0 0 1-3.766-4.774 124.54 124.54 0 0 1 4.282-.173c1.01-.024 2.24-.221 3.224 0-1.009.517-1.92.911-2.633 1.846-.346.447-.62.945-.812 1.477-.074.172-.468 1.526-.295 1.624Zm5.266-1.477c-.024.197-.024.419.148.517.123.05.27 0 .369-.123.098-.123.123-.246.172-.369.419-1.427 1.305-2.535 2.363-3.52-.616.05-1.428-.048-1.895.468-.69.788-1.034 2.018-1.157 3.027Z"/><path fill="#fff" d="M9.774 22.186c.566 0 1.083-1.452 1.255-2.584H8.715c.099 1.107.517 2.584 1.059 2.584Zm12.452 0c.542 0 .96-1.477 1.059-2.584H20.97c.172 1.132.69 2.584 1.255 2.584Z"/><path d="M16 26c-4.479 0-6.866-1.772-8.097-3.248-1.353-1.625-1.6-3.224-1.6-3.298l-.073-.492h19.54l-.074.492c0 .074-.27 1.673-1.6 3.298C22.867 24.228 20.48 26 16 26Zm-8.761-6.177c.418 1.403 2.166 5.316 8.761 5.316 6.522 0 8.318-3.913 8.736-5.316H7.24Z"/><use href="#podfriend__c"/><use href="#podfriend__d"/><use href="#podfriend__e"/><path fill="#fff" d="M16 5.919h.05c7.485.062 7.973 7.284 7.973 7.284s.541 3.987-2.19 3.987H10.168c-2.732 0-2.19-3.987-2.19-3.987s.487-7.221 7.973-7.284H16Z"/><use href="#podfriend__c"/><use href="#podfriend__d"/><use href="#podfriend__e"/><path d="M24.441 13.178c-.024-.418-.787-7.604-8.392-7.678h-.098c-7.605.074-8.368 7.26-8.392 7.678-.025.197-.296 2.437.787 3.667.443.517 1.059.788 1.822.788h11.665c.762 0 1.378-.271 1.82-.788 1.084-1.23.813-3.47.788-3.667Zm-1.427 3.101a1.477 1.477 0 0 1-1.181.492H10.168c-.493 0-.886-.172-1.182-.492-.837-.96-.59-3.002-.59-3.002v-.025c.024-.295.566-6.866 7.604-6.915 7.038.049 7.58 6.62 7.604 6.915v.025c.074.566.123 2.19-.59 3.002Z"/></g></g></svg>