<svg xmlns="http://www.w3.org/2000/svg" viewBox="0 0 32 32"><defs><clipPath id="podhero__a"><path fill="#fff" d="M0 0h32v32H0z"/></clipPath></defs><g clip-path="url(#podhero__a)"><mask id="podhero__b" width="32" height="32" x="0" y="0" maskUnits="userSpaceOnUse" style="mask-type:alpha"><path d="M16 0c12.357 0 16 3.643 16 16s-3.643 16-16 16S0 28.357 0 16 3.643 0 16 0Z"/></mask><g mask="url(#podhero__b)"><path fill="#0067FF" d="M0 0h32v32H0z"/><path fill="#fff" fill-rule="evenodd" d="M16 4.9C9.867 4.9 4.9 9.873 4.9 16c0 3.833 1.947 7.213 4.9 9.207V16A6.2 6.2 0 0 1 16 9.8c3.42 0 6.2 2.78 6.2 6.2a6.211 6.211 0 0 1-3.753 5.7v-3.253C18.447 17.1 17.347 16 16 16a2.453 2.453 0 0 0-2.447 2.447V32h4.9v-5.173C24.727 25.34 27.107 19.92 27.107 16c0-6.133-4.974-11.1-11.1-11.1H16Z" clip-rule="evenodd"/></g></g></svg>