<svg xmlns="http://www.w3.org/2000/svg" width="32" height="32" fill="none" viewBox="0 0 32 32">
  <path fill="#794CF8" d="M3.366 28.634C.911 26.178 0 22.178 0 16S.91 5.822 3.366 3.366C5.822.911 9.822 0 16 0s10.178.91 12.634 3.366C31.089 5.822 32 9.822 32 16s-.91 10.178-3.366 12.634C26.178 31.089 22.178 32 16 32s-10.178-.91-12.634-3.366Z"/>
  <path fill="#fff" fill-rule="evenodd" d="M17.208 22.202c-.376-.306-.376-.8-.376-1.789V7.24c0-.99 0-1.484.376-1.789.377-.305.8-.217 1.646-.038 4.106.864 6.823 4.303 6.823 8.413 0 4.111-2.717 7.55-6.823 8.414-.846.178-1.269.268-1.646-.038ZM8.822 18.32c-.396-.306-.396-.802-.396-1.794V7.33c0-.992 0-1.488.396-1.793.396-.306.805-.2 1.624.011 3.068.794 5.034 3.35 5.034 6.38s-1.966 5.586-5.034 6.38c-.819.211-1.228.317-1.624.011Z" clip-rule="evenodd"/>
  <path fill="#fff" d="M11.953 26.75a3.63 3.63 0 1 0 0-7.259 3.63 3.63 0 0 0 0 7.259Z"/>
</svg>
