<svg xmlns="http://www.w3.org/2000/svg" viewBox="0 0 32 32"><defs><clipPath id="podimo__a"><path fill="#fff" d="M0 0h32v32H0z"/></clipPath></defs><g clip-path="url(#podimo__a)"><mask id="podimo__b" width="32" height="32" x="0" y="0" maskUnits="userSpaceOnUse" style="mask-type:alpha"><path d="M16 0c12.357 0 16 3.643 16 16s-3.643 16-16 16S0 28.357 0 16 3.643 0 16 0Z"/></mask><g mask="url(#podimo__b)"><path fill="#794CF8" d="M0 0h32v32H0z"/><g fill="#fff"><path fill-rule="evenodd" d="M17.208 22.202c-.376-.306-.376-.8-.376-1.789V7.24c0-.99 0-1.484.376-1.789.377-.305.8-.216 1.646-.038 4.106.864 6.823 4.303 6.823 8.413 0 4.111-2.717 7.55-6.823 8.415-.846.178-1.269.267-1.646-.039ZM8.822 18.32c-.396-.306-.396-.802-.396-1.794V7.33c0-.992 0-1.488.396-1.793.396-.306.805-.2 1.624.011 3.068.794 5.034 3.35 5.034 6.38s-1.966 5.586-5.034 6.38c-.819.211-1.228.317-1.624.011Z" clip-rule="evenodd"/><path d="M11.953 26.75a3.63 3.63 0 1 0 0-7.259 3.63 3.63 0 0 0 0 7.26Z"/></g></g></g></svg>