<svg width="32" height="32" viewBox="0 0 32 32" fill="none" xmlns="http://www.w3.org/2000/svg">
<path d="M3.36627 28.6337C0.910867 26.1783 0 22.1783 0 16C0 9.82167 0.910867 5.82167 3.36627 3.36627C5.82167 0.910867 9.82167 0 16 0C22.1783 0 26.1783 0.910867 28.6337 3.36627C31.0891 5.82167 32 9.82167 32 16C32 22.1783 31.0891 26.1783 28.6337 28.6337C26.1783 31.0891 22.1783 32 16 32C9.82167 32 5.82167 31.0891 3.36627 28.6337Z" fill="black"/>
<path d="M19.3816 3.87875C18.8807 3.71825 18.3445 3.9942 18.184 4.4951C18.0235 4.99599 18.2995 5.53217 18.8004 5.69267C20.5564 6.25535 22.1519 7.23106 23.4529 8.53789C24.7539 9.84473 25.7225 11.4446 26.2773 13.2031C26.4355 13.7048 26.9705 13.9831 27.4721 13.8249C27.9737 13.6666 28.252 13.1317 28.0938 12.6301C27.4473 10.5809 26.3187 8.71679 24.8028 7.19404C23.2869 5.6713 21.4278 4.5344 19.3816 3.87875Z" fill="url(#paint0_linear_120_93578)"/>
<path d="M14.4144 10.1337C15.633 9.80449 16.3541 8.54967 16.0249 7.33099C15.6957 6.11231 14.4408 5.39126 13.2222 5.72048C11.4194 6.20748 9.77642 7.15998 8.45801 8.48244C7.13961 9.80489 6.19215 11.4508 5.71068 13.255C5.22921 15.0593 5.23066 16.9584 5.71489 18.7619C6.19912 20.5654 7.1491 22.2098 8.46952 23.5303C9.78995 24.8507 11.4344 25.8007 13.2379 26.2849C15.0414 26.7692 16.9405 26.7706 18.7447 26.2892C20.549 25.8077 22.1949 24.8603 23.5173 23.5419C24.8398 22.2235 25.7923 20.5805 26.2793 18.7778C26.6086 17.5591 25.8875 16.3043 24.6689 15.975C23.4502 15.6458 22.1953 16.3668 21.8661 17.5855C21.5882 18.6144 21.0446 19.552 20.2898 20.3044C19.5351 21.0568 18.5958 21.5975 17.5661 21.8723C16.5364 22.1471 15.4526 22.1462 14.4233 21.8699C13.3941 21.5935 12.4556 21.0514 11.702 20.2978C10.9485 19.5442 10.4063 18.6057 10.13 17.5765C9.8536 16.5472 9.85277 15.4634 10.1275 14.4337C10.4023 13.404 10.943 12.4647 11.6955 11.71C12.4479 10.9552 13.3855 10.4116 14.4144 10.1337Z" fill="url(#paint1_linear_120_93578)"/>
<path d="M17.6181 7.57661C17.8039 7.08452 18.3534 6.83619 18.8455 7.02196C20.2397 7.54829 21.5014 8.37444 22.5412 9.44201C23.5811 10.5096 24.3738 11.7925 24.8632 13.2002C25.036 13.697 24.7733 14.2398 24.2765 14.4125C23.7797 14.5853 23.2369 14.3226 23.0641 13.8258C22.6663 12.6816 22.022 11.6388 21.1768 10.771C20.3316 9.9033 19.3061 9.23179 18.1728 8.80398C17.6807 8.61821 17.4324 8.06871 17.6181 7.57661Z" fill="url(#paint2_linear_120_93578)"/>
<path d="M18.3065 10.2643C17.8258 10.0508 17.263 10.2675 17.0496 10.7482C16.8361 11.2289 17.0528 11.7917 17.5335 12.0051C18.6258 12.4901 19.4954 13.3685 19.9694 14.4655C20.1781 14.9484 20.7386 15.1706 21.2214 14.962C21.7043 14.7534 21.9266 14.1928 21.7179 13.71C21.0541 12.1736 19.8362 10.9434 18.3065 10.2643Z" fill="url(#paint3_linear_120_93578)"/>
<defs>
<linearGradient id="paint0_linear_120_93578" x1="16.7444" y1="3.83307" x2="16.7444" y2="26.6492" gradientUnits="userSpaceOnUse">
<stop stop-color="#FFD507"/>
<stop offset="1" stop-color="#FFB84B"/>
</linearGradient>
<linearGradient id="paint1_linear_120_93578" x1="16.7444" y1="3.83307" x2="16.7444" y2="26.6492" gradientUnits="userSpaceOnUse">
<stop stop-color="#FFD507"/>
<stop offset="1" stop-color="#FFB84B"/>
</linearGradient>
<linearGradient id="paint2_linear_120_93578" x1="16.7444" y1="3.83307" x2="16.7444" y2="26.6492" gradientUnits="userSpaceOnUse">
<stop stop-color="#FFD507"/>
<stop offset="1" stop-color="#FFB84B"/>
</linearGradient>
<linearGradient id="paint3_linear_120_93578" x1="16.7444" y1="3.83307" x2="16.7444" y2="26.6492" gradientUnits="userSpaceOnUse">
<stop stop-color="#FFD507"/>
<stop offset="1" stop-color="#FFB84B"/>
</linearGradient>
</defs>
</svg>
