<svg xmlns="http://www.w3.org/2000/svg" width="32" height="32" fill="none" viewBox="0 0 32 32">
  <path fill="#000" d="M3.366 28.634C.911 26.178 0 22.178 0 16S.91 5.822 3.366 3.366C5.822.911 9.822 0 16 0s10.178.91 12.634 3.366C31.089 5.822 32 9.822 32 16s-.91 10.178-3.366 12.634C26.178 31.089 22.178 32 16 32s-10.178-.91-12.634-3.366Z"/>
  <path fill="url(#a)" d="M19.381 3.879a.952.952 0 1 0-.58 1.814 11.53 11.53 0 0 1 7.476 7.51.952.952 0 0 0 1.817-.573 13.434 13.434 0 0 0-8.713-8.751Z"/>
  <path fill="url(#b)" d="M14.414 10.134a2.286 2.286 0 1 0-1.192-4.414A10.648 10.648 0 1 0 26.28 18.778a2.286 2.286 0 1 0-4.413-1.192 6.079 6.079 0 0 1-10.164 2.712 6.076 6.076 0 0 1 2.712-10.164Z"/>
  <path fill="url(#c)" d="M17.618 7.577a.952.952 0 0 1 1.227-.555 10.177 10.177 0 0 1 6.018 6.178.953.953 0 0 1-1.799.626 8.272 8.272 0 0 0-4.891-5.022.952.952 0 0 1-.555-1.227Z"/>
  <path fill="url(#d)" d="M18.306 10.264a.952.952 0 1 0-.773 1.741 4.756 4.756 0 0 1 2.436 2.46.952.952 0 1 0 1.749-.755 6.661 6.661 0 0 0-3.412-3.446Z"/>
  <defs>
    <linearGradient id="a" x1="16.744" x2="16.744" y1="3.833" y2="26.649" gradientUnits="userSpaceOnUse">
      <stop stop-color="#FFD507"/>
      <stop offset="1" stop-color="#FFB84B"/>
    </linearGradient>
    <linearGradient id="b" x1="16.744" x2="16.744" y1="3.833" y2="26.649" gradientUnits="userSpaceOnUse">
      <stop stop-color="#FFD507"/>
      <stop offset="1" stop-color="#FFB84B"/>
    </linearGradient>
    <linearGradient id="c" x1="16.744" x2="16.744" y1="3.833" y2="26.649" gradientUnits="userSpaceOnUse">
      <stop stop-color="#FFD507"/>
      <stop offset="1" stop-color="#FFB84B"/>
    </linearGradient>
    <linearGradient id="d" x1="16.744" x2="16.744" y1="3.833" y2="26.649" gradientUnits="userSpaceOnUse">
      <stop stop-color="#FFD507"/>
      <stop offset="1" stop-color="#FFB84B"/>
    </linearGradient>
  </defs>
</svg>
