<svg xmlns="http://www.w3.org/2000/svg" viewBox="0 0 32 32"><defs><linearGradient id="podkicker__c" x1="16.733" x2="16.733" y1="4.023" y2="26.483" gradientUnits="userSpaceOnUse"><stop stop-color="#FFD507"/><stop offset="1" stop-color="#FFB84B"/></linearGradient><linearGradient id="podkicker__d" x1="16.733" x2="16.733" y1="4.023" y2="26.483" gradientUnits="userSpaceOnUse"><stop stop-color="#FFD507"/><stop offset="1" stop-color="#FFB84B"/></linearGradient><linearGradient id="podkicker__e" x1="16.733" x2="16.733" y1="4.023" y2="26.483" gradientUnits="userSpaceOnUse"><stop stop-color="#FFD507"/><stop offset="1" stop-color="#FFB84B"/></linearGradient><linearGradient id="podkicker__f" x1="16.733" x2="16.733" y1="4.023" y2="26.483" gradientUnits="userSpaceOnUse"><stop stop-color="#FFD507"/><stop offset="1" stop-color="#FFB84B"/></linearGradient><clipPath id="podkicker__a"><path fill="#fff" d="M0 0h32v32H0z"/></clipPath></defs><g clip-path="url(#podkicker__a)"><mask id="podkicker__b" width="32" height="32" x="0" y="0" maskUnits="userSpaceOnUse" style="mask-type:alpha"><path d="M16 0c12.357 0 16 3.643 16 16s-3.643 16-16 16S0 28.357 0 16 3.643 0 16 0Z"/></mask><g mask="url(#podkicker__b)"><path d="M0 0h32v32H0z"/><path fill="url(#podkicker__c)" d="M19.329 4.068a.938.938 0 1 0-.572 1.785 11.35 11.35 0 0 1 7.36 7.394.938.938 0 0 0 1.788-.565 13.225 13.225 0 0 0-8.576-8.614Z"/><path fill="url(#podkicker__d)" d="M14.44 10.225a2.25 2.25 0 1 0-1.174-4.344 10.482 10.482 0 1 0 12.853 12.853 2.25 2.25 0 0 0-4.345-1.174 5.982 5.982 0 1 1-7.335-7.335Z"/><path fill="url(#podkicker__e)" d="M17.593 7.708a.937.937 0 0 1 1.208-.546 10.018 10.018 0 0 1 5.924 6.082.938.938 0 0 1-1.771.616 8.142 8.142 0 0 0-4.815-4.944.937.937 0 0 1-.546-1.208Z"/><path fill="url(#podkicker__f)" d="M18.27 10.354a.938.938 0 0 0-.76 1.713 4.682 4.682 0 0 1 2.397 2.422.938.938 0 1 0 1.722-.744 6.557 6.557 0 0 0-3.359-3.391Z"/></g></g></svg>