<svg xmlns="http://www.w3.org/2000/svg" width="32" height="32" fill="none" viewBox="0 0 32 32">
  <path fill="#fff" d="M3.367 28.633C.913 26.18 0 22.18 0 16 0 9.82.913 5.82 3.367 3.367 5.82.913 9.82 0 16 0c6.18 0 10.18.913 12.633 3.367C31.087 5.82 32 9.82 32 16c0 6.18-.913 10.18-3.367 12.633C26.18 31.087 22.18 32 16 32c-6.18 0-10.18-.913-12.633-3.367Z"/>
  <path fill="#54A0A8" d="M15.113 24.493a7.957 7.957 0 0 1-7.073-7.906h1.767a6.183 6.183 0 0 0 6.186 6.186 6.182 6.182 0 0 0 6.187-6.186h1.767a7.957 7.957 0 0 1-7.074 7.906V26.9h-1.766v-2.407h.006Zm5.094-18.1-7.654 7.654s4.367-.034 6.754-1.707c.36-.253.74-.54 1.113-.847v5.094C20.42 19.027 18.44 21 16 21a4.42 4.42 0 0 1-4.42-4.413V7.74a4.42 4.42 0 0 1 8.627-1.353v.006Zm.213 22.274h-8.84V26.9h8.84v1.767Z"/>
</svg>
