<svg xmlns="http://www.w3.org/2000/svg" viewBox="0 0 32 32"><defs><path id="podknife__a" fill="#fff" d="M0 0h32v32H0z"/></defs><defs><clipPath id="podknife__b"><use href="#podknife__a"/></clipPath></defs><g clip-path="url(#podknife__b)"><mask id="podknife__c" width="32" height="32" x="0" y="0" maskUnits="userSpaceOnUse" style="mask-type:alpha"><path d="M16 0c12.357 0 16 3.643 16 16s-3.643 16-16 16S0 28.357 0 16 3.643 0 16 0Z"/></mask><g mask="url(#podknife__c)"><use href="#podknife__a"/><path fill="#54A0A8" d="M15.113 24.493a7.957 7.957 0 0 1-7.073-7.906h1.767a6.183 6.183 0 0 0 6.186 6.186 6.182 6.182 0 0 0 6.187-6.186h1.767a7.957 7.957 0 0 1-7.074 7.906V26.9h-1.766v-2.407h.006Zm5.094-18.1-7.654 7.654s4.367-.034 6.754-1.707c.36-.253.74-.54 1.113-.847v5.094C20.42 19.027 18.44 21 16 21a4.42 4.42 0 0 1-4.42-4.413V7.74a4.42 4.42 0 0 1 8.627-1.353v.006Zm.213 22.274h-8.84V26.9h8.84v1.767Z"/></g></g></svg>