<svg xmlns="http://www.w3.org/2000/svg" fill="none" viewBox="0 0 32 32"><defs><clipPath id="podlp__a"><path fill="#fff" d="M0 0h32v32H0z"/></clipPath></defs><g clip-path="url(#podlp__a)"><mask id="podlp__b" width="32" height="32" x="0" y="0" maskUnits="userSpaceOnUse" style="mask-type:alpha"><path fill="#000" d="M16 0c12.357 0 16 3.643 16 16s-3.643 16-16 16S0 28.357 0 16 3.643 0 16 0Z"/></mask><g mask="url(#podlp__b)"><path fill="#ADDFE8" d="M0 0h32v32H0z"/><circle cx="16" cy="16" r="16" fill="#ADDFE8"/><circle cx="16" cy="16" r="14.5" fill="#272827"/><path fill="#464444" fill-rule="evenodd" d="M30.377 17.89 16.79 13.855 15.436 1.512C8.207 1.789 2.335 7.357 1.582 14.454l14.442 2.623 1.584 13.334c6.629-.732 11.911-5.93 12.77-12.52Z" clip-rule="evenodd"/><path fill="#726E70" fill-rule="evenodd" d="M28.68 23.038a14.58 14.58 0 0 1-5.06 5.3l-9.233-13.69-11.49-4.864a14.555 14.555 0 0 1 6.624-6.76l7.91 13.476 11.25 6.538Z" clip-rule="evenodd"/><circle cx="16" cy="16" r="5.43" fill="#141313"/><circle cx="16" cy="16" r="4.355" fill="#005665"/><circle cx="16" cy="16" r="1.815" fill="#fff"/><g fill="#fff" fill-rule="evenodd" clip-rule="evenodd"><path d="M16 7.195c-.324 0-.587.525-.587 1.174 0 .648.263 1.174.587 1.174A6.465 6.465 0 0 1 22.457 16c0 .324.526.587 1.174.587.649 0 1.174-.263 1.174-.587 0-4.855-3.95-8.805-8.805-8.805Z"/><path d="M16 3.085c-.324 0-.587.526-.587 1.175 0 .648.263 1.174.587 1.174 5.826 0 10.566 4.74 10.566 10.566 0 .324.526.587 1.175.587.648 0 1.174-.263 1.174-.587C28.915 8.879 23.12 3.085 16 3.085Z"/></g></g></g></svg>