<svg xmlns="http://www.w3.org/2000/svg" width="32" height="32" fill="none" viewBox="0 0 32 32">
  <path fill="#fff" d="M3.367 28.633C.913 26.18 0 22.18 0 16 0 9.82.913 5.82 3.367 3.367 5.82.913 9.82 0 16 0c6.18 0 10.18.913 12.633 3.367C31.087 5.82 32 9.82 32 16c0 6.18-.913 10.18-3.367 12.633C26.18 31.087 22.18 32 16 32c-6.18 0-10.18-.913-12.633-3.367Z"/>
  <path fill="#B01212" d="M14.567 25.86c.54 0 .98.44.98.973a.98.98 0 0 1-.974.974.982.982 0 0 1-.973-.987.952.952 0 0 1 .96-.96m5.02-14.447a.52.52 0 0 1-1.04 0V9.407c0-.294.233-.52.52-.52.287 0 .52.24.52.52v2.006ZM15.987 4.2S10 3.88 10 10.453V21.16h2.96v-1.887h-.593v-8.86A3.83 3.83 0 0 1 16 6.606h.18c1.453 0 2.72.814 3.36 2.02a.834.834 0 0 0-.473-.133.918.918 0 0 0-.92.92v2a.918.918 0 0 0 1.393.787 3.823 3.823 0 0 1-3.36 2.02c-.72 0-1.393-.2-1.967-.553v5.6h-.58v3.34c0 .26.114.493.28.673.174.173.414.28.674.28.52 0 .94-.42.94-.94v-.613c0-.094.02-.174.053-.254a.66.66 0 0 1 .62-.42.688.688 0 0 1 .687.674v1.746c0 .26.113.494.28.674.173.173.4.28.66.28.52 0 .94-.42.94-.94V22.02c0-.093.02-.173.053-.253a.66.66 0 0 1 .62-.42c.28 0 .533.173.62.42.033.08.053.16.053.253v4.827c0 .26.114.493.28.673.174.173.4.28.66.28s.494-.113.66-.28a.953.953 0 0 0 .28-.673V10.74c0-6.987-5.986-6.54-5.986-6.54"/>
</svg>
