<svg xmlns="http://www.w3.org/2000/svg" viewBox="0 0 32 32"><defs><path id="podnews__a" fill="#fff" d="M0 0h32v32H0z"/></defs><defs><clipPath id="podnews__b"><use href="#podnews__a"/></clipPath><clipPath id="podnews__d"><path fill="#fff" d="M4.195 4.195h23.61v23.61H4.195z"/></clipPath></defs><g clip-path="url(#podnews__b)"><mask id="podnews__c" width="32" height="32" x="0" y="0" maskUnits="userSpaceOnUse" style="mask-type:alpha"><path d="M16 0c12.357 0 16 3.643 16 16s-3.643 16-16 16S0 28.357 0 16 3.643 0 16 0Z"/></mask><g mask="url(#podnews__c)"><use href="#podnews__a"/><g clip-path="url(#podnews__d)"><path fill="#fff" d="M12.311 6.408h7.378v14.756h-7.378z"/><path fill="#B01212" d="M14.568 25.859c.54 0 .98.44.98.973 0 .533-.44.973-.974.973a.982.982 0 0 1-.973-.986.952.952 0 0 1 .96-.96m5.02-14.445a.52.52 0 0 1-1.04 0V9.407c0-.293.233-.52.52-.52.286 0 .52.24.52.52v2.007ZM15.988 4.2s-5.986-.32-5.986 6.253v10.705h2.96v-1.886h-.594v-8.86A3.829 3.829 0 0 1 16 6.608h.18c1.453 0 2.72.814 3.36 2.02a.834.834 0 0 0-.474-.133.917.917 0 0 0-.92.92v2a.918.918 0 0 0 1.394.786 3.823 3.823 0 0 1-3.36 2.02c-.72 0-1.393-.2-1.967-.553v5.6h-.58v3.339c0 .26.114.493.28.673.174.173.414.28.674.28.52 0 .94-.42.94-.94v-.613c0-.093.02-.173.053-.253a.66.66 0 0 1 .62-.42.688.688 0 0 1 .686.673v1.746a1 1 0 0 0 .28.674c.174.173.4.28.66.28.52 0 .94-.42.94-.94V22.02c0-.093.02-.173.054-.253a.66.66 0 0 1 .62-.42c.28 0 .533.173.62.42.033.08.053.16.053.253v4.826c0 .26.113.494.28.674.173.173.4.28.66.28s.493-.114.66-.28a.953.953 0 0 0 .28-.674V10.74c0-6.986-5.986-6.539-5.986-6.539"/></g></g></g></svg>