<svg xmlns="http://www.w3.org/2000/svg" width="32" height="32" fill="none" viewBox="0 0 32 32">
  <path fill="#fff" fill-rule="evenodd" d="M3.366 28.634C.911 26.178 0 22.178 0 16S.91 5.822 3.366 3.366C5.822.911 9.822 0 16 0s10.178.91 12.634 3.366C31.089 5.822 32 9.822 32 16s-.91 10.178-3.366 12.634C26.178 31.089 22.178 32 16 32s-10.178-.91-12.634-3.366Z" clip-rule="evenodd"/>
  <path fill="#000" fill-rule="evenodd" d="M6.402 6H6v5.602h.402a13.946 13.946 0 0 1 13.996 13.996V26H26v-.402C26 14.794 17.206 6 6.402 6Zm0 7.199H6V18.8h.402a6.757 6.757 0 0 1 6.797 6.797V26H18.8v-.402c0-6.82-5.579-12.4-12.4-12.4Zm0 7.199H6V26h5.602v-.402a5.2 5.2 0 0 0-5.2-5.2Z" clip-rule="evenodd"/>
</svg>
