<svg xmlns="http://www.w3.org/2000/svg" viewBox="0 0 32 32"><defs><path id="podstation__a" fill="#fff" d="M0 0h32v32H0z"/></defs><defs><clipPath id="podstation__b"><use href="#podstation__a"/></clipPath><clipPath id="podstation__d"><path fill="#fff" d="M6 6h20v20H6z"/></clipPath></defs><g clip-path="url(#podstation__b)"><mask id="podstation__c" width="32" height="32" x="0" y="0" maskUnits="userSpaceOnUse" style="mask-type:alpha"><path d="M16 0c12.357 0 16 3.643 16 16s-3.643 16-16 16S0 28.357 0 16 3.643 0 16 0Z"/></mask><g mask="url(#podstation__c)"><use href="#podstation__a"/><g clip-path="url(#podstation__d)"><path fill-rule="evenodd" d="M6.402 6H6v5.602h.402a13.946 13.946 0 0 1 13.996 13.996V26H26v-.402C26 14.794 17.206 6 6.402 6Zm0 7.199H6V18.8h.402a6.757 6.757 0 0 1 6.797 6.797V26H18.8v-.402c0-6.82-5.579-12.4-12.4-12.4Zm0 7.199H6V26h5.602v-.402a5.2 5.2 0 0 0-5.2-5.2Z" clip-rule="evenodd"/></g></g></g></svg>