<svg xmlns="http://www.w3.org/2000/svg" width="32" height="32" fill="none" viewBox="0 0 32 32"><mask id="a" width="32" height="32" x="0" y="0" maskUnits="userSpaceOnUse" style="mask-type:alpha"><path fill="#000" d="M16 0c12.357 0 16 3.643 16 16s-3.643 16-16 16S0 28.357 0 16 3.643 0 16 0Z"/></mask><g mask="url(#a)"><path fill="#fff" d="M0 0h32v32H0z"/><path fill="#000" d="M6.402 6H6v5.602h.402a13.946 13.946 0 0 1 13.996 13.996V26H26v-.402C26 14.794 17.206 6 6.402 6Z"/><path fill="#000" d="M6.402 13.199H6V18.8h.402a6.757 6.757 0 0 1 6.797 6.797V26H18.8v-.402c0-6.82-5.579-12.4-12.4-12.4Z"/><path fill="#000" d="M6.402 20.398H6V26h5.602v-.402a5.2 5.2 0 0 0-5.2-5.2Z"/></g></svg>