<svg xmlns="http://www.w3.org/2000/svg" fill="none" viewBox="0 0 32 32"><defs><linearGradient id="podurama__c" x1="0" x2="32" y1="0" y2="32" gradientUnits="userSpaceOnUse"><stop offset=".5" stop-color="#EF2B7A"/><stop offset="1" stop-color="#F6525F"/></linearGradient><clipPath id="podurama__a"><path fill="#fff" d="M0 0h32v32H0z"/></clipPath></defs><g clip-path="url(#podurama__a)"><mask id="podurama__b" width="32" height="32" x="0" y="0" maskUnits="userSpaceOnUse" style="mask-type:alpha"><path fill="#000" d="M16 0c12.357 0 16 3.643 16 16s-3.643 16-16 16S0 28.357 0 16 3.643 0 16 0Z"/></mask><g mask="url(#podurama__b)"><path fill="url(#podurama__c)" d="M0 0h32v32H0z"/><circle cx="16" cy="14.625" r="2.589" fill="#fff"/><circle cx="13.244" cy="19.398" r="2.251" fill="#fff"/><circle cx="9.867" cy="25.247" r="1.576" fill="#fff"/><path fill="#fff" d="m11.146 26.169 3.924-5.454-3.88-2.24-2.76 6.126 2.716 1.568Z"/><path stroke="#fff" stroke-linecap="round" stroke-width="1.801" d="M10.525 7.61A8.854 8.854 0 0 1 16 5.728c4.908 0 8.888 3.98 8.888 8.897 0 4.773-3.764 8.663-8.492 8.87"/><path stroke="#fff" stroke-linecap="round" stroke-width="1.801" d="M12.74 10.456A5.274 5.274 0 0 1 16 9.33a5.29 5.29 0 0 1 5.286 5.295 5.297 5.297 0 0 1-3.089 4.809"/></g></g></svg>