<svg xmlns="http://www.w3.org/2000/svg" width="32" height="32" fill="none" viewBox="0 0 32 32">
  <g clip-path="url(#a)">
    <path fill="#000" d="M3.367 28.633C.913 26.18 0 22.18 0 16 0 9.82.913 5.82 3.367 3.367 5.82.913 9.82 0 16 0c6.18 0 10.18.913 12.633 3.367C31.087 5.82 32 9.82 32 16c0 6.18-.913 10.18-3.367 12.633C26.18 31.087 22.18 32 16 32c-6.18 0-10.18-.913-12.633-3.367Z"/>
    <path fill="#0C7BB3" d="M21.7 8.048c1.581 1.39 2.444 2.108 3.402 5.174.383 1.15.383 1.724.383 3.065-.192 2.108-.575 3.258-1.533 4.79l-.958 1.917c-.575 1.15-1.341 1.916-2.491 2.3l-.575.191c-.192-.192 1.725-6.707 1.916-6.898.192-.192.383 0 .575.383l.575.383.192-.383c.766-2.108.766-4.215-.192-6.132-1.341-2.874-3.832-4.598-7.09-4.598-5.365 0-9.006 5.365-7.09 10.73l.192.383.383-.575.767-.383 1.916 6.898h-.383c-1.342-.383-2.108-.958-2.683-2.299l-1.15-1.916c-.766-1.533-1.15-2.683-1.341-4.79 0-1.342 0-1.917.383-3.066 1.533-4.982 7.33-9.006 13.988-5.701l.815.527Zm-9.437 9.772c.575.384 2.108 6.515 1.917 7.09-.192.383-1.15.767-1.342.383l-2.107-7.664c.191-.192.957-.192 1.532.191Zm9.006-.191c0 .383-1.916 7.664-2.299 7.856 0 .192-.958-.192-1.15-.575-.383-.383 1.342-6.515 1.916-7.09.384-.383 1.342-.575 1.533-.191Z"/>
  </g>
  <defs>
    <clipPath id="a">
      <path fill="#fff" d="M0 0h32v32H0z"/>
    </clipPath>
  </defs>
</svg>
