<svg width="32" height="32" viewBox="0 0 32 32" fill="none" xmlns="http://www.w3.org/2000/svg">
<g clip-path="url(#clip0_29_471)">
<path d="M3.36667 28.6333C0.91 26.1787 0 22.1787 0 16C0 9.82133 0.910667 5.82133 3.36667 3.36667C5.82267 0.912 9.82133 0 16 0C22.1787 0 26.178 0.910667 28.6333 3.36667C31.0887 5.82267 32 9.82133 32 16C32 22.1787 31.0893 26.1787 28.6333 28.6333C26.1773 31.088 22.1787 32 16 32C9.82133 32 5.82133 31.0893 3.36667 28.6333Z" fill="url(#paint0_linear_29_471)"/>
<path d="M8.81034 26.2483C7.25816 26.2483 5.99988 24.9901 5.99988 23.4379C5.99988 21.8857 7.25816 20.6274 8.81034 20.6274C10.3625 20.6274 11.6208 21.8857 11.6208 23.4379C11.6208 24.9901 10.3625 26.2483 8.81034 26.2483Z" fill="white"/>
<path fill-rule="evenodd" clip-rule="evenodd" d="M17.3725 22.5882C12.6077 22.5882 8.74513 18.7256 8.74513 13.9608C8.74513 9.19598 12.6077 5.33331 17.3725 5.33331C22.1373 5.33331 26 9.19598 26 13.9608C26 18.7256 22.1373 22.5882 17.3725 22.5882ZM17.3727 16.5751C15.9287 16.5751 14.7583 15.4046 14.7583 13.9607C14.7583 12.5168 15.9287 11.3464 17.3727 11.3464C18.8165 11.3464 19.987 12.5168 19.987 13.9607C19.987 15.4046 18.8165 16.5751 17.3727 16.5751Z" fill="white"/>
</g>
<defs>
<linearGradient id="paint0_linear_29_471" x1="39.6667" y1="-11.6667" x2="3.66667" y2="29.3333" gradientUnits="userSpaceOnUse">
<stop stop-color="#7000FF"/>
<stop offset="1" stop-color="#00ECDE"/>
</linearGradient>
<clipPath id="clip0_29_471">
<rect width="32" height="32" fill="white"/>
</clipPath>
</defs>
</svg>
