<svg xmlns="http://www.w3.org/2000/svg" viewBox="0 0 32 32"><defs><clipPath id="podvine__a"><path fill="#fff" d="M0 0h32v32H0z"/></clipPath><clipPath id="podvine__d"><path fill="#fff" d="M5.54 5.33h20.92v20.92H5.54z"/></clipPath><linearGradient id="podvine__c" x1="39.667" x2="3.667" y1="-11.667" y2="29.333" gradientUnits="userSpaceOnUse"><stop stop-color="#7000FF"/><stop offset="1" stop-color="#00ECDE"/></linearGradient></defs><g clip-path="url(#podvine__a)"><mask id="podvine__b" width="32" height="32" x="0" y="0" maskUnits="userSpaceOnUse" style="mask-type:alpha"><path d="M16 0c12.357 0 16 3.643 16 16s-3.643 16-16 16S0 28.357 0 16 3.643 0 16 0Z"/></mask><g mask="url(#podvine__b)"><path fill="url(#podvine__c)" d="M0 0h32v32H0z"/><g fill="#fff"><path d="M8.81 26.248a2.81 2.81 0 1 1 0-5.62 2.81 2.81 0 0 1 0 5.62Z"/><path fill-rule="evenodd" d="M17.372 22.588a8.627 8.627 0 1 1 0-17.255 8.627 8.627 0 0 1 0 17.255Zm0-6.013a2.614 2.614 0 1 1 0-5.229 2.614 2.614 0 0 1 0 5.23Z" clip-rule="evenodd"/></g><g clip-path="url(#podvine__d)"><path fill="#fff" fill-rule="evenodd" d="M8.744 13.96a8.63 8.63 0 1 0 17.258 0 8.63 8.63 0 0 0-17.258 0Zm6.014 0a2.615 2.615 0 1 0 5.23 0 2.615 2.615 0 0 0-5.23 0Zm-8.76 9.479a2.811 2.811 0 1 0 5.622 0 2.811 2.811 0 0 0-5.622 0Z" clip-rule="evenodd"/></g></g></g></svg>