<svg xmlns="http://www.w3.org/2000/svg" viewBox="0 0 32 32"><defs><clipPath id="podverse__a"><path fill="#fff" d="M0 0h32v32H0z"/></clipPath><clipPath id="podverse__c"><path fill="#fff" d="M6.39 6.39h19.22v19.22H6.39z"/></clipPath></defs><g clip-path="url(#podverse__a)"><mask id="podverse__b" width="32" height="32" x="0" y="0" maskUnits="userSpaceOnUse" style="mask-type:alpha"><path d="M16 0c12.357 0 16 3.643 16 16s-3.643 16-16 16S0 28.357 0 16 3.643 0 16 0Z"/></mask><g mask="url(#podverse__b)"><path d="M0 0h32v32H0z"/><g clip-path="url(#podverse__c)"><path fill="#0C7BB3" d="M21.7 8.062c1.582 1.39 2.444 2.108 3.402 5.174.383 1.15.383 1.725.383 3.066-.191 2.108-.575 3.258-1.533 4.79l-.958 1.917c-.575 1.15-1.341 1.916-2.491 2.3l-.575.19c-.192-.19 1.725-6.706 1.916-6.897.192-.192.384 0 .575.383l.575.383.192-.383c.766-2.108.766-4.216-.192-6.132-1.341-2.874-3.832-4.6-7.09-4.6-5.365 0-9.006 5.366-7.09 10.732l.192.383.383-.575.766-.383 1.917 6.898h-.384c-1.34-.383-2.107-.958-2.682-2.3l-1.15-1.915c-.766-1.533-1.15-2.683-1.341-4.791 0-1.341 0-1.916.383-3.066 1.533-4.982 7.33-9.006 13.988-5.7l.815.526Zm-9.437 9.773c.575.383 2.108 6.515 1.917 7.09-.192.383-1.15.767-1.342.383l-2.108-7.665c.192-.191.958-.191 1.533.192Zm9.007-.192c0 .384-1.917 7.665-2.3 7.857 0 .192-.958-.192-1.15-.575-.383-.383 1.342-6.515 1.916-7.09.384-.383 1.342-.575 1.534-.192Z"/></g></g></g></svg>