<svg xmlns="http://www.w3.org/2000/svg" viewBox="0 0 32 32"><defs><clipPath id="podyssey__a"><path fill="#fff" d="M0 0h32v32H0z"/></clipPath><clipPath id="podyssey__c"><path fill="#fff" d="M2.905 2.66h26.41v26.41H2.905z"/></clipPath></defs><g clip-path="url(#podyssey__a)"><mask id="podyssey__b" width="32" height="32" x="0" y="0" maskUnits="userSpaceOnUse" style="mask-type:alpha"><path d="M16 0c12.357 0 16 3.643 16 16s-3.643 16-16 16S0 28.357 0 16 3.643 0 16 0Z"/></mask><g mask="url(#podyssey__b)"><path fill="#F76C6C" d="M0 0h32v32H0z"/><g fill-rule="evenodd" clip-path="url(#podyssey__c)" clip-rule="evenodd"><path fill="#D5AC84" d="M26.387 19.54c-.78 4.25-4.27 7.17-7.79 6.52-3.52-.65-5.74-4.62-4.96-8.87.78-4.25 4.27-7.17 7.79-6.52 3.52.65 5.74 4.62 4.96 8.87Z"/><path fill="#6AC5F7" d="m9.157 12.31 12.82 16.76-16.91-9.31 4.09-7.45Z"/><path fill="#232C54" d="M19.068 17.59c0 .33-.27.6-.6.6-.33 0-.6-.27-.6-.6 0-.33.27-.6.6-.6.33 0 .6.27.6.6Zm5.38.25c0 .29-.23.52-.52.52-.29 0-.52-.23-.52-.52 0-.29.23-.52.52-.52.29 0 .52.23.52.52Zm-3.26 3.33c.27 0 .49-.2.74-.29.17-.06.36-.06.53 0 .09.03.17.07.24.14.06.07.1.16.08.25-.02.13-.14.21-.26.27-.14.07-.3.12-.46.08-.1-.03-.19-.09-.29-.14-.12-.07-.26-.11-.4-.13-.06 0-.12-.01-.17-.05-.05-.04-.06-.12-.02-.15m-2.091 1.73c.24.11.47.21.71.32.19.08.41.17.6.09.15-.06.24-.21.34-.34.1-.13.24-.25.41-.23.15.02.25.15.34.27.09.12.22.24.37.22.21-.03.33-.32.54-.29.1.01.17.11.22.2.04.09.06.2.11.29.05.09.14.17.24.15-.2.29-.56.43-.91.52-.39.1-.82.18-1.2.04-.11-.04-.22-.09-.33-.15-.46-.24-.9-.51-1.33-.8a.325.325 0 0 1-.13-.13c-.03-.05-.03-.13.01-.17"/><path fill="#FFFFFE" d="M16.867 5.85c0 .2-.42.36-.95.36s-.95-.16-.95-.36c0-.2.42-.36.95-.36s.95.16.95.36Z"/><path fill="#232C54" d="M8.627 16.23c.08-.18.21-.32.31-.54.7-1.44-1.94-3.03-1.25-4.47.4-.85 1.64-.79 2.16-1.55.35-.52.25-1.25.3-1.9.09-1.31.88-2.52 2-3.05.69.57 1.63 1.17 2.36.7.25-.16.42-.42.58-.67.43-.66.87-1.36 1.52-1.78.65-.41 1.59-.46 2.13.14.43.48.53 1.25 1.02 1.65.91.74 2.26-.35 3.3.16.73.36.97 1.36 1 2.21.02.57.1 1.3.61 1.47.2.07.41.02.62.05.6.1.9.83 1.07 1.45.28 1.02.5 2.22-.13 3.02-.15.19-.35.34-.58.38-.61.09-1.05-.61-1.59-.95-.49-.31-1.14-.31-1.62.01-.3.2-.53.51-.88.6-.6.15-1.16-.45-1.77-.52-1.06-.11-1.53 1.12-2.34 1.53-.78.39-1.84-.33-2.49.25-.13.11-.21.27-.28.43-.49 1.05-.75 2.19-1.21 3.26-.21.49-.44.9-.8 1.29-.26.29-.35.95-.86.88-.26-.03-.57-.12-.83-.19-.62-.17-1.2-.51-1.63-.99-.41-.46-.68-1.04-.79-1.64-.06-.32-.07-.64-.03-.96.01-.11.04-.2.08-.29l.02.02Z"/><path fill="#F8D621" d="M17.338 6.09c-4.98 2.17-6.04 6.16-6.04 6.16h.01l-.04.15c-1.82.52-3.14 2.74-3.04 5.36.1 2.95 1.96 5.27 4.14 5.2 2.18-.08 3.87-2.53 3.77-5.47-.06-1.86-.83-3.47-1.93-4.39v-.03c.66-2.15 2.24-3.67 3.78-4.7.04-.03.07-.05.11-.07.04-.02.07-.05.11-.07 1.98-1.25 3.56-.74 3.56-.74l-.03-.9c-1.3-.45-4.38-.5-4.38-.5h-.02Z"/><path fill="#FFFFFE" d="M10.747 15.08s-1.65 2.44-.49 5.52c0 0 .41.22 1.01.22 0 0-.57-2.25-.24-2.47.15-.1.68-.02.88-.05.32-.06.65-.18.86-.44.5-.59.45-1.61.03-2.23-.22-.32-.55-.55-.92-.65-.31-.08-.87-.12-1.13.11v-.01Z"/><path fill="#6AC5F7" d="M11.348 16.25s-.29.73-.3.74c-.04.1.48.18.53.16a.546.546 0 0 0 .34-.57c-.05-.25-.36-.3-.57-.33Z"/><path fill="#F8D621" d="M25.778 14.25s3.42 4.48-.49 7.88c.09-.08.2-.96.24-1.12.14-.57.23-1.17.29-1.77.1-1.15.12-2.25.04-3.39-.04-.58-.2-1.05-.06-1.61l-.02.01Z"/><path fill="#232C54" d="M25.838 15.28c-.69.03-1.39.04-2.08.08-.55.04-.8.34-.99.83-.08.2.24.29.32.09.01-.03.03-.07.04-.1l1.8-.49c.31-.03.61-.06.92-.08.21-.02.22-.34 0-.33h-.01Zm-5.31.03c-.26-.2-.6-.18-.9-.16-.82.05-1.65.09-2.47.14-.21.01-.22.34 0 .33.35 0 .7-.01 1.06-.02l2.32.33s.02.05.02.07c.06.21.38.12.32-.09-.07-.23-.15-.46-.34-.62l-.01.02Z"/></g></g></g></svg>