<svg xmlns="http://www.w3.org/2000/svg" viewBox="0 0 32 32"><defs><clipPath id="radiopublic__a"><path fill="#fff" d="M0 0h32v32H0z"/></clipPath><clipPath id="radiopublic__c"><path fill="#fff" d="M5.43 5.43h21.14v21.14H5.43z"/></clipPath></defs><g clip-path="url(#radiopublic__a)"><mask id="radiopublic__b" width="32" height="32" x="0" y="0" maskUnits="userSpaceOnUse" style="mask-type:alpha"><path d="M16 0c12.357 0 16 3.643 16 16s-3.643 16-16 16S0 28.357 0 16 3.643 0 16 0Z"/></mask><g mask="url(#radiopublic__b)"><path fill="#CF2327" d="M0 0h32v32H0z"/><g clip-path="url(#radiopublic__c)"><path fill="#fff" d="M14.993 5.44a5.39 5.39 0 0 1 2.584.49c.012 1.032-.003 2.064.005 3.095 1.784-.193 3.487-.865 5.284-.972a5.202 5.202 0 0 1 2.734.509c-.013 5.836-.014 11.673-.002 17.51a5.933 5.933 0 0 0-3.364-.451c-1.65.223-3.234.816-4.901.928a5.51 5.51 0 0 1-2.785-.486c-.012-1.031.002-2.063-.005-3.094-1.506.151-2.949.655-4.444.874a6.486 6.486 0 0 1-2.934-.108c-.258-.064-.5-.18-.75-.27a36.512 36.512 0 0 1-.01-1.046c.007-5.488-.01-10.976.007-16.463.158.05.313.107.466.171a6.322 6.322 0 0 0 2.588.29c1.866-.182 3.644-.911 5.527-.978Z"/><path fill="#D2D3D5" fill-rule="evenodd" d="M14.544 22.97a7.784 7.784 0 0 1 1.9.152 7.29 7.29 0 0 1 1.134.35l-.004.043a.88.88 0 0 1-.143.336 5.37 5.37 0 0 1-1.31 1.233c-.502.362-1.027.69-1.573.98-.011-1.019-.005-2.077-.004-3.095Z" clip-rule="evenodd"/><path fill="#CF2327" fill-rule="evenodd" d="M12.096 8.939a16.82 16.82 0 0 1-2.598.48c-.015.335-.02.671-.016 1.007.004 1.532.003 3.065.002 4.597-.002 1.942-.003 3.884.007 5.826.683-.059 1.36-.176 2.023-.35-.009-1.625-.01-3.25-.002-4.876.246-.082.504-.127.764-.134.187.077.206.308.198.484.01.584.007 1.168.004 1.753-.003.61-.006 1.219.005 1.828-.002.244.054.485.164.703a9.784 9.784 0 0 1 2.065-.347 2.14 2.14 0 0 1-.163-.74c-.01-.693-.007-1.385-.005-2.078.002-.577.004-1.154 0-1.73a2.087 2.087 0 0 0-.165-.94c-.15-.26-.39-.458-.674-.557.213-.148.397-.334.544-.547a2.577 2.577 0 0 0 .34-1.572 8.405 8.405 0 0 0-.151-2.188 1.146 1.146 0 0 0-.71-.748 3.006 3.006 0 0 0-1.631.129Zm-.593 1.915a1.8 1.8 0 0 1 .887-.099c.078.195.109.406.09.616l.001.464c.002.405.004.809-.007 1.213a.597.597 0 0 1-.322.505 3.102 3.102 0 0 1-.63.154c-.019-.545-.017-1.09-.015-1.635.002-.406.004-.812-.004-1.218Zm9.038.601a25.83 25.83 0 0 1-2.957.593c-.006 2.357-.005 4.715-.004 7.072v4.315l-.002.037c.528-.058 1.05-.16 1.571-.261l.442-.085c.021-.828.017-1.656.014-2.485-.003-.709-.006-1.418.006-2.127a8.308 8.308 0 0 0 1.483-.378 2.28 2.28 0 0 0 .998-.738c.262-.384.416-.831.446-1.296.026-.468.023-.938.02-1.407a34.734 34.734 0 0 1 0-.913 5.295 5.295 0 0 0-.13-1.565 1.233 1.233 0 0 0-.51-.685 2.086 2.086 0 0 0-1.377-.077Zm-.935 1.995a2.09 2.09 0 0 1 .678-.11c.182.039.227.264.204.422.005.408.005.816.004 1.224v.881a.63.63 0 0 1-.153.529c-.131.157-.33.184-.523.21a2.87 2.87 0 0 0-.2.034 82.788 82.788 0 0 1-.012-2.212c.002-.326.003-.652.002-.978Z" clip-rule="evenodd"/></g></g></g></svg>