<svg xmlns="http://www.w3.org/2000/svg" width="32" height="32" fill="none" viewBox="0 0 32 32">
  <path fill="#CF2327" fill-rule="evenodd" d="M3.366 28.634C.911 26.178 0 22.178 0 16S.91 5.822 3.366 3.366C5.822.911 9.822 0 16 0s10.178.91 12.634 3.366C31.089 5.822 32 9.822 32 16s-.91 10.178-3.366 12.634C26.178 31.089 22.178 32 16 32s-10.178-.91-12.634-3.366Z" clip-rule="evenodd"/>
  <path fill="#fff" fill-rule="evenodd" d="M17.578 5.929a5.39 5.39 0 0 0-2.585-.492c-1.03.037-2.03.272-3.03.507-.826.194-1.653.389-2.498.471a6.324 6.324 0 0 1-2.589-.29 5.968 5.968 0 0 0-.465-.171c-.01 3.187-.008 6.375-.007 9.562.001 2.302.002 4.603 0 6.904-.002.349.001.698.01 1.047.086.03.171.064.256.098.162.065.324.13.494.172a6.48 6.48 0 0 0 2.934.108c.67-.098 1.329-.253 1.988-.408.813-.191 1.626-.383 2.458-.466.003.459.002.917 0 1.376 0 .573-.002 1.146.005 1.719.87.401 1.83.569 2.785.486.943-.064 1.86-.28 2.776-.498.705-.167 1.41-.334 2.126-.431a5.935 5.935 0 0 1 3.365.45c-.012-5.837-.011-11.675.002-17.513a5.204 5.204 0 0 0-2.735-.509c-.972.058-1.917.282-2.862.505-.802.19-1.604.38-2.423.468-.004-.472-.002-.945-.001-1.417.001-.56.003-1.12-.004-1.678ZM9.497 9.417a16.825 16.825 0 0 0 2.6-.48 3.007 3.007 0 0 1 1.63-.128c.342.122.606.4.711.748a8.41 8.41 0 0 1 .152 2.188 2.576 2.576 0 0 1-.34 1.573 2.173 2.173 0 0 1-.544.547c.284.098.523.296.674.556.126.297.182.619.164.94.005.577.003 1.154 0 1.732-.002.692-.004 1.384.005 2.077.01.255.065.506.164.741-.7.041-1.392.158-2.066.347a1.533 1.533 0 0 1-.164-.703c-.01-.61-.008-1.22-.005-1.829a85.42 85.42 0 0 0-.004-1.753c.008-.176-.01-.407-.198-.484-.26.007-.518.052-.764.134a486.34 486.34 0 0 0 .002 4.877c-.663.174-1.34.291-2.023.35-.01-1.943-.01-3.885-.008-5.827.001-1.533.003-3.065-.002-4.598-.004-.336.001-.672.016-1.008Zm2.006 1.436a1.8 1.8 0 0 1 .887-.099c.078.195.11.407.09.616l.001.464c.002.405.004.81-.007 1.214a.597.597 0 0 1-.322.505 3.112 3.112 0 0 1-.63.153 40.87 40.87 0 0 1-.015-1.634c.002-.407.004-.813-.004-1.219Zm8.105 2.597c.218-.074.448-.112.678-.111.182.04.227.264.204.422.005.409.005.817.004 1.225v.881a.63.63 0 0 1-.153.53c-.132.156-.33.184-.524.21-.068.01-.136.019-.2.034a81.63 81.63 0 0 1-.01-2.213c0-.326.002-.652.001-.979Zm.935-1.996a25.83 25.83 0 0 1-2.957.593c-.006 2.358-.005 4.715-.004 7.073v4.317l-.003.037c.528-.058 1.05-.16 1.572-.261.147-.03.294-.058.442-.086.02-.828.017-1.656.014-2.485-.003-.709-.006-1.418.006-2.127a8.314 8.314 0 0 0 1.483-.378 2.28 2.28 0 0 0 .998-.738c.262-.384.417-.832.447-1.297.025-.468.022-.938.018-1.407-.002-.305-.004-.609.002-.913a5.297 5.297 0 0 0-.131-1.566 1.234 1.234 0 0 0-.51-.685 2.086 2.086 0 0 0-1.377-.077Z" clip-rule="evenodd"/>
  <path fill="#D2D3D5" fill-rule="evenodd" d="M14.544 22.97a7.787 7.787 0 0 1 1.901.154 7.36 7.36 0 0 1 1.134.35l-.004.043a.883.883 0 0 1-.143.335 5.37 5.37 0 0 1-1.31 1.235c-.502.361-1.027.688-1.573.978-.012-1.018-.006-2.076-.005-3.094Z" clip-rule="evenodd"/>
</svg>
