<svg xmlns="http://www.w3.org/2000/svg" width="32" height="32" fill="none" viewBox="0 0 32 32">
  <path fill="#fff" d="M3.367 28.633C.913 26.18 0 22.18 0 16 0 9.82.913 5.82 3.367 3.367 5.82.913 9.82 0 16 0c6.18 0 10.18.913 12.633 3.367C31.087 5.82 32 9.82 32 16c0 6.18-.913 10.18-3.367 12.633C26.18 31.087 22.18 32 16 32c-6.18 0-10.18-.913-12.633-3.367Z"/>
  <path fill="#00A3FF" d="M16 23.326c-6.619 0-12-2.527-12-5.685v4.649C4 25.473 9.381 28 16 28s12-2.527 12-5.685v-4.674c0 3.158-5.381 5.71-12 5.71v-.025Z"/>
  <path fill="#35E4EA" d="M25.347 21.203c-3.587 4.118-10.231 5.558-15.284 6.064a23.22 23.22 0 0 0 5.886.732C22.594 28 28 25.473 28 22.29v-4.648c0 1.34-1.01 2.603-2.652 3.563Z"/>
  <path fill="#BCD354" d="M16 23.452c6.627 0 12-2.545 12-5.684 0-3.14-5.373-5.684-12-5.684S4 14.628 4 17.768c0 3.139 5.373 5.684 12 5.684Z"/>
  <path fill="#00A3FF" d="M11.806 5.136c-1.515-.884-2.753-.151-2.753 1.592v12.985c0 1.768 1.237 2.476 2.753 1.592l11.268-6.493c1.515-.884 1.515-2.299 0-3.183L11.806 5.136Z"/>
</svg>
