<svg xmlns="http://www.w3.org/2000/svg" viewBox="0 0 32 32"><defs><path id="rephonic__a" fill="#fff" d="M0 0h32v32H0z"/></defs><defs><clipPath id="rephonic__b"><use href="#rephonic__a"/></clipPath><clipPath id="rephonic__d"><path fill="#fff" d="M4 4h24v24H4z"/></clipPath></defs><g clip-path="url(#rephonic__b)"><mask id="rephonic__c" width="32" height="32" x="0" y="0" maskUnits="userSpaceOnUse" style="mask-type:alpha"><path d="M16 0c12.357 0 16 3.643 16 16s-3.643 16-16 16S0 28.357 0 16 3.643 0 16 0Z"/></mask><g mask="url(#rephonic__c)"><use href="#rephonic__a"/><g clip-path="url(#rephonic__d)"><path fill="#00A3FF" d="M16 22.945c-6.619 0-12-2.527-12-5.685v4.649c0 3.183 5.381 5.71 12 5.71s12-2.527 12-5.685V17.26c0 3.158-5.381 5.71-12 5.71v-.025Z"/><path fill="#35E4EA" d="M25.347 20.822c-3.587 4.118-10.231 5.558-15.284 6.064a23.22 23.22 0 0 0 5.886.732c6.645 0 12.051-2.526 12.051-5.71V17.26c0 1.34-1.01 2.602-2.653 3.562Z"/><path fill="#BCD354" d="M16 23.07c6.627 0 12-2.544 12-5.684 0-3.139-5.373-5.684-12-5.684S4 14.247 4 17.386c0 3.14 5.373 5.685 12 5.685Z"/><path fill="#00A3FF" d="M11.806 4.755c-1.515-.884-2.753-.152-2.753 1.591v12.986c0 1.768 1.237 2.475 2.753 1.591l11.268-6.492c1.515-.885 1.515-2.3 0-3.184L11.806 4.755Z"/></g></g></g></svg>