<svg width="32" height="32" viewBox="0 0 32 32" fill="none" xmlns="http://www.w3.org/2000/svg">
<path d="M3.36667 28.6333C0.913335 26.18 0 22.18 0 16C0 9.82 0.913335 5.82 3.36667 3.36667C5.82 0.913333 9.82 0 16 0C22.18 0 26.18 0.913333 28.6333 3.36667C31.0867 5.82 32 9.82 32 16C32 22.18 31.0867 26.18 28.6333 28.6333C26.18 31.0867 22.18 32 16 32C9.82 32 5.82 31.0867 3.36667 28.6333Z" fill="white"/>
<path d="M16 23.3256C9.38101 23.3256 3.99997 20.7993 3.99997 17.6414V22.2898C3.99997 25.473 9.38101 27.9993 16 27.9993C22.6189 27.9993 27.9999 25.473 27.9999 22.3151V17.6414C27.9999 20.7993 22.6189 23.3509 16 23.3509V23.3256Z" fill="#00A3FF"/>
<path d="M25.3474 21.2035C21.76 25.3214 15.1158 26.7614 10.0632 27.2667C11.9859 27.7616 13.9641 28.0078 15.9495 27.9993C22.5937 27.9993 28 25.473 28 22.2898V17.6414C28 18.9804 26.9895 20.2435 25.3474 21.2035Z" fill="#35E4EA"/>
<path d="M16 23.4519C22.6274 23.4519 28 20.907 28 17.7677C28 14.6284 22.6274 12.0835 16 12.0835C9.37257 12.0835 4 14.6284 4 17.7677C4 20.907 9.37257 23.4519 16 23.4519Z" fill="#BCD354"/>
<path d="M11.8063 5.13613C10.2905 4.25192 9.05261 4.98456 9.05261 6.72771V19.713C9.05261 21.4814 10.2905 22.1888 11.8063 21.3046L23.0736 14.8119C24.5894 13.9277 24.5894 12.513 23.0736 11.6288L11.8063 5.13613Z" fill="#00A3FF"/>
</svg>
