<svg xmlns="http://www.w3.org/2000/svg" width="32" height="32" fill="none" viewBox="0 0 32 32">
  <path fill="#000039" d="M3.366 28.634C.911 26.178 0 22.178 0 16S.91 5.822 3.366 3.366C5.822.911 9.822 0 16 0s10.178.91 12.634 3.366C31.089 5.822 32 9.822 32 16s-.91 10.178-3.366 12.634C26.178 31.089 22.178 32 16 32s-10.178-.91-12.634-3.366Z"/>
  <path fill="#FF005F" fill-rule="evenodd" d="m23.148 12.64-9.036-5.502c-2.62-1.596-5.979.29-5.979 3.36v4.168c0 .184.232.275.368.152a5.355 5.355 0 0 1 2.918-1.354.206.206 0 0 0 .181-.202v-2.29a.733.733 0 0 1 1.115-.626l8.256 5.028c.47.285.47.967 0 1.252L18.6 18.071l-4.488-2.733c-2.62-1.596-5.979.29-5.979 3.36v2.804c0 3.07 3.358 4.957 5.98 3.36L18.6 22.13l3.134 1.908a1.733 1.733 0 1 0 1.803-2.96l-1.604-.978 1.215-.74c2.517-1.533 2.517-5.187 0-6.72ZM11.6 21.029v-1.856a.733.733 0 0 1 1.115-.626l2.552 1.554-2.552 1.555a.733.733 0 0 1-1.115-.627Z" clip-rule="evenodd"/>
  <path fill="url(#a)" fill-rule="evenodd" d="m23.148 12.64-9.036-5.502c-2.62-1.596-5.979.29-5.979 3.36v4.168c0 .184.232.275.368.152a5.355 5.355 0 0 1 2.918-1.354.206.206 0 0 0 .181-.202v-2.29a.733.733 0 0 1 1.115-.626l8.256 5.028c.47.285.47.967 0 1.252L18.6 18.071l-4.488-2.733c-2.62-1.596-5.979.29-5.979 3.36v2.804c0 3.07 3.358 4.957 5.98 3.36L18.6 22.13l3.134 1.908a1.733 1.733 0 1 0 1.803-2.96l-1.604-.978 1.215-.74c2.517-1.533 2.517-5.187 0-6.72ZM11.6 21.029v-1.856a.733.733 0 0 1 1.115-.626l2.552 1.554-2.552 1.555a.733.733 0 0 1-1.115-.627Z" clip-rule="evenodd"/>
  <defs>
    <linearGradient id="a" x1="6.167" x2="25.033" y1="25.433" y2="6.567" gradientUnits="userSpaceOnUse">
      <stop offset=".458" stop-color="#FF0061"/>
      <stop offset=".76" stop-color="#FF505E"/>
    </linearGradient>
  </defs>
</svg>
