<svg xmlns="http://www.w3.org/2000/svg" width="32" height="32" fill="none" viewBox="0 0 32 32"><defs><linearGradient id="b" x1="6.167" x2="25.033" y1="25.433" y2="6.567" gradientUnits="userSpaceOnUse"><stop offset=".458" stop-color="#FF0061"/><stop offset=".76" stop-color="#FF505E"/></linearGradient></defs><mask id="a" width="32" height="32" x="0" y="0" maskUnits="userSpaceOnUse" style="mask-type:alpha"><path fill="#000" d="M16 0c12.357 0 16 3.643 16 16s-3.643 16-16 16S0 28.357 0 16 3.643 0 16 0Z"/></mask><g mask="url(#a)"><path fill="#000039" d="M0 0h32v32H0z"/><path fill="#FF005F" fill-rule="evenodd" d="m23.148 12.64-9.036-5.502c-2.62-1.596-5.979.29-5.979 3.36v4.168c0 .184.232.275.368.152a5.355 5.355 0 0 1 2.918-1.354.206.206 0 0 0 .181-.202v-2.29a.733.733 0 0 1 1.115-.626l8.256 5.028c.47.285.47.967 0 1.252L18.6 18.071l-4.488-2.733c-2.62-1.596-5.979.29-5.979 3.36v2.804c0 3.07 3.358 4.957 5.98 3.36L18.6 22.13l3.134 1.908a1.733 1.733 0 1 0 1.803-2.96l-1.604-.978 1.215-.74c2.517-1.533 2.517-5.187 0-6.72ZM11.6 21.029v-1.856a.733.733 0 0 1 1.115-.626l2.552 1.554-2.552 1.555a.733.733 0 0 1-1.115-.627Z" clip-rule="evenodd"/><path fill="url(#b)" fill-rule="evenodd" d="m23.148 12.64-9.036-5.502c-2.62-1.596-5.979.29-5.979 3.36v4.168c0 .184.232.275.368.152a5.355 5.355 0 0 1 2.918-1.354.206.206 0 0 0 .181-.202v-2.29a.733.733 0 0 1 1.115-.626l8.256 5.028c.47.285.47.967 0 1.252L18.6 18.071l-4.488-2.733c-2.62-1.596-5.979.29-5.979 3.36v2.804c0 3.07 3.358 4.957 5.98 3.36L18.6 22.13l3.134 1.908a1.733 1.733 0 1 0 1.803-2.96l-1.604-.978 1.215-.74c2.517-1.533 2.517-5.187 0-6.72ZM11.6 21.029v-1.856a.733.733 0 0 1 1.115-.626l2.552 1.554-2.552 1.555a.733.733 0 0 1-1.115-.627Z" clip-rule="evenodd"/></g></svg>