<svg xmlns="http://www.w3.org/2000/svg" viewBox="0 0 32 32"><defs><clipPath id="resso__a"><path fill="#fff" d="M0 0h32v32H0z"/></clipPath><clipPath id="resso__c"><path fill="#fff" d="M6.56 6.56h18.88v18.88H6.56z"/></clipPath><linearGradient id="resso__d" x1="5.585" x2="24.447" y1="25.431" y2="6.569" gradientUnits="userSpaceOnUse"><stop offset=".458" stop-color="#FF0061"/><stop offset=".76" stop-color="#FF505E"/></linearGradient></defs><g clip-path="url(#resso__a)"><mask id="resso__b" width="32" height="32" x="0" y="0" maskUnits="userSpaceOnUse" style="mask-type:alpha"><path d="M16 0c12.357 0 16 3.643 16 16s-3.643 16-16 16S0 28.357 0 16 3.643 0 16 0Z"/></mask><g mask="url(#resso__b)"><path fill="#000039" d="M0 0h32v32H0z"/><g fill-rule="evenodd" clip-path="url(#resso__c)" clip-rule="evenodd"><path fill="#FF005F" d="M22.563 12.642 13.529 7.14c-2.62-1.596-5.978.29-5.978 3.359v4.168c0 .183.232.275.367.152a5.353 5.353 0 0 1 2.918-1.354.206.206 0 0 0 .181-.202v-2.29a.733.733 0 0 1 1.115-.626l8.254 5.027c.47.286.47.967 0 1.252l-2.37 1.444-4.487-2.732c-2.62-1.595-5.978.29-5.978 3.359v2.804c0 3.069 3.357 4.955 5.978 3.36l4.486-2.733 3.134 1.908a1.733 1.733 0 1 0 1.802-2.96l-1.604-.977 1.216-.74c2.516-1.532 2.516-5.185 0-6.717Zm-11.546 8.385v-1.855a.733.733 0 0 1 1.115-.627l2.552 1.554-2.552 1.555a.733.733 0 0 1-1.115-.627Z"/><path fill="url(#resso__d)" d="M22.563 12.642 13.529 7.14c-2.62-1.596-5.978.29-5.978 3.359v4.168c0 .183.232.275.367.152a5.353 5.353 0 0 1 2.918-1.354.206.206 0 0 0 .181-.202v-2.29a.733.733 0 0 1 1.115-.626l8.254 5.027c.47.286.47.967 0 1.252l-2.37 1.444-4.487-2.732c-2.62-1.595-5.978.29-5.978 3.359v2.804c0 3.069 3.357 4.955 5.978 3.36l4.486-2.733 3.134 1.908a1.733 1.733 0 1 0 1.802-2.96l-1.604-.977 1.216-.74c2.516-1.532 2.516-5.185 0-6.717Zm-11.546 8.385v-1.855a.733.733 0 0 1 1.115-.627l2.552 1.554-2.552 1.555a.733.733 0 0 1-1.115-.627Z"/></g></g></g></svg>