<svg width="32" height="32" viewBox="0 0 32 32" fill="none" xmlns="http://www.w3.org/2000/svg">
<path fill-rule="evenodd" clip-rule="evenodd" d="M3.36627 28.6337C0.910867 26.1783 0 22.1783 0 16C0 9.82167 0.910867 5.82167 3.36627 3.36627C5.82167 0.910867 9.82167 0 16 0C22.1783 0 26.1783 0.910867 28.6337 3.36627C31.0891 5.82167 32 9.82167 32 16C32 22.1783 31.0891 26.1783 28.6337 28.6337C26.1783 31.0891 22.1783 32 16 32C9.82167 32 5.82167 31.0891 3.36627 28.6337Z" fill="url(#paint0_linear_29_484)"/>
<path fill-rule="evenodd" clip-rule="evenodd" d="M8 6C6.0154 6 6 6.8954 6 8C6 9.1046 6.0154 10 8 10C16.3737 10 22 15.6267 22 24C22 25.1046 22.0154 26 24 26C25.9846 26 26 25.1046 26 24C26 13.402 18.5983 6 8 6ZM6 23.3333C6 21.8605 6.02053 20.6667 8.66667 20.6667C11.3128 20.6667 11.3333 21.8605 11.3333 23.3333C11.3333 24.8061 11.3128 26 8.66667 26C6.02053 26 6 24.8061 6 23.3333ZM6 14.6667C6 13.5621 6.0154 12.6667 8 12.6667C13.2282 12.6667 19.3333 15.6347 19.3333 24C19.3333 25.1046 19.3179 26 17.3333 26C15.3487 26 15.3333 25.1046 15.3333 24C15.3333 17.3815 10.2051 16.6667 8 16.6667C6.0154 16.6667 6 15.7713 6 14.6667Z" fill="white"/>
<defs>
<linearGradient id="paint0_linear_29_484" x1="0" y1="0" x2="0" y2="32" gradientUnits="userSpaceOnUse">
<stop stop-color="#FA9C39"/>
<stop offset="1" stop-color="#E26C2D"/>
</linearGradient>
</defs>
</svg>
