<svg xmlns="http://www.w3.org/2000/svg" viewBox="0 0 32 32"><defs><clipPath id="rss__a"><path fill="#fff" d="M0 0h32v32H0z"/></clipPath><clipPath id="rss__d"><path fill="#fff" d="M6 6h20v20H6z"/></clipPath><linearGradient id="rss__c" x1="0" x2="0" y1="0" y2="32" gradientUnits="userSpaceOnUse"><stop stop-color="#FA9C39"/><stop offset="1" stop-color="#E26C2D"/></linearGradient></defs><g clip-path="url(#rss__a)"><mask id="rss__b" width="32" height="32" x="0" y="0" maskUnits="userSpaceOnUse" style="mask-type:alpha"><path d="M16 0c12.357 0 16 3.643 16 16s-3.643 16-16 16S0 28.357 0 16 3.643 0 16 0Z"/></mask><g mask="url(#rss__b)"><path fill="#F18935" d="M0 0h32v32H0z"/><path fill="url(#rss__c)" d="M0 0h32v32H0z"/><g clip-path="url(#rss__d)"><path fill="#fff" fill-rule="evenodd" d="M8 6c-1.985 0-2 .895-2 2s.015 2 2 2c8.374 0 14 5.627 14 14 0 1.105.015 2 2 2s2-.895 2-2C26 13.402 18.598 6 8 6ZM6 23.333c0-1.473.02-2.666 2.667-2.666 2.646 0 2.666 1.193 2.666 2.666 0 1.473-.02 2.667-2.666 2.667S6 24.806 6 23.333Zm0-8.666c0-1.105.015-2 2-2 5.228 0 11.333 2.968 11.333 11.333 0 1.105-.015 2-2 2-1.984 0-2-.895-2-2 0-6.618-5.128-7.333-7.333-7.333-1.985 0-2-.896-2-2Z" clip-rule="evenodd"/></g></g></g></svg>