<svg xmlns="http://www.w3.org/2000/svg" fill="none" viewBox="0 0 32 32"><defs><clipPath id="rssradio__a"><path fill="#fff" d="M0 0h32v32H0z"/></clipPath><clipPath id="rssradio__c"><path fill="#fff" d="M6.195 6.195h19.61v19.61H6.195z"/></clipPath><filter id="rssradio__d" width="21.11" height="21.11" x="5.445" y="4.945" color-interpolation-filters="sRGB" filterUnits="userSpaceOnUse"><feFlood flood-opacity="0" result="BackgroundImageFix"/><feColorMatrix in="SourceAlpha" result="hardAlpha" values="0 0 0 0 0 0 0 0 0 0 0 0 0 0 0 0 0 0 127 0"/><feOffset dy="-.5"/><feGaussianBlur stdDeviation=".375"/><feColorMatrix values="0 0 0 0 0 0 0 0 0 0 0 0 0 0 0 0 0 0 0.12 0"/><feBlend in2="BackgroundImageFix" result="effect1_dropShadow_713_951"/><feBlend in="SourceGraphic" in2="effect1_dropShadow_713_951" result="shape"/></filter></defs><g clip-path="url(#rssradio__a)"><mask id="rssradio__b" width="32" height="32" x="0" y="0" maskUnits="userSpaceOnUse" style="mask-type:alpha"><path fill="#000" d="M16 0c12.357 0 16 3.643 16 16s-3.643 16-16 16S0 28.357 0 16 3.643 0 16 0Z"/></mask><g mask="url(#rssradio__b)"><path fill="#DB7060" d="M0 0h32v32H0z"/><g fill="#fff" clip-path="url(#rssradio__c)" filter="url(#rssradio__d)"><circle cx="16.005" cy="22.201" r="2.704"/><path fill-rule="evenodd" d="M6.195 11.152A13.829 13.829 0 0 1 16 7.092a13.83 13.83 0 0 1 9.805 4.06l-1.027 1.094A12.334 12.334 0 0 0 16 8.592a12.334 12.334 0 0 0-8.778 3.654l-1.027-1.094Zm16.646 3.157A9.517 9.517 0 0 0 16 11.42a9.517 9.517 0 0 0-6.841 2.889l1.027 1.095A8.022 8.022 0 0 1 16 12.92c2.286 0 4.349.953 5.814 2.484l1.027-1.095Zm-2.73 2.91A5.547 5.547 0 0 0 16 15.404c-1.628 0-3.093.7-4.11 1.815l1.03 1.098A4.052 4.052 0 0 1 16 16.903c1.231 0 2.335.548 3.08 1.414l1.03-1.098Z" clip-rule="evenodd"/></g></g></g></svg>