<svg xmlns="http://www.w3.org/2000/svg" viewBox="0 0 32 32"><defs><clipPath id="samsungfree__a"><path fill="#fff" d="M0 0h32v32H0z"/></clipPath><clipPath id="samsungfree__d"><path fill="#fff" d="M5.435 5.435h21.13v21.13H5.435z"/></clipPath><radialGradient id="samsungfree__c" cx="0" cy="0" r="1" gradientTransform="rotate(-135 11.314 4.686) scale(22.6274)" gradientUnits="userSpaceOnUse"><stop stop-color="#EE0180"/><stop offset=".502" stop-color="#FF4824"/><stop offset="1" stop-color="#EE0180"/></radialGradient></defs><g clip-path="url(#samsungfree__a)"><mask id="samsungfree__b" width="32" height="32" x="0" y="0" maskUnits="userSpaceOnUse" style="mask-type:alpha"><path d="M16 0c12.357 0 16 3.643 16 16s-3.643 16-16 16S0 28.357 0 16 3.643 0 16 0Z"/></mask><g mask="url(#samsungfree__b)"><path fill="url(#samsungfree__c)" d="M0 0h32v32H0z"/><g clip-path="url(#samsungfree__d)"><path fill="#fff" d="M21.152 18.479v1.331h-4.444v-1.33h4.444Zm0-3.33h-4.444v1.33h4.444v-1.33Zm0-3.11h-4.444v1.332h4.444v-1.332ZM9.595 16.704v-1.552H6.706v-1.78h2.89V12.04h-4.24v7.771h1.35v-3.106h2.89Zm16.89-4.665h-4.444v1.332h4.444v-1.332Zm0 3.11h-4.444v1.33h4.444v-1.33Zm-4.444 3.33v1.331h4.444v-1.33h-4.444Zm-6.289-3.774a2.67 2.67 0 0 0-2.666-2.666h-2.378v7.771h1.333v-6.438h1.045a1.335 1.335 0 0 1 0 2.667h-.45l.669 1.324 1.236 2.447h1.336l-1.423-2.816a2.667 2.667 0 0 0 1.298-2.289Z"/></g></g></g></svg>