<svg width="32" height="32" viewBox="0 0 32 32" fill="none" xmlns="http://www.w3.org/2000/svg">
<g clip-path="url(#clip0_38_7)">
<path d="M3.36627 28.6337C0.910867 26.1783 0 22.1783 0 16C0 9.82167 0.910867 5.82167 3.36627 3.36627C5.82167 0.910867 9.82167 0 16 0C22.1783 0 26.1783 0.910867 28.6337 3.36627C31.0891 5.82167 32 9.82167 32 16C32 22.1783 31.0891 26.1783 28.6337 28.6337C26.1783 31.0891 22.1783 32 16 32C9.82167 32 5.82167 31.0891 3.36627 28.6337Z" fill="#1C1F3E"/>
<path d="M3.36627 28.6337C0.910867 26.1783 0 22.1783 0 16C0 9.82167 0.910867 5.82167 3.36627 3.36627C5.82167 0.910867 9.82167 0 16 0C22.1783 0 26.1783 0.910867 28.6337 3.36627C31.0891 5.82167 32 9.82167 32 16C32 22.1783 31.0891 26.1783 28.6337 28.6337C26.1783 31.0891 22.1783 32 16 32C9.82167 32 5.82167 31.0891 3.36627 28.6337Z" fill="url(#paint0_angular_38_7)"/>
<path d="M21.1109 18.44V19.7714H16.6669V18.44H21.1109ZM21.1109 15.1091H16.6669V16.4406H21.1109V15.1091ZM21.1109 12H16.6669V13.3314H21.1109V12ZM9.55429 16.6651V15.1126H6.66514V13.3331H9.55429V12H5.31429V19.7714H6.66514V16.6651H9.55429ZM26.4446 12H22.0006V13.3314H26.4446V12ZM26.4446 15.1091H22.0006V16.4406H26.4446V15.1091ZM22.0006 18.44V19.7714H26.4446V18.44H22.0006ZM15.7114 14.6663C15.7114 13.196 14.5154 12 13.0451 12H10.6669V19.7714H12V13.3331H13.0451C13.78 13.3331 14.3783 13.9309 14.3783 14.6663C14.3783 15.4017 13.78 16 13.0451 16H12.5943L13.2634 17.324L14.5 19.7714H15.836L14.4126 16.9549C15.1903 16.4886 15.7114 15.6371 15.7114 14.6663Z" fill="white"/>
</g>
<defs>
<radialGradient id="paint0_angular_38_7" cx="0" cy="0" r="1" gradientUnits="userSpaceOnUse" gradientTransform="translate(16 16) rotate(-135) scale(22.6274)">
<stop stop-color="#EE0180"/>
<stop offset="0.502243" stop-color="#FF4824"/>
<stop offset="1" stop-color="#EE0180"/>
</radialGradient>
<clipPath id="clip0_38_7">
<rect width="32" height="32" fill="white"/>
</clipPath>
</defs>
</svg>
