<svg xmlns="http://www.w3.org/2000/svg" viewBox="0 0 32 32"><defs><clipPath id="siriusxm__a"><path fill="#fff" d="M0 0h32v32H0z"/></clipPath><clipPath id="siriusxm__c"><path fill="#fff" d="M6.595 6.595h18.81v18.81H6.595z"/></clipPath></defs><g clip-path="url(#siriusxm__a)"><mask id="siriusxm__b" width="32" height="32" x="0" y="0" maskUnits="userSpaceOnUse" style="mask-type:alpha"><path d="M16 0c12.357 0 16 3.643 16 16s-3.643 16-16 16S0 28.357 0 16 3.643 0 16 0Z"/></mask><g mask="url(#siriusxm__b)"><path fill="#0000EB" d="M0 0h32v32H0z"/><g clip-path="url(#siriusxm__c)"><path fill="#fff" d="M24.576 16.715c.43.67.69 1.48.69 2.48-.03 3.7-3.06 6.21-9.59 6.21-4.08 0-8.57-1.26-8.94-6.04v-.24h6.12l-1.35 4.03 4.46-3.13 4.46 3.13-1.16-3.46c-.18-.36-.65-.55-.65-.55-2.44-1.37-11.33-.62-11.33-6.67 0-4.55 4.73-5.88 8.44-5.88 3.71 0 8.44.88 8.85 5.6v.18h-6.89l-1.71-5.08-1.71 5.08h-5.52l3.08 2.15c.9-.36 1.87-.53 2.83-.63 1.03-.11 2.08-.13 3.12-.06.87.06 1.74.18 2.6.39.77.18 1.56.39 2.26.77.78.43 1.47.99 1.94 1.72Z"/></g></g></g></svg>