<svg xmlns="http://www.w3.org/2000/svg" width="32" height="32" fill="none" viewBox="0 0 32 32">
  <g clip-path="url(#a)">
    <path fill="#0000EB" d="M3.37 28.63C.91 26.17 0 22.17 0 16 0 9.83.91 5.82 3.37 3.37 5.82.91 9.82 0 16 0c6.18 0 10.18.91 12.63 3.37C31.09 5.83 32 9.83 32 16c0 6.17-.91 10.18-3.37 12.63C26.17 31.09 22.17 32 16 32c-6.17 0-10.18-.91-12.63-3.37Z"/>
    <path fill="#fff" d="M24.66 16.37c.43.67.69 1.48.69 2.48-.03 3.7-3.06 6.21-9.59 6.21-4.08 0-8.57-1.26-8.94-6.04v-.24h6.12l-1.35 4.03 4.46-3.13 4.46 3.13-1.16-3.46c-.18-.36-.65-.55-.65-.55-2.44-1.37-11.33-.62-11.33-6.67 0-4.55 4.73-5.88 8.44-5.88 3.71 0 8.44.88 8.85 5.6v.18h-6.89l-1.71-5.08-1.71 5.08H8.83l3.08 2.15c.9-.36 1.87-.53 2.83-.63 1.03-.11 2.08-.13 3.12-.06.87.06 1.74.18 2.6.39.77.18 1.56.39 2.26.77.78.43 1.47.99 1.94 1.72Z"/>
  </g>
  <defs>
    <clipPath id="a">
      <path fill="#fff" d="M0 0h32v32H0z"/>
    </clipPath>
  </defs>
</svg>
