<svg xmlns="http://www.w3.org/2000/svg" width="32" height="32" fill="none" viewBox="0 0 32 32">
  <path fill="url(#a)" d="M3.366 28.634C.911 26.178 0 22.178 0 16S.91 5.822 3.366 3.366C5.822.911 9.822 0 16 0s10.178.91 12.634 3.366C31.089 5.822 32 9.822 32 16s-.91 10.178-3.366 12.634C26.178 31.089 22.178 32 16 32s-10.178-.91-12.634-3.366Z"/>
  <path fill="url(#b)" d="M22.527 9.473a7.5 7.5 0 0 0-10.605 10.605L22.528 9.472Z"/>
  <path fill="url(#c)" d="M9.473 22.527a7.5 7.5 0 0 0 10.605-10.605L9.472 22.528Z"/>
  <defs>
    <linearGradient id="a" x1="16" x2="16" y1="0" y2="32" gradientUnits="userSpaceOnUse">
      <stop stop-color="#1E2365"/>
      <stop offset="1" stop-color="#020622"/>
    </linearGradient>
    <linearGradient id="b" x1="16.176" x2="16.176" y1="7.375" y2="20.077" gradientUnits="userSpaceOnUse">
      <stop stop-color="#A9FEE4"/>
      <stop offset="1" stop-color="#0DEAA4"/>
    </linearGradient>
    <linearGradient id="c" x1="15.824" x2="15.824" y1="11.923" y2="24.625" gradientUnits="userSpaceOnUse">
      <stop stop-color="#15D899"/>
      <stop offset="1" stop-color="#09A472"/>
    </linearGradient>
  </defs>
</svg>
