<svg xmlns="http://www.w3.org/2000/svg" viewBox="0 0 32 32"><defs><linearGradient id="snipd__c" x1="16" x2="16" y1="0" y2="32" gradientUnits="userSpaceOnUse"><stop stop-color="#1E2365"/><stop offset="1" stop-color="#020622"/></linearGradient><linearGradient id="snipd__e" x1="16.176" x2="16.176" y1="7.375" y2="20.077" gradientUnits="userSpaceOnUse"><stop stop-color="#A9FEE4"/><stop offset="1" stop-color="#0DEAA4"/></linearGradient><linearGradient id="snipd__f" x1="15.824" x2="15.824" y1="11.923" y2="24.625" gradientUnits="userSpaceOnUse"><stop stop-color="#15D899"/><stop offset="1" stop-color="#09A472"/></linearGradient><clipPath id="snipd__a"><path fill="#fff" d="M0 0h32v32H0z"/></clipPath><clipPath id="snipd__d"><path fill="#fff" d="M7.375 7.375h17.25v17.25H7.375z"/></clipPath></defs><g clip-path="url(#snipd__a)"><mask id="snipd__b" width="32" height="32" x="0" y="0" maskUnits="userSpaceOnUse" style="mask-type:alpha"><path d="M16 0c12.357 0 16 3.643 16 16s-3.643 16-16 16S0 28.357 0 16 3.643 0 16 0Z"/></mask><g mask="url(#snipd__b)"><path fill="url(#snipd__c)" d="M0 0h32v32H0z"/><g clip-path="url(#snipd__d)"><path fill="url(#snipd__e)" d="M22.527 9.473a7.5 7.5 0 0 0-10.605 10.605L22.528 9.472Z"/><path fill="url(#snipd__f)" d="M9.473 22.527a7.5 7.5 0 0 0 10.605-10.605L9.472 22.528Z"/></g></g></g></svg>