<svg xmlns="http://www.w3.org/2000/svg" width="32" height="32" fill="none" viewBox="0 0 32 32"><defs><linearGradient id="b" x1="16" x2="16" y1="0" y2="32" gradientUnits="userSpaceOnUse"><stop stop-color="#1E2365"/><stop offset="1" stop-color="#020622"/></linearGradient><linearGradient id="c" x1="16.176" x2="16.176" y1="7.375" y2="20.077" gradientUnits="userSpaceOnUse"><stop stop-color="#A9FEE4"/><stop offset="1" stop-color="#0DEAA4"/></linearGradient><linearGradient id="d" x1="15.824" x2="15.824" y1="11.923" y2="24.625" gradientUnits="userSpaceOnUse"><stop stop-color="#15D899"/><stop offset="1" stop-color="#09A472"/></linearGradient></defs><mask id="a" width="32" height="32" x="0" y="0" maskUnits="userSpaceOnUse" style="mask-type:alpha"><path fill="#000" d="M16 0c12.357 0 16 3.643 16 16s-3.643 16-16 16S0 28.357 0 16 3.643 0 16 0Z"/></mask><g mask="url(#a)"><path fill="url(#b)" d="M0 0h32v32H0z"/><path fill="url(#c)" d="M22.527 9.473a7.5 7.5 0 0 0-10.605 10.605L22.528 9.472Z"/><path fill="url(#d)" d="M9.473 22.527a7.5 7.5 0 0 0 10.605-10.605L9.472 22.528Z"/></g></svg>