<svg xmlns="http://www.w3.org/2000/svg" width="32" height="32" fill="none" viewBox="0 0 32 32"><mask id="a" width="32" height="32" x="0" y="0" maskUnits="userSpaceOnUse" style="mask-type:alpha"><path fill="#000" d="M16 0c12.357 0 16 3.643 16 16s-3.643 16-16 16S0 28.357 0 16 3.643 0 16 0Z"/></mask><g mask="url(#a)"><path fill="#004A93" d="M0 0h32v32H0z"/><path fill="#FFCE00" d="M16 28.667c6.996 0 12.667-5.671 12.667-12.667 0-6.995-5.671-12.666-12.667-12.666C9.004 3.334 3.333 9.004 3.333 16S9.004 28.667 16 28.667Z"/><path fill="#004A93" d="M19.333 6.734a.57.57 0 0 0-.466 0 .803.803 0 0 0-.334.333.57.57 0 0 0 0 .467c.067.133.2.266.334.333 3.2 1.333 5.266 4.4 5.266 7.867 0 4.733-3.8 8.533-8.533 8.533a.668.668 0 0 0-.667.667c0 .4.267.666.667.666 5.4 0 9.8-4.4 9.8-9.8 0-4-2.333-7.533-6.067-9.066Z"/><path fill="#004A93" d="M15.6 22.2c3.533 0 6.467-2.866 6.467-6.466s-2.867-6.4-6.467-6.4a.668.668 0 0 0-.667.666c0 .334.267.667.667.667 2.867 0 5.133 2.333 5.133 5.133S18.4 20.933 15.6 20.933a.668.668 0 0 0-.667.667c.067.333.334.6.667.6Z"/><path fill="#004A93" d="M16.933 17.267a.605.605 0 0 0-.2.466c0 .2.067.334.2.467.134.133.267.2.467.2.133 0 .333-.067.4-.2.667-.6 1-1.467 1-2.333 0-1.8-1.467-3.267-3.2-3.267a.668.668 0 0 0-.667.667c0 .4.267.666.667.666 1.067 0 1.933.867 1.933 1.934.067.466-.133 1-.6 1.4Z"/></g></svg>