<svg xmlns="http://www.w3.org/2000/svg" viewBox="0 0 32 32"><defs><clipPath id="sonnet__a"><path fill="#fff" d="M0 0h32v32H0z"/></clipPath><clipPath id="sonnet__c"><path fill="#fff" d="M3.333 3.333h25.333v25.333H3.333z"/></clipPath></defs><g clip-path="url(#sonnet__a)"><mask id="sonnet__b" width="32" height="32" x="0" y="0" maskUnits="userSpaceOnUse" style="mask-type:alpha"><path d="M16 0c12.357 0 16 3.643 16 16s-3.643 16-16 16S0 28.357 0 16 3.643 0 16 0Z"/></mask><g mask="url(#sonnet__b)"><path fill="#004A93" d="M0 0h32v32H0z"/><g clip-path="url(#sonnet__c)"><path fill="#FFCE00" d="M16 28.668c6.997 0 12.668-5.672 12.668-12.668 0-6.996-5.671-12.668-12.668-12.668C9.004 3.332 3.332 9.004 3.332 16c0 6.996 5.672 12.668 12.668 12.668Z"/><path fill="#004A93" d="M19.334 6.732a.57.57 0 0 0-.467 0 .804.804 0 0 0-.333.334.57.57 0 0 0 0 .466c.067.134.2.267.333.334 3.2 1.333 5.267 4.4 5.267 7.867 0 4.734-3.8 8.534-8.534 8.534a.668.668 0 0 0-.667.667c0 .4.267.667.667.667 5.4 0 9.801-4.4 9.801-9.801 0-4-2.333-7.534-6.067-9.068Z"/><path fill="#004A93" d="M15.6 22.2c3.534 0 6.467-2.866 6.467-6.467 0-3.6-2.866-6.4-6.467-6.4a.668.668 0 0 0-.667.666c0 .334.267.667.667.667 2.867 0 5.134 2.334 5.134 5.134 0 2.8-2.334 5.134-5.134 5.134a.668.668 0 0 0-.667.667c.067.333.334.6.667.6Z"/><path fill="#004A93" d="M16.934 17.267a.605.605 0 0 0-.2.467c0 .2.066.333.2.466.133.134.266.2.466.2.134 0 .334-.066.4-.2.667-.6 1-1.467 1-2.333 0-1.8-1.466-3.267-3.2-3.267a.668.668 0 0 0-.667.666c0 .4.267.667.667.667 1.067 0 1.934.867 1.934 1.934.066.466-.134 1-.6 1.4Z"/></g></g></g></svg>