<svg xmlns="http://www.w3.org/2000/svg" width="32" height="32" fill="none" viewBox="0 0 32 32">
  <g clip-path="url(#a)">
    <path fill="#004A93" d="M3.333 28.667C.867 26.2 0 22.2 0 16S.933 5.8 3.333 3.333C5.733.867 9.8 0 16 0s10.2.933 12.667 3.333C31.133 5.733 32 9.8 32 16s-.933 10.2-3.333 12.667C26.267 31.133 22.2 32 16 32s-10.2-.933-12.667-3.333Z"/>
    <path fill="#FFCE00" d="M16 28.667c6.996 0 12.667-5.672 12.667-12.667 0-6.996-5.671-12.667-12.667-12.667C9.004 3.333 3.333 9.004 3.333 16c0 6.995 5.671 12.667 12.667 12.667Z"/>
    <path fill="#004A93" d="M19.333 6.733a.57.57 0 0 0-.466 0 .803.803 0 0 0-.334.334.57.57 0 0 0 0 .466c.067.134.2.267.334.334 3.2 1.333 5.266 4.4 5.266 7.866 0 4.734-3.8 8.534-8.533 8.534a.668.668 0 0 0-.667.666c0 .4.267.667.667.667 5.4 0 9.8-4.4 9.8-9.8 0-4-2.333-7.533-6.067-9.067Z"/>
    <path fill="#004A93" d="M15.6 22.2c3.533 0 6.467-2.867 6.467-6.467 0-3.6-2.867-6.4-6.467-6.4a.668.668 0 0 0-.667.667c0 .333.267.667.667.667 2.867 0 5.133 2.333 5.133 5.133S18.4 20.933 15.6 20.933a.668.668 0 0 0-.667.667c.067.333.334.6.667.6Z"/>
    <path fill="#004A93" d="M16.933 17.267a.605.605 0 0 0-.2.466c0 .2.067.334.2.467.134.133.267.2.467.2.133 0 .333-.067.4-.2.667-.6 1-1.467 1-2.333 0-1.8-1.467-3.267-3.2-3.267a.668.668 0 0 0-.667.667c0 .4.267.666.667.666 1.067 0 1.933.867 1.933 1.934.067.466-.133 1-.6 1.4Z"/>
  </g>
  <defs>
    <clipPath id="a">
      <path fill="#fff" d="M0 0h32v32H0z"/>
    </clipPath>
  </defs>
</svg>
