<svg xmlns="http://www.w3.org/2000/svg" viewBox="0 0 32 32"><defs><clipPath id="soundcloud__a"><path fill="#fff" d="M0 0h32v32H0z"/></clipPath><clipPath id="soundcloud__c"><path fill="#fff" d="M3.25 3.25h25.5v25.5H3.25z"/></clipPath></defs><g clip-path="url(#soundcloud__a)"><mask id="soundcloud__b" width="32" height="32" x="0" y="0" maskUnits="userSpaceOnUse" style="mask-type:alpha"><path d="M16 0c12.357 0 16 3.643 16 16s-3.643 16-16 16S0 28.357 0 16 3.643 0 16 0Z"/></mask><g mask="url(#soundcloud__b)"><path fill="#F50" d="M0 0h32v32H0z"/><g clip-path="url(#soundcloud__c)"><path fill="#fff" fill-rule="evenodd" d="M28.748 18.317a3.57 3.57 0 0 1-3.615 3.37h-8.688a.729.729 0 0 1-.721-.724v-9.355a.797.797 0 0 1 .48-.762s.799-.554 2.482-.554a5.695 5.695 0 0 1 2.922.803 5.781 5.781 0 0 1 2.72 3.767c.3-.085.61-.127.921-.126a3.478 3.478 0 0 1 3.5 3.581h-.001ZM14.639 12.2c.262 3.173.453 6.067 0 9.23a.282.282 0 0 1-.56 0c-.423-3.137-.239-6.085 0-9.23a.282.282 0 1 1 .56 0Zm-1.758 9.232a.295.295 0 0 1-.585 0 35.28 35.28 0 0 1 0-8.144.296.296 0 0 1 .589 0c.349 2.704.347 5.44-.004 8.144Zm-1.761-8.42c.285 2.908.415 5.513-.004 8.413a.283.283 0 0 1-.564 0c-.405-2.863-.269-5.542 0-8.412a.285.285 0 0 1 .284-.255c.146 0 .268.11.284.255Zm-1.765 8.424a.29.29 0 0 1-.575 0 29.789 29.789 0 0 1 0-7.604.292.292 0 0 1 .585 0 27.788 27.788 0 0 1-.01 7.604Zm-1.762-5.703c.446 1.972.245 3.713-.017 5.723a.276.276 0 0 1-.544 0c-.238-1.982-.435-3.764-.017-5.723a.29.29 0 0 1 .578 0Zm-1.758-.3c.408 2.02.276 3.731-.01 5.758-.034.3-.547.303-.575 0-.258-1.996-.38-3.758-.01-5.757a.3.3 0 0 1 .595 0Zm-1.775.98c.428 1.34.282 2.428-.017 3.802a.279.279 0 0 1-.554 0c-.259-1.347-.364-2.459-.024-3.802a.3.3 0 0 1 .595 0Z" clip-rule="evenodd"/></g></g></g></svg>