<svg xmlns="http://www.w3.org/2000/svg" width="32" height="32" fill="none" viewBox="0 0 32 32"><mask id="a" width="32" height="32" x="0" y="0" maskUnits="userSpaceOnUse" style="mask-type:alpha"><path fill="#000" d="M16 0c12.357 0 16 3.643 16 16s-3.643 16-16 16S0 28.357 0 16 3.643 0 16 0Z"/></mask><g mask="url(#a)"><path fill="#181413" d="M0 0h32v32H0z"/><path fill="#1ED760" fill-rule="evenodd" d="M16 28.667c6.996 0 12.667-5.671 12.667-12.667 0-6.995-5.671-12.666-12.667-12.666C9.004 3.334 3.333 9.004 3.333 16S9.004 28.667 16 28.667Z" clip-rule="evenodd"/><path fill="#181413" fill-rule="evenodd" d="M9.244 19.105c4.76-1.088 8.925-.652 12.303 1.413a.79.79 0 0 1-.823 1.348c-2.936-1.794-6.653-2.243-11.128-1.22a.79.79 0 0 1-.352-1.541Zm-.439-3.991c4.569-1.387 10.318-.72 14.229 1.683a.987.987 0 0 1-1.033 1.681c-3.403-2.091-8.563-2.708-12.623-1.476a.987.987 0 0 1-.573-1.888Zm7.478-4.994c2.953.237 6.016.98 8.418 2.406a1.184 1.184 0 0 1-1.208 2.035c-1.99-1.18-4.665-1.863-7.4-2.082-2.73-.218-5.395.034-7.316.618a1.183 1.183 0 1 1-.687-2.265c2.264-.688 5.236-.949 8.193-.712Z" clip-rule="evenodd"/></g></svg>