<svg xmlns="http://www.w3.org/2000/svg" width="32" height="32" fill="none" viewBox="0 0 32 32">
  <path fill="#181413" fill-rule="evenodd" d="M3.366 28.634C.911 26.178 0 22.178 0 16S.91 5.822 3.366 3.366C5.822.911 9.822 0 16 0s10.178.91 12.634 3.366C31.089 5.822 32 9.822 32 16s-.91 10.178-3.366 12.634C26.178 31.089 22.178 32 16 32s-10.178-.91-12.634-3.366Z" clip-rule="evenodd"/>
  <path fill="#1ED760" fill-rule="evenodd" d="M16 28.667c6.996 0 12.667-5.672 12.667-12.667 0-6.996-5.671-12.667-12.667-12.667C9.004 3.333 3.333 9.004 3.333 16c0 6.995 5.671 12.667 12.667 12.667Z" clip-rule="evenodd"/>
  <path fill="#181413" fill-rule="evenodd" d="M9.244 19.105c4.76-1.088 8.925-.652 12.303 1.413a.79.79 0 0 1-.823 1.348c-2.936-1.794-6.653-2.243-11.128-1.22a.79.79 0 0 1-.352-1.541Zm-.439-3.991c4.569-1.387 10.318-.72 14.229 1.683a.987.987 0 0 1-1.033 1.681c-3.403-2.091-8.563-2.708-12.623-1.476a.987.987 0 0 1-.573-1.888Zm7.478-4.994c2.953.237 6.016.98 8.418 2.406a1.184 1.184 0 0 1-1.208 2.035c-1.99-1.18-4.665-1.863-7.4-2.082-2.73-.218-5.395.034-7.316.618a1.183 1.183 0 1 1-.687-2.265c2.264-.688 5.236-.949 8.193-.712Z" clip-rule="evenodd"/>
</svg>
