<svg xmlns="http://www.w3.org/2000/svg" viewBox="0 0 32 32"><defs><clipPath id="spotify__a"><path fill="#fff" d="M0 0h32v32H0z"/></clipPath><clipPath id="spotify__c"><path fill="#fff" d="M3.333 3.333h25.333v25.333H3.333z"/></clipPath></defs><g clip-path="url(#spotify__a)"><mask id="spotify__b" width="32" height="32" x="0" y="0" maskUnits="userSpaceOnUse" style="mask-type:alpha"><path d="M16 0c12.357 0 16 3.643 16 16s-3.643 16-16 16S0 28.357 0 16 3.643 0 16 0Z"/></mask><g mask="url(#spotify__b)"><path fill="#181413" d="M0 0h32v32H0z"/><g fill-rule="evenodd" clip-path="url(#spotify__c)" clip-rule="evenodd"><path fill="#1ED760" d="M16 28.668c6.997 0 12.668-5.672 12.668-12.668 0-6.996-5.671-12.668-12.668-12.668C9.004 3.332 3.332 9.004 3.332 16c0 6.996 5.672 12.668 12.668 12.668Z"/><path fill="#181413" d="M9.244 19.105c4.76-1.087 8.926-.652 12.304 1.413a.79.79 0 1 1-.824 1.348c-2.935-1.793-6.653-2.243-11.128-1.22a.79.79 0 0 1-.352-1.54Zm-.44-3.991c4.57-1.387 10.32-.72 14.23 1.683a.987.987 0 1 1-1.033 1.681c-3.403-2.091-8.564-2.708-12.623-1.476a.987.987 0 1 1-.574-1.888Zm7.479-4.994c2.953.236 6.017.98 8.42 2.406a1.183 1.183 0 0 1-1.209 2.035c-1.99-1.181-4.666-1.863-7.4-2.082-2.731-.219-5.396.034-7.318.617a1.183 1.183 0 1 1-.687-2.265c2.264-.687 5.236-.948 8.194-.712Z"/></g></g></g></svg>