<svg xmlns="http://www.w3.org/2000/svg" viewBox="0 0 32 32"><defs><clipPath id="stenofm__a"><path fill="#fff" d="M0 0h32v32H0z"/></clipPath><clipPath id="stenofm__c"><path fill="#fff" d="M5.74 5.77h19.2v19.2H5.74z"/></clipPath></defs><g clip-path="url(#stenofm__a)"><mask id="stenofm__b" width="32" height="32" x="0" y="0" maskUnits="userSpaceOnUse" style="mask-type:alpha"><path d="M16 0c12.357 0 16 3.643 16 16s-3.643 16-16 16S0 28.357 0 16 3.643 0 16 0Z"/></mask><g mask="url(#stenofm__b)"><path fill="#F9CE49" d="M0 0h32v32H0z"/><g clip-path="url(#stenofm__c)"><path fill="#333" d="m22.38 16.22 2.545 8.2c.04.145 0 .297-.096.393a.375.375 0 0 1-.28.12c-.04 0-.08 0-.12-.016l-8.2-2.545a.356.356 0 0 1-.169-.096L6.676 12.9a3.206 3.206 0 0 1 0-4.528l1.696-1.696c1.208-1.208 3.32-1.208 4.528 0l9.385 9.376a.44.44 0 0 1 .096.168Z"/><path fill="#FEFBE8" d="m21.605 23.213-4.777-1.48.4-1.704 1.864-.688c.112-.04.2-.128.24-.232l.688-1.865 1.704-.4 1.489 4.76a3.556 3.556 0 0 0-1.608 1.609Z"/><path fill="#F9CE49" d="m19.788 16.468.912-.216-5.696-5.696c-.256.12-.504.248-.744.384l5.528 5.528Zm-4.976-6.696a6.942 6.942 0 0 0-.72-.56c-.096.208-.16.432-.16.68 0 .104.016.2.04.296.272-.152.552-.288.84-.416ZM9.764 7.14a5.96 5.96 0 0 1 .272-.496 2.3 2.3 0 0 0-1.032.544c.248-.024.504-.048.76-.048Zm-.328.824a7.57 7.57 0 0 0-1.288.184c-.104.416-.16.848-.192 1.288.392-.12.8-.208 1.224-.256a6.2 6.2 0 0 1 .256-1.216Zm-2.296 1.8c.008-.256.024-.512.048-.768a2.48 2.48 0 0 0-.568 1.056c.168-.104.344-.2.52-.288Zm-.56 1.28c.064.4.24.784.52 1.12.096-.08.184-.176.288-.248a9.598 9.598 0 0 1-.216-1.272c-.208.12-.4.256-.592.4Zm2.56-1.048c-.408.056-.808.16-1.184.296.024.416.072.824.16 1.224.36-.16.744-.272 1.152-.328a6.474 6.474 0 0 1-.128-1.192Zm.352 1.976c-.416.048-.8.152-1.16.328.128.384.288.752.472 1.104a2.349 2.349 0 0 1 1.08-.272c.048 0 .104.016.152.016-.216-.368-.4-.76-.544-1.176Zm-.288 2.12c.168.256.36.488.56.72.128-.288.272-.568.416-.84a1.201 1.201 0 0 0-.296-.04c-.248 0-.472.064-.68.16Zm1.136-2.104c.136.336.32.648.52.952.168-.224.336-.432.512-.632a3.52 3.52 0 0 0-1.032-.32Zm-.4-2.048c0 .416.056.816.144 1.208.464.024.912.112 1.336.264a4.314 4.314 0 0 1-.272-1.328A5.482 5.482 0 0 0 9.94 9.94Zm.048-.8c.408.008.808.048 1.2.128.056-.4.16-.792.32-1.152a7.64 7.64 0 0 0-1.224-.16 5.35 5.35 0 0 0-.296 1.184Zm1.04-2.544a5.543 5.543 0 0 0-.384.576c.432.04.856.12 1.272.224.072-.104.16-.192.248-.296a2.322 2.322 0 0 0-1.136-.504Zm2.376 2.216A7.513 7.513 0 0 0 12.3 8.34a3.67 3.67 0 0 0-.328 1.16c.416.136.808.32 1.176.544 0-.048-.016-.096-.016-.152 0-.392.104-.752.272-1.08Zm-.472 2.056a5.224 5.224 0 0 0-.952-.52c.048.368.168.704.312 1.032.208-.184.424-.352.64-.512Zm.648.496a8.96 8.96 0 0 0-1.232 1.032l6.256 6.264.04-.016.6-1.616-5.664-5.664Z"/></g></g></g></svg>