<svg xmlns="http://www.w3.org/2000/svg" width="32" height="32" fill="none" viewBox="0 0 32 32">
  <path fill="#F9CE49" d="M3.367 28.633C.913 26.18 0 22.18 0 16 0 9.82.913 5.82 3.367 3.367 5.82.913 9.82 0 16 0c6.18 0 10.18.913 12.633 3.367C31.087 5.82 32 9.82 32 16c0 6.18-.913 10.18-3.367 12.633C26.18 31.087 22.18 32 16 32c-6.18 0-10.18-.913-12.633-3.367Z"/>
  <path fill="#333" d="m22.384 16.216 2.544 8.2c.04.144 0 .296-.096.392a.375.375 0 0 1-.28.12c-.04 0-.08 0-.12-.016l-8.2-2.544a.356.356 0 0 1-.168-.096L6.68 12.896a3.206 3.206 0 0 1 0-4.528l1.696-1.696c1.208-1.208 3.32-1.208 4.528 0l9.384 9.376a.44.44 0 0 1 .096.168Z"/>
  <path fill="#FEFBE8" d="m21.608 23.208-4.776-1.48.4-1.704 1.864-.688c.112-.04.2-.128.24-.232l.688-1.864 1.704-.4 1.488 4.76a3.556 3.556 0 0 0-1.608 1.608Z"/>
  <path fill="#F9CE49" d="m19.792 16.464.912-.216-5.696-5.696c-.256.12-.504.248-.744.384l5.528 5.528Zm-4.976-6.696a6.942 6.942 0 0 0-.72-.56c-.096.208-.16.432-.16.68 0 .104.016.2.04.296.272-.152.552-.288.84-.416ZM9.768 7.136a5.97 5.97 0 0 1 .272-.496 2.3 2.3 0 0 0-1.032.544c.248-.024.504-.048.76-.048Zm-.328.824a7.57 7.57 0 0 0-1.288.184c-.104.416-.16.848-.192 1.288.392-.12.8-.208 1.224-.256A6.2 6.2 0 0 1 9.44 7.96Zm-2.296 1.8c.008-.256.024-.512.048-.768a2.48 2.48 0 0 0-.568 1.056c.168-.104.344-.2.52-.288Zm-.56 1.28c.064.4.24.784.52 1.12.096-.08.184-.176.288-.248a9.596 9.596 0 0 1-.216-1.272c-.208.12-.4.256-.592.4Zm2.56-1.048c-.408.056-.808.16-1.184.296.024.416.072.824.16 1.224.36-.16.744-.272 1.152-.328a6.474 6.474 0 0 1-.128-1.192Zm.352 1.976c-.416.048-.8.152-1.16.328.128.384.288.752.472 1.104a2.349 2.349 0 0 1 1.08-.272c.048 0 .104.016.152.016a6.56 6.56 0 0 1-.544-1.176Zm-.288 2.12c.168.256.36.488.56.72.128-.288.272-.568.416-.84a1.201 1.201 0 0 0-.296-.04c-.248 0-.472.064-.68.16Zm1.136-2.104c.136.336.32.648.52.952.168-.224.336-.432.512-.632a3.52 3.52 0 0 0-1.032-.32Zm-.4-2.048c0 .416.056.816.144 1.208.464.024.912.112 1.336.264a4.314 4.314 0 0 1-.272-1.328 5.487 5.487 0 0 0-1.208-.144Zm.048-.8c.408.008.808.048 1.2.128.056-.4.16-.792.32-1.152a7.642 7.642 0 0 0-1.224-.16 5.35 5.35 0 0 0-.296 1.184Zm1.04-2.544a5.544 5.544 0 0 0-.384.576c.432.04.856.12 1.272.224.072-.104.16-.192.248-.296a2.322 2.322 0 0 0-1.136-.504Zm2.376 2.216a7.512 7.512 0 0 0-1.104-.472c-.168.352-.28.744-.328 1.16.416.136.808.32 1.176.544 0-.048-.016-.096-.016-.152 0-.392.104-.752.272-1.08Zm-.472 2.056a5.22 5.22 0 0 0-.952-.52c.048.368.168.704.312 1.032.208-.184.424-.352.64-.512Zm.648.496a8.96 8.96 0 0 0-1.232 1.032l6.256 6.264.04-.016.6-1.616-5.664-5.664Z"/>
</svg>
