<svg xmlns="http://www.w3.org/2000/svg" width="32" height="32" fill="none" viewBox="0 0 32 32">
  <mask id="a" width="32" height="32" x="0" y="0" maskUnits="userSpaceOnUse" style="mask-type:luminance">
    <path fill="#fff" fill-rule="evenodd" d="M3.366 28.634C.911 26.178 0 22.178 0 16S.91 5.822 3.366 3.366C5.822.911 9.822 0 16 0s10.178.91 12.634 3.366C31.089 5.822 32 9.822 32 16s-.91 10.178-3.366 12.634C26.178 31.089 22.178 32 16 32s-10.178-.91-12.634-3.366Z" clip-rule="evenodd"/>
  </mask>
  <g mask="url(#a)">
    <path fill="#fff" d="M0 0h32v32H0z"/>
    <path fill="#3291C6" d="M0 11.794h5.637V21.94H0z"/>
    <path fill="#621E69" d="M6.547 9.972h5.724v11.274H6.547z"/>
    <path fill="#FBC700" d="M13.225 10.927h5.68v11.664h-5.68z"/>
    <path fill="#ED8B01" d="M19.773 9.192h5.724v12.054h-5.724z"/>
    <path fill="#C5361E" d="M26.407 11.273H32v9.236h-5.593z"/>
  </g>
</svg>
