<svg xmlns="http://www.w3.org/2000/svg" width="32" height="32" fill="none" viewBox="0 0 32 32">
  <g clip-path="url(#a)">
    <path fill="#fff" d="M3.37 28.63C.91 26.17 0 22.17 0 16 0 9.83.91 5.82 3.37 3.37 5.82.91 9.82 0 16 0c6.18 0 10.18.91 12.63 3.37C31.09 5.83 32 9.83 32 16c0 6.17-.91 10.18-3.37 12.63C26.17 31.09 22.17 32 16 32c-6.17 0-10.18-.91-12.63-3.37Z"/>
    <path fill="#1C77D4" d="m5.027 24.25 7.463-7.935 3.008 2.677a.748.748 0 0 0 .502.188c.18 0 .36-.06.503-.188l3.007-2.677 7.462 7.935H5.027ZM16 17.433 5.125 7.75h21.742l-10.875 9.683H16Zm0-7.26c1.552 0 2.955.682 3.915 1.762l1.117-.998a6.723 6.723 0 0 0-10.065 0l1.118.998A5.22 5.22 0 0 1 16 10.172Zm-2.227 3.262A2.983 2.983 0 0 1 16 12.422c.885 0 1.68.398 2.227 1.013l1.125-1.005A4.502 4.502 0 0 0 16 10.915a4.475 4.475 0 0 0-3.352 1.515l1.125 1.005Zm1.612 1.44a.928.928 0 1 0 .615-1.62.93.93 0 0 0-.623 1.62h.008ZM4 23.155l7.373-7.838L4 8.756v14.4Zm24 0v-14.4l-7.372 6.563L28 23.154Z"/>
  </g>
  <defs>
    <clipPath id="a">
      <path fill="#fff" d="M0 0h32v32H0z"/>
    </clipPath>
  </defs>
</svg>
