<svg xmlns="http://www.w3.org/2000/svg" viewBox="0 0 32 32"><defs><path id="subscribebyemail__a" fill="#fff" d="M0 0h32v32H0z"/></defs><defs><clipPath id="subscribebyemail__b"><use href="#subscribebyemail__a"/></clipPath></defs><g clip-path="url(#subscribebyemail__b)"><mask id="subscribebyemail__c" width="32" height="32" x="0" y="0" maskUnits="userSpaceOnUse" style="mask-type:alpha"><path d="M16 0c12.357 0 16 3.643 16 16s-3.643 16-16 16S0 28.357 0 16 3.643 0 16 0Z"/></mask><g mask="url(#subscribebyemail__c)"><use href="#subscribebyemail__a"/><path fill="#1C77D4" d="m5.027 24.25 7.463-7.935 3.008 2.677a.748.748 0 0 0 .502.188c.18 0 .36-.06.503-.188l3.007-2.677 7.462 7.935H5.027ZM16 17.433 5.125 7.75h21.742l-10.875 9.683H16Zm0-7.26c1.552 0 2.955.682 3.915 1.762l1.117-.998a6.723 6.723 0 0 0-10.065 0l1.118.998A5.22 5.22 0 0 1 16 10.172Zm-2.227 3.262A2.983 2.983 0 0 1 16 12.422c.885 0 1.68.398 2.227 1.013l1.125-1.005A4.502 4.502 0 0 0 16 10.915a4.475 4.475 0 0 0-3.352 1.515l1.125 1.005Zm1.612 1.44a.928.928 0 1 0 .615-1.62.93.93 0 0 0-.623 1.62h.008ZM4 23.155l7.373-7.838L4 8.756v14.4Zm24 0v-14.4l-7.372 6.563L28 23.154Z"/></g></g></svg>