<svg xmlns="http://www.w3.org/2000/svg" width="32" height="32" fill="none" viewBox="0 0 32 32">
  <g clip-path="url(#a)">
    <path fill="#fff" d="M3.37 28.63C.91 26.17 0 22.17 0 16 0 9.83.91 5.82 3.37 3.37 5.82.91 9.82 0 16 0c6.18 0 10.18.91 12.63 3.37C31.09 5.83 32 9.83 32 16c0 6.17-.91 10.18-3.37 12.63C26.17 31.09 22.17 32 16 32c-6.17 0-10.18-.91-12.63-3.37Z"/>
    <path fill="#34A853" fill-rule="evenodd" d="M1.705 26.291A8.9 8.9 0 0 0 3.37 28.63c2.354 2.364 6.149 3.296 11.916 3.366h1.428c5.767-.07 9.552-1.002 11.916-3.366a8.83 8.83 0 0 0 1.656-2.318 16.788 16.788 0 0 0-1.171-1.907 17.258 17.258 0 0 0-1.762-2.082 12.64 12.64 0 0 0-.843-.774 15.679 15.679 0 0 0-2.004-1.472.052.052 0 0 0 .01-.015 142.711 142.711 0 0 0 1.643-2.835 314.561 314.561 0 0 1 .622-1.076l.34-.586a1.14 1.14 0 0 0 .125-.29 1.436 1.436 0 0 0-.048-1.027 1.098 1.098 0 0 0-.097-.184 1.35 1.35 0 0 0-.513-.503 1.461 1.461 0 0 0-.63-.204 1.508 1.508 0 0 0-.504.039 1.412 1.412 0 0 0-.706.426 1.523 1.523 0 0 0-.184.252c-.111.194-.225.39-.339.586l-.339.585-.949 1.637c-.16.28-.322.559-.484.837-.162.279-.324.557-.484.838-.02.029-.036.06-.053.092-.017.031-.034.063-.053.092l-.146-.058a16.065 16.065 0 0 0-5.732-1.046h-.164a16.2 16.2 0 0 0-5.132.89l-.552.204a1.515 1.515 0 0 0-.048-.087c-.017-.03-.034-.058-.049-.087-.16-.281-.321-.56-.484-.838a93.457 93.457 0 0 1-.484-.837c-.224-.381-.444-.762-.666-1.147l-.283-.49c-.11-.193-.225-.39-.338-.585l-.34-.586a1.454 1.454 0 0 0-.89-.678c-.068-.017-.136-.026-.197-.035l-.026-.004a1.358 1.358 0 0 0-.28 0 1.502 1.502 0 0 0-1.307 1.084c-.068.272-.068.553.019.833.029.097.077.194.126.29.11.195.225.39.338.587l.34.585c.224.381.444.762.665 1.147l.283.49c.16.28.322.559.484.837.162.279.325.557.484.838l.01.01c-.649.406-1.268.852-1.859 1.345a15.766 15.766 0 0 0-2.77 3.002 15.976 15.976 0 0 0-1.16 1.886Z" clip-rule="evenodd"/>
    <path fill="#202124" d="M24.322 27.561c.639-.426.736-1.414.203-2.198-.523-.794-1.471-1.084-2.11-.658-.64.426-.736 1.413-.204 2.198.523.794 1.472 1.084 2.11.658Zm-14.504-.649c.523-.793.435-1.771-.204-2.197-.639-.427-1.587-.136-2.11.658-.523.794-.436 1.772.203 2.198.639.426 1.578.126 2.11-.659Z"/>
  </g>
  <defs>
    <clipPath id="a">
      <path fill="#fff" d="M0 0h32v32H0z"/>
    </clipPath>
  </defs>
</svg>
