<svg xmlns="http://www.w3.org/2000/svg" viewBox="0 0 32 32"><defs><path id="subscribeonandroid__a" fill="#fff" d="M0 0h32v32H0z"/></defs><defs><clipPath id="subscribeonandroid__b"><use href="#subscribeonandroid__a"/></clipPath><clipPath id="subscribeonandroid__d"><use href="#subscribeonandroid__a"/></clipPath></defs><g clip-path="url(#subscribeonandroid__b)"><mask id="subscribeonandroid__c" width="32" height="32" x="0" y="0" maskUnits="userSpaceOnUse" style="mask-type:alpha"><path d="M16 0c12.357 0 16 3.643 16 16s-3.643 16-16 16S0 28.357 0 16 3.643 0 16 0Z"/></mask><g mask="url(#subscribeonandroid__c)"><use href="#subscribeonandroid__a"/><g clip-path="url(#subscribeonandroid__d)"><path fill="#34A853" d="m31.913 31.289-.03-.194a17.28 17.28 0 0 0-.241-1.19 14.952 14.952 0 0 0-.63-1.995 14.902 14.902 0 0 0-.726-1.598 16.773 16.773 0 0 0-1.171-1.907 17.268 17.268 0 0 0-1.762-2.082 12.64 12.64 0 0 0-.843-.774 15.672 15.672 0 0 0-2.004-1.472c.01-.01.01-.02.02-.03.319-.56.648-1.113.968-1.674.319-.542.629-1.085.948-1.637l.678-1.171a1.11 1.11 0 0 0 .126-.29c.087-.272.097-.562.02-.833-.02-.068-.04-.136-.068-.194a1.105 1.105 0 0 0-.097-.184 1.349 1.349 0 0 0-.513-.503 1.461 1.461 0 0 0-.63-.204 1.504 1.504 0 0 0-.503.039 1.412 1.412 0 0 0-.707.426 1.523 1.523 0 0 0-.184.252l-.678 1.171-.949 1.637c-.32.561-.648 1.113-.968 1.675-.039.058-.068.126-.106.184l-.146-.058a16.065 16.065 0 0 0-5.731-1.046h-.165a16.2 16.2 0 0 0-5.132.89l-.552.204c-.029-.058-.067-.116-.097-.174-.319-.562-.648-1.114-.968-1.675-.32-.543-.629-1.085-.949-1.637-.222-.387-.455-.784-.677-1.171a1.454 1.454 0 0 0-.89-.678c-.079-.02-.156-.029-.224-.039a1.358 1.358 0 0 0-.28 0 1.502 1.502 0 0 0-1.307 1.084c-.068.272-.068.553.019.833.029.097.077.194.126.29.222.388.455.785.677 1.172.32.543.63 1.085.95 1.637.319.561.648 1.113.967 1.675l.01.01c-.649.406-1.268.852-1.859 1.345a15.768 15.768 0 0 0-2.77 3.002 15.97 15.97 0 0 0-1.17 1.907 15.89 15.89 0 0 0-1.598 4.783l-.03.194c-.038.232-.067.465-.096.707h32c0-.242-.03-.475-.058-.707Z"/><path fill="#202124" d="M24.322 27.561c.639-.426.736-1.414.203-2.198-.523-.794-1.471-1.084-2.11-.658-.64.426-.736 1.413-.204 2.198.523.794 1.472 1.084 2.11.658Zm-14.504-.649c.523-.793.435-1.771-.204-2.197-.639-.427-1.587-.136-2.11.658-.523.794-.436 1.772.203 2.198.639.426 1.578.126 2.11-.659Z"/></g></g></g></svg>