<svg xmlns="http://www.w3.org/2000/svg" viewBox="0 0 32 32"><defs><path id="truefans__a" fill="#fff" d="M0 0h32v32H0z"/></defs><defs><clipPath id="truefans__b"><use href="#truefans__a"/></clipPath><clipPath id="truefans__d"><path fill="#fff" d="M4.19 4.19h23.62v23.62H4.19z"/></clipPath></defs><g clip-path="url(#truefans__b)"><mask id="truefans__c" width="32" height="32" x="0" y="0" maskUnits="userSpaceOnUse" style="mask-type:alpha"><path d="M16 0c12.357 0 16 3.643 16 16s-3.643 16-16 16S0 28.357 0 16 3.643 0 16 0Z"/></mask><g mask="url(#truefans__c)"><use href="#truefans__a"/><g fill="#7638F8" clip-path="url(#truefans__d)"><path d="M12.202 5.136c1.128-.63 2.389-.946 3.784-.946 1.394 0 2.655.313 3.783.939a6.85 6.85 0 0 1 2.65 2.593c.641 1.104.961 2.334.961 3.69 0 1.357-.32 2.587-.96 3.691a6.85 6.85 0 0 1-2.651 2.594c-1.127.625-2.389.938-3.783.938-1.395 0-2.656-.315-3.784-.945a6.864 6.864 0 0 1-2.644-2.594c-.635-1.099-.953-2.326-.953-3.683 0-1.357.318-2.585.953-3.683a6.865 6.865 0 0 1 2.644-2.594Zm6.865 3.11c-.822-.822-1.849-1.233-3.082-1.233-1.232 0-2.256.41-3.073 1.233-.817.821-1.225 1.877-1.225 3.167 0 1.29.408 2.345 1.225 3.167.817.822 1.841 1.232 3.074 1.232 1.232 0 2.26-.41 3.08-1.232.823-.822 1.233-1.877 1.233-3.167 0-1.29-.41-2.346-1.232-3.167ZM9.852 27.81h-3.26a9.069 9.069 0 0 1 2.554-4.9 9.165 9.165 0 0 1 1.947-1.449 9.426 9.426 0 0 1 2.316-.917 11.04 11.04 0 0 1 5.15-.002 9.46 9.46 0 0 1 2.316.91 9.099 9.099 0 0 1 1.95 1.445 9.095 9.095 0 0 1 2.57 4.913h-3.262a6.043 6.043 0 0 0-.596-1.418 5.936 5.936 0 0 0-2.287-2.237c-.968-.537-2.066-.81-3.263-.81s-2.295.275-3.263.816a5.946 5.946 0 0 0-2.28 2.238 6.01 6.01 0 0 0-.592 1.41Z"/></g></g></g></svg>