<svg xmlns="http://www.w3.org/2000/svg" width="32" height="32" fill="none" viewBox="0 0 32 32"><mask id="a" width="32" height="32" x="0" y="0" maskUnits="userSpaceOnUse" style="mask-type:alpha"><path fill="#000" d="M16 0c12.357 0 16 3.643 16 16s-3.643 16-16 16S0 28.357 0 16 3.643 0 16 0Z"/></mask><g mask="url(#a)"><path fill="#fff" d="M0 0h32v32H0z"/><path fill="#7638F8" d="M12.199 5.134c1.127-.631 2.389-.947 3.784-.947s2.656.313 3.784.94a6.851 6.851 0 0 1 2.652 2.594c.64 1.103.96 2.334.96 3.69 0 1.358-.32 2.588-.96 3.692a6.851 6.851 0 0 1-2.652 2.594c-1.127.626-2.389.939-3.784.939s-2.656-.315-3.784-.946a6.866 6.866 0 0 1-2.645-2.594c-.635-1.1-.953-2.327-.953-3.684 0-1.357.318-2.585.953-3.684A6.866 6.866 0 0 1 12.2 5.134Zm6.866 3.11c-.822-.822-1.85-1.233-3.082-1.233-1.233 0-2.258.411-3.074 1.233-.817.822-1.226 1.878-1.226 3.168 0 1.29.409 2.346 1.226 3.168.817.822 1.841 1.232 3.074 1.232 1.233 0 2.26-.41 3.082-1.232.822-.822 1.233-1.878 1.233-3.168 0-1.29-.411-2.346-1.233-3.168ZM9.848 27.812h-3.26a9.07 9.07 0 0 1 2.554-4.9 9.162 9.162 0 0 1 1.948-1.45 9.429 9.429 0 0 1 2.316-.917 11.042 11.042 0 0 1 5.151-.002c.809.2 1.588.506 2.317.91a9.103 9.103 0 0 1 1.95 1.445 9.093 9.093 0 0 1 2.57 4.914h-3.262a6.04 6.04 0 0 0-.596-1.418 5.937 5.937 0 0 0-2.288-2.237c-.968-.538-2.066-.81-3.263-.81-1.198 0-2.296.274-3.264.816A5.948 5.948 0 0 0 10.44 26.4a6.01 6.01 0 0 0-.592 1.411Z"/></g></svg>