<svg xmlns="http://www.w3.org/2000/svg" fill="none" viewBox="0 0 32 32"><defs><clipPath id="truefans__a"><path fill="#fff" d="M0 0h32v32H0z"/></clipPath><clipPath id="truefans__d"><path fill="#fff" d="M2.25 4.5h27.5V32H2.25z"/></clipPath><linearGradient id="truefans__c" x1="16" x2="16" y1="0" y2="32" gradientUnits="userSpaceOnUse"><stop stop-color="#4B22A2"/><stop offset="1"/></linearGradient></defs><g clip-path="url(#truefans__a)"><mask id="truefans__b" width="32" height="32" x="0" y="0" maskUnits="userSpaceOnUse" style="mask-type:alpha"><path fill="#000" d="M16 0c12.357 0 16 3.643 16 16s-3.643 16-16 16S0 28.357 0 16 3.643 0 16 0Z"/></mask><g mask="url(#truefans__b)"><path fill="url(#truefans__c)" d="M0 0h32v32H0z"/><g fill="#CDB5FB" clip-path="url(#truefans__d)"><path d="M11.578 5.601C12.891 4.867 14.36 4.5 15.983 4.5s3.092.364 4.405 1.093a7.975 7.975 0 0 1 3.086 3.02c.746 1.284 1.118 2.716 1.118 4.296s-.372 3.012-1.117 4.297a7.975 7.975 0 0 1-3.087 3.02c-1.313.728-2.78 1.092-4.405 1.092-1.624 0-3.092-.367-4.405-1.1a7.992 7.992 0 0 1-3.078-3.02c-.74-1.28-1.11-2.71-1.11-4.289 0-1.58.37-3.009 1.11-4.288a7.992 7.992 0 0 1 3.078-3.02Zm7.992 3.62c-.956-.956-2.152-1.434-3.587-1.434s-2.628.478-3.578 1.435c-.951.957-1.427 2.186-1.427 3.687 0 1.502.476 2.731 1.427 3.688.95.956 2.144 1.435 3.579 1.435 1.434 0 2.63-.479 3.587-1.435.956-.957 1.435-2.186 1.435-3.688 0-1.501-.479-2.73-1.436-3.687ZM8.842 32H5.046a10.557 10.557 0 0 1 1.262-3.488 10.383 10.383 0 0 1 1.712-2.216c.677-.66 1.44-1.228 2.267-1.688a10.975 10.975 0 0 1 2.697-1.068 12.852 12.852 0 0 1 5.996-.002c.941.233 1.848.59 2.696 1.06a10.596 10.596 0 0 1 2.27 1.682A10.587 10.587 0 0 1 26.937 32h-3.796a7.037 7.037 0 0 0-.694-1.651 6.912 6.912 0 0 0-2.663-2.605c-1.127-.625-2.405-.942-3.799-.942-1.394 0-2.672.32-3.8.95a6.924 6.924 0 0 0-2.654 2.605A6.998 6.998 0 0 0 8.842 32Z"/></g></g></g></svg>