<svg xmlns="http://www.w3.org/2000/svg" viewBox="0 0 32 32"><defs><clipPath id="tunein__a"><path fill="#fff" d="M0 0h32v32H0z"/></clipPath><clipPath id="tunein__c"><path fill="#fff" d="M2.665 2.665h26.67v26.67H2.665z"/></clipPath></defs><g clip-path="url(#tunein__a)"><mask id="tunein__b" width="32" height="32" x="0" y="0" maskUnits="userSpaceOnUse" style="mask-type:alpha"><path d="M16 0c12.357 0 16 3.643 16 16s-3.643 16-16 16S0 28.357 0 16 3.643 0 16 0Z"/></mask><g mask="url(#tunein__b)"><path fill="#1C1F3E" d="M0 0h32v32H0z"/><g clip-path="url(#tunein__c)"><path fill="#00D9CD" d="M7.196 15.176v.652a.14.14 0 0 1-.13.13H6.25a.07.07 0 0 0-.065.065v3.452a.14.14 0 0 1-.13.13h-.652a.14.14 0 0 1-.13-.13v-3.452a.07.07 0 0 0-.065-.065h-.814a.14.14 0 0 1-.13-.13v-.652a.14.14 0 0 1 .13-.13h2.67a.14.14 0 0 1 .13.13Zm3.442-.13h-.652a.14.14 0 0 0-.13.13v3.062c0 .293-.228.52-.635.52-.391 0-.62-.227-.62-.52v-3.062a.14.14 0 0 0-.13-.13h-.65a.14.14 0 0 0-.131.13v3.062a1.47 1.47 0 0 0 1.53 1.433 1.472 1.472 0 0 0 1.547-1.433v-3.062a.14.14 0 0 0-.13-.13Zm3.633 0h-.651a.14.14 0 0 0-.13.13v2.443a.035.035 0 0 1-.008.02.035.035 0 0 1-.019.012.035.035 0 0 1-.039-.016l-.895-2.475a.149.149 0 0 0-.163-.114h-.782a.14.14 0 0 0-.13.13v4.3a.14.14 0 0 0 .13.13h.652a.14.14 0 0 0 .13-.13v-2.248a.035.035 0 0 1 .026-.033.034.034 0 0 1 .022.002.035.035 0 0 1 .017.015l.88 2.28a.173.173 0 0 0 .178.114h.766a.14.14 0 0 0 .13-.13v-4.3a.115.115 0 0 0-.114-.13Zm3.371 3.648h-1.547a.07.07 0 0 1-.065-.066v-.781a.07.07 0 0 1 .065-.065h1.466a.14.14 0 0 0 .13-.13V17a.14.14 0 0 0-.13-.13h-1.466a.07.07 0 0 1-.065-.065v-.782a.07.07 0 0 1 .065-.065h1.515a.14.14 0 0 0 .13-.13v-.652a.14.14 0 0 0-.13-.13h-2.362a.14.14 0 0 0-.13.13v4.3a.14.14 0 0 0 .13.13h2.394a.14.14 0 0 0 .13-.13v-.652a.14.14 0 0 0-.13-.13Zm11.293-8.561h-9.601a.396.396 0 0 0-.372.246.393.393 0 0 0-.028.154V12.8H3.065a.393.393 0 0 0-.4.4v8.267a.393.393 0 0 0 .4.4h16.269a.393.393 0 0 0 .4-.4V19.2h9.2a.392.392 0 0 0 .401-.4v-8.267a.393.393 0 0 0-.4-.4ZM18.934 21a.082.082 0 0 1-.004.026.061.061 0 0 1-.037.036.063.063 0 0 1-.026.004H3.532A.063.063 0 0 1 3.465 21v-7.335a.063.063 0 0 1 .04-.062.063.063 0 0 1 .027-.004h15.402V21Zm4.653-4.154a.142.142 0 0 1-.133.132h-2.18a.142.142 0 0 1-.132-.132v-.628a.142.142 0 0 1 .132-.132h.562a.071.071 0 0 0 .066-.066v-2.709a.07.07 0 0 0-.066-.066h-.496a.142.142 0 0 1-.132-.132v-.628a.143.143 0 0 1 .132-.132h2.048a.142.142 0 0 1 .132.132v.628a.142.142 0 0 1-.132.132h-.495a.071.071 0 0 0-.066.066v2.709a.07.07 0 0 0 .066.066h.561a.142.142 0 0 1 .132.132v.628Zm3.7 0a.142.142 0 0 1-.133.132h-.776a.176.176 0 0 1-.181-.116l-.892-2.312a.036.036 0 0 0-.04-.017.035.035 0 0 0-.027.033v2.28a.142.142 0 0 1-.132.132h-.66a.142.142 0 0 1-.133-.132v-4.36a.143.143 0 0 1 .133-.133h.776a.152.152 0 0 1 .165.116l.909 2.51a.036.036 0 0 0 .039.017.035.035 0 0 0 .027-.033v-2.478a.142.142 0 0 1 .132-.132h.66a.142.142 0 0 1 .133.132v4.36Z"/></g></g></g></svg>