<svg xmlns="http://www.w3.org/2000/svg" fill="none" viewBox="0 0 32 32"><defs><radialGradient id="tunestr__b" cx="0" cy="0" r="1" gradientTransform="translate(32.045 -.018) scale(45.1428)" gradientUnits="userSpaceOnUse"><stop stop-color="#221D60"/><stop offset="1" stop-color="#000026"/></radialGradient><radialGradient id="tunestr__f" cx="0" cy="0" r="1" gradientTransform="matrix(25.9707 0 0 25.9708 25.785 4.375)" gradientUnits="userSpaceOnUse"><stop stop-color="#FBA42D"/><stop offset=".5" stop-color="#FE7127"/><stop offset="1" stop-color="#DB116B"/></radialGradient><radialGradient id="tunestr__h" cx="0" cy="0" r="1" gradientTransform="translate(12.053 20.38) scale(3.11173)" gradientUnits="userSpaceOnUse"><stop stop-color="#F5CBB6"/><stop offset="1" stop-color="#F5CBB6" stop-opacity="0"/></radialGradient><radialGradient id="tunestr__i" cx="0" cy="0" r="1" gradientTransform="translate(25.933 3.818) scale(23.0806)" gradientUnits="userSpaceOnUse"><stop stop-color="#FBA32D"/><stop offset=".174" stop-color="#F5CCBA"/><stop offset=".348" stop-color="#F8BE66"/><stop offset=".572" stop-color="#F4AF50"/><stop offset=".824" stop-color="#F5CCBA"/><stop offset=".911" stop-color="#FD6342"/><stop offset="1" stop-color="#E62E56"/></radialGradient><linearGradient id="tunestr__e" x1="22.115" x2="11.201" y1="7.445" y2="26.348" gradientUnits="userSpaceOnUse"><stop stop-color="#D85DFE"/><stop offset=".512" stop-color="#9D36DF"/><stop offset="1" stop-color="#6510C2"/></linearGradient><linearGradient id="tunestr__g" x1="21.073" x2="12.916" y1="12.602" y2="26.732" gradientUnits="userSpaceOnUse"><stop stop-color="#FAA34E"/><stop offset=".7" stop-color="#FD7C28"/><stop offset="1" stop-color="#DB156A"/></linearGradient><filter id="tunestr__c" width="30" height="30.038" x=".5" y="1.462" color-interpolation-filters="sRGB" filterUnits="userSpaceOnUse"><feFlood flood-opacity="0" result="BackgroundImageFix"/><feColorMatrix in="SourceAlpha" result="hardAlpha" values="0 0 0 0 0 0 0 0 0 0 0 0 0 0 0 0 0 0 127 0"/><feOffset dx="-.5" dy=".5"/><feGaussianBlur stdDeviation="1.5"/><feColorMatrix values="0 0 0 0 0 0 0 0 0 0 0 0 0 0 0 0 0 0 0.75 0"/><feBlend in2="BackgroundImageFix" mode="multiply" result="effect1_dropShadow_697_2529"/><feBlend in="SourceGraphic" in2="effect1_dropShadow_697_2529" result="shape"/></filter><filter id="tunestr__d" width="21.512" height="15.658" x="5.387" y="10.781" color-interpolation-filters="sRGB" filterUnits="userSpaceOnUse"><feFlood flood-opacity="0" result="BackgroundImageFix"/><feBlend in="SourceGraphic" in2="BackgroundImageFix" result="shape"/><feColorMatrix in="SourceAlpha" result="hardAlpha" values="0 0 0 0 0 0 0 0 0 0 0 0 0 0 0 0 0 0 127 0"/><feOffset dx="-.015" dy=".075"/><feComposite in2="hardAlpha" k2="-1" k3="1" operator="arithmetic"/><feColorMatrix values="0 0 0 0 1 0 0 0 0 1 0 0 0 0 1 0 0 0 0.5 0"/><feBlend in2="shape" mode="screen" result="effect1_innerShadow_697_2529"/></filter></defs><mask id="tunestr__a" width="32" height="32" x="0" y="0" maskUnits="userSpaceOnUse" style="mask-type:alpha"><path fill="#000" d="M16 0c12.357 0 16 3.643 16 16s-3.643 16-16 16S0 28.357 0 16 3.643 0 16 0Z"/></mask><g mask="url(#tunestr__a)"><path fill="url(#tunestr__b)" d="M0 0h32v32H0z"/><g filter="url(#tunestr__c)"><g filter="url(#tunestr__d)"><path fill="url(#tunestr__e)" d="M10.05 24.822c-.539-1.507-.255-2.935.71-4.18.083-.107.003-.259-.13-.239-1.525.227-2.823.748-3.778 1.216a.146.146 0 0 0-.06.205c.961 1.645 2.39 2.685 3.035 3.159.171.133.28.029.223-.161Zm4.005-9.619v-1.871a.1.1 0 0 0-.113-.1c-3.07.417-4.414.607-4.414.607-2.383.357-3.71 1.576-4.127 2.921a.1.1 0 0 0 .136.121c1.805-.82 4.62-1.658 8.417-1.577a.101.101 0 0 0 .103-.1h-.002Zm-.142 1.278c-4.187-.089-6.716.828-8.408 1.735a.225.225 0 0 0-.114.244 9.06 9.06 0 0 0 .62 1.916.18.18 0 0 0 .243.09c1.675-.818 4.075-1.5 7.657-1.533.08 0 .144-.065.144-.145v-2.161a.145.145 0 0 0-.142-.146Zm10.53 6.422c.677-.826 1.235-1.721 1.588-2.61a.12.12 0 0 0-.14-.161c-1.497.339-3.503.537-5.865.382a.12.12 0 0 0-.128.12v2.07c0 .128 0 .251-.004.37 0 .065.048.12.112.125 1.533.104 2.903.066 4.032-.072.16-.02.304-.1.407-.224h-.002Zm-4.647 1.577c-.24.943-.53 1.363-.846 1.769-.089.116-.035.236.152.173 1.19-.35 2.216-.736 3.552-1.781a.122.122 0 0 0-.078-.218 25.79 25.79 0 0 1-2.651-.049c-.064-.004-.113.043-.129.105v.001Zm6.816-5.966c.16-.745.271-1.427.286-2.145a.12.12 0 0 0-.153-.117c-1.603.48-3.928.795-6.719.637a.121.121 0 0 0-.128.121v2.2c0 .064.049.117.113.122 2.663.182 4.841-.146 6.377-.578a.321.321 0 0 0 .225-.24h-.001Zm.224-3.816c-.145-1.457-.767-3.087-1.236-3.854a.132.132 0 0 0-.2-.029c-.546.476-1.717 1.17-4.051 1.49l-1.352.184a.115.115 0 0 0-.1.113v2.987c0 .062.048.112.11.115 2.844.17 5.127-.277 6.681-.781a.214.214 0 0 0 .148-.227v.002Z"/></g><path fill="url(#tunestr__f)" d="M25.807 4.087c0-.127-.167-.173-.233-.063-.792 1.312-2.24 1.943-3.507 2.144 0 0-9.568 1.37-11.47 1.63-1.983.27-5.138 2.307-5.138 5.245l-.019 1.12c-.001.091.114.134.172.065.377-.444 1.413-1.368 3.692-1.63l5.822-.827a.259.259 0 0 1 .296.256v7.534a.206.206 0 0 1-.227.206 3.745 3.745 0 0 0-4.153 3.813 3.76 3.76 0 0 0 3.655 3.655 3.746 3.746 0 0 0 3.836-3.744v-11.99c0-.122.09-.226.212-.243l2.726-.386c2.977-.42 4.354-1.933 4.32-4.9 0 0 .02-.921.019-1.884l-.003-.001Z"/><path fill="url(#tunestr__g)" d="M18.382 11.31a.246.246 0 0 0-.212.243v11.938a3.36 3.36 0 0 1-.99 2.392 3.362 3.362 0 0 1-2.393.99h-.081a3.365 3.365 0 0 1-2.307-.994 3.365 3.365 0 0 1-.994-2.307c0-.95.36-1.818.963-2.447a3.354 3.354 0 0 1 2.418-1.017h.02c.131 0 .261.008.39.023a.206.206 0 0 0 .226-.206v-.363a.206.206 0 0 1-.227.205 3.745 3.745 0 0 0-4.153 3.813 3.76 3.76 0 0 0 3.655 3.656 3.746 3.746 0 0 0 3.836-3.745V11.502c0-.123.09-.227.212-.244l-.363.052Z"/><path fill="url(#tunestr__h)" d="M18.382 11.31a.246.246 0 0 0-.212.243v11.938a3.36 3.36 0 0 1-.99 2.392 3.362 3.362 0 0 1-2.393.99h-.081a3.365 3.365 0 0 1-2.307-.994 3.365 3.365 0 0 1-.994-2.307c0-.95.36-1.818.963-2.447a3.354 3.354 0 0 1 2.418-1.017h.02c.131 0 .261.008.39.023a.206.206 0 0 0 .226-.206v-.363a.206.206 0 0 1-.227.205 3.745 3.745 0 0 0-4.153 3.813 3.76 3.76 0 0 0 3.655 3.656 3.746 3.746 0 0 0 3.836-3.745V11.502c0-.123.09-.227.212-.244l-.363.052Z"/><path fill="url(#tunestr__i)" d="M5.702 13.313c0-2.938 3.155-4.974 5.139-5.246 1.902-.259 11.47-1.629 11.47-1.629 1.262-.2 2.705-.828 3.499-2.133V4.09l-.003-.002c0-.127-.167-.173-.233-.063-.792 1.312-2.24 1.943-3.507 2.144 0 0-9.568 1.37-11.47 1.63-1.983.27-5.138 2.307-5.138 5.245l-.019 1.12c-.001.091.114.134.172.065a2.84 2.84 0 0 1 .076-.086l.014-.829Z"/></g></g></svg>