<svg xmlns="http://www.w3.org/2000/svg" width="32" height="32" fill="none" viewBox="0 0 32 32"><mask id="a" width="32" height="32" x="0" y="0" maskUnits="userSpaceOnUse" style="mask-type:alpha"><path fill="#000" d="M16 0c12.357 0 16 3.643 16 16s-3.643 16-16 16S0 28.357 0 16 3.643 0 16 0Z"/></mask><g mask="url(#a)"><path fill="#1C1F3E" d="M0 0h32v32H0z"/><path fill="#00D9CD" d="M7.197 14.643v.65a.14.14 0 0 1-.13.131h-.815a.07.07 0 0 0-.065.065v3.452a.14.14 0 0 1-.13.13h-.651a.14.14 0 0 1-.13-.13V15.49a.07.07 0 0 0-.066-.065h-.814a.14.14 0 0 1-.13-.13v-.652a.14.14 0 0 1 .13-.13h2.67a.14.14 0 0 1 .13.13Zm3.441-.13h-.651a.14.14 0 0 0-.13.13v3.06c0 .294-.229.522-.636.522-.39 0-.618-.228-.618-.521v-3.062a.14.14 0 0 0-.13-.13H7.82a.14.14 0 0 0-.13.13v3.062a1.47 1.47 0 0 0 1.53 1.433 1.472 1.472 0 0 0 1.547-1.433v-3.062a.14.14 0 0 0-.13-.13Zm3.634 0h-.652a.14.14 0 0 0-.13.13v2.442a.035.035 0 0 1-.065.016l-.896-2.475a.149.149 0 0 0-.163-.114h-.781a.14.14 0 0 0-.13.13v4.3a.14.14 0 0 0 .13.13h.65a.14.14 0 0 0 .131-.13v-2.248a.035.035 0 0 1 .049-.03.035.035 0 0 1 .016.014l.88 2.28a.173.173 0 0 0 .179.114h.765a.14.14 0 0 0 .13-.13v-4.3a.117.117 0 0 0-.027-.09.116.116 0 0 0-.087-.04Zm3.37 3.647h-1.547a.07.07 0 0 1-.065-.066v-.781a.07.07 0 0 1 .065-.065h1.466a.14.14 0 0 0 .13-.13v-.652a.14.14 0 0 0-.13-.13h-1.466a.07.07 0 0 1-.065-.065v-.782a.07.07 0 0 1 .065-.065h1.514a.14.14 0 0 0 .13-.13v-.652a.14.14 0 0 0-.13-.13h-2.36a.14.14 0 0 0-.131.13v4.3a.14.14 0 0 0 .13.13h2.394a.14.14 0 0 0 .13-.13v-.652a.14.14 0 0 0-.13-.13ZM28.933 9.6h-9.6a.393.393 0 0 0-.4.4v2.266H3.067a.395.395 0 0 0-.4.4v8.267a.393.393 0 0 0 .4.4h16.266a.392.392 0 0 0 .4-.4v-2.267h9.2a.393.393 0 0 0 .4-.4V10a.395.395 0 0 0-.4-.4Zm-10 10.866c0 .01 0 .018-.004.026a.064.064 0 0 1-.036.037.063.063 0 0 1-.026.004H3.533a.063.063 0 0 1-.066-.067v-7.333a.063.063 0 0 1 .066-.067h15.4v7.4Zm4.653-4.153a.143.143 0 0 1-.132.132h-2.18a.142.142 0 0 1-.133-.132v-.628a.142.142 0 0 1 .132-.132h.562a.07.07 0 0 0 .066-.066V12.78a.071.071 0 0 0-.066-.066h-.496a.142.142 0 0 1-.132-.132v-.628a.142.142 0 0 1 .132-.132h2.048a.142.142 0 0 1 .133.132v.628a.142.142 0 0 1-.133.132h-.495a.07.07 0 0 0-.066.066v2.708a.071.071 0 0 0 .066.066h.561a.142.142 0 0 1 .133.132v.628Zm3.7 0a.142.142 0 0 1-.133.132h-.776a.175.175 0 0 1-.182-.116l-.892-2.312a.036.036 0 0 0-.039-.016.035.035 0 0 0-.019.012.035.035 0 0 0-.008.02v2.28a.143.143 0 0 1-.132.132h-.66a.142.142 0 0 1-.133-.132v-4.36a.142.142 0 0 1 .133-.132h.776a.151.151 0 0 1 .165.116l.908 2.51a.036.036 0 0 0 .04.016.036.036 0 0 0 .026-.033v-2.477a.142.142 0 0 1 .133-.132h.66a.142.142 0 0 1 .132.132v4.36Z"/></g></svg>