<svg xmlns="http://www.w3.org/2000/svg" fill="none" viewBox="0 0 32 32"><defs><radialGradient id="tunestr__c" cx="0" cy="0" r="1" gradientTransform="translate(32.045 -.018) scale(45.1428)" gradientUnits="userSpaceOnUse"><stop stop-color="#221D60"/><stop offset="1" stop-color="#000026"/></radialGradient><radialGradient id="tunestr__g" cx="0" cy="0" r="1" gradientTransform="translate(26.1 4.426) scale(26.8085)" gradientUnits="userSpaceOnUse"><stop stop-color="#FBA42D"/><stop offset=".5" stop-color="#FE7127"/><stop offset="1" stop-color="#DB116B"/></radialGradient><radialGradient id="tunestr__i" cx="0" cy="0" r="1" gradientTransform="translate(15.4 20.177) scale(4.67194)" gradientUnits="userSpaceOnUse"><stop stop-color="#F8BE66"/><stop offset=".528" stop-color="#FE7127"/><stop offset="1" stop-color="#DB116B"/></radialGradient><radialGradient id="tunestr__j" cx="0" cy="0" r="1" gradientTransform="translate(23.568 4.65) scale(26.1879)" gradientUnits="userSpaceOnUse"><stop stop-color="#F8BE66"/><stop offset=".528" stop-color="#FE7127"/><stop offset="1" stop-color="#DB116B"/></radialGradient><radialGradient id="tunestr__k" cx="0" cy="0" r="1" gradientTransform="translate(28.09 3.723) scale(32.6617)" gradientUnits="userSpaceOnUse"><stop stop-color="#F8BE66"/><stop offset=".242" stop-color="#FE7127"/><stop offset=".661" stop-color="#F5CCBA"/><stop offset="1" stop-color="#DB116B"/></radialGradient><clipPath id="tunestr__a"><path fill="#fff" d="M0 0h32v32H0z"/></clipPath><clipPath id="tunestr__d"><path fill="#fff" d="M4 4h24v24H4z"/></clipPath><linearGradient id="tunestr__f" x1="22.312" x2="11.047" y1="7.596" y2="27.108" gradientUnits="userSpaceOnUse"><stop stop-color="#D85DFE"/><stop offset=".512" stop-color="#9D36DF"/><stop offset="1" stop-color="#6510C2"/></linearGradient><filter id="tunestr__e" width="28" height="28" x="1" y="3" color-interpolation-filters="sRGB" filterUnits="userSpaceOnUse"><feFlood flood-opacity="0" result="BackgroundImageFix"/><feColorMatrix in="SourceAlpha" result="hardAlpha" values="0 0 0 0 0 0 0 0 0 0 0 0 0 0 0 0 0 0 127 0"/><feOffset dx="-1" dy="1"/><feGaussianBlur stdDeviation="1"/><feColorMatrix values="0 0 0 0 0 0 0 0 0 0 0 0 0 0 0 0 0 0 0.75 0"/><feBlend in2="BackgroundImageFix" result="effect1_dropShadow_697_2529"/><feBlend in="SourceGraphic" in2="effect1_dropShadow_697_2529" result="shape"/></filter></defs><g clip-path="url(#tunestr__a)"><mask id="tunestr__b" width="32" height="32" x="0" y="0" maskUnits="userSpaceOnUse" style="mask-type:alpha"><path fill="#000" d="M16 0c12.357 0 16 3.643 16 16s-3.643 16-16 16S0 28.357 0 16 3.643 0 16 0Z"/></mask><g mask="url(#tunestr__b)"><path fill="#1C1F3E" d="M0 0h32v32H0z"/><path fill="url(#tunestr__c)" d="M32 0H0v32h32V0Z"/><g clip-path="url(#tunestr__d)" filter="url(#tunestr__e)"><path fill="#000" d="M9.859 25.532c-.557-1.555-.265-3.03.732-4.314.086-.11.003-.267-.134-.247-1.575.235-2.915.773-3.9 1.255a.15.15 0 0 0-.062.212c.992 1.698 2.467 2.772 3.133 3.26.177.138.29.03.23-.166Zm4.133-9.928v-1.932a.104.104 0 0 0-.117-.103c-3.168.43-4.556.626-4.556.626-2.46.37-3.83 1.627-4.26 3.016a.103.103 0 0 0 .14.125c1.864-.846 4.77-1.712 8.689-1.628a.104.104 0 0 0 .106-.103l-.002-.002Zm-.147 1.319c-4.322-.092-6.932.854-8.679 1.79a.233.233 0 0 0-.117.252c.15.747.369 1.36.64 1.978.042.096.156.14.25.093 1.73-.845 4.207-1.549 7.905-1.582a.15.15 0 0 0 .148-.15v-2.23a.15.15 0 0 0-.147-.151Zm10.87 6.629c.7-.853 1.276-1.777 1.64-2.694a.124.124 0 0 0-.145-.167c-1.545.35-3.616.554-6.054.394a.124.124 0 0 0-.133.125v2.136c0 .133 0 .26-.003.383 0 .066.049.123.116.128 1.582.108 2.996.068 4.162-.074a.647.647 0 0 0 .42-.231h-.003ZM19.92 25.18c-.249.973-.548 1.406-.874 1.825-.091.12-.036.244.157.18 1.228-.362 2.288-.76 3.667-1.84.097-.074.041-.229-.08-.224a26.78 26.78 0 0 1-2.738-.05c-.066-.005-.116.044-.132.107v.002Zm7.035-6.16c.166-.768.28-1.472.296-2.212a.124.124 0 0 0-.158-.122c-1.655.496-4.055.82-6.936.658a.125.125 0 0 0-.133.125v2.272c0 .064.05.12.117.125 2.75.188 4.998-.15 6.583-.597a.331.331 0 0 0 .233-.248h-.002Zm.231-3.938c-.149-1.503-.791-3.187-1.275-3.978a.136.136 0 0 0-.207-.03c-.564.49-1.772 1.207-4.182 1.538l-1.395.19a.12.12 0 0 0-.103.117v3.083c0 .064.05.116.113.119 2.936.176 5.293-.286 6.897-.807a.22.22 0 0 0 .152-.234v.002ZM26.123 4.129c0-.131-.172-.179-.24-.065-.818 1.354-2.313 2.006-3.62 2.213 0 0-9.876 1.415-11.84 1.682-2.047.28-5.304 2.383-5.304 5.415l-.02 1.155c0 .095.118.14.178.068.39-.458 1.459-1.412 3.811-1.681l6.01-.855a.267.267 0 0 1 .306.264v7.778c0 .126-.11.224-.235.212a3.866 3.866 0 0 0-4.287 3.936 3.882 3.882 0 0 0 3.773 3.773c2.179.05 3.96-1.7 3.96-3.865V11.783c0-.127.093-.234.218-.252l2.815-.398c3.072-.434 4.494-1.995 4.46-5.058 0 0 .02-.95.019-1.944l-.004-.002Z"/><path fill="url(#tunestr__f)" d="M9.859 25.532c-.557-1.555-.265-3.03.732-4.314.086-.11.003-.267-.134-.247-1.575.235-2.915.773-3.9 1.255a.15.15 0 0 0-.062.212c.992 1.698 2.467 2.772 3.133 3.26.177.138.29.03.23-.166Zm4.133-9.928v-1.932a.104.104 0 0 0-.117-.103c-3.168.43-4.556.627-4.556.627-2.46.368-3.83 1.626-4.26 3.015a.103.103 0 0 0 .14.125c1.864-.846 4.77-1.712 8.689-1.628a.104.104 0 0 0 .106-.103l-.002-.001Zm-.147 1.32c-4.322-.093-6.932.853-8.679 1.79a.233.233 0 0 0-.117.252c.15.746.369 1.36.64 1.977.042.096.156.14.25.093 1.73-.845 4.207-1.549 7.905-1.582a.15.15 0 0 0 .148-.15v-2.23a.15.15 0 0 0-.147-.15Zm10.87 6.628c.7-.853 1.276-1.777 1.64-2.694a.124.124 0 0 0-.145-.166c-1.545.35-3.616.553-6.054.393a.124.124 0 0 0-.133.125v2.136c0 .133 0 .26-.003.383 0 .066.049.123.116.128 1.582.108 2.996.068 4.162-.074a.647.647 0 0 0 .42-.231h-.003ZM19.92 25.18c-.249.973-.548 1.406-.874 1.825-.091.12-.036.244.157.18 1.228-.362 2.288-.76 3.667-1.84.097-.073.041-.229-.08-.224a26.63 26.63 0 0 1-2.738-.05c-.066-.005-.116.044-.132.107v.002Zm7.035-6.16c.166-.768.28-1.472.296-2.212a.124.124 0 0 0-.158-.122c-1.655.497-4.055.82-6.936.658a.125.125 0 0 0-.133.125v2.272c0 .065.05.12.117.125 2.75.188 4.998-.15 6.583-.597a.331.331 0 0 0 .233-.248h-.002Zm.231-3.938c-.149-1.503-.791-3.187-1.275-3.978a.136.136 0 0 0-.207-.03c-.564.49-1.772 1.207-4.182 1.538l-1.395.19a.12.12 0 0 0-.103.117v3.083c0 .064.05.116.113.119 2.936.176 5.293-.286 6.897-.807a.22.22 0 0 0 .152-.234v.002Z"/><path fill="#fff" d="m20.1 12.867 1.394-.19c2.41-.33 3.619-1.047 4.182-1.538a.136.136 0 0 1 .207.03c.484.791 1.126 2.475 1.275 3.978v-.002a.23.23 0 0 1-.005.074.222.222 0 0 0 .032-.139v.002c-.149-1.503-.791-3.187-1.275-3.978a.136.136 0 0 0-.207-.03c-.563.49-1.772 1.207-4.182 1.538l-1.395.19a.119.119 0 0 0-.102.107.119.119 0 0 1 .075-.042Zm-9.643 8.105c-1.574.234-2.914.772-3.9 1.254a.148.148 0 0 0-.08.11.148.148 0 0 1 .053-.045c.986-.482 2.326-1.02 3.9-1.255.109-.016.183.08.167.174.075-.11-.006-.259-.14-.238Zm16.793-4.164a.124.124 0 0 0-.158-.122c-1.655.497-4.055.82-6.936.658a.125.125 0 0 0-.131.111.124.124 0 0 1 .104-.046c2.881.163 5.281-.162 6.936-.658.08-.024.16.038.158.121-.016.74-.13 1.445-.296 2.214h.002l-.007.024a.339.339 0 0 0 .034-.09h-.002c.166-.768.28-1.472.296-2.212Zm-4.462 8.313a26.74 26.74 0 0 1-2.736-.05c-.067-.005-.117.044-.133.107v.002l-.003.01a.12.12 0 0 1 .109-.054c.958.066 1.928.08 2.737.05a.125.125 0 0 1 .129.138c.064-.079.009-.207-.102-.203Zm3.422-4.429c-1.545.35-3.616.553-6.054.393a.124.124 0 0 0-.131.111.123.123 0 0 1 .104-.046c2.438.16 4.509-.044 6.055-.394a.124.124 0 0 1 .143.167l-.047.115c.026-.06.05-.12.074-.18a.124.124 0 0 0-.143-.166Zm-12.218-7.02a.104.104 0 0 0-.117-.103c-3.168.43-4.556.627-4.556.627-2.314.347-3.664 1.48-4.174 2.77.53-1.263 1.872-2.364 4.147-2.705 0 0 1.388-.196 4.556-.627a.104.104 0 0 1 .118.103v1.932l.001.001v.004a.1.1 0 0 0 .027-.069l-.002-.001v-1.932Zm-.147 3.251c-4.322-.092-6.932.855-8.679 1.791a.232.232 0 0 0-.114.15.232.232 0 0 1 .087-.085c1.747-.937 4.357-1.883 8.68-1.79a.15.15 0 0 1 .147.15v2.23l-.003.024a.15.15 0 0 0 .03-.089v-2.23a.15.15 0 0 0-.148-.15Z" opacity=".5" style="mix-blend-mode:screen"/><path fill="url(#tunestr__g)" d="M26.123 4.13a.129.129 0 0 0-.24-.066c-.818 1.354-2.313 2.006-3.62 2.213 0 0-9.876 1.415-11.84 1.682-2.047.28-5.304 2.383-5.304 5.415l-.02 1.155c0 .095.118.14.178.068.39-.458 1.459-1.412 3.811-1.681l6.01-.855a.267.267 0 0 1 .305.264v7.778a.213.213 0 0 1-.234.212 3.866 3.866 0 0 0-4.287 3.936 3.882 3.882 0 0 0 3.773 3.773c2.179.05 3.96-1.7 3.96-3.865V11.783c0-.127.093-.234.218-.252l2.815-.398c3.072-.434 4.494-1.995 4.46-5.058 0 0 .02-.95.019-1.944l-.004-.002Z"/><mask id="tunestr__h" width="22" height="25" x="5" y="4" maskUnits="userSpaceOnUse" style="mask-type:luminance"><path fill="#fff" d="M26.123 4.13a.129.129 0 0 0-.24-.066c-.818 1.354-2.313 2.006-3.62 2.213 0 0-9.876 1.415-11.84 1.682-2.047.28-5.304 2.383-5.304 5.415l-.02 1.155c0 .095.118.14.178.068.39-.458 1.459-1.412 3.811-1.681l6.01-.855a.267.267 0 0 1 .305.264v7.778a.213.213 0 0 1-.234.212 3.866 3.866 0 0 0-4.287 3.936 3.882 3.882 0 0 0 3.773 3.773c2.179.05 3.96-1.7 3.96-3.865V11.783c0-.127.093-.234.218-.252l2.815-.398c3.072-.434 4.494-1.995 4.46-5.058 0 0 .02-.95.019-1.944l-.004-.002Z"/></mask><g mask="url(#tunestr__h)"><path fill="url(#tunestr__i)" d="M11.929 21.801a3.65 3.65 0 0 1 3.034-1.086.4.4 0 0 0 .443-.398c0-.214-.003-.214-.003-.214a.213.213 0 0 1-.234.212 3.866 3.866 0 0 0-4.287 3.936l.002.039a3.647 3.647 0 0 1 1.045-2.489Z" style="mix-blend-mode:screen"/><path fill="url(#tunestr__j)" d="M18.621 11.56a.443.443 0 0 0-.38.436v12.377a3.65 3.65 0 0 1-1.077 2.6 3.652 3.652 0 0 1-2.002 1.029 3.866 3.866 0 0 0 3.453-3.843V11.783c0-.127.093-.234.218-.252l-.212.028Z" style="mix-blend-mode:screen"/><path fill="url(#tunestr__k)" d="M5.37 13.653c0-3.033 3.257-5.135 5.304-5.415 1.963-.267 11.84-1.682 11.84-1.682 1.303-.206 2.793-.855 3.613-2.201V4.13l-.004-.002c0-.131-.172-.179-.24-.065-.818 1.354-2.313 2.006-3.62 2.213 0 0-9.876 1.415-11.84 1.682-2.047.28-5.304 2.383-5.304 5.415l-.02 1.155c0 .095.118.14.178.068a3.05 3.05 0 0 1 .079-.089l.014-.855Z" style="mix-blend-mode:screen"/></g></g></g></g></svg>