<svg xmlns="http://www.w3.org/2000/svg" fill="none" viewBox="0 0 32 32"><defs><radialGradient id="tunestr__c" cx="0" cy="0" r="1" gradientTransform="translate(32.045 -.018) scale(45.1428)" gradientUnits="userSpaceOnUse"><stop stop-color="#221D60"/><stop offset="1" stop-color="#000026"/></radialGradient><radialGradient id="tunestr__f" cx="0" cy="0" r="1" gradientTransform="translate(26.1 4) scale(26.8085)" gradientUnits="userSpaceOnUse"><stop stop-color="#FBA42D"/><stop offset=".5" stop-color="#FE7127"/><stop offset="1" stop-color="#DB116B"/></radialGradient><radialGradient id="tunestr__h" cx="0" cy="0" r="1" gradientTransform="translate(11.926 20.522) scale(3.21211)" gradientUnits="userSpaceOnUse"><stop stop-color="#F5CBB6"/><stop offset="1" stop-color="#F5CBB6" stop-opacity="0"/></radialGradient><radialGradient id="tunestr__i" cx="0" cy="0" r="1" gradientTransform="translate(26.253 3.425) scale(23.8252)" gradientUnits="userSpaceOnUse"><stop stop-color="#FBA32D"/><stop offset=".174" stop-color="#F5CCBA"/><stop offset=".348" stop-color="#F8BE66"/><stop offset=".572" stop-color="#F4AF50"/><stop offset=".824" stop-color="#F5CCBA"/><stop offset=".911" stop-color="#FD6342"/><stop offset="1" stop-color="#E62E56"/></radialGradient><linearGradient id="tunestr__e" x1="22.312" x2="11.047" y1="7.169" y2="26.682" gradientUnits="userSpaceOnUse"><stop stop-color="#D85DFE"/><stop offset=".512" stop-color="#9D36DF"/><stop offset="1" stop-color="#6510C2"/></linearGradient><linearGradient id="tunestr__g" x1="21.237" x2="12.816" y1="12.493" y2="27.078" gradientUnits="userSpaceOnUse"><stop stop-color="#FAA34E"/><stop offset=".7" stop-color="#FD7C28"/><stop offset="1" stop-color="#DB156A"/></linearGradient><clipPath id="tunestr__a"><path fill="#fff" d="M0 0h32v32H0z"/></clipPath><filter id="tunestr__d" width="30" height="30.426" x=".5" y="1.074" color-interpolation-filters="sRGB" filterUnits="userSpaceOnUse"><feFlood flood-opacity="0" result="BackgroundImageFix"/><feColorMatrix in="SourceAlpha" result="hardAlpha" values="0 0 0 0 0 0 0 0 0 0 0 0 0 0 0 0 0 0 127 0"/><feOffset dx="-.5" dy=".5"/><feGaussianBlur stdDeviation="1.5"/><feColorMatrix values="0 0 0 0 0 0 0 0 0 0 0 0 0 0 0 0 0 0 0.75 0"/><feBlend in2="BackgroundImageFix" mode="multiply" result="effect1_dropShadow_697_2529"/><feBlend in="SourceGraphic" in2="effect1_dropShadow_697_2529" result="shape"/></filter></defs><g clip-path="url(#tunestr__a)"><mask id="tunestr__b" width="32" height="32" x="0" y="0" maskUnits="userSpaceOnUse" style="mask-type:alpha"><path fill="#000" d="M16 0c12.357 0 16 3.643 16 16s-3.643 16-16 16S0 28.357 0 16 3.643 0 16 0Z"/></mask><g mask="url(#tunestr__b)"><path fill="#1C1F3E" d="M0 0h32v32H0z"/><path fill="url(#tunestr__c)" d="M32 0H0v32h32V0Z"/><g filter="url(#tunestr__d)"><path fill="url(#tunestr__e)" d="M9.859 25.106c-.557-1.555-.265-3.03.732-4.314.086-.11.003-.267-.134-.247-1.575.234-2.915.772-3.9 1.255a.15.15 0 0 0-.062.212c.992 1.697 2.467 2.771 3.133 3.26.177.138.29.03.23-.166Zm4.133-9.929v-1.931a.104.104 0 0 0-.117-.103c-3.168.43-4.556.626-4.556.626-2.46.369-3.83 1.627-4.26 3.016a.103.103 0 0 0 .14.125c1.864-.847 4.77-1.712 8.689-1.628a.104.104 0 0 0 .106-.103l-.002-.002Zm-.147 1.32c-4.322-.092-6.932.854-8.679 1.79a.232.232 0 0 0-.117.252c.15.747.369 1.36.64 1.978a.185.185 0 0 0 .25.093c1.73-.845 4.207-1.549 7.905-1.582a.15.15 0 0 0 .148-.15v-2.23a.15.15 0 0 0-.147-.151Zm10.87 6.628c.7-.852 1.276-1.776 1.64-2.694a.124.124 0 0 0-.145-.166c-1.545.35-3.616.554-6.054.394a.124.124 0 0 0-.133.125v2.136c0 .133 0 .26-.003.383 0 .066.049.123.116.128 1.582.107 2.996.068 4.162-.075a.646.646 0 0 0 .42-.23h-.003Zm-4.796 1.628c-.249.973-.548 1.407-.874 1.826-.091.12-.036.244.157.179 1.228-.36 2.288-.76 3.667-1.838.097-.075.041-.23-.08-.225a26.78 26.78 0 0 1-2.738-.05c-.066-.005-.116.044-.132.107v.002Zm7.035-6.158c.166-.77.28-1.473.296-2.214a.124.124 0 0 0-.158-.122c-1.655.497-4.055.822-6.936.659a.125.125 0 0 0-.133.125v2.271c0 .065.05.12.117.125 2.75.189 4.998-.15 6.583-.596a.331.331 0 0 0 .233-.248h-.002Zm.231-3.94c-.149-1.503-.791-3.186-1.275-3.977a.136.136 0 0 0-.207-.03c-.564.49-1.772 1.207-4.182 1.538l-1.395.19a.12.12 0 0 0-.103.117v3.083c0 .063.05.116.113.119 2.936.175 5.293-.287 6.897-.807a.22.22 0 0 0 .152-.234v.001Z"/><path fill="url(#tunestr__f)" d="M26.123 3.703c0-.131-.172-.179-.24-.065-.818 1.354-2.313 2.006-3.62 2.213 0 0-9.876 1.415-11.84 1.682-2.047.28-5.304 2.382-5.304 5.415l-.02 1.155c0 .095.118.14.178.068.39-.459 1.459-1.413 3.811-1.682l6.01-.854a.267.267 0 0 1 .305.264v7.778a.213.213 0 0 1-.234.212 3.866 3.866 0 0 0-4.287 3.936 3.882 3.882 0 0 0 3.773 3.773c2.179.05 3.96-1.7 3.96-3.865V11.357c0-.127.093-.235.218-.252l2.815-.399c3.072-.433 4.494-1.995 4.46-5.057 0 0 .02-.951.019-1.945l-.004-.001Z"/><path fill="#fff" d="m20.1 12.44 1.394-.19c2.41-.33 3.619-1.047 4.182-1.537a.136.136 0 0 1 .207.03c.484.79 1.126 2.474 1.275 3.977v-.002c.003.026 0 .05-.005.075a.222.222 0 0 0 .032-.14v.002c-.149-1.503-.791-3.186-1.275-3.977a.136.136 0 0 0-.207-.03c-.563.49-1.772 1.207-4.182 1.538l-1.395.19a.119.119 0 0 0-.102.106.118.118 0 0 1 .075-.042Zm-9.643 8.105c-1.575.234-2.915.772-3.9 1.255a.148.148 0 0 0-.08.11.148.148 0 0 1 .053-.045c.986-.483 2.326-1.02 3.9-1.255.109-.016.183.079.166.174.076-.11-.005-.259-.14-.239Zm16.793-4.164a.124.124 0 0 0-.158-.122c-1.655.497-4.055.822-6.936.659a.125.125 0 0 0-.131.111.124.124 0 0 1 .104-.046c2.88.162 5.28-.162 6.936-.659.08-.023.16.038.158.122-.016.74-.13 1.445-.296 2.213h.002l-.008.025a.336.336 0 0 0 .035-.09h-.002c.166-.768.28-1.472.296-2.213Zm-4.462 8.314a26.74 26.74 0 0 1-2.736-.05c-.067-.006-.118.043-.133.107v.001a.422.422 0 0 0-.003.011.12.12 0 0 1 .109-.055c.958.067 1.928.08 2.737.05a.125.125 0 0 1 .129.139c.064-.08.009-.208-.103-.203Zm3.422-4.43c-1.545.35-3.616.554-6.054.394a.124.124 0 0 0-.131.11.123.123 0 0 1 .104-.045c2.438.16 4.509-.044 6.054-.394a.124.124 0 0 1 .144.166l-.047.115c.026-.06.05-.12.074-.18a.124.124 0 0 0-.144-.166Zm-12.218-7.019a.104.104 0 0 0-.117-.103c-3.168.43-4.556.626-4.556.626-2.314.347-3.664 1.48-4.174 2.77.53-1.262 1.872-2.364 4.147-2.705 0 0 1.388-.196 4.556-.626a.104.104 0 0 1 .117.102v1.932l.002.002v.003a.1.1 0 0 0 .027-.068l-.002-.002v-1.931Zm-.147 3.251c-4.322-.092-6.932.854-8.679 1.79a.232.232 0 0 0-.114.15.232.232 0 0 1 .087-.085c1.747-.936 4.357-1.882 8.68-1.79a.15.15 0 0 1 .146.15v2.23c0 .009 0 .016-.002.024a.15.15 0 0 0 .03-.088v-2.231a.15.15 0 0 0-.148-.15Z" opacity=".5" style="mix-blend-mode:screen"/><path fill="url(#tunestr__g)" d="M18.458 11.158a.254.254 0 0 0-.218.252v12.323c0 .933-.363 1.81-1.023 2.469a3.471 3.471 0 0 1-2.47 1.022l-.083-.001a3.474 3.474 0 0 1-2.381-1.026 3.474 3.474 0 0 1-1.026-2.381c0-.982.371-1.877.994-2.526a3.462 3.462 0 0 1 2.496-1.05h.02c.136 0 .27.009.402.024a.213.213 0 0 0 .234-.212v-.375a.213.213 0 0 1-.234.212 3.866 3.866 0 0 0-4.287 3.936 3.882 3.882 0 0 0 3.773 3.773c2.179.05 3.96-1.7 3.96-3.865V11.357c0-.127.093-.234.218-.252l-.375.053Z"/><path fill="url(#tunestr__h)" d="M18.458 11.158a.254.254 0 0 0-.218.252v12.323c0 .933-.363 1.81-1.023 2.469a3.471 3.471 0 0 1-2.47 1.022l-.083-.001a3.474 3.474 0 0 1-2.381-1.026 3.474 3.474 0 0 1-1.026-2.381c0-.982.371-1.877.994-2.526a3.462 3.462 0 0 1 2.496-1.05h.02c.136 0 .27.009.402.024a.213.213 0 0 0 .234-.212v-.375a.213.213 0 0 1-.234.212 3.866 3.866 0 0 0-4.287 3.936 3.882 3.882 0 0 0 3.773 3.773c2.179.05 3.96-1.7 3.96-3.865V11.357c0-.127.093-.234.218-.252l-.375.053Z"/><path fill="url(#tunestr__i)" d="M5.37 13.227c0-3.033 3.257-5.135 5.304-5.415 1.963-.268 11.84-1.682 11.84-1.682 1.303-.207 2.793-.855 3.613-2.202v-.224l-.004-.001c0-.131-.172-.179-.24-.065-.818 1.354-2.313 2.006-3.62 2.213 0 0-9.876 1.415-11.84 1.682-2.047.28-5.304 2.382-5.304 5.415l-.02 1.155c0 .095.118.14.178.068.024-.028.05-.058.079-.089l.014-.855Z"/></g></g></g></svg>