<svg xmlns="http://www.w3.org/2000/svg" viewBox="0 0 32 32"><defs><radialGradient id="wondery__c" cx="0" cy="0" r="1" gradientTransform="translate(16 16.33) scale(14.04)" gradientUnits="userSpaceOnUse"><stop offset=".4" stop-color="#003233" stop-opacity=".95"/><stop offset=".7" stop-color="#003233" stop-opacity=".7"/><stop offset=".8" stop-color="#003233" stop-opacity=".55"/><stop offset=".9" stop-color="#003233" stop-opacity=".25"/><stop offset="1" stop-color="#003233" stop-opacity="0"/></radialGradient><clipPath id="wondery__a"><path fill="#fff" d="M0 0h32v32H0z"/></clipPath></defs><g clip-path="url(#wondery__a)"><mask id="wondery__b" width="32" height="32" x="0" y="0" maskUnits="userSpaceOnUse" style="mask-type:alpha"><path d="M16 0c12.357 0 16 3.643 16 16s-3.643 16-16 16S0 28.357 0 16 3.643 0 16 0Z"/></mask><g mask="url(#wondery__b)"><path fill="#0F3436" d="M0 0h32v32H0z"/><path fill="#009BA1" d="M20.32 13.29c-.1-.85-.47-1.33-1.37-1.41-.53-.05-1.04.11-1.56.12-.49 0-.97-.11-1.47-.11-1.21 0-2.48-.37-3.65.09-.56.22-.97.59-1.42.98-.52.45-1.11.87-1.4 1.52-.53 1.21.43 2.37.71 3.52.3 1.22.34 2.36 1.68 2.88 1.41.55 2.28-.87 3.64-.54 1.11.27 2.55 1.05 3.71.66.59-.2 1.03-.67 1.35-1.18.39-.63.87-1.46 1.06-2.18.14-.55-.01-1.01-.32-1.47-.63-.95-.86-1.75-.96-2.9v.02Zm.08 6.06c-.55.99-1.22 1.5-2.43 1.29-.62-.1-1.26-.26-1.86-.45-.47-.15-.92-.37-1.42-.32-.62.08-1.05.59-1.63.75-1.14.32-2.09-.6-2.35-1.62-.15-.62-.21-1.23-.43-1.83-.27-.72-.79-1.48-.6-2.28.2-.81 1.05-1.38 1.65-1.89.7-.59 1.45-.94 2.39-.89 1.11.06 2.23.18 3.34.24 1.07.06 2.71-.7 2.9.94.06.62.11 1.26.31 1.86.19.56.58.92.84 1.42.45.88-.29 2.01-.72 2.78h.01Zm-.96-5.16c-.06-1.91-1.93-1.17-3.21-1.11-.42.02-.85.16-1.26.15-.6 0-1.1-.25-1.71-.17-.88.12-1.57.68-2.09 1.38-.65.9-.37 1.69-.07 2.66.29.94.37 1.96 1.31 2.5.85.48 1.44.16 2.22-.22.83-.41 1.5-.17 2.26.27.32.19.68.42 1.07.4 1.09-.03 1.78-1.33 2.09-2.21.18-.51.21-.91 0-1.41-.32-.76-.59-1.39-.61-2.24Zm-.55 5c-.73.72-1.28.45-2.02.04-.62-.35-1.37-.59-2.06-.32-.48.19-.87.6-1.42.62-.88.03-1.45-.69-1.68-1.46-.3-1.02-.97-2.39-.32-3.36.38-.57 1-1.11 1.67-1.27l1.68.11c.64.07 1.4-.08 2.04-.12.88-.06 2.27-.78 2.31.77 0 .47.05.95.19 1.41.17.53.52.93.52 1.5.02.71-.42 1.59-.93 2.09l.02-.01Zm-.39-4.24s.02-.03 0-.04c.26-1.1-.66-1.24-1.54-.99-.52.15-1.05.26-1.58.39-.81.19-1.58-.28-2.39-.02-1.51.48-1.17 2.91-.35 3.86.44.51 1.09.75 1.74.52.76-.27 1.29-.98 2.12-.32.25.2.35.57.69.66.56.14 1.2-.66 1.42-1.07.51-.94-.19-2-.12-2.98l.01-.01Zm-.11 2.52c-.08.31-.3.56-.52.78-.22.22-.71.42-1.01.28-.17-.08-.33-.45-.49-.57-.37-.3-.82-.21-1.23-.02-.59.28-1.03.69-1.74.31-.53-.28-.79-.89-.91-1.45-.11-.5-.22-1.32.12-1.75.48-.62 1.17-.59 1.84-.43.54.12.79.02 1.32-.1.36-.09.71-.15 1.06-.25.22-.06.47-.11.7-.14.83-.12.64.91.64.93-.08.81.43 1.63.22 2.41Zm4.36-2.44c-.63-.99-.7-2.29-.91-3.41v-.04c-.4-1.39-1.76-1.39-3.01-1.39-.84 0-1.51-.29-2.33-.47-.85-.18-1.76-.3-2.64-.35-1.93-.11-3.04 1.2-4.51 2.19-1.26.85-2.74 1.76-2.37 3.52.21 1 .93 1.81 1.29 2.76.4 1.04.21 2.12.49 3.17.34 1.25 1.69 2.3 3.01 2.12 1.14-.15 1.8-1.29 3.05-.76.82.35 1.38.78 2.31.71.32-.02.59-.17.91-.23.56-.11 1.01.03 1.56.08.8.07 1.55-.1 2.14-.67.79-.77 1.02-1.87 1.57-2.8.43-.71 1.09-1.27 1.01-2.18-.11-1.04-1.05-1.45-1.56-2.26l-.01.01Zm1.18 2.8c-.18.76-.97 1.5-1.29 2.22-.35.77-.65 1.62-1.36 2.14-.98.72-1.91.16-2.95.26-.74.07-1.27.44-2.07.24-.66-.17-1.18-.69-1.84-.82-.44-.08-.83.04-1.22.24-.99.5-1.79 1-2.9.35-1.71-1.01-1.08-3.09-1.69-4.7-.25-.66-.65-1.23-.95-1.86-.57-1.15-.4-2.29.58-3.15.58-.5 1.29-.83 1.89-1.3.74-.58 1.38-1.2 2.29-1.53 1.56-.57 3.64.05 5.16.48 1.3.37 3.49-.43 3.95 1.31.24 1.24.31 2.7 1.12 3.74.57.73 1.56 1.28 1.3 2.38h-.02Zm-.3-3.42c-.58-1.12-.66-2.47-.93-3.69v-.04c0-.02 0-.03-.02-.04-.6-1.74-2.65-1.27-4.11-1.52-.97-.16-1.87-.7-2.86-.87-.94-.16-1.97-.36-2.91-.18-.93.17-1.73.68-2.46 1.26-.94.74-1.86 1.35-2.87 2-1.59 1.02-2.38 2.52-1.53 4.32.53 1.12 1.29 2.05 1.58 3.27.26 1.11-.04 2.3.38 3.37.61 1.57 2.55 2.54 4.1 1.75.62-.32 1.17-.9 1.96-.74.59.12 1.07.62 1.6.87.7.33 1.5.38 2.23.1.42-.16.68-.41 1.17-.45.27-.02.58.07.85.11.44.06.87.13 1.32.08.79-.08 1.41-.5 1.9-1.12.86-1.11 1.17-2.51 2.03-3.64.53-.69.93-1.42.64-2.31-.35-1.08-1.55-1.55-2.06-2.54l-.01.01Zm.42 5.69c-.42.77-.64 1.65-1.14 2.39-.89 1.32-2.08 1.23-3.49 1.05-.59-.07-.94.03-1.46.28-1.34.64-2.18.01-3.34-.6-1.68-.88-2.67 1.13-4.39.72-1.29-.31-2.14-1.45-2.22-2.73-.06-.91 0-1.78-.26-2.67-.53-1.84-2.76-3.74-1.46-5.69.58-.87 1.56-1.32 2.42-1.85.82-.5 1.49-1.18 2.27-1.73 1.81-1.26 4.11-.98 6.1-.28.7.25 1.2.5 1.94.55 1.18.08 2.88-.13 3.34 1.27.32 1.41.38 3.07 1.27 4.28.57.78 1.61 1.19 1.79 2.24.19 1.16-.87 1.87-1.38 2.8l.01-.03Zm.58-6.13c-.62-1.29-.72-2.8-1.07-4.17v-.04c0-.02 0-.03-.02-.04-.76-1.89-3.23-1.2-4.81-1.68-1.1-.33-2.01-.93-3.16-1.15-1.22-.24-2.47-.4-3.65.06-1 .39-1.79 1.1-2.6 1.77-1.05.88-2.29 1.37-3.39 2.16-1.94 1.4-2.06 3.28-.89 5.24.81 1.36 1.59 2.56 1.69 4.2.07 1.19-.17 2.36.48 3.45.46.76 1.22 1.35 2.06 1.61 1.05.33 1.81.01 2.71-.51.95-.55 1.6-.64 2.53 0 .43.29.82.61 1.31.79.82.3 1.72.15 2.46-.3.28-.17.48-.38.82-.48.45-.13.98.02 1.44.1.56.09 1.12.17 1.68.06.91-.17 1.58-.78 2.06-1.55.39-.62.62-1.32.91-1.99.34-.77.8-1.35 1.32-2 .67-.83 1.05-1.79.54-2.81-.55-1.13-1.86-1.57-2.42-2.73v.01Zm.82 6.33c-.62.94-.85 2.08-1.45 3.03-.99 1.57-2.29 1.45-3.93 1.25-.7-.09-1.17 0-1.76.37-1.2.77-2.27.59-3.4-.18-.6-.41-1.15-.82-1.91-.71-.86.13-1.45.88-2.27 1.09-1.58.41-3.24-.95-3.6-2.41-.26-1.03 0-2.14-.17-3.19-.17-.99-.57-1.86-1.09-2.71-.67-1.09-1.6-2.29-1.29-3.65.49-2.19 3.43-2.93 4.97-4.24 1.09-.93 2.24-1.88 3.75-1.98 1.32-.08 2.82.27 4.04.78.79.33 1.37.66 2.23.74 1.21.12 3.15-.06 3.69 1.35.42 1.63.47 3.62 1.56 5 .63.8 1.73 1.21 2.08 2.23.49 1.4-.76 2.22-1.42 3.22l-.03.01Zm.29-6.8c-.68-1.47-.8-3.16-1.24-4.71v-.04s-.02-.03-.03-.04c-.87-2.05-4.04-1.2-5.71-1.99-2.33-1.11-5.01-2.3-7.54-.99-1.26.65-2.17 1.75-3.33 2.55-1.16.8-2.53 1.24-3.63 2.14-.85.7-1.51 1.65-1.55 2.77-.04 1.27.68 2.38 1.35 3.4.99 1.51 1.66 3.01 1.63 4.85-.02 1.28-.14 2.51.62 3.63.61.91 1.65 1.59 2.74 1.75 1.06.15 1.76-.37 2.64-.86 1.85-1.03 2.57.68 4.12 1.22.96.33 1.96.07 2.77-.5.38-.27.6-.49 1.07-.61.59-.16 1.13 0 1.71.09.59.09 1.2.17 1.79.06 1.02-.19 1.76-.93 2.28-1.79.45-.75.7-1.6 1.06-2.39.4-.88.99-1.52 1.61-2.25.68-.81 1.07-1.79.66-2.83-.58-1.48-2.36-1.98-3.03-3.45l.01-.01Zm1.04 7.34c-.72 1.05-.96 2.34-1.61 3.42-1.08 1.8-2.58 1.72-4.42 1.46-.75-.11-1.29-.07-1.94.35-.67.44-1.11.88-1.98.92-.96.04-1.64-.51-2.36-1.05-.57-.42-1.15-.8-1.89-.7-1.08.15-1.8 1.17-2.91 1.27-1.49.13-3.04-1.07-3.5-2.44-.42-1.27-.03-2.66-.23-3.96-.15-1.01-.52-1.94-1.03-2.81-.73-1.23-1.85-2.45-1.88-3.96-.06-2.96 3.66-3.69 5.5-5.16 1.13-.91 2.15-2.02 3.56-2.5 1.53-.51 3.36-.12 4.82.46 1.14.46 2.02 1.09 3.25 1.26 1.25.17 3.45 0 4.02 1.43.55 1.89.57 4.28 1.91 5.83.8.93 2.18 1.38 2.47 2.7.34 1.54-1.04 2.37-1.79 3.46l.01.02Zm1.88-5.71c-.86-.64-1.5-1.29-1.9-2.29-.66-1.63-.8-3.43-1.33-5.1 0-.01 0-.02-.02-.03-.47-1.08-1.61-1.26-2.67-1.42-.69-.1-1.39-.16-2.08-.28-.88-.16-1.53-.51-2.31-.94-2.46-1.38-5.46-2.06-7.94-.41-1.3.86-2.31 2.08-3.66 2.87-1.3.76-2.77 1.25-3.92 2.26-.96.84-1.65 1.96-1.57 3.27.08 1.47 1 2.67 1.78 3.85 1.18 1.77 1.72 3.53 1.62 5.67-.07 1.37-.07 2.66.8 3.81.68.9 1.74 1.58 2.86 1.74 1.51.22 2.27-.93 3.6-1.3 1.6-.45 2.61 1.51 4.03 1.9 1.22.33 2.27-.19 3.17-.97 1.54-1.33 3.34.01 5.11-.4 1.24-.29 2.07-1.35 2.61-2.44.43-.88.68-1.83 1.14-2.7.47-.89 1.21-1.51 1.83-2.28.84-1.04 1.04-2.4.24-3.53-.37-.52-.89-.89-1.39-1.26v-.02Zm-.54 6.25c-.81 1.16-1.06 2.59-1.77 3.8-.36.62-.83 1.23-1.47 1.59-1.1.62-2.31.26-3.46.08-.87-.13-1.55-.11-2.26.44-.72.55-1.26 1.12-2.24 1.2-1.13.08-1.87-.57-2.68-1.23-.61-.49-1.25-.93-2.07-.83-1.2.15-1.98 1.29-3.21 1.39-1.66.14-3.34-1.22-3.84-2.75-.47-1.42 0-2.98-.19-4.44-.18-1.31-.69-2.47-1.4-3.58-.93-1.45-2.29-3-1.91-4.86.6-2.94 4.31-3.52 6.33-5.14 1.26-1 2.36-2.27 3.9-2.83 1.76-.63 3.86-.15 5.49.63 1.25.6 2.15 1.26 3.54 1.47 1.33.21 3.6.07 4.25 1.49.65 2.07.68 4.66 2.07 6.42.78.99 2.15 1.43 2.76 2.56 1.1 2.02-.87 3.16-1.85 4.55l.01.04Zm3.87-3.51v.03-1.02 1-.01Zm0 1.49V18.3v1.07-.01ZM3.56 24.12c-.06 1.45.23 2.78 1.25 3.86.9.96 2.34 1.69 3.69 1.49 1.53-.23 2.65-2.01 4.29-1.31 1.35.58 2.05 2.01 3.61 2.19.63.07 1.25-.07 1.82-.34.76-.37 1.16-1.08 1.86-1.5 1.63-.98 3.81.61 5.61-.1 1.25-.49 2.03-1.74 2.53-2.91.44-1.03.75-2.13 1.34-3.09.56-.9 1.42-1.51 2.04-2.35.17-.22.3-.46.41-.71v-1.03c-.15 1.39-1.62 2.41-2.46 3.58-.86 1.19-1.15 2.64-1.8 3.93-.38.76-.89 1.52-1.61 2-1.03.69-2.21.52-3.35.32-1.1-.2-2.16-.46-3.11.29-.51.4-.86.92-1.45 1.23-1.29.69-2.56.35-3.64-.53-.68-.56-1.34-1.31-2.26-1.46-1.21-.19-2.07.77-3.08 1.23-1.77.82-3.88-.37-4.8-1.92-.99-1.67-.37-3.55-.5-5.36-.09-1.3-.49-2.56-1.13-3.7C1.96 16.41.63 15.1.19 13.37-.88 9.12 4.33 8.06 6.9 6.28c1.36-.94 2.41-2.27 3.85-3.11 1.89-1.1 4.19-.92 6.14-.06 1.48.65 2.65 1.71 4.25 2.05 1.45.3 4.25.11 5 1.63.79 2.33.78 5.29 2.41 7.24.9 1.08 2.41 1.53 3.11 2.79.21.37.32.72.35 1.05v-1c-.08-.17-.17-.34-.29-.5-.47-.66-1.16-1.08-1.81-1.55-.94-.67-1.58-1.43-2-2.51-.7-1.81-.87-3.79-1.5-5.63 0 0 0-.01-.01-.02v-.02c-.62-1.28-2.22-1.33-3.48-1.51-.78-.11-1.59-.2-2.35-.42-.96-.28-1.75-.92-2.61-1.4-2.85-1.57-5.93-1.67-8.53.41C7.96 4.9 6.71 6.15 4.99 6.99 3.44 7.74 1.83 8.42.72 9.78.39 10.19.15 10.6 0 11v2.6c.51 1.54 1.72 3.02 2.54 4.47 1.1 1.95 1.1 3.86 1.02 6.03v.02Zm28.43-8.82v-.28.29-.01ZM9.95 1.79c2.11-1.47 4.77-1.44 7.06-.37 1.6.75 2.87 1.99 4.6 2.41 1.54.38 4.83.17 5.63 1.77.93 2.59.89 5.9 2.71 8.09.55.67 1.32 1.11 2.03 1.61v-.29c-.29-.2-.59-.39-.88-.6-.96-.69-1.57-1.6-1.98-2.7-.74-2-.94-4.16-1.66-6.17V5.5c-.65-1.33-2.41-1.33-3.69-1.53-.92-.14-1.85-.26-2.74-.55-1.03-.34-1.86-1.06-2.78-1.61C16.6.83 14.69.21 12.75.43c-1.65.18-3 1.12-4.21 2.19-.74.65-1.43 1.35-2.21 1.94-.92.69-1.96 1.17-3 1.66C2.17 6.77.98 7.33 0 8.16v.35c1.57-1.31 3.88-2.16 5.48-3.1 1.67-.97 2.89-2.51 4.46-3.62h.01ZM21.7 29.5c1.71-.04 3.36.92 5.06.25 1.46-.57 2.31-2.05 2.88-3.43.54-1.32.92-2.74 1.84-3.87.16-.2.34-.38.52-.57v-.36c-.23.25-.46.5-.67.75-1.07 1.32-1.44 2.99-2.14 4.5-.96 2.1-2.57 3.25-4.92 2.87-1.27-.2-2.74-.77-3.92 0-.59.39-.97 1.02-1.54 1.45-1.02.75-2.33 1-3.48.4-1.19-.62-1.96-2.01-3.31-2.35-1.26-.31-2.21.59-3.23 1.14-2.04 1.1-4.39-.1-5.53-1.92-1.13-1.81-.47-3.9-.54-5.89-.06-1.52-.5-3.02-1.26-4.34-.42-.74-.95-1.44-1.46-2.15v.32c.48.72.98 1.44 1.36 2.15 1.21 2.2 1.08 4.34.99 6.75-.07 1.66.36 3.18 1.59 4.35 1.01.96 2.52 1.66 3.93 1.36.73-.15 1.33-.59 1.96-.97 1.34-.81 2.41-.7 3.58.32.82.71 1.6 1.47 2.61 1.73h1.46c.54-.12 1.06-.38 1.5-.7.92-.67 1.45-1.76 2.72-1.8v.01Zm10.29-5v-.01.01ZM21.9 30.73c2.07-.37 4.08 1.14 6.14.15 1.5-.72 2.35-2.31 2.93-3.79.34-.86.63-1.76 1.02-2.59v-.58c-.65 1.2-1.01 2.55-1.57 3.8-.4.89-.94 1.76-1.68 2.39-1.14.97-2.52.96-3.92.7-1.31-.24-2.81-.76-4.03.06-.45.3-.78.73-1.14 1.14h.4c.51-.57.98-1.12 1.86-1.27l-.01-.01ZM24.77 3.2c1.16.18 2.85.2 3.46 1.36 1.06 2.81 1.01 6.42 2.97 8.81.23.29.51.53.79.76v-.33c-.86-.75-1.37-1.76-1.74-2.82-.73-2.14-.97-4.4-1.77-6.52v-.03c-.77-1.49-2.95-1.38-4.39-1.62-1.05-.17-2.16-.36-3.12-.83-1.04-.51-1.93-1.32-2.94-1.91-.04-.02-.08-.05-.13-.07h-.6c1.54.82 2.83 2.07 4.52 2.6.96.3 1.97.44 2.96.6h-.01ZM2.29 29.58c-1.7-2.11-1.12-4.06-1.1-6.15 0-1.67-.4-3.32-1.18-4.8v.6c1.11 2.39.77 4.66.73 7.19-.03 1.79 1.1 3.45 2.47 4.63.44.38.96.71 1.51.94h1.54c-1.5-.11-2.94-1.12-3.97-2.42v.01Zm6.12 1.91c-.52.31-1.06.47-1.59.51h1.24c.57-.28 1.07-.68 1.63-.98 1.42-.77 2.52-.23 3.62.77l.22.21h.4c-.63-.61-1.23-1.25-2.06-1.53-1.32-.46-2.37.39-3.46 1.02ZM9.03.85c.4-.33.81-.61 1.24-.85h-.54c-.71.48-1.37 1.06-2 1.65-.84.78-1.66 1.59-2.62 2.2-1.01.64-2.11 1.1-3.2 1.59-.64.29-1.29.61-1.9.97v.31c1.39-.84 2.94-1.38 4.37-2.14 1.8-.96 3.1-2.45 4.65-3.73ZM31.99 28.9v-.65.65Zm0 0v-.63c-.11.27-.23.54-.36.81-.48.98-1.12 1.96-2.04 2.58-.18.12-.36.23-.54.33h.51c1.14-.7 1.89-1.88 2.44-3.09h-.01ZM0 27.67v1.39c.29 1.09.87 2.09 1.68 2.93h.31c-.4-.43-.74-.9-1-1.38-.5-.95-.81-1.94-1-2.94H0ZM25.47 1.98c1.25.2 3.17.15 3.86 1.4 1.08 2.73 1.13 6.21 2.66 8.78v-.6c-.16-.33-.3-.67-.42-1.02-.82-2.38-1.07-4.9-2.01-7.25v-.03c-.87-1.6-3.42-1.39-4.99-1.68-1.17-.22-2.4-.48-3.44-1.09-.25-.15-.49-.31-.73-.47h-.46c.74.51 1.5.98 2.36 1.27 1.03.35 2.11.54 3.18.71l-.01-.02ZM7.84 0h-.36c-.17.15-.33.31-.49.46C5.12 2.23 3.16 3.33.83 4.37c-.27.12-.55.25-.82.38v.28c1.13-.54 2.31-1 3.43-1.57 1.71-.88 3-2.19 4.4-3.46ZM5.69 0H5.4C3.75 1.4 1.94 2.26 0 3.14v.28c.6-.26 1.19-.52 1.78-.79C3.3 1.93 4.52 1.02 5.69 0ZM2.66 0h-.43C1.51.46.77.86 0 1.23v.33l.19-.08C1.1 1.06 1.91.56 2.66 0Zm27.81 2.22s0-.02-.01-.03C30 1.39 29.35 1.15 28.47 1 27.2.79 26.07.58 24.89.24L24.03 0h-.88c1.12.34 2.44.74 3.48.92 1.34.22 3.09.28 3.6 1.43.77 1.74 1.23 3.8 1.77 5.8V6.89c-.44-1.57-.88-3.13-1.52-4.67h-.01Zm1.52-.89C31.53.45 30.9.21 30.02.03c-.04 0-.08-.02-.12-.02h-1.03c1.18.21 2.46.46 2.88 1.4.19.43.22 1.16.23 1.19V1.33h.01ZM21.06 12.5v-.05c-.23-1.16-1.11-1.42-2.2-1.39-1.4.03-2.79-.17-4.19-.34-1.52-.18-2.6.02-3.82.99-1.06.84-2.82 1.76-2.71 3.35.04.63.37 1.2.65 1.76.51 1.05.57 1.95.77 3.06.22 1.18 1.24 2.18 2.49 2.2.66 0 1.11-.34 1.66-.63 1.05-.56 1.93.29 2.97.43.36.05.67 0 1.03-.02.45-.02.86.11 1.3.15.57.04 1.12-.08 1.58-.42.66-.48.98-1.23 1.32-1.95.32-.69.96-1.35 1.03-2.12.07-.74-.34-1.2-.79-1.72-.81-.94-.91-2.11-1.08-3.29l-.01-.01Zm1.31 5.61c-.18.36-.44.68-.63 1.04-.47.92-.8 2.08-1.91 2.43-.73.23-1.63-.08-2.4-.04-.94.05-1.59-.37-2.45-.62-.55-.16-.97-.04-1.47.22-.49.26-.89.6-1.49.58-.58-.01-1.17-.32-1.56-.73-.74-.77-.56-1.84-.78-2.8-.21-.87-.71-1.57-1.02-2.4-.53-1.42.34-2.25 1.4-3.03.64-.47 1.22-1.07 1.93-1.43 1-.51 1.89-.32 2.96-.23.79.07 1.52.15 2.3.3 1.22.24 3.11-.58 3.46 1.15.18 1.28.33 2.46 1.18 3.48.56.67.91 1.19.47 2.08h.01Zm-4.18-2.66s0-.02-.01-.03c.23-.8-.57-.91-1.38-.72-.47.11-.95.19-1.43.28-.73.14-1.43-.21-2.17-.02-1.37.35-1.06 2.12-.32 2.81.4.37.99.55 1.58.38.69-.2 1.17-.72 1.92-.23.22.14.32.42.63.48.51.1 1.09-.48 1.29-.78.47-.68-.18-1.46-.11-2.17Zm-.58 2.23c-.2.16-.37.52-.92.2-.14-.08-.3-.32-.44-.42-.34-.22-.74-.15-1.11-.01-.54.2-.94.5-1.58.22-.48-.21-.72-.47-.82-.88-.1-.37-.19-.79.11-1.1.44-.45 1.06-.43 1.67-.32.49.09.72.02 1.2-.07.33-.06.64-.11.97-.18.2-.05.42-.11.63-.1.5.01.58.49.58.5-.07.58.39 1.18.2 1.75-.08.23-.28.24-.48.4l-.01.01Zm-1.02-1.75s-.24-.37-.56-.3c-.19.04-.38.07-.57.11-.29.06-.57-.08-.87 0-.55.14-.43.85-.13 1.13.16.15.4.22.63.15.27-.08.47-.29.77-.09.09.06.13.17.25.19.2.04.44-.19.52-.32.18-.27-.07-.58-.04-.87Zm-.23.82c-.08.06-.15.21-.37.08-.06-.03-.12-.13-.18-.17-.14-.09-.3-.06-.45 0-.22.08-.38.2-.63.09-.19-.08-.31-.11-.33-.28 0-.06-.08-.16.04-.28.17-.18.42-.17.67-.12.2.04.29 0 .48-.03.13-.02.26-.04.39-.07.08-.02.17-.04.25-.04.2 0 .33.45.25.68-.03.09-.04.08-.12.15v-.01Z"/><path fill="url(#wondery__c)" d="M16 30.37c7.754 0 14.04-6.286 14.04-14.04S23.754 2.29 16 2.29 1.96 8.576 1.96 16.33 8.246 30.37 16 30.37Z"/><path fill="#fff" d="M6.63 14.12c-.15-.05-.36.01-.42.2l-.83 2.36-.83-2.36a.312.312 0 0 0-.59 0l-.83 2.36-.83-2.35a.316.316 0 0 0-.4-.19c-.16.06-.25.24-.19.4l1.13 3.22c.1.28.49.28.59 0l.83-2.37.83 2.36c.1.28.49.28.59 0l1.14-3.23a.312.312 0 0 0-.19-.4Zm2.65-.02a1.92 1.92 0 1 0 1.92 1.92c0-1.06-.87-1.92-1.92-1.92Zm0 3.22c-.71 0-1.29-.58-1.29-1.29 0-.71.56-1.29 1.29-1.29.72 0 1.29.57 1.29 1.29 0 .72-.58 1.29-1.29 1.29Zm5.67-3.21c-.17 0-.32.14-.32.32v2.28l-1.92-2.48c-.13-.16-.29-.13-.35-.1-.11.04-.22.14-.22.3v3.2c0 .17.14.32.32.32s.32-.14.32-.32v-2.28l1.91 2.46c.19.24.58.11.58-.2v-3.18c0-.17-.14-.32-.32-.32Zm2.62.01h-.81c-.18 0-.32.14-.32.32v3.2c0 .18.15.32.32.32h.81c1.06 0 1.91-.86 1.91-1.92s-.85-1.91-1.91-1.91v-.01Zm0 3.18h-.49v-2.55h.49c.69 0 1.28.56 1.28 1.28s-.57 1.28-1.28 1.28v-.01Zm5.05.01c.18 0 .32.15.32.32s-.14.32-.32.32h-1.94c-.17 0-.32-.14-.32-.32v-3.21c0-.13.1-.32.32-.32h1.94c.18 0 .32.15.32.32s-.14.32-.32.32H21v.96h1.16c.17 0 .32.14.32.32s-.14.32-.32.32H21v.97h1.62Zm3.95-2.09c0-.64-.55-1.11-1.2-1.11h-1.1c-.16 0-.31.13-.31.32v3.23c0 .17.14.31.31.31.18 0 .32-.15.32-.31v-1.32h.54l.71 1.45c.06.12.15.17.28.17.07 0 .24-.03.3-.21.03-.08.02-.16-.01-.24l-.61-1.24c.37-.13.77-.5.77-1.04v-.01Zm-1.17.49h-.81v-.97h.79c.22 0 .56.14.56.48 0 .31-.3.47-.54.48v.01Zm4.75-1.54c.13.1.16.3.05.44l-1.18 1.47v1.56c0 .17-.14.32-.32.32s-.32-.14-.32-.32v-1.56L27.2 14.6c-.14-.17-.04-.37.05-.44.13-.11.33-.09.44.05l1.01 1.25 1.01-1.25c.11-.14.31-.16.44-.05v.01Z"/></g></g></svg>