<svg xmlns="http://www.w3.org/2000/svg" width="32" height="32" fill="none" viewBox="0 0 32 32"><mask id="a" width="32" height="32" x="0" y="0" maskUnits="userSpaceOnUse" style="mask-type:alpha"><path fill="#000" d="M16 0c12.357 0 16 3.643 16 16s-3.643 16-16 16S0 28.357 0 16 3.643 0 16 0Z"/></mask><g mask="url(#a)"><path fill="#fff" d="M0 0h32v32H0z"/><path fill="#FF0100" d="M27.259 10.307a2.953 2.953 0 0 0-2.078-2.091C23.349 7.72 16 7.72 16 7.72s-7.349 0-9.182.495a2.954 2.954 0 0 0-2.076 2.091C4.25 12.152 4.25 16 4.25 16s0 3.848.492 5.693a2.953 2.953 0 0 0 2.077 2.091c1.832.495 9.181.495 9.181.495s7.349 0 9.182-.494a2.953 2.953 0 0 0 2.077-2.092c.491-1.845.491-5.693.491-5.693s0-3.848-.491-5.693Zm-13.663 9.187v-6.988L19.738 16l-6.142 3.494Z"/></g></svg>