<svg xmlns="http://www.w3.org/2000/svg" width="32" height="32" fill="none" viewBox="0 0 32 32">
  <path fill="#fff" d="M3.367 28.633C.913 26.18 0 22.18 0 16 0 9.82.913 5.82 3.367 3.367 5.82.913 9.82 0 16 0c6.18 0 10.18.913 12.633 3.367C31.087 5.82 32 9.82 32 16c0 6.18-.913 10.18-3.367 12.633C26.18 31.087 22.18 32 16 32c-6.18 0-10.18-.913-12.633-3.367Z"/>
  <path fill="#FF0100" d="M27.259 10.307a2.953 2.953 0 0 0-2.078-2.091C23.349 7.72 16 7.72 16 7.72s-7.349 0-9.182.495a2.954 2.954 0 0 0-2.076 2.091C4.25 12.152 4.25 16 4.25 16s0 3.848.492 5.693a2.953 2.953 0 0 0 2.077 2.091c1.832.495 9.181.495 9.181.495s7.349 0 9.182-.494a2.953 2.953 0 0 0 2.077-2.092c.491-1.845.491-5.693.491-5.693s0-3.848-.491-5.693Zm-13.663 9.187v-6.988L19.738 16l-6.142 3.494Z"/>
</svg>
