<svg xmlns="http://www.w3.org/2000/svg" viewBox="0 0 32 32"><defs><path id="youtube__a" fill="#fff" d="M0 0h32v32H0z"/></defs><defs><clipPath id="youtube__b"><use href="#youtube__a"/></clipPath><clipPath id="youtube__d"><path fill="#fff" d="M4.25 4.25h23.5v23.5H4.25z"/></clipPath></defs><g clip-path="url(#youtube__b)"><mask id="youtube__c" width="32" height="32" x="0" y="0" maskUnits="userSpaceOnUse" style="mask-type:alpha"><path d="M16 0c12.357 0 16 3.643 16 16s-3.643 16-16 16S0 28.357 0 16 3.643 0 16 0Z"/></mask><g mask="url(#youtube__c)"><use href="#youtube__a"/><g clip-path="url(#youtube__d)"><path fill="#FF0100" d="M27.259 10.307a2.953 2.953 0 0 0-2.078-2.091C23.349 7.72 16 7.72 16 7.72s-7.349 0-9.182.495a2.954 2.954 0 0 0-2.076 2.091C4.25 12.152 4.25 16 4.25 16s0 3.848.492 5.693a2.953 2.953 0 0 0 2.077 2.091c1.832.495 9.181.495 9.181.495s7.349 0 9.182-.494a2.953 2.953 0 0 0 2.077-2.092c.491-1.845.491-5.693.491-5.693s0-3.848-.491-5.693Z"/><path fill="#fff" d="M13.596 19.494v-6.987L19.738 16l-6.142 3.494Z"/></g></g></g></svg>