<svg width="32" height="32" viewBox="0 0 32 32" fill="none" xmlns="http://www.w3.org/2000/svg">
<g clip-path="url(#clip0_606_7808)">
<path d="M3.37 28.63C0.91 26.17 0 22.17 0 16C0 9.83 0.91 5.82 3.37 3.37C5.82 0.91 9.82 0 16 0C22.18 0 26.18 0.91 28.63 3.37C31.09 5.83 32 9.83 32 16C32 22.17 31.09 26.18 28.63 28.63C26.17 31.09 22.17 32 16 32C9.83 32 5.82 31.09 3.37 28.63Z" fill="white"/>
<path d="M16 27C22.08 27 27 22.08 27 16C27 9.92 22.08 5 16 5C9.92 5 5 9.92 5 16C5 22.08 9.92 27 16 27Z" fill="#FF0000"/>
<path d="M16 10.21C19.19 10.21 21.79 12.81 21.79 16C21.79 19.19 19.19 21.79 16 21.79C12.81 21.79 10.21 19.19 10.21 16C10.21 12.81 12.81 10.21 16 10.21ZM16 9.32001C12.31 9.32001 9.32001 12.31 9.32001 16C9.32001 19.69 12.31 22.68 16 22.68C19.69 22.68 22.68 19.69 22.68 16C22.68 12.31 19.69 9.32001 16 9.32001Z" fill="white"/>
<path d="M13.88 19.25L19.5 16L13.88 12.75V19.25Z" fill="white"/>
</g>
<defs>
<clipPath id="clip0_606_7808">
<rect width="32" height="32" fill="white"/>
</clipPath>
</defs>
</svg>
