<svg xmlns="http://www.w3.org/2000/svg" width="32" height="32" fill="none" viewBox="0 0 32 32"><mask id="a" width="32" height="32" x="0" y="0" maskUnits="userSpaceOnUse" style="mask-type:alpha"><path fill="#000" d="M16 0c12.357 0 16 3.643 16 16s-3.643 16-16 16S0 28.357 0 16 3.643 0 16 0Z"/></mask><g mask="url(#a)"><path fill="#fff" d="M0 0h32v32H0z"/><path fill="red" d="M16 27c6.08 0 11-4.92 11-11S22.08 5 16 5 5 9.92 5 16s4.92 11 11 11Z"/><path fill="#fff" d="M16 10.21A5.8 5.8 0 0 1 21.79 16 5.8 5.8 0 0 1 16 21.79 5.8 5.8 0 0 1 10.21 16 5.8 5.8 0 0 1 16 10.21Zm0-.89A6.68 6.68 0 0 0 9.32 16 6.68 6.68 0 0 0 16 22.68 6.68 6.68 0 0 0 22.68 16 6.68 6.68 0 0 0 16 9.32Z"/><path fill="#fff" d="M13.88 19.25 19.5 16l-5.62-3.25v6.5Z"/></g></svg>